# SM_EBS_FWL_SYS_001_Wall
# Author: Angelis Pseftis
# Frame: Unreal +X forward, +Y right, +Z up; centimeters; no axis conversion
# Kit: ebs-meshkit-v3
# Production ID EBS-FWL-SYS-001
# Revision ebs-fwl-sys-001-concept-v3
# LOD1
o SM_EBS_FWL_SYS_001_Wall
v 441.1264 88.9241 0.0
v 427.8051 139.5808 0.0
v 427.8051 139.5808 65.52
v 441.1264 88.9241 0.0
v 427.8051 139.5808 65.52
v 441.1264 88.9241 65.52
v 427.8051 139.5808 0.0
v 389.778 127.1736 0.0
v 389.778 127.1736 65.52
v 427.8051 139.5808 0.0
v 389.778 127.1736 65.52
v 427.8051 139.5808 65.52
v 389.778 127.1736 0.0
v 401.9152 81.0197 0.0
v 401.9152 81.0197 65.52
v 389.778 127.1736 0.0
v 401.9152 81.0197 65.52
v 389.778 127.1736 65.52
v 401.9152 81.0197 0.0
v 441.1264 88.9241 0.0
v 441.1264 88.9241 65.52
v 401.9152 81.0197 0.0
v 441.1264 88.9241 65.52
v 401.9152 81.0197 65.52
v 441.1264 88.9241 65.52
v 427.8051 139.5808 65.52
v 389.778 127.1736 65.52
v 441.1264 88.9241 65.52
v 389.778 127.1736 65.52
v 401.9152 81.0197 65.52
v 427.2167 141.3716 0.0
v 407.8951 190.0567 0.0
v 407.8951 190.0567 77.28
v 427.2167 141.3716 0.0
v 407.8951 190.0567 77.28
v 427.2167 141.3716 77.28
v 407.8951 190.0567 0.0
v 371.6378 173.1628 0.0
v 371.6378 173.1628 77.28
v 407.8951 190.0567 0.0
v 371.6378 173.1628 77.28
v 407.8951 190.0567 77.28
v 371.6378 173.1628 0.0
v 389.2418 128.8052 0.0
v 389.2418 128.8052 77.28
v 371.6378 173.1628 0.0
v 389.2418 128.8052 77.28
v 371.6378 173.1628 77.28
v 389.2418 128.8052 0.0
v 427.2167 141.3716 0.0
v 427.2167 141.3716 77.28
v 389.2418 128.8052 0.0
v 427.2167 141.3716 77.28
v 389.2418 128.8052 77.28
v 427.2167 141.3716 77.28
v 407.8951 190.0567 77.28
v 371.6378 173.1628 77.28
v 427.2167 141.3716 77.28
v 371.6378 173.1628 77.28
v 389.2418 128.8052 77.28
v 407.0955 191.7636 0.0
v 382.0547 237.7693 0.0
v 382.0547 237.7693 84.0
v 407.0955 191.7636 0.0
v 382.0547 237.7693 84.0
v 407.0955 191.7636 84.0
v 382.0547 237.7693 0.0
v 348.0943 216.6342 0.0
v 348.0943 216.6342 84.0
v 382.0547 237.7693 0.0
v 348.0943 216.6342 84.0
v 382.0547 237.7693 84.0
v 348.0943 216.6342 0.0
v 370.9092 174.718 0.0
v 370.9092 174.718 84.0
v 348.0943 216.6342 0.0
v 370.9092 174.718 84.0
v 348.0943 216.6342 84.0
v 370.9092 174.718 0.0
v 407.0955 191.7636 0.0
v 407.0955 191.7636 84.0
v 370.9092 174.718 0.0
v 407.0955 191.7636 84.0
v 370.9092 174.718 84.0
v 407.0955 191.7636 84.0
v 382.0547 237.7693 84.0
v 348.0943 216.6342 84.0
v 407.0955 191.7636 84.0
v 348.0943 216.6342 84.0
v 370.9092 174.718 84.0
v 381.0554 239.3675 0.0
v 350.6594 282.0248 0.0
v 350.6594 282.0248 90.72
v 381.0554 239.3675 0.0
v 350.6594 282.0248 90.72
v 381.0554 239.3675 90.72
v 350.6594 282.0248 0.0
v 319.4896 256.956 0.0
v 319.4896 256.956 90.72
v 350.6594 282.0248 0.0
v 319.4896 256.956 90.72
v 350.6594 282.0248 90.72
v 319.4896 256.956 0.0
v 347.1838 218.0904 0.0
v 347.1838 218.0904 90.72
v 319.4896 256.956 0.0
v 347.1838 218.0904 90.72
v 319.4896 256.956 90.72
v 347.1838 218.0904 0.0
v 381.0554 239.3675 0.0
v 381.0554 239.3675 90.72
v 347.1838 218.0904 0.0
v 381.0554 239.3675 90.72
v 347.1838 218.0904 90.72
v 381.0554 239.3675 90.72
v 350.6594 282.0248 90.72
v 319.4896 256.956 90.72
v 381.0554 239.3675 90.72
v 319.4896 256.956 90.72
v 347.1838 218.0904 90.72
v 271.6037 358.7916 0.0
v 228.0721 387.9216 0.0
v 228.0721 387.9216 80.64
v 271.6037 358.7916 0.0
v 228.0721 387.9216 80.64
v 271.6037 358.7916 80.64
v 228.0721 387.9216 0.0
v 207.799 353.4396 0.0
v 207.799 353.4396 80.64
v 228.0721 387.9216 0.0
v 207.799 353.4396 80.64
v 228.0721 387.9216 80.64
v 207.799 353.4396 0.0
v 247.4612 326.899 0.0
v 247.4612 326.899 80.64
v 207.799 353.4396 0.0
v 247.4612 326.899 80.64
v 207.799 353.4396 80.64
v 247.4612 326.899 0.0
v 271.6037 358.7916 0.0
v 271.6037 358.7916 80.64
v 247.4612 326.899 0.0
v 271.6037 358.7916 80.64
v 247.4612 326.899 80.64
v 271.6037 358.7916 80.64
v 228.0721 387.9216 80.64
v 207.799 353.4396 80.64
v 271.6037 358.7916 80.64
v 207.799 353.4396 80.64
v 247.4612 326.899 80.64
v 226.4451 388.8735 0.0
v 179.7238 412.5522 0.0
v 179.7238 412.5522 58.8
v 226.4451 388.8735 0.0
v 179.7238 412.5522 58.8
v 226.4451 388.8735 58.8
v 179.7238 412.5522 0.0
v 163.7484 375.8809 0.0
v 163.7484 375.8809 58.8
v 179.7238 412.5522 0.0
v 163.7484 375.8809 58.8
v 179.7238 412.5522 58.8
v 163.7484 375.8809 0.0
v 206.3167 354.307 0.0
v 206.3167 354.307 58.8
v 163.7484 375.8809 0.0
v 206.3167 354.307 58.8
v 163.7484 375.8809 58.8
v 206.3167 354.307 0.0
v 226.4451 388.8735 0.0
v 226.4451 388.8735 58.8
v 206.3167 354.307 0.0
v 226.4451 388.8735 58.8
v 206.3167 354.307 58.8
v 226.4451 388.8735 58.8
v 179.7238 412.5522 58.8
v 163.7484 375.8809 58.8
v 226.4451 388.8735 58.8
v 163.7484 375.8809 58.8
v 206.3167 354.307 58.8
v 177.9942 413.3014 0.0
v 128.7625 431.1847 0.0
v 128.7625 431.1847 65.52
v 177.9942 413.3014 0.0
v 128.7625 431.1847 65.52
v 177.9942 413.3014 65.52
v 128.7625 431.1847 0.0
v 117.317 392.8571 0.0
v 117.317 392.8571 65.52
v 128.7625 431.1847 0.0
v 117.317 392.8571 65.52
v 128.7625 431.1847 65.52
v 117.317 392.8571 0.0
v 162.1725 376.5635 0.0
v 162.1725 376.5635 65.52
v 117.317 392.8571 0.0
v 162.1725 376.5635 65.52
v 117.317 392.8571 65.52
v 162.1725 376.5635 0.0
v 177.9942 413.3014 0.0
v 177.9942 413.3014 65.52
v 162.1725 376.5635 0.0
v 177.9942 413.3014 65.52
v 162.1725 376.5635 65.52
v 177.9942 413.3014 65.52
v 128.7625 431.1847 65.52
v 117.317 392.8571 65.52
v 177.9942 413.3014 65.52
v 117.317 392.8571 65.52
v 162.1725 376.5635 65.52
v 126.9553 431.7202 0.0
v 75.9291 443.5479 0.0
v 75.9291 443.5479 77.28
v 126.9553 431.7202 0.0
v 75.9291 443.5479 77.28
v 126.9553 431.7202 77.28
v 75.9291 443.5479 0.0
v 69.1799 404.1214 0.0
v 69.1799 404.1214 77.28
v 75.9291 443.5479 0.0
v 69.1799 404.1214 77.28
v 75.9291 443.5479 77.28
v 69.1799 404.1214 0.0
v 115.6704 393.3451 0.0
v 115.6704 393.3451 77.28
v 69.1799 404.1214 0.0
v 115.6704 393.3451 77.28
v 69.1799 404.1214 77.28
v 115.6704 393.3451 0.0
v 126.9553 431.7202 0.0
v 126.9553 431.7202 77.28
v 115.6704 393.3451 0.0
v 126.9553 431.7202 77.28
v 115.6704 393.3451 77.28
v 126.9553 431.7202 77.28
v 75.9291 443.5479 77.28
v 69.1799 404.1214 77.28
v 126.9553 431.7202 77.28
v 69.1799 404.1214 77.28
v 115.6704 393.3451 77.28
v 350.879 284.9349 0.0
v 274.5061 359.0966 0.0
v 274.5061 359.0966 75.9
v 350.879 284.9349 0.0
v 274.5061 359.0966 75.9
v 350.879 284.9349 75.9
v 274.5061 359.0966 0.0
v 247.7843 324.1403 0.0
v 247.7843 324.1403 75.9
v 274.5061 359.0966 0.0
v 247.7843 324.1403 75.9
v 274.5061 359.0966 75.9
v 247.7843 324.1403 0.0
v 316.7227 257.1979 0.0
v 316.7227 257.1979 75.9
v 247.7843 324.1403 0.0
v 316.7227 257.1979 75.9
v 247.7843 324.1403 75.9
v 316.7227 257.1979 0.0
v 350.879 284.9349 0.0
v 350.879 284.9349 75.9
v 316.7227 257.1979 0.0
v 350.879 284.9349 75.9
v 316.7227 257.1979 75.9
v 350.879 284.9349 75.9
v 274.5061 359.0966 75.9
v 247.7843 324.1403 75.9
v 350.879 284.9349 75.9
v 247.7843 324.1403 75.9
v 316.7227 257.1979 75.9
v 341.6185 289.8289 75.9
v 277.5536 351.6646 75.9
v 277.5536 351.6646 106.0
v 341.6185 289.8289 75.9
v 277.5536 351.6646 106.0
v 341.6185 289.8289 106.0
v 277.5536 351.6646 75.9
v 255.2502 323.4058 75.9
v 255.2502 323.4058 106.0
v 277.5536 351.6646 75.9
v 255.2502 323.4058 106.0
v 277.5536 351.6646 106.0
v 255.2502 323.4058 75.9
v 314.167 266.5391 75.9
v 314.167 266.5391 106.0
v 255.2502 323.4058 75.9
v 314.167 266.5391 106.0
v 255.2502 323.4058 106.0
v 314.167 266.5391 75.9
v 341.6185 289.8289 75.9
v 341.6185 289.8289 106.0
v 314.167 266.5391 75.9
v 341.6185 289.8289 106.0
v 314.167 266.5391 106.0
v 341.6185 289.8289 106.0
v 277.5536 351.6646 106.0
v 255.2502 323.4058 106.0
v 341.6185 289.8289 106.0
v 255.2502 323.4058 106.0
v 314.167 266.5391 106.0
v 305.793 279.0818 106.0
v 266.1734 317.0926 106.0
v 286.7472 341.6022 106.0
v 305.793 279.0818 106.0
v 286.7472 341.6022 106.0
v 329.4292 300.6533 106.0
v 310.1503 302.1519 138.0
v 289.0432 322.402 138.0
v 266.1734 317.0926 106.0
v 310.1503 302.1519 138.0
v 266.1734 317.0926 106.0
v 305.793 279.0818 106.0
v 289.0432 322.402 138.0
v 310.1503 302.1519 138.0
v 329.4292 300.6533 106.0
v 289.0432 322.402 138.0
v 329.4292 300.6533 106.0
v 286.7472 341.6022 106.0
v 329.4292 300.6533 106.0
v 310.1503 302.1519 138.0
v 305.793 279.0818 106.0
v 289.0432 322.402 138.0
v 286.7472 341.6022 106.0
v 266.1734 317.0926 106.0
v -75.9291 443.5479 0.0
v -128.2229 431.3454 0.0
v -128.2229 431.3454 84.0
v -75.9291 443.5479 0.0
v -128.2229 431.3454 84.0
v -75.9291 443.5479 84.0
v -128.2229 431.3454 0.0
v -116.8253 393.0036 0.0
v -116.8253 393.0036 84.0
v -128.2229 431.3454 0.0
v -116.8253 393.0036 84.0
v -128.2229 431.3454 84.0
v -116.8253 393.0036 0.0
v -69.1799 404.1214 0.0
v -69.1799 404.1214 84.0
v -116.8253 393.0036 0.0
v -69.1799 404.1214 84.0
v -116.8253 393.0036 84.0
v -69.1799 404.1214 0.0
v -75.9291 443.5479 0.0
v -75.9291 443.5479 84.0
v -69.1799 404.1214 0.0
v -75.9291 443.5479 84.0
v -69.1799 404.1214 84.0
v -75.9291 443.5479 84.0
v -128.2229 431.3454 84.0
v -116.8253 393.0036 84.0
v -75.9291 443.5479 84.0
v -116.8253 393.0036 84.0
v -69.1799 404.1214 84.0
v -130.0286 430.8045 0.0
v -180.4193 412.2486 0.0
v -180.4193 412.2486 90.72
v -130.0286 430.8045 0.0
v -180.4193 412.2486 90.72
v -130.0286 430.8045 90.72
v -180.4193 412.2486 0.0
v -164.382 375.6042 0.0
v -164.382 375.6042 90.72
v -180.4193 412.2486 0.0
v -164.382 375.6042 90.72
v -180.4193 412.2486 90.72
v -164.382 375.6042 0.0
v -118.4705 392.5108 0.0
v -118.4705 392.5108 90.72
v -164.382 375.6042 0.0
v -118.4705 392.5108 90.72
v -164.382 375.6042 90.72
v -118.4705 392.5108 0.0
v -130.0286 430.8045 0.0
v -130.0286 430.8045 90.72
v -118.4705 392.5108 0.0
v -130.0286 430.8045 90.72
v -118.4705 392.5108 90.72
v -130.0286 430.8045 90.72
v -180.4193 412.2486 90.72
v -164.382 375.6042 90.72
v -130.0286 430.8045 90.72
v -164.382 375.6042 90.72
v -118.4705 392.5108 90.72
v -182.1445 411.4892 0.0
v -229.8633 386.8628 0.0
v -229.8633 386.8628 85.68
v -182.1445 411.4892 0.0
v -229.8633 386.8628 85.68
v -182.1445 411.4892 85.68
v -229.8633 386.8628 0.0
v -209.431 352.475 0.0
v -209.431 352.475 85.68
v -229.8633 386.8628 0.0
v -209.431 352.475 85.68
v -229.8633 386.8628 85.68
v -209.431 352.475 0.0
v -165.9539 374.9124 0.0
v -165.9539 374.9124 85.68
v -209.431 352.475 0.0
v -165.9539 374.9124 85.68
v -209.431 352.475 85.68
v -165.9539 374.9124 0.0
v -182.1445 411.4892 0.0
v -182.1445 411.4892 85.68
v -165.9539 374.9124 0.0
v -182.1445 411.4892 85.68
v -165.9539 374.9124 85.68
v -182.1445 411.4892 85.68
v -229.8633 386.8628 85.68
v -209.431 352.475 85.68
v -182.1445 411.4892 85.68
v -209.431 352.475 85.68
v -165.9539 374.9124 85.68
v -231.4818 385.8966 0.0
v -275.8008 355.5755 0.0
v -275.8008 355.5755 73.92
v -231.4818 385.8966 0.0
v -275.8008 355.5755 73.92
v -231.4818 385.8966 73.92
v -275.8008 355.5755 0.0
v -251.2852 323.9688 0.0
v -251.2852 323.9688 73.92
v -275.8008 355.5755 0.0
v -251.2852 323.9688 73.92
v -275.8008 355.5755 73.92
v -251.2852 323.9688 0.0
v -210.9056 351.5947 0.0
v -210.9056 351.5947 73.92
v -251.2852 323.9688 0.0
v -210.9056 351.5947 73.92
v -251.2852 323.9688 73.92
v -210.9056 351.5947 0.0
v -231.4818 385.8966 0.0
v -231.4818 385.8966 73.92
v -210.9056 351.5947 0.0
v -231.4818 385.8966 73.92
v -210.9056 351.5947 73.92
v -231.4818 385.8966 73.92
v -275.8008 355.5755 73.92
v -251.2852 323.9688 73.92
v -231.4818 385.8966 73.92
v -251.2852 323.9688 73.92
v -210.9056 351.5947 73.92
v -355.5755 275.8008 0.0
v -385.8966 231.4818 0.0
v -385.8966 231.4818 65.52
v -355.5755 275.8008 0.0
v -385.8966 231.4818 65.52
v -355.5755 275.8008 65.52
v -385.8966 231.4818 0.0
v -351.5947 210.9056 0.0
v -351.5947 210.9056 65.52
v -385.8966 231.4818 0.0
v -351.5947 210.9056 65.52
v -385.8966 231.4818 65.52
v -351.5947 210.9056 0.0
v -323.9688 251.2852 0.0
v -323.9688 251.2852 65.52
v -351.5947 210.9056 0.0
v -323.9688 251.2852 65.52
v -351.5947 210.9056 65.52
v -323.9688 251.2852 0.0
v -355.5755 275.8008 0.0
v -355.5755 275.8008 65.52
v -323.9688 251.2852 0.0
v -355.5755 275.8008 65.52
v -323.9688 251.2852 65.52
v -355.5755 275.8008 65.52
v -385.8966 231.4818 65.52
v -351.5947 210.9056 65.52
v -355.5755 275.8008 65.52
v -351.5947 210.9056 65.52
v -323.9688 251.2852 65.52
v -386.8628 229.8633 0.0
v -411.4892 182.1445 0.0
v -411.4892 182.1445 77.28
v -386.8628 229.8633 0.0
v -411.4892 182.1445 77.28
v -386.8628 229.8633 77.28
v -411.4892 182.1445 0.0
v -374.9124 165.9539 0.0
v -374.9124 165.9539 77.28
v -411.4892 182.1445 0.0
v -374.9124 165.9539 77.28
v -411.4892 182.1445 77.28
v -374.9124 165.9539 0.0
v -352.475 209.431 0.0
v -352.475 209.431 77.28
v -374.9124 165.9539 0.0
v -352.475 209.431 77.28
v -374.9124 165.9539 77.28
v -352.475 209.431 0.0
v -386.8628 229.8633 0.0
v -386.8628 229.8633 77.28
v -352.475 209.431 0.0
v -386.8628 229.8633 77.28
v -352.475 209.431 77.28
v -386.8628 229.8633 77.28
v -411.4892 182.1445 77.28
v -374.9124 165.9539 77.28
v -386.8628 229.8633 77.28
v -374.9124 165.9539 77.28
v -352.475 209.431 77.28
v -412.2486 180.4193 0.0
v -430.8045 130.0286 0.0
v -430.8045 130.0286 84.0
v -412.2486 180.4193 0.0
v -430.8045 130.0286 84.0
v -412.2486 180.4193 84.0
v -430.8045 130.0286 0.0
v -392.5108 118.4705 0.0
v -392.5108 118.4705 84.0
v -430.8045 130.0286 0.0
v -392.5108 118.4705 84.0
v -430.8045 130.0286 84.0
v -392.5108 118.4705 0.0
v -375.6042 164.382 0.0
v -375.6042 164.382 84.0
v -392.5108 118.4705 0.0
v -375.6042 164.382 84.0
v -392.5108 118.4705 84.0
v -375.6042 164.382 0.0
v -412.2486 180.4193 0.0
v -412.2486 180.4193 84.0
v -375.6042 164.382 0.0
v -412.2486 180.4193 84.0
v -375.6042 164.382 84.0
v -412.2486 180.4193 84.0
v -430.8045 130.0286 84.0
v -392.5108 118.4705 84.0
v -412.2486 180.4193 84.0
v -392.5108 118.4705 84.0
v -375.6042 164.382 84.0
v -431.3454 128.2229 0.0
v -443.5479 75.9291 0.0
v -443.5479 75.9291 90.72
v -431.3454 128.2229 0.0
v -443.5479 75.9291 90.72
v -431.3454 128.2229 90.72
v -443.5479 75.9291 0.0
v -404.1214 69.1799 0.0
v -404.1214 69.1799 90.72
v -443.5479 75.9291 0.0
v -404.1214 69.1799 90.72
v -443.5479 75.9291 90.72
v -404.1214 69.1799 0.0
v -393.0036 116.8253 0.0
v -393.0036 116.8253 90.72
v -404.1214 69.1799 0.0
v -393.0036 116.8253 90.72
v -404.1214 69.1799 90.72
v -393.0036 116.8253 0.0
v -431.3454 128.2229 0.0
v -431.3454 128.2229 90.72
v -393.0036 116.8253 0.0
v -431.3454 128.2229 90.72
v -393.0036 116.8253 90.72
v -431.3454 128.2229 90.72
v -443.5479 75.9291 90.72
v -404.1214 69.1799 90.72
v -431.3454 128.2229 90.72
v -404.1214 69.1799 90.72
v -393.0036 116.8253 90.72
v -278.7066 355.8464 0.0
v -355.8464 278.7066 0.0
v -355.8464 278.7066 68.2
v -278.7066 355.8464 0.0
v -355.8464 278.7066 68.2
v -278.7066 355.8464 68.2
v -355.8464 278.7066 0.0
v -321.2065 251.5758 0.0
v -321.2065 251.5758 68.2
v -355.8464 278.7066 0.0
v -321.2065 251.5758 68.2
v -355.8464 278.7066 68.2
v -321.2065 251.5758 0.0
v -251.5758 321.2065 0.0
v -251.5758 321.2065 68.2
v -321.2065 251.5758 0.0
v -251.5758 321.2065 68.2
v -321.2065 251.5758 68.2
v -251.5758 321.2065 0.0
v -278.7066 355.8464 0.0
v -278.7066 355.8464 68.2
v -251.5758 321.2065 0.0
v -278.7066 355.8464 68.2
v -251.5758 321.2065 68.2
v -278.7066 355.8464 68.2
v -355.8464 278.7066 68.2
v -321.2065 251.5758 68.2
v -278.7066 355.8464 68.2
v -321.2065 251.5758 68.2
v -251.5758 321.2065 68.2
v -283.9667 346.5068 68.2
v -348.2549 281.82 68.2
v -348.2549 281.82 92.0
v -283.9667 346.5068 68.2
v -348.2549 281.82 92.0
v -283.9667 346.5068 92.0
v -348.2549 281.82 68.2
v -320.2701 259.1738 68.2
v -320.2701 259.1738 92.0
v -348.2549 281.82 68.2
v -320.2701 259.1738 92.0
v -348.2549 281.82 92.0
v -320.2701 259.1738 68.2
v -261.1479 318.6625 68.2
v -261.1479 318.6625 92.0
v -320.2701 259.1738 68.2
v -261.1479 318.6625 92.0
v -320.2701 259.1738 92.0
v -261.1479 318.6625 68.2
v -283.9667 346.5068 68.2
v -283.9667 346.5068 92.0
v -261.1479 318.6625 68.2
v -283.9667 346.5068 92.0
v -261.1479 318.6625 92.0
v -283.9667 346.5068 92.0
v -348.2549 281.82 92.0
v -320.2701 259.1738 92.0
v -283.9667 346.5068 92.0
v -320.2701 259.1738 92.0
v -261.1479 318.6625 92.0
v -274.105 310.2619 92.0
v -313.6258 270.2496 92.0
v -337.8674 291.1384 92.0
v -274.105 310.2619 92.0
v -337.8674 291.1384 92.0
v -295.2918 334.2435 92.0
v -297.3514 314.7557 124.0
v -318.4065 293.4387 124.0
v -313.6258 270.2496 92.0
v -297.3514 314.7557 124.0
v -313.6258 270.2496 92.0
v -274.105 310.2619 92.0
v -318.4065 293.4387 124.0
v -297.3514 314.7557 124.0
v -295.2918 334.2435 92.0
v -318.4065 293.4387 124.0
v -295.2918 334.2435 92.0
v -337.8674 291.1384 92.0
v -295.2918 334.2435 92.0
v -297.3514 314.7557 124.0
v -274.105 310.2619 92.0
v -318.4065 293.4387 124.0
v -337.8674 291.1384 92.0
v -313.6258 270.2496 92.0
v -443.5479 -75.9291 0.0
v -431.3454 -128.2229 0.0
v -431.3454 -128.2229 85.68
v -443.5479 -75.9291 0.0
v -431.3454 -128.2229 85.68
v -443.5479 -75.9291 85.68
v -431.3454 -128.2229 0.0
v -393.0036 -116.8253 0.0
v -393.0036 -116.8253 85.68
v -431.3454 -128.2229 0.0
v -393.0036 -116.8253 85.68
v -431.3454 -128.2229 85.68
v -393.0036 -116.8253 0.0
v -404.1214 -69.1799 0.0
v -404.1214 -69.1799 85.68
v -393.0036 -116.8253 0.0
v -404.1214 -69.1799 85.68
v -393.0036 -116.8253 85.68
v -404.1214 -69.1799 0.0
v -443.5479 -75.9291 0.0
v -443.5479 -75.9291 85.68
v -404.1214 -69.1799 0.0
v -443.5479 -75.9291 85.68
v -404.1214 -69.1799 85.68
v -443.5479 -75.9291 85.68
v -431.3454 -128.2229 85.68
v -393.0036 -116.8253 85.68
v -443.5479 -75.9291 85.68
v -393.0036 -116.8253 85.68
v -404.1214 -69.1799 85.68
v -430.8045 -130.0286 0.0
v -412.2486 -180.4193 0.0
v -412.2486 -180.4193 73.92
v -430.8045 -130.0286 0.0
v -412.2486 -180.4193 73.92
v -430.8045 -130.0286 73.92
v -412.2486 -180.4193 0.0
v -375.6042 -164.382 0.0
v -375.6042 -164.382 73.92
v -412.2486 -180.4193 0.0
v -375.6042 -164.382 73.92
v -412.2486 -180.4193 73.92
v -375.6042 -164.382 0.0
v -392.5108 -118.4705 0.0
v -392.5108 -118.4705 73.92
v -375.6042 -164.382 0.0
v -392.5108 -118.4705 73.92
v -375.6042 -164.382 73.92
v -392.5108 -118.4705 0.0
v -430.8045 -130.0286 0.0
v -430.8045 -130.0286 73.92
v -392.5108 -118.4705 0.0
v -430.8045 -130.0286 73.92
v -392.5108 -118.4705 73.92
v -430.8045 -130.0286 73.92
v -412.2486 -180.4193 73.92
v -375.6042 -164.382 73.92
v -430.8045 -130.0286 73.92
v -375.6042 -164.382 73.92
v -392.5108 -118.4705 73.92
v -411.4892 -182.1445 0.0
v -386.8628 -229.8633 0.0
v -386.8628 -229.8633 80.64
v -411.4892 -182.1445 0.0
v -386.8628 -229.8633 80.64
v -411.4892 -182.1445 80.64
v -386.8628 -229.8633 0.0
v -352.475 -209.431 0.0
v -352.475 -209.431 80.64
v -386.8628 -229.8633 0.0
v -352.475 -209.431 80.64
v -386.8628 -229.8633 80.64
v -352.475 -209.431 0.0
v -374.9124 -165.9539 0.0
v -374.9124 -165.9539 80.64
v -352.475 -209.431 0.0
v -374.9124 -165.9539 80.64
v -352.475 -209.431 80.64
v -374.9124 -165.9539 0.0
v -411.4892 -182.1445 0.0
v -411.4892 -182.1445 80.64
v -374.9124 -165.9539 0.0
v -411.4892 -182.1445 80.64
v -374.9124 -165.9539 80.64
v -411.4892 -182.1445 80.64
v -386.8628 -229.8633 80.64
v -352.475 -209.431 80.64
v -411.4892 -182.1445 80.64
v -352.475 -209.431 80.64
v -374.9124 -165.9539 80.64
v -385.8966 -231.4818 0.0
v -355.5755 -275.8008 0.0
v -355.5755 -275.8008 58.8
v -385.8966 -231.4818 0.0
v -355.5755 -275.8008 58.8
v -385.8966 -231.4818 58.8
v -355.5755 -275.8008 0.0
v -323.9688 -251.2852 0.0
v -323.9688 -251.2852 58.8
v -355.5755 -275.8008 0.0
v -323.9688 -251.2852 58.8
v -355.5755 -275.8008 58.8
v -323.9688 -251.2852 0.0
v -351.5947 -210.9056 0.0
v -351.5947 -210.9056 58.8
v -323.9688 -251.2852 0.0
v -351.5947 -210.9056 58.8
v -323.9688 -251.2852 58.8
v -351.5947 -210.9056 0.0
v -385.8966 -231.4818 0.0
v -385.8966 -231.4818 58.8
v -351.5947 -210.9056 0.0
v -385.8966 -231.4818 58.8
v -351.5947 -210.9056 58.8
v -385.8966 -231.4818 58.8
v -355.5755 -275.8008 58.8
v -323.9688 -251.2852 58.8
v -385.8966 -231.4818 58.8
v -323.9688 -251.2852 58.8
v -351.5947 -210.9056 58.8
v -275.8008 -355.5755 0.0
v -231.4818 -385.8966 0.0
v -231.4818 -385.8966 84.0
v -275.8008 -355.5755 0.0
v -231.4818 -385.8966 84.0
v -275.8008 -355.5755 84.0
v -231.4818 -385.8966 0.0
v -210.9056 -351.5947 0.0
v -210.9056 -351.5947 84.0
v -231.4818 -385.8966 0.0
v -210.9056 -351.5947 84.0
v -231.4818 -385.8966 84.0
v -210.9056 -351.5947 0.0
v -251.2852 -323.9688 0.0
v -251.2852 -323.9688 84.0
v -210.9056 -351.5947 0.0
v -251.2852 -323.9688 84.0
v -210.9056 -351.5947 84.0
v -251.2852 -323.9688 0.0
v -275.8008 -355.5755 0.0
v -275.8008 -355.5755 84.0
v -251.2852 -323.9688 0.0
v -275.8008 -355.5755 84.0
v -251.2852 -323.9688 84.0
v -275.8008 -355.5755 84.0
v -231.4818 -385.8966 84.0
v -210.9056 -351.5947 84.0
v -275.8008 -355.5755 84.0
v -210.9056 -351.5947 84.0
v -251.2852 -323.9688 84.0
v -229.8633 -386.8628 0.0
v -182.1445 -411.4892 0.0
v -182.1445 -411.4892 90.72
v -229.8633 -386.8628 0.0
v -182.1445 -411.4892 90.72
v -229.8633 -386.8628 90.72
v -182.1445 -411.4892 0.0
v -165.9539 -374.9124 0.0
v -165.9539 -374.9124 90.72
v -182.1445 -411.4892 0.0
v -165.9539 -374.9124 90.72
v -182.1445 -411.4892 90.72
v -165.9539 -374.9124 0.0
v -209.431 -352.475 0.0
v -209.431 -352.475 90.72
v -165.9539 -374.9124 0.0
v -209.431 -352.475 90.72
v -165.9539 -374.9124 90.72
v -209.431 -352.475 0.0
v -229.8633 -386.8628 0.0
v -229.8633 -386.8628 90.72
v -209.431 -352.475 0.0
v -229.8633 -386.8628 90.72
v -209.431 -352.475 90.72
v -229.8633 -386.8628 90.72
v -182.1445 -411.4892 90.72
v -165.9539 -374.9124 90.72
v -229.8633 -386.8628 90.72
v -165.9539 -374.9124 90.72
v -209.431 -352.475 90.72
v -180.4193 -412.2486 0.0
v -130.0286 -430.8045 0.0
v -130.0286 -430.8045 85.68
v -180.4193 -412.2486 0.0
v -130.0286 -430.8045 85.68
v -180.4193 -412.2486 85.68
v -130.0286 -430.8045 0.0
v -118.4705 -392.5108 0.0
v -118.4705 -392.5108 85.68
v -130.0286 -430.8045 0.0
v -118.4705 -392.5108 85.68
v -130.0286 -430.8045 85.68
v -118.4705 -392.5108 0.0
v -164.382 -375.6042 0.0
v -164.382 -375.6042 85.68
v -118.4705 -392.5108 0.0
v -164.382 -375.6042 85.68
v -118.4705 -392.5108 85.68
v -164.382 -375.6042 0.0
v -180.4193 -412.2486 0.0
v -180.4193 -412.2486 85.68
v -164.382 -375.6042 0.0
v -180.4193 -412.2486 85.68
v -164.382 -375.6042 85.68
v -180.4193 -412.2486 85.68
v -130.0286 -430.8045 85.68
v -118.4705 -392.5108 85.68
v -180.4193 -412.2486 85.68
v -118.4705 -392.5108 85.68
v -164.382 -375.6042 85.68
v -128.2229 -431.3454 0.0
v -75.9291 -443.5479 0.0
v -75.9291 -443.5479 73.92
v -128.2229 -431.3454 0.0
v -75.9291 -443.5479 73.92
v -128.2229 -431.3454 73.92
v -75.9291 -443.5479 0.0
v -69.1799 -404.1214 0.0
v -69.1799 -404.1214 73.92
v -75.9291 -443.5479 0.0
v -69.1799 -404.1214 73.92
v -75.9291 -443.5479 73.92
v -69.1799 -404.1214 0.0
v -116.8253 -393.0036 0.0
v -116.8253 -393.0036 73.92
v -69.1799 -404.1214 0.0
v -116.8253 -393.0036 73.92
v -69.1799 -404.1214 73.92
v -116.8253 -393.0036 0.0
v -128.2229 -431.3454 0.0
v -128.2229 -431.3454 73.92
v -116.8253 -393.0036 0.0
v -128.2229 -431.3454 73.92
v -116.8253 -393.0036 73.92
v -128.2229 -431.3454 73.92
v -75.9291 -443.5479 73.92
v -69.1799 -404.1214 73.92
v -128.2229 -431.3454 73.92
v -69.1799 -404.1214 73.92
v -116.8253 -393.0036 73.92
v -355.8464 -278.7066 0.0
v -278.7066 -355.8464 0.0
v -278.7066 -355.8464 78.1
v -355.8464 -278.7066 0.0
v -278.7066 -355.8464 78.1
v -355.8464 -278.7066 78.1
v -278.7066 -355.8464 0.0
v -251.5758 -321.2065 0.0
v -251.5758 -321.2065 78.1
v -278.7066 -355.8464 0.0
v -251.5758 -321.2065 78.1
v -278.7066 -355.8464 78.1
v -251.5758 -321.2065 0.0
v -321.2065 -251.5758 0.0
v -321.2065 -251.5758 78.1
v -251.5758 -321.2065 0.0
v -321.2065 -251.5758 78.1
v -251.5758 -321.2065 78.1
v -321.2065 -251.5758 0.0
v -355.8464 -278.7066 0.0
v -355.8464 -278.7066 78.1
v -321.2065 -251.5758 0.0
v -355.8464 -278.7066 78.1
v -321.2065 -251.5758 78.1
v -355.8464 -278.7066 78.1
v -278.7066 -355.8464 78.1
v -251.5758 -321.2065 78.1
v -355.8464 -278.7066 78.1
v -251.5758 -321.2065 78.1
v -321.2065 -251.5758 78.1
v -346.5068 -283.9667 78.1
v -281.82 -348.2549 78.1
v -281.82 -348.2549 110.0
v -346.5068 -283.9667 78.1
v -281.82 -348.2549 110.0
v -346.5068 -283.9667 110.0
v -281.82 -348.2549 78.1
v -259.1738 -320.2701 78.1
v -259.1738 -320.2701 110.0
v -281.82 -348.2549 78.1
v -259.1738 -320.2701 110.0
v -281.82 -348.2549 110.0
v -259.1738 -320.2701 78.1
v -318.6625 -261.1479 78.1
v -318.6625 -261.1479 110.0
v -259.1738 -320.2701 78.1
v -318.6625 -261.1479 110.0
v -259.1738 -320.2701 110.0
v -318.6625 -261.1479 78.1
v -346.5068 -283.9667 78.1
v -346.5068 -283.9667 110.0
v -318.6625 -261.1479 78.1
v -346.5068 -283.9667 110.0
v -318.6625 -261.1479 110.0
v -346.5068 -283.9667 110.0
v -281.82 -348.2549 110.0
v -259.1738 -320.2701 110.0
v -346.5068 -283.9667 110.0
v -259.1738 -320.2701 110.0
v -318.6625 -261.1479 110.0
v -310.2619 -274.105 110.0
v -270.2496 -313.6258 110.0
v -291.1384 -337.8674 110.0
v -310.2619 -274.105 110.0
v -291.1384 -337.8674 110.0
v -334.2435 -295.2918 110.0
v -314.7557 -297.3514 142.0
v -293.4387 -318.4065 142.0
v -270.2496 -313.6258 110.0
v -314.7557 -297.3514 142.0
v -270.2496 -313.6258 110.0
v -310.2619 -274.105 110.0
v -293.4387 -318.4065 142.0
v -314.7557 -297.3514 142.0
v -334.2435 -295.2918 110.0
v -293.4387 -318.4065 142.0
v -334.2435 -295.2918 110.0
v -291.1384 -337.8674 110.0
v -334.2435 -295.2918 110.0
v -314.7557 -297.3514 142.0
v -310.2619 -274.105 110.0
v -293.4387 -318.4065 142.0
v -291.1384 -337.8674 110.0
v -270.2496 -313.6258 110.0
v 75.9291 -443.5479 0.0
v 126.9553 -431.7202 0.0
v 126.9553 -431.7202 80.64
v 75.9291 -443.5479 0.0
v 126.9553 -431.7202 80.64
v 75.9291 -443.5479 80.64
v 126.9553 -431.7202 0.0
v 115.6704 -393.3451 0.0
v 115.6704 -393.3451 80.64
v 126.9553 -431.7202 0.0
v 115.6704 -393.3451 80.64
v 126.9553 -431.7202 80.64
v 115.6704 -393.3451 0.0
v 69.1799 -404.1214 0.0
v 69.1799 -404.1214 80.64
v 115.6704 -393.3451 0.0
v 69.1799 -404.1214 80.64
v 115.6704 -393.3451 80.64
v 69.1799 -404.1214 0.0
v 75.9291 -443.5479 0.0
v 75.9291 -443.5479 80.64
v 69.1799 -404.1214 0.0
v 75.9291 -443.5479 80.64
v 69.1799 -404.1214 80.64
v 75.9291 -443.5479 80.64
v 126.9553 -431.7202 80.64
v 115.6704 -393.3451 80.64
v 75.9291 -443.5479 80.64
v 115.6704 -393.3451 80.64
v 69.1799 -404.1214 80.64
v 128.7625 -431.1847 0.0
v 177.9942 -413.3014 0.0
v 177.9942 -413.3014 58.8
v 128.7625 -431.1847 0.0
v 177.9942 -413.3014 58.8
v 128.7625 -431.1847 58.8
v 177.9942 -413.3014 0.0
v 162.1725 -376.5635 0.0
v 162.1725 -376.5635 58.8
v 177.9942 -413.3014 0.0
v 162.1725 -376.5635 58.8
v 177.9942 -413.3014 58.8
v 162.1725 -376.5635 0.0
v 117.317 -392.8571 0.0
v 117.317 -392.8571 58.8
v 162.1725 -376.5635 0.0
v 117.317 -392.8571 58.8
v 162.1725 -376.5635 58.8
v 117.317 -392.8571 0.0
v 128.7625 -431.1847 0.0
v 128.7625 -431.1847 58.8
v 117.317 -392.8571 0.0
v 128.7625 -431.1847 58.8
v 117.317 -392.8571 58.8
v 128.7625 -431.1847 58.8
v 177.9942 -413.3014 58.8
v 162.1725 -376.5635 58.8
v 128.7625 -431.1847 58.8
v 162.1725 -376.5635 58.8
v 117.317 -392.8571 58.8
v 179.7238 -412.5522 0.0
v 226.4451 -388.8735 0.0
v 226.4451 -388.8735 65.52
v 179.7238 -412.5522 0.0
v 226.4451 -388.8735 65.52
v 179.7238 -412.5522 65.52
v 226.4451 -388.8735 0.0
v 206.3167 -354.307 0.0
v 206.3167 -354.307 65.52
v 226.4451 -388.8735 0.0
v 206.3167 -354.307 65.52
v 226.4451 -388.8735 65.52
v 206.3167 -354.307 0.0
v 163.7484 -375.8809 0.0
v 163.7484 -375.8809 65.52
v 206.3167 -354.307 0.0
v 163.7484 -375.8809 65.52
v 206.3167 -354.307 65.52
v 163.7484 -375.8809 0.0
v 179.7238 -412.5522 0.0
v 179.7238 -412.5522 65.52
v 163.7484 -375.8809 0.0
v 179.7238 -412.5522 65.52
v 163.7484 -375.8809 65.52
v 179.7238 -412.5522 65.52
v 226.4451 -388.8735 65.52
v 206.3167 -354.307 65.52
v 179.7238 -412.5522 65.52
v 206.3167 -354.307 65.52
v 163.7484 -375.8809 65.52
v 228.0721 -387.9216 0.0
v 271.6037 -358.7916 0.0
v 271.6037 -358.7916 77.28
v 228.0721 -387.9216 0.0
v 271.6037 -358.7916 77.28
v 228.0721 -387.9216 77.28
v 271.6037 -358.7916 0.0
v 247.4612 -326.899 0.0
v 247.4612 -326.899 77.28
v 271.6037 -358.7916 0.0
v 247.4612 -326.899 77.28
v 271.6037 -358.7916 77.28
v 247.4612 -326.899 0.0
v 207.799 -353.4396 0.0
v 207.799 -353.4396 77.28
v 247.4612 -326.899 0.0
v 207.799 -353.4396 77.28
v 247.4612 -326.899 77.28
v 207.799 -353.4396 0.0
v 228.0721 -387.9216 0.0
v 228.0721 -387.9216 77.28
v 207.799 -353.4396 0.0
v 228.0721 -387.9216 77.28
v 207.799 -353.4396 77.28
v 228.0721 -387.9216 77.28
v 271.6037 -358.7916 77.28
v 247.4612 -326.899 77.28
v 228.0721 -387.9216 77.28
v 247.4612 -326.899 77.28
v 207.799 -353.4396 77.28
v 350.6594 -282.0248 0.0
v 381.0554 -239.3675 0.0
v 381.0554 -239.3675 85.68
v 350.6594 -282.0248 0.0
v 381.0554 -239.3675 85.68
v 350.6594 -282.0248 85.68
v 381.0554 -239.3675 0.0
v 347.1838 -218.0904 0.0
v 347.1838 -218.0904 85.68
v 381.0554 -239.3675 0.0
v 347.1838 -218.0904 85.68
v 381.0554 -239.3675 85.68
v 347.1838 -218.0904 0.0
v 319.4896 -256.956 0.0
v 319.4896 -256.956 85.68
v 347.1838 -218.0904 0.0
v 319.4896 -256.956 85.68
v 347.1838 -218.0904 85.68
v 319.4896 -256.956 0.0
v 350.6594 -282.0248 0.0
v 350.6594 -282.0248 85.68
v 319.4896 -256.956 0.0
v 350.6594 -282.0248 85.68
v 319.4896 -256.956 85.68
v 350.6594 -282.0248 85.68
v 381.0554 -239.3675 85.68
v 347.1838 -218.0904 85.68
v 350.6594 -282.0248 85.68
v 347.1838 -218.0904 85.68
v 319.4896 -256.956 85.68
v 382.0547 -237.7693 0.0
v 407.0955 -191.7636 0.0
v 407.0955 -191.7636 73.92
v 382.0547 -237.7693 0.0
v 407.0955 -191.7636 73.92
v 382.0547 -237.7693 73.92
v 407.0955 -191.7636 0.0
v 370.9092 -174.718 0.0
v 370.9092 -174.718 73.92
v 407.0955 -191.7636 0.0
v 370.9092 -174.718 73.92
v 407.0955 -191.7636 73.92
v 370.9092 -174.718 0.0
v 348.0943 -216.6342 0.0
v 348.0943 -216.6342 73.92
v 370.9092 -174.718 0.0
v 348.0943 -216.6342 73.92
v 370.9092 -174.718 73.92
v 348.0943 -216.6342 0.0
v 382.0547 -237.7693 0.0
v 382.0547 -237.7693 73.92
v 348.0943 -216.6342 0.0
v 382.0547 -237.7693 73.92
v 348.0943 -216.6342 73.92
v 382.0547 -237.7693 73.92
v 407.0955 -191.7636 73.92
v 370.9092 -174.718 73.92
v 382.0547 -237.7693 73.92
v 370.9092 -174.718 73.92
v 348.0943 -216.6342 73.92
v 407.8951 -190.0567 0.0
v 427.2167 -141.3716 0.0
v 427.2167 -141.3716 80.64
v 407.8951 -190.0567 0.0
v 427.2167 -141.3716 80.64
v 407.8951 -190.0567 80.64
v 427.2167 -141.3716 0.0
v 389.2418 -128.8052 0.0
v 389.2418 -128.8052 80.64
v 427.2167 -141.3716 0.0
v 389.2418 -128.8052 80.64
v 427.2167 -141.3716 80.64
v 389.2418 -128.8052 0.0
v 371.6378 -173.1628 0.0
v 371.6378 -173.1628 80.64
v 389.2418 -128.8052 0.0
v 371.6378 -173.1628 80.64
v 389.2418 -128.8052 80.64
v 371.6378 -173.1628 0.0
v 407.8951 -190.0567 0.0
v 407.8951 -190.0567 80.64
v 371.6378 -173.1628 0.0
v 407.8951 -190.0567 80.64
v 371.6378 -173.1628 80.64
v 407.8951 -190.0567 80.64
v 427.2167 -141.3716 80.64
v 389.2418 -128.8052 80.64
v 407.8951 -190.0567 80.64
v 389.2418 -128.8052 80.64
v 371.6378 -173.1628 80.64
v 427.8051 -139.5808 0.0
v 441.1264 -88.9241 0.0
v 441.1264 -88.9241 58.8
v 427.8051 -139.5808 0.0
v 441.1264 -88.9241 58.8
v 427.8051 -139.5808 58.8
v 441.1264 -88.9241 0.0
v 401.9152 -81.0197 0.0
v 401.9152 -81.0197 58.8
v 441.1264 -88.9241 0.0
v 401.9152 -81.0197 58.8
v 441.1264 -88.9241 58.8
v 401.9152 -81.0197 0.0
v 389.778 -127.1736 0.0
v 389.778 -127.1736 58.8
v 401.9152 -81.0197 0.0
v 389.778 -127.1736 58.8
v 401.9152 -81.0197 58.8
v 389.778 -127.1736 0.0
v 427.8051 -139.5808 0.0
v 427.8051 -139.5808 58.8
v 389.778 -127.1736 0.0
v 427.8051 -139.5808 58.8
v 389.778 -127.1736 58.8
v 427.8051 -139.5808 58.8
v 441.1264 -88.9241 58.8
v 401.9152 -81.0197 58.8
v 427.8051 -139.5808 58.8
v 401.9152 -81.0197 58.8
v 389.778 -127.1736 58.8
v 274.5061 -359.0966 0.0
v 350.879 -284.9349 0.0
v 350.879 -284.9349 107.25
v 274.5061 -359.0966 0.0
v 350.879 -284.9349 107.25
v 274.5061 -359.0966 107.25
v 350.879 -284.9349 0.0
v 316.7227 -257.1979 0.0
v 316.7227 -257.1979 107.25
v 350.879 -284.9349 0.0
v 316.7227 -257.1979 107.25
v 350.879 -284.9349 107.25
v 316.7227 -257.1979 0.0
v 247.7843 -324.1403 0.0
v 247.7843 -324.1403 107.25
v 316.7227 -257.1979 0.0
v 247.7843 -324.1403 107.25
v 316.7227 -257.1979 107.25
v 247.7843 -324.1403 0.0
v 274.5061 -359.0966 0.0
v 274.5061 -359.0966 107.25
v 247.7843 -324.1403 0.0
v 274.5061 -359.0966 107.25
v 247.7843 -324.1403 107.25
v 274.5061 -359.0966 107.25
v 350.879 -284.9349 107.25
v 316.7227 -257.1979 107.25
v 274.5061 -359.0966 107.25
v 316.7227 -257.1979 107.25
v 247.7843 -324.1403 107.25
v 279.67 -349.9838 107.25
v 343.3607 -287.7628 107.25
v 343.3607 -287.7628 137.0
v 279.67 -349.9838 107.25
v 343.3607 -287.7628 137.0
v 279.67 -349.9838 137.0
v 343.3607 -287.7628 107.25
v 315.7692 -264.639 107.25
v 315.7692 -264.639 137.0
v 343.3607 -287.7628 107.25
v 315.7692 -264.639 137.0
v 343.3607 -287.7628 137.0
v 315.7692 -264.639 107.25
v 257.1965 -321.8601 107.25
v 257.1965 -321.8601 137.0
v 315.7692 -264.639 107.25
v 257.1965 -321.8601 137.0
v 315.7692 -264.639 137.0
v 257.1965 -321.8601 107.25
v 279.67 -349.9838 107.25
v 279.67 -349.9838 137.0
v 257.1965 -321.8601 107.25
v 279.67 -349.9838 137.0
v 257.1965 -321.8601 137.0
v 279.67 -349.9838 137.0
v 343.3607 -287.7628 137.0
v 315.7692 -264.639 137.0
v 279.67 -349.9838 137.0
v 315.7692 -264.639 137.0
v 257.1965 -321.8601 137.0
v 269.9797 -313.8582 137.0
v 309.1379 -275.3721 137.0
v 333.0326 -296.6569 137.0
v 269.9797 -313.8582 137.0
v 333.0326 -296.6569 137.0
v 290.8477 -338.1177 137.0
v 296.738 -315.334 195.0
v 310.1503 -302.1519 195.0
v 309.1379 -275.3721 137.0
v 296.738 -315.334 195.0
v 309.1379 -275.3721 137.0
v 269.9797 -313.8582 137.0
v 310.1503 -302.1519 195.0
v 296.738 -315.334 195.0
v 290.8477 -338.1177 137.0
v 310.1503 -302.1519 195.0
v 290.8477 -338.1177 137.0
v 333.0326 -296.6569 137.0
v 290.8477 -338.1177 137.0
v 296.738 -315.334 195.0
v 269.9797 -313.8582 137.0
v 310.1503 -302.1519 195.0
v 333.0326 -296.6569 137.0
v 309.1379 -275.3721 137.0
vt 0.3474 1.0
vt 0.5452 1.0
vt 0.5452 1.2559
vt 0.3474 1.0
vt 0.5452 1.2559
vt 0.3474 1.2559
vt 1.6711 1.0
vt 1.5226 1.0
vt 1.5226 1.2559
vt 1.6711 1.0
vt 1.5226 1.2559
vt 1.6711 1.2559
vt 0.4968 1.0
vt 0.3165 1.0
vt 0.3165 1.2559
vt 0.4968 1.0
vt 0.3165 1.2559
vt 0.4968 1.2559
vt 1.57 1.0
vt 1.7232 1.0
vt 1.7232 1.2559
vt 1.57 1.0
vt 1.7232 1.2559
vt 1.57 1.2559
vt 1.7232 0.6526
vt 1.6711 0.4548
vt 1.5226 0.5032
vt 1.7232 0.6526
vt 1.5226 0.5032
vt 1.57 0.6835
vt 0.5522 1.0
vt 0.7424 1.0
vt 0.7424 1.3019
vt 0.5522 1.0
vt 0.7424 1.3019
vt 0.5522 1.3019
vt 1.5933 1.0
vt 1.4517 1.0
vt 1.4517 1.3019
vt 1.5933 1.0
vt 1.4517 1.3019
vt 1.5933 1.3019
vt 0.6764 1.0
vt 0.5031 1.0
vt 0.5031 1.3019
vt 0.6764 1.0
vt 0.5031 1.3019
vt 0.6764 1.3019
vt 1.5205 1.0
vt 1.6688 1.0
vt 1.6688 1.3019
vt 1.5205 1.0
vt 1.6688 1.3019
vt 1.5205 1.3019
vt 1.6688 0.4478
vt 1.5933 0.2576
vt 1.4517 0.3236
vt 1.6688 0.4478
vt 1.4517 0.3236
vt 1.5205 0.4969
vt 0.7491 1.0
vt 0.9288 1.0
vt 0.9288 1.3281
vt 0.7491 1.0
vt 0.9288 1.3281
vt 0.7491 1.3281
vt 1.4924 1.0
vt 1.3597 1.0
vt 1.3597 1.3281
vt 1.4924 1.0
vt 1.3597 1.3281
vt 1.4924 1.3281
vt 0.8462 1.0
vt 0.6825 1.0
vt 0.6825 1.3281
vt 0.8462 1.0
vt 0.6825 1.3281
vt 0.8462 1.3281
vt 1.4489 1.0
vt 1.5902 1.0
vt 1.5902 1.3281
vt 1.4489 1.0
vt 1.5902 1.3281
vt 1.4489 1.3281
vt 1.5902 0.2509
vt 1.4924 0.0712
vt 1.3597 0.1538
vt 1.5902 0.2509
vt 1.3597 0.1538
vt 1.4489 0.3175
vt 0.935 1.0
vt 1.1017 1.0
vt 1.1017 1.3544
vt 0.935 1.0
vt 1.1017 1.3544
vt 0.935 1.3544
vt 1.3698 1.0
vt 1.248 1.0
vt 1.248 1.3544
vt 1.3698 1.0
vt 1.248 1.3544
vt 1.3698 1.3544
vt 1.0037 1.0
vt 0.8519 1.0
vt 0.8519 1.3544
vt 1.0037 1.0
vt 0.8519 1.3544
vt 1.0037 1.3544
vt 1.3562 1.0
vt 1.4885 1.0
vt 1.4885 1.3544
vt 1.3562 1.0
vt 1.4885 1.3544
vt 1.3562 1.3544
vt 1.4885 0.065
vt 1.3698 -0.1017
vt 1.248 -0.0037
vt 1.4885 0.065
vt 1.248 -0.0037
vt 1.3562 0.1481
vt 1.061 1.0
vt 0.8909 1.0
vt 0.8909 1.315
vt 1.061 1.0
vt 0.8909 1.315
vt 1.061 1.315
vt 1.5153 1.0
vt 1.3806 1.0
vt 1.3806 1.315
vt 1.5153 1.0
vt 1.3806 1.315
vt 1.5153 1.315
vt 0.8117 1.0
vt 0.9666 1.0
vt 0.9666 1.315
vt 0.8117 1.0
vt 0.9666 1.315
vt 0.8117 1.315
vt 1.2769 1.0
vt 1.4015 1.0
vt 1.4015 1.315
vt 1.2769 1.0
vt 1.4015 1.315
vt 1.2769 1.315
vt 1.061 -0.4015
vt 0.8909 -0.5153
vt 0.8117 -0.3806
vt 1.061 -0.4015
vt 0.8117 -0.3806
vt 0.9666 -0.2769
vt 0.8846 1.0
vt 0.702 1.0
vt 0.702 1.2297
vt 0.8846 1.0
vt 0.702 1.2297
vt 0.8846 1.2297
vt 1.6115 1.0
vt 1.4683 1.0
vt 1.4683 1.2297
vt 1.6115 1.0
vt 1.4683 1.2297
vt 1.6115 1.2297
vt 0.6396 1.0
vt 0.8059 1.0
vt 0.8059 1.2297
vt 0.6396 1.0
vt 0.8059 1.2297
vt 0.6396 1.2297
vt 1.384 1.0
vt 1.519 1.0
vt 1.519 1.2297
vt 1.384 1.0
vt 1.519 1.2297
vt 1.384 1.2297
vt 0.8846 -0.519
vt 0.702 -0.6115
vt 0.6396 -0.4683
vt 0.8846 -0.519
vt 0.6396 -0.4683
vt 0.8059 -0.384
vt 0.6953 1.0
vt 0.503 1.0
vt 0.503 1.2559
vt 0.6953 1.0
vt 0.503 1.2559
vt 0.6953 1.2559
vt 1.6843 1.0
vt 1.5346 1.0
vt 1.5346 1.2559
vt 1.6843 1.0
vt 1.5346 1.2559
vt 1.6843 1.2559
vt 0.4583 1.0
vt 0.6335 1.0
vt 0.6335 1.2559
vt 0.4583 1.0
vt 0.6335 1.2559
vt 0.4583 1.2559
vt 1.471 1.0
vt 1.6145 1.0
vt 1.6145 1.2559
vt 1.471 1.0
vt 1.6145 1.2559
vt 1.471 1.2559
vt 0.6953 -0.6145
vt 0.503 -0.6843
vt 0.4583 -0.5346
vt 0.6953 -0.6145
vt 0.4583 -0.5346
vt 0.6335 -0.471
vt 0.4959 1.0
vt 0.2966 1.0
vt 0.2966 1.3019
vt 0.4959 1.0
vt 0.2966 1.3019
vt 0.4959 1.3019
vt 1.7326 1.0
vt 1.5786 1.0
vt 1.5786 1.3019
vt 1.7326 1.0
vt 1.5786 1.3019
vt 1.7326 1.3019
vt 0.2702 1.0
vt 0.4518 1.0
vt 0.4518 1.3019
vt 0.2702 1.0
vt 0.4518 1.3019
vt 0.2702 1.3019
vt 1.5365 1.0
vt 1.6864 1.0
vt 1.6864 1.3019
vt 1.5365 1.0
vt 1.6864 1.3019
vt 1.5365 1.3019
vt 0.4959 -0.6864
vt 0.2966 -0.7326
vt 0.2702 -0.5786
vt 0.4959 -0.6864
vt 0.2702 -0.5786
vt 0.4518 -0.5365
vt 1.3706 1.0
vt 1.0723 1.0
vt 1.0723 1.2965
vt 1.3706 1.0
vt 1.0723 1.2965
vt 1.3706 1.2965
vt 1.4027 1.0
vt 1.2662 1.0
vt 1.2662 1.2965
vt 1.4027 1.0
vt 1.2662 1.2965
vt 1.4027 1.2965
vt 0.9679 1.0
vt 1.2372 1.0
vt 1.2372 1.2965
vt 0.9679 1.0
vt 1.2372 1.2965
vt 0.9679 1.2965
vt 1.2372 1.0
vt 1.3706 1.0
vt 1.3706 1.2965
vt 1.2372 1.0
vt 1.3706 1.2965
vt 1.2372 1.2965
vt 1.3706 -0.113
vt 1.0723 -0.4027
vt 0.9679 -0.2662
vt 1.3706 -0.113
vt 0.9679 -0.2662
vt 1.2372 -0.0047
vt 1.3344 1.2965
vt 1.0842 1.2965
vt 1.0842 1.4141
vt 1.3344 1.2965
vt 1.0842 1.4141
vt 1.3344 1.4141
vt 1.3737 1.2965
vt 1.2633 1.2965
vt 1.2633 1.4141
vt 1.3737 1.2965
vt 1.2633 1.4141
vt 1.3737 1.4141
vt 0.9971 1.2965
vt 1.2272 1.2965
vt 1.2272 1.4141
vt 0.9971 1.2965
vt 1.2272 1.4141
vt 0.9971 1.4141
vt 1.2272 1.2965
vt 1.3344 1.2965
vt 1.3344 1.4141
vt 1.2272 1.2965
vt 1.3344 1.4141
vt 1.2272 1.4141
vt 1.3344 -0.1321
vt 1.0842 -0.3737
vt 0.9971 -0.2633
vt 1.3344 -0.1321
vt 0.9971 -0.2633
vt 1.2272 -0.0412
vt 1.1945 -0.0902
vt 1.0397 -0.2386
vt 1.1201 -0.3344
vt 1.1945 -0.0902
vt 1.1201 -0.3344
vt 1.2868 -0.1744
vt 1.2115 1.5391
vt 1.1291 1.5391
vt 1.0397 1.4141
vt 1.2115 1.5391
vt 1.0397 1.4141
vt 1.1945 1.4141
vt 1.1291 1.5391
vt 1.2115 1.5391
vt 1.2868 1.4141
vt 1.1291 1.5391
vt 1.2868 1.4141
vt 1.1201 1.4141
vt 1.2868 1.4141
vt 1.2115 1.5391
vt 1.1945 1.4141
vt 1.2594 1.5391
vt 1.3344 1.4141
vt 1.2386 1.4141
vt -0.2966 1.0
vt -0.5009 1.0
vt -0.5009 1.3281
vt -0.2966 1.0
vt -0.5009 1.3281
vt -0.2966 1.3281
vt 1.6849 1.0
vt 1.5352 1.0
vt 1.5352 1.3281
vt 1.6849 1.0
vt 1.5352 1.3281
vt 1.6849 1.3281
vt -0.4563 1.0
vt -0.2702 1.0
vt -0.2702 1.3281
vt -0.4563 1.0
vt -0.2702 1.3281
vt -0.4563 1.3281
vt 1.5786 1.0
vt 1.7326 1.0
vt 1.7326 1.3281
vt 1.5786 1.0
vt 1.7326 1.3281
vt 1.5786 1.3281
vt -0.2966 -0.7326
vt -0.5009 -0.6849
vt -0.4563 -0.5352
vt -0.2966 -0.7326
vt -0.4563 -0.5352
vt -0.2702 -0.5786
vt -0.5079 1.0
vt -0.7048 1.0
vt -0.7048 1.3544
vt -0.5079 1.0
vt -0.7048 1.3544
vt -0.5079 1.3544
vt 1.6103 1.0
vt 1.4672 1.0
vt 1.4672 1.3544
vt 1.6103 1.0
vt 1.4672 1.3544
vt 1.6103 1.3544
vt -0.6421 1.0
vt -0.4628 1.0
vt -0.4628 1.3544
vt -0.6421 1.0
vt -0.4628 1.3544
vt -0.6421 1.3544
vt 1.5332 1.0
vt 1.6828 1.0
vt 1.6828 1.3544
vt 1.5332 1.0
vt 1.6828 1.3544
vt 1.5332 1.3544
vt -0.5079 -0.6828
vt -0.7048 -0.6103
vt -0.6421 -0.4672
vt -0.5079 -0.6828
vt -0.6421 -0.4672
vt -0.4628 -0.5332
vt -0.7115 1.0
vt -0.8979 1.0
vt -0.8979 1.3347
vt -0.7115 1.0
vt -0.8979 1.3347
vt -0.7115 1.3347
vt 1.5112 1.0
vt 1.3769 1.0
vt 1.3769 1.3347
vt 1.5112 1.0
vt 1.3769 1.3347
vt 1.5112 1.3347
vt -0.8181 1.0
vt -0.6483 1.0
vt -0.6483 1.3347
vt -0.8181 1.0
vt -0.6483 1.3347
vt -0.8181 1.3347
vt 1.4645 1.0
vt 1.6074 1.0
vt 1.6074 1.3347
vt 1.4645 1.0
vt 1.6074 1.3347
vt 1.4645 1.3347
vt -0.7115 -0.6074
vt -0.8979 -0.5112
vt -0.8181 -0.3769
vt -0.7115 -0.6074
vt -0.8181 -0.3769
vt -0.6483 -0.4645
vt -0.9042 1.0
vt -1.0773 1.0
vt -1.0773 1.2888
vt -0.9042 1.0
vt -1.0773 1.2888
vt -0.9042 1.2888
vt 1.389 1.0
vt 1.2655 1.0
vt 1.2655 1.2888
vt 1.389 1.0
vt 1.2655 1.2888
vt 1.389 1.2888
vt -0.9816 1.0
vt -0.8239 1.0
vt -0.8239 1.2888
vt -0.9816 1.0
vt -0.8239 1.2888
vt -0.9816 1.2888
vt 1.3734 1.0
vt 1.5074 1.0
vt 1.5074 1.2888
vt 1.3734 1.0
vt 1.5074 1.2888
vt 1.3734 1.2888
vt -0.9042 -0.5074
vt -1.0773 -0.389
vt -0.9816 -0.2655
vt -0.9042 -0.5074
vt -0.9816 -0.2655
vt -0.8239 -0.3734
vt 1.0773 1.0
vt 0.9042 1.0
vt 0.9042 1.2559
vt 1.0773 1.0
vt 0.9042 1.2559
vt 1.0773 1.2559
vt -1.5074 1.0
vt -1.3734 1.0
vt -1.3734 1.2559
vt -1.5074 1.0
vt -1.3734 1.2559
vt -1.5074 1.2559
vt 0.8239 1.0
vt 0.9816 1.0
vt 0.9816 1.2559
vt 0.8239 1.0
vt 0.9816 1.2559
vt 0.8239 1.2559
vt -1.2655 1.0
vt -1.389 1.0
vt -1.389 1.2559
vt -1.2655 1.0
vt -1.389 1.2559
vt -1.2655 1.2559
vt -1.389 -0.0773
vt -1.5074 0.0958
vt -1.3734 0.1761
vt -1.389 -0.0773
vt -1.3734 0.1761
vt -1.2655 0.0184
vt 0.8979 1.0
vt 0.7115 1.0
vt 0.7115 1.3019
vt 0.8979 1.0
vt 0.7115 1.3019
vt 0.8979 1.3019
vt -1.6074 1.0
vt -1.4645 1.0
vt -1.4645 1.3019
vt -1.6074 1.0
vt -1.4645 1.3019
vt -1.6074 1.3019
vt 0.6483 1.0
vt 0.8181 1.0
vt 0.8181 1.3019
vt 0.6483 1.0
vt 0.8181 1.3019
vt 0.6483 1.3019
vt -1.3769 1.0
vt -1.5112 1.0
vt -1.5112 1.3019
vt -1.3769 1.0
vt -1.5112 1.3019
vt -1.3769 1.3019
vt -1.5112 0.1021
vt -1.6074 0.2885
vt -1.4645 0.3517
vt -1.5112 0.1021
vt -1.4645 0.3517
vt -1.3769 0.1819
vt 0.7048 1.0
vt 0.5079 1.0
vt 0.5079 1.3281
vt 0.7048 1.0
vt 0.5079 1.3281
vt 0.7048 1.3281
vt -1.6828 1.0
vt -1.5332 1.0
vt -1.5332 1.3281
vt -1.6828 1.0
vt -1.5332 1.3281
vt -1.6828 1.3281
vt 0.4628 1.0
vt 0.6421 1.0
vt 0.6421 1.3281
vt 0.4628 1.0
vt 0.6421 1.3281
vt 0.4628 1.3281
vt -1.4672 1.0
vt -1.6103 1.0
vt -1.6103 1.3281
vt -1.4672 1.0
vt -1.6103 1.3281
vt -1.4672 1.3281
vt -1.6103 0.2952
vt -1.6828 0.4921
vt -1.5332 0.5372
vt -1.6103 0.2952
vt -1.5332 0.5372
vt -1.4672 0.3579
vt 0.5009 1.0
vt 0.2966 1.0
vt 0.2966 1.3544
vt 0.5009 1.0
vt 0.2966 1.3544
vt 0.5009 1.3544
vt -1.7326 1.0
vt -1.5786 1.0
vt -1.5786 1.3544
vt -1.7326 1.0
vt -1.5786 1.3544
vt -1.7326 1.3544
vt 0.2702 1.0
vt 0.4563 1.0
vt 0.4563 1.3544
vt 0.2702 1.0
vt 0.4563 1.3544
vt 0.2702 1.3544
vt -1.5352 1.0
vt -1.6849 1.0
vt -1.6849 1.3544
vt -1.5352 1.0
vt -1.6849 1.3544
vt -1.5352 1.3544
vt -1.6849 0.4991
vt -1.7326 0.7034
vt -1.5786 0.7298
vt -1.6849 0.4991
vt -1.5786 0.7298
vt -1.5352 0.5437
vt 1.39 1.0
vt 1.0887 1.0
vt 1.0887 1.2664
vt 1.39 1.0
vt 1.0887 1.2664
vt 1.39 1.2664
vt -1.39 1.0
vt -1.2547 1.0
vt -1.2547 1.2664
vt -1.39 1.0
vt -1.2547 1.2664
vt -1.39 1.2664
vt 0.9827 1.0
vt 1.2547 1.0
vt 1.2547 1.2664
vt 0.9827 1.0
vt 1.2547 1.2664
vt 0.9827 1.2664
vt 1.2547 1.0
vt 1.39 1.0
vt 1.39 1.2664
vt 1.2547 1.0
vt 1.39 1.2664
vt 1.2547 1.2664
vt -1.0887 -0.39
vt -1.39 -0.0887
vt -1.2547 0.0173
vt -1.0887 -0.39
vt -1.2547 0.0173
vt -0.9827 -0.2547
vt 1.3535 1.2664
vt 1.1009 1.2664
vt 1.1009 1.3594
vt 1.3535 1.2664
vt 1.1009 1.3594
vt 1.3535 1.3594
vt -1.3604 1.2664
vt -1.2511 1.2664
vt -1.2511 1.3594
vt -1.3604 1.2664
vt -1.2511 1.3594
vt -1.3604 1.3594
vt 1.0124 1.2664
vt 1.2448 1.2664
vt 1.2448 1.3594
vt 1.0124 1.2664
vt 1.2448 1.3594
vt 1.0124 1.3594
vt 1.2448 1.2664
vt 1.3535 1.2664
vt 1.3535 1.3594
vt 1.2448 1.2664
vt 1.3535 1.3594
vt 1.2448 1.3594
vt -1.1092 -0.3535
vt -1.3604 -0.1009
vt -1.2511 -0.0124
vt -1.1092 -0.3535
vt -1.2511 -0.0124
vt -1.0201 -0.2448
vt -1.0707 -0.212
vt -1.2251 -0.0557
vt -1.3198 -0.1373
vt -1.0707 -0.212
vt -1.3198 -0.1373
vt -1.1535 -0.3056
vt 1.2295 1.4844
vt 1.1462 1.4844
vt 1.0557 1.3594
vt 1.2295 1.4844
vt 1.0557 1.3594
vt 1.212 1.3594
vt 1.1462 1.4844
vt 1.2295 1.4844
vt 1.3056 1.3594
vt 1.1462 1.4844
vt 1.3056 1.3594
vt 1.1373 1.3594
vt 1.3056 1.3594
vt 1.2295 1.4844
vt 1.212 1.3594
vt -1.2438 1.4844
vt -1.3198 1.3594
vt -1.2251 1.3594
vt -0.2966 1.0
vt -0.5009 1.0
vt -0.5009 1.3347
vt -0.2966 1.0
vt -0.5009 1.3347
vt -0.2966 1.3347
vt -1.6849 1.0
vt -1.5352 1.0
vt -1.5352 1.3347
vt -1.6849 1.0
vt -1.5352 1.3347
vt -1.6849 1.3347
vt -0.4563 1.0
vt -0.2702 1.0
vt -0.2702 1.3347
vt -0.4563 1.0
vt -0.2702 1.3347
vt -0.4563 1.3347
vt -1.5786 1.0
vt -1.7326 1.0
vt -1.7326 1.3347
vt -1.5786 1.0
vt -1.7326 1.3347
vt -1.5786 1.3347
vt -1.7326 1.2966
vt -1.6849 1.5009
vt -1.5352 1.4563
vt -1.7326 1.2966
vt -1.5352 1.4563
vt -1.5786 1.2702
vt -0.5079 1.0
vt -0.7048 1.0
vt -0.7048 1.2888
vt -0.5079 1.0
vt -0.7048 1.2888
vt -0.5079 1.2888
vt -1.6103 1.0
vt -1.4672 1.0
vt -1.4672 1.2888
vt -1.6103 1.0
vt -1.4672 1.2888
vt -1.6103 1.2888
vt -0.6421 1.0
vt -0.4628 1.0
vt -0.4628 1.2888
vt -0.6421 1.0
vt -0.4628 1.2888
vt -0.6421 1.2888
vt -1.5332 1.0
vt -1.6828 1.0
vt -1.6828 1.2888
vt -1.5332 1.0
vt -1.6828 1.2888
vt -1.5332 1.2888
vt -1.6828 1.5079
vt -1.6103 1.7048
vt -1.4672 1.6421
vt -1.6828 1.5079
vt -1.4672 1.6421
vt -1.5332 1.4628
vt -0.7115 1.0
vt -0.8979 1.0
vt -0.8979 1.315
vt -0.7115 1.0
vt -0.8979 1.315
vt -0.7115 1.315
vt -1.5112 1.0
vt -1.3769 1.0
vt -1.3769 1.315
vt -1.5112 1.0
vt -1.3769 1.315
vt -1.5112 1.315
vt -0.8181 1.0
vt -0.6483 1.0
vt -0.6483 1.315
vt -0.8181 1.0
vt -0.6483 1.315
vt -0.8181 1.315
vt -1.4645 1.0
vt -1.6074 1.0
vt -1.6074 1.315
vt -1.4645 1.0
vt -1.6074 1.315
vt -1.4645 1.315
vt -1.6074 1.7115
vt -1.5112 1.8979
vt -1.3769 1.8181
vt -1.6074 1.7115
vt -1.3769 1.8181
vt -1.4645 1.6483
vt -0.9042 1.0
vt -1.0773 1.0
vt -1.0773 1.2297
vt -0.9042 1.0
vt -1.0773 1.2297
vt -0.9042 1.2297
vt -1.389 1.0
vt -1.2655 1.0
vt -1.2655 1.2297
vt -1.389 1.0
vt -1.2655 1.2297
vt -1.389 1.2297
vt -0.9816 1.0
vt -0.8239 1.0
vt -0.8239 1.2297
vt -0.9816 1.0
vt -0.8239 1.2297
vt -0.9816 1.2297
vt -1.3734 1.0
vt -1.5074 1.0
vt -1.5074 1.2297
vt -1.3734 1.0
vt -1.5074 1.2297
vt -1.3734 1.2297
vt -1.5074 1.9042
vt -1.389 2.0773
vt -1.2655 1.9816
vt -1.5074 1.9042
vt -1.2655 1.9816
vt -1.3734 1.8239
vt -1.0773 1.0
vt -0.9042 1.0
vt -0.9042 1.3281
vt -1.0773 1.0
vt -0.9042 1.3281
vt -1.0773 1.3281
vt -1.5074 1.0
vt -1.3734 1.0
vt -1.3734 1.3281
vt -1.5074 1.0
vt -1.3734 1.3281
vt -1.5074 1.3281
vt -0.8239 1.0
vt -0.9816 1.0
vt -0.9816 1.3281
vt -0.8239 1.0
vt -0.9816 1.3281
vt -0.8239 1.3281
vt -1.2655 1.0
vt -1.389 1.0
vt -1.389 1.3281
vt -1.2655 1.0
vt -1.389 1.3281
vt -1.2655 1.3281
vt -1.0773 2.389
vt -0.9042 2.5074
vt -0.8239 2.3734
vt -1.0773 2.389
vt -0.8239 2.3734
vt -0.9816 2.2655
vt -0.8979 1.0
vt -0.7115 1.0
vt -0.7115 1.3544
vt -0.8979 1.0
vt -0.7115 1.3544
vt -0.8979 1.3544
vt -1.6074 1.0
vt -1.4645 1.0
vt -1.4645 1.3544
vt -1.6074 1.0
vt -1.4645 1.3544
vt -1.6074 1.3544
vt -0.6483 1.0
vt -0.8181 1.0
vt -0.8181 1.3544
vt -0.6483 1.0
vt -0.8181 1.3544
vt -0.6483 1.3544
vt -1.3769 1.0
vt -1.5112 1.0
vt -1.5112 1.3544
vt -1.3769 1.0
vt -1.5112 1.3544
vt -1.3769 1.3544
vt -0.8979 2.5112
vt -0.7115 2.6074
vt -0.6483 2.4645
vt -0.8979 2.5112
vt -0.6483 2.4645
vt -0.8181 2.3769
vt -0.7048 1.0
vt -0.5079 1.0
vt -0.5079 1.3347
vt -0.7048 1.0
vt -0.5079 1.3347
vt -0.7048 1.3347
vt -1.6828 1.0
vt -1.5332 1.0
vt -1.5332 1.3347
vt -1.6828 1.0
vt -1.5332 1.3347
vt -1.6828 1.3347
vt -0.4628 1.0
vt -0.6421 1.0
vt -0.6421 1.3347
vt -0.4628 1.0
vt -0.6421 1.3347
vt -0.4628 1.3347
vt -1.4672 1.0
vt -1.6103 1.0
vt -1.6103 1.3347
vt -1.4672 1.0
vt -1.6103 1.3347
vt -1.4672 1.3347
vt -0.7048 2.6103
vt -0.5079 2.6828
vt -0.4628 2.5332
vt -0.7048 2.6103
vt -0.4628 2.5332
vt -0.6421 2.4672
vt -0.5009 1.0
vt -0.2966 1.0
vt -0.2966 1.2888
vt -0.5009 1.0
vt -0.2966 1.2888
vt -0.5009 1.2888
vt -1.7326 1.0
vt -1.5786 1.0
vt -1.5786 1.2888
vt -1.7326 1.0
vt -1.5786 1.2888
vt -1.7326 1.2888
vt -0.2702 1.0
vt -0.4563 1.0
vt -0.4563 1.2888
vt -0.2702 1.0
vt -0.4563 1.2888
vt -0.2702 1.2888
vt -1.5352 1.0
vt -1.6849 1.0
vt -1.6849 1.2888
vt -1.5352 1.0
vt -1.6849 1.2888
vt -1.5352 1.2888
vt -0.5009 2.6849
vt -0.2966 2.7326
vt -0.2702 2.5786
vt -0.5009 2.6849
vt -0.2702 2.5786
vt -0.4563 2.5352
vt -1.0887 1.0
vt -1.39 1.0
vt -1.39 1.3051
vt -1.0887 1.0
vt -1.39 1.3051
vt -1.0887 1.3051
vt -1.39 1.0
vt -1.2547 1.0
vt -1.2547 1.3051
vt -1.39 1.0
vt -1.2547 1.3051
vt -1.39 1.3051
vt -1.2547 1.0
vt -0.9827 1.0
vt -0.9827 1.3051
vt -1.2547 1.0
vt -0.9827 1.3051
vt -1.2547 1.3051
vt -1.2547 1.0
vt -1.39 1.0
vt -1.39 1.3051
vt -1.2547 1.0
vt -1.39 1.3051
vt -1.2547 1.3051
vt -1.39 2.0887
vt -1.0887 2.39
vt -0.9827 2.2547
vt -1.39 2.0887
vt -0.9827 2.2547
vt -1.2547 1.9827
vt -1.3535 1.3051
vt -1.1009 1.3051
vt -1.1009 1.4297
vt -1.3535 1.3051
vt -1.1009 1.4297
vt -1.3535 1.4297
vt -1.3604 1.3051
vt -1.2511 1.3051
vt -1.2511 1.4297
vt -1.3604 1.3051
vt -1.2511 1.4297
vt -1.3604 1.4297
vt -1.0124 1.3051
vt -1.2448 1.3051
vt -1.2448 1.4297
vt -1.0124 1.3051
vt -1.2448 1.4297
vt -1.0124 1.4297
vt -1.2448 1.3051
vt -1.3535 1.3051
vt -1.3535 1.4297
vt -1.2448 1.3051
vt -1.3535 1.4297
vt -1.2448 1.4297
vt -1.3535 2.1092
vt -1.1009 2.3604
vt -1.0124 2.2511
vt -1.3535 2.1092
vt -1.0124 2.2511
vt -1.2448 2.0201
vt -1.212 2.0707
vt -1.0557 2.2251
vt -1.1373 2.3198
vt -1.212 2.0707
vt -1.1373 2.3198
vt -1.3056 2.1535
vt -1.2295 1.5547
vt -1.1462 1.5547
vt -1.0557 1.4297
vt -1.2295 1.5547
vt -1.0557 1.4297
vt -1.212 1.4297
vt -1.1462 1.5547
vt -1.2295 1.5547
vt -1.3056 1.4297
vt -1.1462 1.5547
vt -1.3056 1.4297
vt -1.1373 1.4297
vt -1.3056 1.4297
vt -1.2295 1.5547
vt -1.212 1.4297
vt -1.2438 1.5547
vt -1.3198 1.4297
vt -1.2251 1.4297
vt 0.2966 1.0
vt 0.4959 1.0
vt 0.4959 1.315
vt 0.2966 1.0
vt 0.4959 1.315
vt 0.2966 1.315
vt -1.6864 1.0
vt -1.5365 1.0
vt -1.5365 1.315
vt -1.6864 1.0
vt -1.5365 1.315
vt -1.6864 1.315
vt 0.4518 1.0
vt 0.2702 1.0
vt 0.2702 1.315
vt 0.4518 1.0
vt 0.2702 1.315
vt 0.4518 1.315
vt -1.5786 1.0
vt -1.7326 1.0
vt -1.7326 1.315
vt -1.5786 1.0
vt -1.7326 1.315
vt -1.5786 1.315
vt 0.2966 2.7326
vt 0.4959 2.6864
vt 0.4518 2.5365
vt 0.2966 2.7326
vt 0.4518 2.5365
vt 0.2702 2.5786
vt 0.503 1.0
vt 0.6953 1.0
vt 0.6953 1.2297
vt 0.503 1.0
vt 0.6953 1.2297
vt 0.503 1.2297
vt -1.6145 1.0
vt -1.471 1.0
vt -1.471 1.2297
vt -1.6145 1.0
vt -1.471 1.2297
vt -1.6145 1.2297
vt 0.6335 1.0
vt 0.4583 1.0
vt 0.4583 1.2297
vt 0.6335 1.0
vt 0.4583 1.2297
vt 0.6335 1.2297
vt -1.5346 1.0
vt -1.6843 1.0
vt -1.6843 1.2297
vt -1.5346 1.0
vt -1.6843 1.2297
vt -1.5346 1.2297
vt 0.503 2.6843
vt 0.6953 2.6145
vt 0.6335 2.471
vt 0.503 2.6843
vt 0.6335 2.471
vt 0.4583 2.5346
vt 0.702 1.0
vt 0.8846 1.0
vt 0.8846 1.2559
vt 0.702 1.0
vt 0.8846 1.2559
vt 0.702 1.2559
vt -1.519 1.0
vt -1.384 1.0
vt -1.384 1.2559
vt -1.519 1.0
vt -1.384 1.2559
vt -1.519 1.2559
vt 0.8059 1.0
vt 0.6396 1.0
vt 0.6396 1.2559
vt 0.8059 1.0
vt 0.6396 1.2559
vt 0.8059 1.2559
vt -1.4683 1.0
vt -1.6115 1.0
vt -1.6115 1.2559
vt -1.4683 1.0
vt -1.6115 1.2559
vt -1.4683 1.2559
vt 0.702 2.6115
vt 0.8846 2.519
vt 0.8059 2.384
vt 0.702 2.6115
vt 0.8059 2.384
vt 0.6396 2.4683
vt 0.8909 1.0
vt 1.061 1.0
vt 1.061 1.3019
vt 0.8909 1.0
vt 1.061 1.3019
vt 0.8909 1.3019
vt -1.4015 1.0
vt -1.2769 1.0
vt -1.2769 1.3019
vt -1.4015 1.0
vt -1.2769 1.3019
vt -1.4015 1.3019
vt 0.9666 1.0
vt 0.8117 1.0
vt 0.8117 1.3019
vt 0.9666 1.0
vt 0.8117 1.3019
vt 0.9666 1.3019
vt -1.3806 1.0
vt -1.5153 1.0
vt -1.5153 1.3019
vt -1.3806 1.0
vt -1.5153 1.3019
vt -1.3806 1.3019
vt 0.8909 2.5153
vt 1.061 2.4015
vt 0.9666 2.2769
vt 0.8909 2.5153
vt 0.9666 2.2769
vt 0.8117 2.3806
vt -1.1017 1.0
vt -0.935 1.0
vt -0.935 1.3347
vt -1.1017 1.0
vt -0.935 1.3347
vt -1.1017 1.3347
vt 1.4885 1.0
vt 1.3562 1.0
vt 1.3562 1.3347
vt 1.4885 1.0
vt 1.3562 1.3347
vt 1.4885 1.3347
vt -0.8519 1.0
vt -1.0037 1.0
vt -1.0037 1.3347
vt -0.8519 1.0
vt -1.0037 1.3347
vt -0.8519 1.3347
vt 1.248 1.0
vt 1.3698 1.0
vt 1.3698 1.3347
vt 1.248 1.0
vt 1.3698 1.3347
vt 1.248 1.3347
vt 1.3698 2.1017
vt 1.4885 1.935
vt 1.3562 1.8519
vt 1.3698 2.1017
vt 1.3562 1.8519
vt 1.248 2.0037
vt -0.9288 1.0
vt -0.7491 1.0
vt -0.7491 1.2888
vt -0.9288 1.0
vt -0.7491 1.2888
vt -0.9288 1.2888
vt 1.5902 1.0
vt 1.4489 1.0
vt 1.4489 1.2888
vt 1.5902 1.0
vt 1.4489 1.2888
vt 1.5902 1.2888
vt -0.6825 1.0
vt -0.8462 1.0
vt -0.8462 1.2888
vt -0.6825 1.0
vt -0.8462 1.2888
vt -0.6825 1.2888
vt 1.3597 1.0
vt 1.4924 1.0
vt 1.4924 1.2888
vt 1.3597 1.0
vt 1.4924 1.2888
vt 1.3597 1.2888
vt 1.4924 1.9288
vt 1.5902 1.7491
vt 1.4489 1.6825
vt 1.4924 1.9288
vt 1.4489 1.6825
vt 1.3597 1.8462
vt -0.7424 1.0
vt -0.5522 1.0
vt -0.5522 1.315
vt -0.7424 1.0
vt -0.5522 1.315
vt -0.7424 1.315
vt 1.6688 1.0
vt 1.5205 1.0
vt 1.5205 1.315
vt 1.6688 1.0
vt 1.5205 1.315
vt 1.6688 1.315
vt -0.5031 1.0
vt -0.6764 1.0
vt -0.6764 1.315
vt -0.5031 1.0
vt -0.6764 1.315
vt -0.5031 1.315
vt 1.4517 1.0
vt 1.5933 1.0
vt 1.5933 1.315
vt 1.4517 1.0
vt 1.5933 1.315
vt 1.4517 1.315
vt 1.5933 1.7424
vt 1.6688 1.5522
vt 1.5205 1.5031
vt 1.5933 1.7424
vt 1.5205 1.5031
vt 1.4517 1.6764
vt -0.5452 1.0
vt -0.3474 1.0
vt -0.3474 1.2297
vt -0.5452 1.0
vt -0.3474 1.2297
vt -0.5452 1.2297
vt 1.7232 1.0
vt 1.57 1.0
vt 1.57 1.2297
vt 1.7232 1.0
vt 1.57 1.2297
vt 1.7232 1.2297
vt -0.3165 1.0
vt -0.4968 1.0
vt -0.4968 1.2297
vt -0.3165 1.0
vt -0.4968 1.2297
vt -0.3165 1.2297
vt 1.5226 1.0
vt 1.6711 1.0
vt 1.6711 1.2297
vt 1.5226 1.0
vt 1.6711 1.2297
vt 1.5226 1.2297
vt 1.6711 1.5452
vt 1.7232 1.3474
vt 1.57 1.3165
vt 1.6711 1.5452
vt 1.57 1.3165
vt 1.5226 1.4968
vt 1.0723 1.0
vt 1.3706 1.0
vt 1.3706 1.4189
vt 1.0723 1.0
vt 1.3706 1.4189
vt 1.0723 1.4189
vt 1.3706 1.0
vt 1.2372 1.0
vt 1.2372 1.4189
vt 1.3706 1.0
vt 1.2372 1.4189
vt 1.3706 1.4189
vt 1.2372 1.0
vt 0.9679 1.0
vt 0.9679 1.4189
vt 1.2372 1.0
vt 0.9679 1.4189
vt 1.2372 1.4189
vt -1.2662 1.0
vt -1.4027 1.0
vt -1.4027 1.4189
vt -1.2662 1.0
vt -1.4027 1.4189
vt -1.2662 1.4189
vt 1.0723 2.4027
vt 1.3706 2.113
vt 1.2372 2.0047
vt 1.0723 2.4027
vt 1.2372 2.0047
vt 0.9679 2.2662
vt 1.0925 1.4189
vt 1.3413 1.4189
vt 1.3413 1.5352
vt 1.0925 1.4189
vt 1.3413 1.5352
vt 1.0925 1.5352
vt 1.3413 1.4189
vt 1.2335 1.4189
vt 1.2335 1.5352
vt 1.3413 1.4189
vt 1.2335 1.5352
vt 1.3413 1.5352
vt 1.2335 1.4189
vt 1.0047 1.4189
vt 1.0047 1.5352
vt 1.2335 1.4189
vt 1.0047 1.5352
vt 1.2335 1.5352
vt -1.2573 1.4189
vt -1.3671 1.4189
vt -1.3671 1.5352
vt -1.2573 1.4189
vt -1.3671 1.5352
vt -1.2573 1.5352
vt 1.0925 2.3671
vt 1.3413 2.1241
vt 1.2335 2.0337
vt 1.0925 2.3671
vt 1.2335 2.0337
vt 1.0047 2.2573
vt 1.0546 2.226
vt 1.2076 2.0757
vt 1.3009 2.1588
vt 1.0546 2.226
vt 1.3009 2.1588
vt 1.1361 2.3208
vt 1.1591 1.7617
vt 1.2115 1.7617
vt 1.2076 1.5352
vt 1.1591 1.7617
vt 1.2076 1.5352
vt 1.0546 1.5352
vt 1.2115 1.7617
vt 1.1591 1.7617
vt 1.1361 1.5352
vt 1.2115 1.7617
vt 1.1361 1.5352
vt 1.3009 1.5352
vt -1.3208 1.5352
vt -1.2318 1.7617
vt -1.226 1.5352
vt 1.2115 1.7617
vt 1.3009 1.5352
vt 1.2076 1.5352
vn 0.9671 0.2543 0.0
vn 0.9671 0.2543 0.0
vn 0.9671 0.2543 0.0
vn 0.9671 0.2543 0.0
vn 0.9671 0.2543 0.0
vn 0.9671 0.2543 0.0
vn -0.3102 0.9507 0.0
vn -0.3102 0.9507 0.0
vn -0.3102 0.9507 0.0
vn -0.3102 0.9507 0.0
vn -0.3102 0.9507 0.0
vn -0.3102 0.9507 0.0
vn -0.9671 -0.2543 0.0
vn -0.9671 -0.2543 0.0
vn -0.9671 -0.2543 0.0
vn -0.9671 -0.2543 0.0
vn -0.9671 -0.2543 0.0
vn -0.9671 -0.2543 0.0
vn 0.1976 -0.9803 0.0
vn 0.1976 -0.9803 0.0
vn 0.1976 -0.9803 0.0
vn 0.1976 -0.9803 0.0
vn 0.1976 -0.9803 0.0
vn 0.1976 -0.9803 0.0
vn 0.0 0.0 1.0
vn 0.0 0.0 1.0
vn 0.0 0.0 1.0
vn 0.0 0.0 1.0
vn 0.0 0.0 1.0
vn 0.0 0.0 1.0
vn 0.9295 0.3689 0.0
vn 0.9295 0.3689 0.0
vn 0.9295 0.3689 0.0
vn 0.9295 0.3689 0.0
vn 0.9295 0.3689 0.0
vn 0.9295 0.3689 0.0
vn -0.4223 0.9064 0.0
vn -0.4223 0.9064 0.0
vn -0.4223 0.9064 0.0
vn -0.4223 0.9064 0.0
vn -0.4223 0.9064 0.0
vn -0.4223 0.9064 0.0
vn -0.9295 -0.3689 0.0
vn -0.9295 -0.3689 0.0
vn -0.9295 -0.3689 0.0
vn -0.9295 -0.3689 0.0
vn -0.9295 -0.3689 0.0
vn -0.9295 -0.3689 0.0
vn 0.3142 -0.9494 0.0
vn 0.3142 -0.9494 0.0
vn 0.3142 -0.9494 0.0
vn 0.3142 -0.9494 0.0
vn 0.3142 -0.9494 0.0
vn 0.3142 -0.9494 0.0
vn 0.0 0.0 1.0
vn 0.0 0.0 1.0
vn 0.0 0.0 1.0
vn 0.0 0.0 1.0
vn 0.0 0.0 1.0
vn 0.0 0.0 1.0
vn 0.8783 0.4781 0.0
vn 0.8783 0.4781 0.0
vn 0.8783 0.4781 0.0
vn 0.8783 0.4781 0.0
vn 0.8783 0.4781 0.0
vn 0.8783 0.4781 0.0
vn -0.5284 0.849 0.0
vn -0.5284 0.849 0.0
vn -0.5284 0.849 0.0
vn -0.5284 0.849 0.0
vn -0.5284 0.849 0.0
vn -0.5284 0.849 0.0
vn -0.8783 -0.4781 0.0
vn -0.8783 -0.4781 0.0
vn -0.8783 -0.4781 0.0
vn -0.8783 -0.4781 0.0
vn -0.8783 -0.4781 0.0
vn -0.8783 -0.4781 0.0
vn 0.4261 -0.9047 0.0
vn 0.4261 -0.9047 0.0
vn 0.4261 -0.9047 0.0
vn 0.4261 -0.9047 0.0
vn 0.4261 -0.9047 0.0
vn 0.4261 -0.9047 0.0
vn 0.0 0.0 1.0
vn 0.0 0.0 1.0
vn 0.0 0.0 1.0
vn 0.0 0.0 1.0
vn 0.0 0.0 1.0
vn 0.0 0.0 1.0
vn 0.8144 0.5803 0.0
vn 0.8144 0.5803 0.0
vn 0.8144 0.5803 0.0
vn 0.8144 0.5803 0.0
vn 0.8144 0.5803 0.0
vn 0.8144 0.5803 0.0
vn -0.6267 0.7792 0.0
vn -0.6267 0.7792 0.0
vn -0.6267 0.7792 0.0
vn -0.6267 0.7792 0.0
vn -0.6267 0.7792 0.0
vn -0.6267 0.7792 0.0
vn -0.8144 -0.5803 0.0
vn -0.8144 -0.5803 0.0
vn -0.8144 -0.5803 0.0
vn -0.8144 -0.5803 0.0
vn -0.8144 -0.5803 0.0
vn -0.8144 -0.5803 0.0
vn 0.5319 -0.8468 0.0
vn 0.5319 -0.8468 0.0
vn 0.5319 -0.8468 0.0
vn 0.5319 -0.8468 0.0
vn 0.5319 -0.8468 0.0
vn 0.5319 -0.8468 0.0
vn 0.0 0.0 1.0
vn 0.0 0.0 1.0
vn 0.0 0.0 1.0
vn 0.0 0.0 1.0
vn 0.0 0.0 1.0
vn 0.0 0.0 1.0
vn 0.5561 0.8311 0.0
vn 0.5561 0.8311 0.0
vn 0.5561 0.8311 0.0
vn 0.5561 0.8311 0.0
vn 0.5561 0.8311 0.0
vn 0.5561 0.8311 0.0
vn -0.862 0.5068 0.0
vn -0.862 0.5068 0.0
vn -0.862 0.5068 0.0
vn -0.862 0.5068 0.0
vn -0.862 0.5068 0.0
vn -0.862 0.5068 0.0
vn -0.5561 -0.8311 0.0
vn -0.5561 -0.8311 0.0
vn -0.5561 -0.8311 0.0
vn -0.5561 -0.8311 0.0
vn -0.5561 -0.8311 0.0
vn -0.5561 -0.8311 0.0
vn 0.7973 -0.6036 0.0
vn 0.7973 -0.6036 0.0
vn 0.7973 -0.6036 0.0
vn 0.7973 -0.6036 0.0
vn 0.7973 -0.6036 0.0
vn 0.7973 -0.6036 0.0
vn 0.0 0.0 1.0
vn 0.0 0.0 1.0
vn 0.0 0.0 1.0
vn 0.0 0.0 1.0
vn 0.0 0.0 1.0
vn 0.0 0.0 1.0
vn 0.4521 0.892 0.0
vn 0.4521 0.892 0.0
vn 0.4521 0.892 0.0
vn 0.4521 0.892 0.0
vn 0.4521 0.892 0.0
vn 0.4521 0.892 0.0
vn -0.9168 0.3994 0.0
vn -0.9168 0.3994 0.0
vn -0.9168 0.3994 0.0
vn -0.9168 0.3994 0.0
vn -0.9168 0.3994 0.0
vn -0.9168 0.3994 0.0
vn -0.4521 -0.892 0.0
vn -0.4521 -0.892 0.0
vn -0.4521 -0.892 0.0
vn -0.4521 -0.892 0.0
vn -0.4521 -0.892 0.0
vn -0.4521 -0.892 0.0
vn 0.8642 -0.5032 0.0
vn 0.8642 -0.5032 0.0
vn 0.8642 -0.5032 0.0
vn 0.8642 -0.5032 0.0
vn 0.8642 -0.5032 0.0
vn 0.8642 -0.5032 0.0
vn 0.0 0.0 1.0
vn 0.0 0.0 1.0
vn 0.0 0.0 1.0
vn 0.0 0.0 1.0
vn 0.0 0.0 1.0
vn 0.0 0.0 1.0
vn 0.3414 0.9399 0.0
vn 0.3414 0.9399 0.0
vn 0.3414 0.9399 0.0
vn 0.3414 0.9399 0.0
vn 0.3414 0.9399 0.0
vn 0.3414 0.9399 0.0
vn -0.9582 0.2861 0.0
vn -0.9582 0.2861 0.0
vn -0.9582 0.2861 0.0
vn -0.9582 0.2861 0.0
vn -0.9582 0.2861 0.0
vn -0.9582 0.2861 0.0
vn -0.3414 -0.9399 0.0
vn -0.3414 -0.9399 0.0
vn -0.3414 -0.9399 0.0
vn -0.3414 -0.9399 0.0
vn -0.3414 -0.9399 0.0
vn -0.3414 -0.9399 0.0
vn 0.9184 -0.3955 0.0
vn 0.9184 -0.3955 0.0
vn 0.9184 -0.3955 0.0
vn 0.9184 -0.3955 0.0
vn 0.9184 -0.3955 0.0
vn 0.9184 -0.3955 0.0
vn 0.0 0.0 1.0
vn 0.0 0.0 1.0
vn 0.0 0.0 1.0
vn 0.0 0.0 1.0
vn 0.0 0.0 1.0
vn 0.0 0.0 1.0
vn 0.2258 0.9742 0.0
vn 0.2258 0.9742 0.0
vn 0.2258 0.9742 0.0
vn 0.2258 0.9742 0.0
vn 0.2258 0.9742 0.0
vn 0.2258 0.9742 0.0
vn -0.9857 0.1687 0.0
vn -0.9857 0.1687 0.0
vn -0.9857 0.1687 0.0
vn -0.9857 0.1687 0.0
vn -0.9857 0.1687 0.0
vn -0.9857 0.1687 0.0
vn -0.2258 -0.9742 0.0
vn -0.2258 -0.9742 0.0
vn -0.2258 -0.9742 0.0
vn -0.2258 -0.9742 0.0
vn -0.2258 -0.9742 0.0
vn -0.2258 -0.9742 0.0
vn 0.9594 -0.2821 0.0
vn 0.9594 -0.2821 0.0
vn 0.9594 -0.2821 0.0
vn 0.9594 -0.2821 0.0
vn 0.9594 -0.2821 0.0
vn 0.9594 -0.2821 0.0
vn 0.0 0.0 1.0
vn 0.0 0.0 1.0
vn 0.0 0.0 1.0
vn 0.0 0.0 1.0
vn 0.0 0.0 1.0
vn 0.0 0.0 1.0
vn 0.6966 0.7174 0.0
vn 0.6966 0.7174 0.0
vn 0.6966 0.7174 0.0
vn 0.6966 0.7174 0.0
vn 0.6966 0.7174 0.0
vn 0.6966 0.7174 0.0
vn -0.7945 0.6073 0.0
vn -0.7945 0.6073 0.0
vn -0.7945 0.6073 0.0
vn -0.7945 0.6073 0.0
vn -0.7945 0.6073 0.0
vn -0.7945 0.6073 0.0
vn -0.6966 -0.7174 0.0
vn -0.6966 -0.7174 0.0
vn -0.6966 -0.7174 0.0
vn -0.6966 -0.7174 0.0
vn -0.6966 -0.7174 0.0
vn -0.6966 -0.7174 0.0
vn 0.6304 -0.7763 0.0
vn 0.6304 -0.7763 0.0
vn 0.6304 -0.7763 0.0
vn 0.6304 -0.7763 0.0
vn 0.6304 -0.7763 0.0
vn 0.6304 -0.7763 0.0
vn 0.0 0.0 1.0
vn 0.0 0.0 1.0
vn 0.0 0.0 1.0
vn 0.0 0.0 1.0
vn 0.0 0.0 1.0
vn 0.0 0.0 1.0
vn 0.6945 0.7195 0.0
vn 0.6945 0.7195 0.0
vn 0.6945 0.7195 0.0
vn 0.6945 0.7195 0.0
vn 0.6945 0.7195 0.0
vn 0.6945 0.7195 0.0
vn -0.785 0.6195 0.0
vn -0.785 0.6195 0.0
vn -0.785 0.6195 0.0
vn -0.785 0.6195 0.0
vn -0.785 0.6195 0.0
vn -0.785 0.6195 0.0
vn -0.6945 -0.7195 0.0
vn -0.6945 -0.7195 0.0
vn -0.6945 -0.7195 0.0
vn -0.6945 -0.7195 0.0
vn -0.6945 -0.7195 0.0
vn -0.6945 -0.7195 0.0
vn 0.6469 -0.7625 0.0
vn 0.6469 -0.7625 0.0
vn 0.6469 -0.7625 0.0
vn 0.6469 -0.7625 0.0
vn 0.6469 -0.7625 0.0
vn 0.6469 -0.7625 0.0
vn 0.0 0.0 1.0
vn 0.0 0.0 1.0
vn 0.0 0.0 1.0
vn 0.0 0.0 1.0
vn 0.0 0.0 1.0
vn 0.0 0.0 1.0
vn 0.0 0.0 -1.0
vn 0.0 0.0 -1.0
vn 0.0 0.0 -1.0
vn 0.0 0.0 -1.0
vn 0.0 0.0 -1.0
vn 0.0 0.0 -1.0
vn -0.5898 -0.6148 0.5236
vn -0.5898 -0.6148 0.5236
vn -0.5898 -0.6148 0.5236
vn -0.5898 -0.6148 0.5236
vn -0.5898 -0.6148 0.5236
vn -0.5898 -0.6148 0.5236
vn 0.6464 0.6738 0.3579
vn 0.6464 0.6738 0.3579
vn 0.6464 0.6738 0.3579
vn 0.6464 0.6738 0.3579
vn 0.6464 0.6738 0.3579
vn 0.6464 0.6738 0.3579
vn 0.6169 -0.6759 0.4033
vn 0.6169 -0.6759 0.4033
vn 0.6169 -0.6759 0.4033
vn -0.7009 0.5883 0.4033
vn -0.7009 0.5883 0.4033
vn -0.7009 0.5883 0.4033
vn -0.2272 0.9738 0.0
vn -0.2272 0.9738 0.0
vn -0.2272 0.9738 0.0
vn -0.2272 0.9738 0.0
vn -0.2272 0.9738 0.0
vn -0.2272 0.9738 0.0
vn -0.9585 -0.2849 0.0
vn -0.9585 -0.2849 0.0
vn -0.9585 -0.2849 0.0
vn -0.9585 -0.2849 0.0
vn -0.9585 -0.2849 0.0
vn -0.9585 -0.2849 0.0
vn 0.2272 -0.9738 0.0
vn 0.2272 -0.9738 0.0
vn 0.2272 -0.9738 0.0
vn 0.2272 -0.9738 0.0
vn 0.2272 -0.9738 0.0
vn 0.2272 -0.9738 0.0
vn 0.9857 0.1687 0.0
vn 0.9857 0.1687 0.0
vn 0.9857 0.1687 0.0
vn 0.9857 0.1687 0.0
vn 0.9857 0.1687 0.0
vn 0.9857 0.1687 0.0
vn 0.0 0.0 1.0
vn 0.0 0.0 1.0
vn 0.0 0.0 1.0
vn 0.0 0.0 1.0
vn 0.0 0.0 1.0
vn 0.0 0.0 1.0
vn -0.3456 0.9384 0.0
vn -0.3456 0.9384 0.0
vn -0.3456 0.9384 0.0
vn -0.3456 0.9384 0.0
vn -0.3456 0.9384 0.0
vn -0.3456 0.9384 0.0
vn -0.9161 -0.4009 0.0
vn -0.9161 -0.4009 0.0
vn -0.9161 -0.4009 0.0
vn -0.9161 -0.4009 0.0
vn -0.9161 -0.4009 0.0
vn -0.9161 -0.4009 0.0
vn 0.3456 -0.9384 0.0
vn 0.3456 -0.9384 0.0
vn 0.3456 -0.9384 0.0
vn 0.3456 -0.9384 0.0
vn 0.3456 -0.9384 0.0
vn 0.3456 -0.9384 0.0
vn 0.9573 0.289 0.0
vn 0.9573 0.289 0.0
vn 0.9573 0.289 0.0
vn 0.9573 0.289 0.0
vn 0.9573 0.289 0.0
vn 0.9573 0.289 0.0
vn 0.0 0.0 1.0
vn 0.0 0.0 1.0
vn 0.0 0.0 1.0
vn 0.0 0.0 1.0
vn 0.0 0.0 1.0
vn 0.0 0.0 1.0
vn -0.4586 0.8886 0.0
vn -0.4586 0.8886 0.0
vn -0.4586 0.8886 0.0
vn -0.4586 0.8886 0.0
vn -0.4586 0.8886 0.0
vn -0.4586 0.8886 0.0
vn -0.8597 -0.5108 0.0
vn -0.8597 -0.5108 0.0
vn -0.8597 -0.5108 0.0
vn -0.8597 -0.5108 0.0
vn -0.8597 -0.5108 0.0
vn -0.8597 -0.5108 0.0
vn 0.4586 -0.8886 0.0
vn 0.4586 -0.8886 0.0
vn 0.4586 -0.8886 0.0
vn 0.4586 -0.8886 0.0
vn 0.4586 -0.8886 0.0
vn 0.4586 -0.8886 0.0
vn 0.9144 0.4048 0.0
vn 0.9144 0.4048 0.0
vn 0.9144 0.4048 0.0
vn 0.9144 0.4048 0.0
vn 0.9144 0.4048 0.0
vn 0.9144 0.4048 0.0
vn 0.0 0.0 1.0
vn 0.0 0.0 1.0
vn 0.0 0.0 1.0
vn 0.0 0.0 1.0
vn 0.0 0.0 1.0
vn 0.0 0.0 1.0
vn -0.5647 0.8253 0.0
vn -0.5647 0.8253 0.0
vn -0.5647 0.8253 0.0
vn -0.5647 0.8253 0.0
vn -0.5647 0.8253 0.0
vn -0.5647 0.8253 0.0
vn -0.7902 -0.6129 0.0
vn -0.7902 -0.6129 0.0
vn -0.7902 -0.6129 0.0
vn -0.7902 -0.6129 0.0
vn -0.7902 -0.6129 0.0
vn -0.7902 -0.6129 0.0
vn 0.5647 -0.8253 0.0
vn 0.5647 -0.8253 0.0
vn 0.5647 -0.8253 0.0
vn 0.5647 -0.8253 0.0
vn 0.5647 -0.8253 0.0
vn 0.5647 -0.8253 0.0
vn 0.8575 0.5144 0.0
vn 0.8575 0.5144 0.0
vn 0.8575 0.5144 0.0
vn 0.8575 0.5144 0.0
vn 0.8575 0.5144 0.0
vn 0.8575 0.5144 0.0
vn 0.0 0.0 1.0
vn 0.0 0.0 1.0
vn 0.0 0.0 1.0
vn 0.0 0.0 1.0
vn 0.0 0.0 1.0
vn 0.0 0.0 1.0
vn -0.8253 0.5647 0.0
vn -0.8253 0.5647 0.0
vn -0.8253 0.5647 0.0
vn -0.8253 0.5647 0.0
vn -0.8253 0.5647 0.0
vn -0.8253 0.5647 0.0
vn -0.5144 -0.8575 0.0
vn -0.5144 -0.8575 0.0
vn -0.5144 -0.8575 0.0
vn -0.5144 -0.8575 0.0
vn -0.5144 -0.8575 0.0
vn -0.5144 -0.8575 0.0
vn 0.8253 -0.5647 0.0
vn 0.8253 -0.5647 0.0
vn 0.8253 -0.5647 0.0
vn 0.8253 -0.5647 0.0
vn 0.8253 -0.5647 0.0
vn 0.8253 -0.5647 0.0
vn 0.6129 0.7902 0.0
vn 0.6129 0.7902 0.0
vn 0.6129 0.7902 0.0
vn 0.6129 0.7902 0.0
vn 0.6129 0.7902 0.0
vn 0.6129 0.7902 0.0
vn 0.0 0.0 1.0
vn 0.0 0.0 1.0
vn 0.0 0.0 1.0
vn 0.0 0.0 1.0
vn 0.0 0.0 1.0
vn 0.0 0.0 1.0
vn -0.8886 0.4586 0.0
vn -0.8886 0.4586 0.0
vn -0.8886 0.4586 0.0
vn -0.8886 0.4586 0.0
vn -0.8886 0.4586 0.0
vn -0.8886 0.4586 0.0
vn -0.4048 -0.9144 0.0
vn -0.4048 -0.9144 0.0
vn -0.4048 -0.9144 0.0
vn -0.4048 -0.9144 0.0
vn -0.4048 -0.9144 0.0
vn -0.4048 -0.9144 0.0
vn 0.8886 -0.4586 0.0
vn 0.8886 -0.4586 0.0
vn 0.8886 -0.4586 0.0
vn 0.8886 -0.4586 0.0
vn 0.8886 -0.4586 0.0
vn 0.8886 -0.4586 0.0
vn 0.5108 0.8597 0.0
vn 0.5108 0.8597 0.0
vn 0.5108 0.8597 0.0
vn 0.5108 0.8597 0.0
vn 0.5108 0.8597 0.0
vn 0.5108 0.8597 0.0
vn 0.0 0.0 1.0
vn 0.0 0.0 1.0
vn 0.0 0.0 1.0
vn 0.0 0.0 1.0
vn 0.0 0.0 1.0
vn 0.0 0.0 1.0
vn -0.9384 0.3456 0.0
vn -0.9384 0.3456 0.0
vn -0.9384 0.3456 0.0
vn -0.9384 0.3456 0.0
vn -0.9384 0.3456 0.0
vn -0.9384 0.3456 0.0
vn -0.289 -0.9573 0.0
vn -0.289 -0.9573 0.0
vn -0.289 -0.9573 0.0
vn -0.289 -0.9573 0.0
vn -0.289 -0.9573 0.0
vn -0.289 -0.9573 0.0
vn 0.9384 -0.3456 0.0
vn 0.9384 -0.3456 0.0
vn 0.9384 -0.3456 0.0
vn 0.9384 -0.3456 0.0
vn 0.9384 -0.3456 0.0
vn 0.9384 -0.3456 0.0
vn 0.4009 0.9161 0.0
vn 0.4009 0.9161 0.0
vn 0.4009 0.9161 0.0
vn 0.4009 0.9161 0.0
vn 0.4009 0.9161 0.0
vn 0.4009 0.9161 0.0
vn 0.0 0.0 1.0
vn 0.0 0.0 1.0
vn 0.0 0.0 1.0
vn 0.0 0.0 1.0
vn 0.0 0.0 1.0
vn 0.0 0.0 1.0
vn -0.9738 0.2272 0.0
vn -0.9738 0.2272 0.0
vn -0.9738 0.2272 0.0
vn -0.9738 0.2272 0.0
vn -0.9738 0.2272 0.0
vn -0.9738 0.2272 0.0
vn -0.1687 -0.9857 0.0
vn -0.1687 -0.9857 0.0
vn -0.1687 -0.9857 0.0
vn -0.1687 -0.9857 0.0
vn -0.1687 -0.9857 0.0
vn -0.1687 -0.9857 0.0
vn 0.9738 -0.2272 0.0
vn 0.9738 -0.2272 0.0
vn 0.9738 -0.2272 0.0
vn 0.9738 -0.2272 0.0
vn 0.9738 -0.2272 0.0
vn 0.9738 -0.2272 0.0
vn 0.2849 0.9585 0.0
vn 0.2849 0.9585 0.0
vn 0.2849 0.9585 0.0
vn 0.2849 0.9585 0.0
vn 0.2849 0.9585 0.0
vn 0.2849 0.9585 0.0
vn 0.0 0.0 1.0
vn 0.0 0.0 1.0
vn 0.0 0.0 1.0
vn 0.0 0.0 1.0
vn 0.0 0.0 1.0
vn 0.0 0.0 1.0
vn -0.7071 0.7071 0.0
vn -0.7071 0.7071 0.0
vn -0.7071 0.7071 0.0
vn -0.7071 0.7071 0.0
vn -0.7071 0.7071 0.0
vn -0.7071 0.7071 0.0
vn -0.6166 -0.7873 0.0
vn -0.6166 -0.7873 0.0
vn -0.6166 -0.7873 0.0
vn -0.6166 -0.7873 0.0
vn -0.6166 -0.7873 0.0
vn -0.6166 -0.7873 0.0
vn 0.7071 -0.7071 0.0
vn 0.7071 -0.7071 0.0
vn 0.7071 -0.7071 0.0
vn 0.7071 -0.7071 0.0
vn 0.7071 -0.7071 0.0
vn 0.7071 -0.7071 0.0
vn 0.7873 0.6166 0.0
vn 0.7873 0.6166 0.0
vn 0.7873 0.6166 0.0
vn 0.7873 0.6166 0.0
vn 0.7873 0.6166 0.0
vn 0.7873 0.6166 0.0
vn 0.0 0.0 1.0
vn 0.0 0.0 1.0
vn 0.0 0.0 1.0
vn 0.0 0.0 1.0
vn 0.0 0.0 1.0
vn 0.0 0.0 1.0
vn -0.7093 0.7049 0.0
vn -0.7093 0.7049 0.0
vn -0.7093 0.7049 0.0
vn -0.7093 0.7049 0.0
vn -0.7093 0.7049 0.0
vn -0.7093 0.7049 0.0
vn -0.6291 -0.7774 0.0
vn -0.6291 -0.7774 0.0
vn -0.6291 -0.7774 0.0
vn -0.6291 -0.7774 0.0
vn -0.6291 -0.7774 0.0
vn -0.6291 -0.7774 0.0
vn 0.7093 -0.7049 0.0
vn 0.7093 -0.7049 0.0
vn 0.7093 -0.7049 0.0
vn 0.7093 -0.7049 0.0
vn 0.7093 -0.7049 0.0
vn 0.7093 -0.7049 0.0
vn 0.7735 0.6339 0.0
vn 0.7735 0.6339 0.0
vn 0.7735 0.6339 0.0
vn 0.7735 0.6339 0.0
vn 0.7735 0.6339 0.0
vn 0.7735 0.6339 0.0
vn 0.0 0.0 1.0
vn 0.0 0.0 1.0
vn 0.0 0.0 1.0
vn 0.0 0.0 1.0
vn 0.0 0.0 1.0
vn 0.0 0.0 1.0
vn 0.0 0.0 -1.0
vn 0.0 0.0 -1.0
vn 0.0 0.0 -1.0
vn 0.0 0.0 -1.0
vn 0.0 0.0 -1.0
vn 0.0 0.0 -1.0
vn 0.6059 -0.5984 0.5242
vn 0.6059 -0.5984 0.5242
vn 0.6059 -0.5984 0.5242
vn 0.6059 -0.5984 0.5242
vn 0.6059 -0.5984 0.5242
vn 0.6059 -0.5984 0.5242
vn -0.6646 0.6564 0.357
vn -0.6646 0.6564 0.357
vn -0.6646 0.6564 0.357
vn -0.6646 0.6564 0.357
vn -0.6646 0.6564 0.357
vn -0.6646 0.6564 0.357
vn 0.683 0.6034 0.4115
vn 0.683 0.6034 0.4115
vn 0.683 0.6034 0.4115
vn -0.595 -0.6905 0.4115
vn -0.595 -0.6905 0.4115
vn -0.595 -0.6905 0.4115
vn -0.9738 -0.2272 0.0
vn -0.9738 -0.2272 0.0
vn -0.9738 -0.2272 0.0
vn -0.9738 -0.2272 0.0
vn -0.9738 -0.2272 0.0
vn -0.9738 -0.2272 0.0
vn 0.2849 -0.9585 0.0
vn 0.2849 -0.9585 0.0
vn 0.2849 -0.9585 0.0
vn 0.2849 -0.9585 0.0
vn 0.2849 -0.9585 0.0
vn 0.2849 -0.9585 0.0
vn 0.9738 0.2272 0.0
vn 0.9738 0.2272 0.0
vn 0.9738 0.2272 0.0
vn 0.9738 0.2272 0.0
vn 0.9738 0.2272 0.0
vn 0.9738 0.2272 0.0
vn -0.1687 0.9857 0.0
vn -0.1687 0.9857 0.0
vn -0.1687 0.9857 0.0
vn -0.1687 0.9857 0.0
vn -0.1687 0.9857 0.0
vn -0.1687 0.9857 0.0
vn 0.0 0.0 1.0
vn 0.0 0.0 1.0
vn 0.0 0.0 1.0
vn 0.0 0.0 1.0
vn 0.0 0.0 1.0
vn 0.0 0.0 1.0
vn -0.9384 -0.3456 0.0
vn -0.9384 -0.3456 0.0
vn -0.9384 -0.3456 0.0
vn -0.9384 -0.3456 0.0
vn -0.9384 -0.3456 0.0
vn -0.9384 -0.3456 0.0
vn 0.4009 -0.9161 0.0
vn 0.4009 -0.9161 0.0
vn 0.4009 -0.9161 0.0
vn 0.4009 -0.9161 0.0
vn 0.4009 -0.9161 0.0
vn 0.4009 -0.9161 0.0
vn 0.9384 0.3456 0.0
vn 0.9384 0.3456 0.0
vn 0.9384 0.3456 0.0
vn 0.9384 0.3456 0.0
vn 0.9384 0.3456 0.0
vn 0.9384 0.3456 0.0
vn -0.289 0.9573 0.0
vn -0.289 0.9573 0.0
vn -0.289 0.9573 0.0
vn -0.289 0.9573 0.0
vn -0.289 0.9573 0.0
vn -0.289 0.9573 0.0
vn 0.0 0.0 1.0
vn 0.0 0.0 1.0
vn 0.0 0.0 1.0
vn 0.0 0.0 1.0
vn 0.0 0.0 1.0
vn 0.0 0.0 1.0
vn -0.8886 -0.4586 0.0
vn -0.8886 -0.4586 0.0
vn -0.8886 -0.4586 0.0
vn -0.8886 -0.4586 0.0
vn -0.8886 -0.4586 0.0
vn -0.8886 -0.4586 0.0
vn 0.5108 -0.8597 0.0
vn 0.5108 -0.8597 0.0
vn 0.5108 -0.8597 0.0
vn 0.5108 -0.8597 0.0
vn 0.5108 -0.8597 0.0
vn 0.5108 -0.8597 0.0
vn 0.8886 0.4586 0.0
vn 0.8886 0.4586 0.0
vn 0.8886 0.4586 0.0
vn 0.8886 0.4586 0.0
vn 0.8886 0.4586 0.0
vn 0.8886 0.4586 0.0
vn -0.4048 0.9144 0.0
vn -0.4048 0.9144 0.0
vn -0.4048 0.9144 0.0
vn -0.4048 0.9144 0.0
vn -0.4048 0.9144 0.0
vn -0.4048 0.9144 0.0
vn 0.0 0.0 1.0
vn 0.0 0.0 1.0
vn 0.0 0.0 1.0
vn 0.0 0.0 1.0
vn 0.0 0.0 1.0
vn 0.0 0.0 1.0
vn -0.8253 -0.5647 0.0
vn -0.8253 -0.5647 0.0
vn -0.8253 -0.5647 0.0
vn -0.8253 -0.5647 0.0
vn -0.8253 -0.5647 0.0
vn -0.8253 -0.5647 0.0
vn 0.6129 -0.7902 0.0
vn 0.6129 -0.7902 0.0
vn 0.6129 -0.7902 0.0
vn 0.6129 -0.7902 0.0
vn 0.6129 -0.7902 0.0
vn 0.6129 -0.7902 0.0
vn 0.8253 0.5647 0.0
vn 0.8253 0.5647 0.0
vn 0.8253 0.5647 0.0
vn 0.8253 0.5647 0.0
vn 0.8253 0.5647 0.0
vn 0.8253 0.5647 0.0
vn -0.5144 0.8575 0.0
vn -0.5144 0.8575 0.0
vn -0.5144 0.8575 0.0
vn -0.5144 0.8575 0.0
vn -0.5144 0.8575 0.0
vn -0.5144 0.8575 0.0
vn 0.0 0.0 1.0
vn 0.0 0.0 1.0
vn 0.0 0.0 1.0
vn 0.0 0.0 1.0
vn 0.0 0.0 1.0
vn 0.0 0.0 1.0
vn -0.5647 -0.8253 0.0
vn -0.5647 -0.8253 0.0
vn -0.5647 -0.8253 0.0
vn -0.5647 -0.8253 0.0
vn -0.5647 -0.8253 0.0
vn -0.5647 -0.8253 0.0
vn 0.8575 -0.5144 0.0
vn 0.8575 -0.5144 0.0
vn 0.8575 -0.5144 0.0
vn 0.8575 -0.5144 0.0
vn 0.8575 -0.5144 0.0
vn 0.8575 -0.5144 0.0
vn 0.5647 0.8253 0.0
vn 0.5647 0.8253 0.0
vn 0.5647 0.8253 0.0
vn 0.5647 0.8253 0.0
vn 0.5647 0.8253 0.0
vn 0.5647 0.8253 0.0
vn -0.7902 0.6129 0.0
vn -0.7902 0.6129 0.0
vn -0.7902 0.6129 0.0
vn -0.7902 0.6129 0.0
vn -0.7902 0.6129 0.0
vn -0.7902 0.6129 0.0
vn 0.0 0.0 1.0
vn 0.0 0.0 1.0
vn 0.0 0.0 1.0
vn 0.0 0.0 1.0
vn 0.0 0.0 1.0
vn 0.0 0.0 1.0
vn -0.4586 -0.8886 0.0
vn -0.4586 -0.8886 0.0
vn -0.4586 -0.8886 0.0
vn -0.4586 -0.8886 0.0
vn -0.4586 -0.8886 0.0
vn -0.4586 -0.8886 0.0
vn 0.9144 -0.4048 0.0
vn 0.9144 -0.4048 0.0
vn 0.9144 -0.4048 0.0
vn 0.9144 -0.4048 0.0
vn 0.9144 -0.4048 0.0
vn 0.9144 -0.4048 0.0
vn 0.4586 0.8886 0.0
vn 0.4586 0.8886 0.0
vn 0.4586 0.8886 0.0
vn 0.4586 0.8886 0.0
vn 0.4586 0.8886 0.0
vn 0.4586 0.8886 0.0
vn -0.8597 0.5108 0.0
vn -0.8597 0.5108 0.0
vn -0.8597 0.5108 0.0
vn -0.8597 0.5108 0.0
vn -0.8597 0.5108 0.0
vn -0.8597 0.5108 0.0
vn 0.0 0.0 1.0
vn 0.0 0.0 1.0
vn 0.0 0.0 1.0
vn 0.0 0.0 1.0
vn 0.0 0.0 1.0
vn 0.0 0.0 1.0
vn -0.3456 -0.9384 0.0
vn -0.3456 -0.9384 0.0
vn -0.3456 -0.9384 0.0
vn -0.3456 -0.9384 0.0
vn -0.3456 -0.9384 0.0
vn -0.3456 -0.9384 0.0
vn 0.9573 -0.289 0.0
vn 0.9573 -0.289 0.0
vn 0.9573 -0.289 0.0
vn 0.9573 -0.289 0.0
vn 0.9573 -0.289 0.0
vn 0.9573 -0.289 0.0
vn 0.3456 0.9384 0.0
vn 0.3456 0.9384 0.0
vn 0.3456 0.9384 0.0
vn 0.3456 0.9384 0.0
vn 0.3456 0.9384 0.0
vn 0.3456 0.9384 0.0
vn -0.9161 0.4009 0.0
vn -0.9161 0.4009 0.0
vn -0.9161 0.4009 0.0
vn -0.9161 0.4009 0.0
vn -0.9161 0.4009 0.0
vn -0.9161 0.4009 0.0
vn 0.0 0.0 1.0
vn 0.0 0.0 1.0
vn 0.0 0.0 1.0
vn 0.0 0.0 1.0
vn 0.0 0.0 1.0
vn 0.0 0.0 1.0
vn -0.2272 -0.9738 0.0
vn -0.2272 -0.9738 0.0
vn -0.2272 -0.9738 0.0
vn -0.2272 -0.9738 0.0
vn -0.2272 -0.9738 0.0
vn -0.2272 -0.9738 0.0
vn 0.9857 -0.1687 0.0
vn 0.9857 -0.1687 0.0
vn 0.9857 -0.1687 0.0
vn 0.9857 -0.1687 0.0
vn 0.9857 -0.1687 0.0
vn 0.9857 -0.1687 0.0
vn 0.2272 0.9738 0.0
vn 0.2272 0.9738 0.0
vn 0.2272 0.9738 0.0
vn 0.2272 0.9738 0.0
vn 0.2272 0.9738 0.0
vn 0.2272 0.9738 0.0
vn -0.9585 0.2849 0.0
vn -0.9585 0.2849 0.0
vn -0.9585 0.2849 0.0
vn -0.9585 0.2849 0.0
vn -0.9585 0.2849 0.0
vn -0.9585 0.2849 0.0
vn 0.0 0.0 1.0
vn 0.0 0.0 1.0
vn 0.0 0.0 1.0
vn 0.0 0.0 1.0
vn 0.0 0.0 1.0
vn 0.0 0.0 1.0
vn -0.7071 -0.7071 0.0
vn -0.7071 -0.7071 0.0
vn -0.7071 -0.7071 0.0
vn -0.7071 -0.7071 0.0
vn -0.7071 -0.7071 0.0
vn -0.7071 -0.7071 0.0
vn 0.7873 -0.6166 0.0
vn 0.7873 -0.6166 0.0
vn 0.7873 -0.6166 0.0
vn 0.7873 -0.6166 0.0
vn 0.7873 -0.6166 0.0
vn 0.7873 -0.6166 0.0
vn 0.7071 0.7071 0.0
vn 0.7071 0.7071 0.0
vn 0.7071 0.7071 0.0
vn 0.7071 0.7071 0.0
vn 0.7071 0.7071 0.0
vn 0.7071 0.7071 0.0
vn -0.6166 0.7873 0.0
vn -0.6166 0.7873 0.0
vn -0.6166 0.7873 0.0
vn -0.6166 0.7873 0.0
vn -0.6166 0.7873 0.0
vn -0.6166 0.7873 0.0
vn 0.0 0.0 1.0
vn 0.0 0.0 1.0
vn 0.0 0.0 1.0
vn 0.0 0.0 1.0
vn 0.0 0.0 1.0
vn 0.0 0.0 1.0
vn -0.7049 -0.7093 0.0
vn -0.7049 -0.7093 0.0
vn -0.7049 -0.7093 0.0
vn -0.7049 -0.7093 0.0
vn -0.7049 -0.7093 0.0
vn -0.7049 -0.7093 0.0
vn 0.7774 -0.6291 0.0
vn 0.7774 -0.6291 0.0
vn 0.7774 -0.6291 0.0
vn 0.7774 -0.6291 0.0
vn 0.7774 -0.6291 0.0
vn 0.7774 -0.6291 0.0
vn 0.7049 0.7093 0.0
vn 0.7049 0.7093 0.0
vn 0.7049 0.7093 0.0
vn 0.7049 0.7093 0.0
vn 0.7049 0.7093 0.0
vn 0.7049 0.7093 0.0
vn -0.6339 0.7735 0.0
vn -0.6339 0.7735 0.0
vn -0.6339 0.7735 0.0
vn -0.6339 0.7735 0.0
vn -0.6339 0.7735 0.0
vn -0.6339 0.7735 0.0
vn 0.0 0.0 1.0
vn 0.0 0.0 1.0
vn 0.0 0.0 1.0
vn 0.0 0.0 1.0
vn 0.0 0.0 1.0
vn 0.0 0.0 1.0
vn 0.0 0.0 -1.0
vn 0.0 0.0 -1.0
vn 0.0 0.0 -1.0
vn 0.0 0.0 -1.0
vn 0.0 0.0 -1.0
vn 0.0 0.0 -1.0
vn 0.5984 0.6059 0.5242
vn 0.5984 0.6059 0.5242
vn 0.5984 0.6059 0.5242
vn 0.5984 0.6059 0.5242
vn 0.5984 0.6059 0.5242
vn 0.5984 0.6059 0.5242
vn -0.6564 -0.6646 0.357
vn -0.6564 -0.6646 0.357
vn -0.6564 -0.6646 0.357
vn -0.6564 -0.6646 0.357
vn -0.6564 -0.6646 0.357
vn -0.6564 -0.6646 0.357
vn -0.6034 0.683 0.4115
vn -0.6034 0.683 0.4115
vn -0.6034 0.683 0.4115
vn 0.6905 -0.595 0.4115
vn 0.6905 -0.595 0.4115
vn 0.6905 -0.595 0.4115
vn 0.2258 -0.9742 0.0
vn 0.2258 -0.9742 0.0
vn 0.2258 -0.9742 0.0
vn 0.2258 -0.9742 0.0
vn 0.2258 -0.9742 0.0
vn 0.2258 -0.9742 0.0
vn 0.9594 0.2821 0.0
vn 0.9594 0.2821 0.0
vn 0.9594 0.2821 0.0
vn 0.9594 0.2821 0.0
vn 0.9594 0.2821 0.0
vn 0.9594 0.2821 0.0
vn -0.2258 0.9742 0.0
vn -0.2258 0.9742 0.0
vn -0.2258 0.9742 0.0
vn -0.2258 0.9742 0.0
vn -0.2258 0.9742 0.0
vn -0.2258 0.9742 0.0
vn -0.9857 -0.1687 0.0
vn -0.9857 -0.1687 0.0
vn -0.9857 -0.1687 0.0
vn -0.9857 -0.1687 0.0
vn -0.9857 -0.1687 0.0
vn -0.9857 -0.1687 0.0
vn 0.0 0.0 1.0
vn 0.0 0.0 1.0
vn 0.0 0.0 1.0
vn 0.0 0.0 1.0
vn 0.0 0.0 1.0
vn 0.0 0.0 1.0
vn 0.3414 -0.9399 0.0
vn 0.3414 -0.9399 0.0
vn 0.3414 -0.9399 0.0
vn 0.3414 -0.9399 0.0
vn 0.3414 -0.9399 0.0
vn 0.3414 -0.9399 0.0
vn 0.9184 0.3955 0.0
vn 0.9184 0.3955 0.0
vn 0.9184 0.3955 0.0
vn 0.9184 0.3955 0.0
vn 0.9184 0.3955 0.0
vn 0.9184 0.3955 0.0
vn -0.3414 0.9399 0.0
vn -0.3414 0.9399 0.0
vn -0.3414 0.9399 0.0
vn -0.3414 0.9399 0.0
vn -0.3414 0.9399 0.0
vn -0.3414 0.9399 0.0
vn -0.9582 -0.2861 0.0
vn -0.9582 -0.2861 0.0
vn -0.9582 -0.2861 0.0
vn -0.9582 -0.2861 0.0
vn -0.9582 -0.2861 0.0
vn -0.9582 -0.2861 0.0
vn 0.0 0.0 1.0
vn 0.0 0.0 1.0
vn 0.0 0.0 1.0
vn 0.0 0.0 1.0
vn 0.0 0.0 1.0
vn 0.0 0.0 1.0
vn 0.4521 -0.892 0.0
vn 0.4521 -0.892 0.0
vn 0.4521 -0.892 0.0
vn 0.4521 -0.892 0.0
vn 0.4521 -0.892 0.0
vn 0.4521 -0.892 0.0
vn 0.8642 0.5032 0.0
vn 0.8642 0.5032 0.0
vn 0.8642 0.5032 0.0
vn 0.8642 0.5032 0.0
vn 0.8642 0.5032 0.0
vn 0.8642 0.5032 0.0
vn -0.4521 0.892 0.0
vn -0.4521 0.892 0.0
vn -0.4521 0.892 0.0
vn -0.4521 0.892 0.0
vn -0.4521 0.892 0.0
vn -0.4521 0.892 0.0
vn -0.9168 -0.3994 0.0
vn -0.9168 -0.3994 0.0
vn -0.9168 -0.3994 0.0
vn -0.9168 -0.3994 0.0
vn -0.9168 -0.3994 0.0
vn -0.9168 -0.3994 0.0
vn 0.0 0.0 1.0
vn 0.0 0.0 1.0
vn 0.0 0.0 1.0
vn 0.0 0.0 1.0
vn 0.0 0.0 1.0
vn 0.0 0.0 1.0
vn 0.5561 -0.8311 0.0
vn 0.5561 -0.8311 0.0
vn 0.5561 -0.8311 0.0
vn 0.5561 -0.8311 0.0
vn 0.5561 -0.8311 0.0
vn 0.5561 -0.8311 0.0
vn 0.7973 0.6036 0.0
vn 0.7973 0.6036 0.0
vn 0.7973 0.6036 0.0
vn 0.7973 0.6036 0.0
vn 0.7973 0.6036 0.0
vn 0.7973 0.6036 0.0
vn -0.5561 0.8311 0.0
vn -0.5561 0.8311 0.0
vn -0.5561 0.8311 0.0
vn -0.5561 0.8311 0.0
vn -0.5561 0.8311 0.0
vn -0.5561 0.8311 0.0
vn -0.862 -0.5068 0.0
vn -0.862 -0.5068 0.0
vn -0.862 -0.5068 0.0
vn -0.862 -0.5068 0.0
vn -0.862 -0.5068 0.0
vn -0.862 -0.5068 0.0
vn 0.0 0.0 1.0
vn 0.0 0.0 1.0
vn 0.0 0.0 1.0
vn 0.0 0.0 1.0
vn 0.0 0.0 1.0
vn 0.0 0.0 1.0
vn 0.8144 -0.5803 0.0
vn 0.8144 -0.5803 0.0
vn 0.8144 -0.5803 0.0
vn 0.8144 -0.5803 0.0
vn 0.8144 -0.5803 0.0
vn 0.8144 -0.5803 0.0
vn 0.5319 0.8468 0.0
vn 0.5319 0.8468 0.0
vn 0.5319 0.8468 0.0
vn 0.5319 0.8468 0.0
vn 0.5319 0.8468 0.0
vn 0.5319 0.8468 0.0
vn -0.8144 0.5803 0.0
vn -0.8144 0.5803 0.0
vn -0.8144 0.5803 0.0
vn -0.8144 0.5803 0.0
vn -0.8144 0.5803 0.0
vn -0.8144 0.5803 0.0
vn -0.6267 -0.7792 0.0
vn -0.6267 -0.7792 0.0
vn -0.6267 -0.7792 0.0
vn -0.6267 -0.7792 0.0
vn -0.6267 -0.7792 0.0
vn -0.6267 -0.7792 0.0
vn 0.0 0.0 1.0
vn 0.0 0.0 1.0
vn 0.0 0.0 1.0
vn 0.0 0.0 1.0
vn 0.0 0.0 1.0
vn 0.0 0.0 1.0
vn 0.8783 -0.4781 0.0
vn 0.8783 -0.4781 0.0
vn 0.8783 -0.4781 0.0
vn 0.8783 -0.4781 0.0
vn 0.8783 -0.4781 0.0
vn 0.8783 -0.4781 0.0
vn 0.4261 0.9047 0.0
vn 0.4261 0.9047 0.0
vn 0.4261 0.9047 0.0
vn 0.4261 0.9047 0.0
vn 0.4261 0.9047 0.0
vn 0.4261 0.9047 0.0
vn -0.8783 0.4781 0.0
vn -0.8783 0.4781 0.0
vn -0.8783 0.4781 0.0
vn -0.8783 0.4781 0.0
vn -0.8783 0.4781 0.0
vn -0.8783 0.4781 0.0
vn -0.5284 -0.849 0.0
vn -0.5284 -0.849 0.0
vn -0.5284 -0.849 0.0
vn -0.5284 -0.849 0.0
vn -0.5284 -0.849 0.0
vn -0.5284 -0.849 0.0
vn 0.0 0.0 1.0
vn 0.0 0.0 1.0
vn 0.0 0.0 1.0
vn 0.0 0.0 1.0
vn 0.0 0.0 1.0
vn 0.0 0.0 1.0
vn 0.9295 -0.3689 0.0
vn 0.9295 -0.3689 0.0
vn 0.9295 -0.3689 0.0
vn 0.9295 -0.3689 0.0
vn 0.9295 -0.3689 0.0
vn 0.9295 -0.3689 0.0
vn 0.3142 0.9494 0.0
vn 0.3142 0.9494 0.0
vn 0.3142 0.9494 0.0
vn 0.3142 0.9494 0.0
vn 0.3142 0.9494 0.0
vn 0.3142 0.9494 0.0
vn -0.9295 0.3689 0.0
vn -0.9295 0.3689 0.0
vn -0.9295 0.3689 0.0
vn -0.9295 0.3689 0.0
vn -0.9295 0.3689 0.0
vn -0.9295 0.3689 0.0
vn -0.4223 -0.9064 0.0
vn -0.4223 -0.9064 0.0
vn -0.4223 -0.9064 0.0
vn -0.4223 -0.9064 0.0
vn -0.4223 -0.9064 0.0
vn -0.4223 -0.9064 0.0
vn 0.0 0.0 1.0
vn 0.0 0.0 1.0
vn 0.0 0.0 1.0
vn 0.0 0.0 1.0
vn 0.0 0.0 1.0
vn 0.0 0.0 1.0
vn 0.9671 -0.2543 0.0
vn 0.9671 -0.2543 0.0
vn 0.9671 -0.2543 0.0
vn 0.9671 -0.2543 0.0
vn 0.9671 -0.2543 0.0
vn 0.9671 -0.2543 0.0
vn 0.1976 0.9803 0.0
vn 0.1976 0.9803 0.0
vn 0.1976 0.9803 0.0
vn 0.1976 0.9803 0.0
vn 0.1976 0.9803 0.0
vn 0.1976 0.9803 0.0
vn -0.9671 0.2543 0.0
vn -0.9671 0.2543 0.0
vn -0.9671 0.2543 0.0
vn -0.9671 0.2543 0.0
vn -0.9671 0.2543 0.0
vn -0.9671 0.2543 0.0
vn -0.3102 -0.9507 0.0
vn -0.3102 -0.9507 0.0
vn -0.3102 -0.9507 0.0
vn -0.3102 -0.9507 0.0
vn -0.3102 -0.9507 0.0
vn -0.3102 -0.9507 0.0
vn 0.0 0.0 1.0
vn 0.0 0.0 1.0
vn 0.0 0.0 1.0
vn 0.0 0.0 1.0
vn 0.0 0.0 1.0
vn 0.0 0.0 1.0
vn 0.6966 -0.7174 0.0
vn 0.6966 -0.7174 0.0
vn 0.6966 -0.7174 0.0
vn 0.6966 -0.7174 0.0
vn 0.6966 -0.7174 0.0
vn 0.6966 -0.7174 0.0
vn 0.6304 0.7763 0.0
vn 0.6304 0.7763 0.0
vn 0.6304 0.7763 0.0
vn 0.6304 0.7763 0.0
vn 0.6304 0.7763 0.0
vn 0.6304 0.7763 0.0
vn -0.6966 0.7174 0.0
vn -0.6966 0.7174 0.0
vn -0.6966 0.7174 0.0
vn -0.6966 0.7174 0.0
vn -0.6966 0.7174 0.0
vn -0.6966 0.7174 0.0
vn -0.7945 -0.6073 0.0
vn -0.7945 -0.6073 0.0
vn -0.7945 -0.6073 0.0
vn -0.7945 -0.6073 0.0
vn -0.7945 -0.6073 0.0
vn -0.7945 -0.6073 0.0
vn 0.0 0.0 1.0
vn 0.0 0.0 1.0
vn 0.0 0.0 1.0
vn 0.0 0.0 1.0
vn 0.0 0.0 1.0
vn 0.0 0.0 1.0
vn 0.6988 -0.7153 0.0
vn 0.6988 -0.7153 0.0
vn 0.6988 -0.7153 0.0
vn 0.6988 -0.7153 0.0
vn 0.6988 -0.7153 0.0
vn 0.6988 -0.7153 0.0
vn 0.6423 0.7664 0.0
vn 0.6423 0.7664 0.0
vn 0.6423 0.7664 0.0
vn 0.6423 0.7664 0.0
vn 0.6423 0.7664 0.0
vn 0.6423 0.7664 0.0
vn -0.6988 0.7153 0.0
vn -0.6988 0.7153 0.0
vn -0.6988 0.7153 0.0
vn -0.6988 0.7153 0.0
vn -0.6988 0.7153 0.0
vn -0.6988 0.7153 0.0
vn -0.7812 -0.6243 0.0
vn -0.7812 -0.6243 0.0
vn -0.7812 -0.6243 0.0
vn -0.7812 -0.6243 0.0
vn -0.7812 -0.6243 0.0
vn -0.7812 -0.6243 0.0
vn 0.0 0.0 1.0
vn 0.0 0.0 1.0
vn 0.0 0.0 1.0
vn 0.0 0.0 1.0
vn 0.0 0.0 1.0
vn 0.0 0.0 1.0
vn 0.0 0.0 -1.0
vn 0.0 0.0 -1.0
vn 0.0 0.0 -1.0
vn 0.0 0.0 -1.0
vn 0.0 0.0 -1.0
vn 0.0 0.0 -1.0
vn -0.6633 0.6749 0.3232
vn -0.6633 0.6749 0.3232
vn -0.6633 0.6749 0.3232
vn -0.6633 0.6749 0.3232
vn -0.6633 0.6749 0.3232
vn -0.6633 0.6749 0.3232
vn 0.6861 -0.6981 0.2046
vn 0.6861 -0.6981 0.2046
vn 0.6861 -0.6981 0.2046
vn 0.6861 -0.6981 0.2046
vn 0.6861 -0.6981 0.2046
vn 0.6861 -0.6981 0.2046
vn -0.7192 -0.6187 0.3161
vn -0.7192 -0.6187 0.3161
vn -0.7192 -0.6187 0.3161
vn 0.631 0.7084 0.3161
vn 0.631 0.7084 0.3161
vn 0.631 0.7084 0.3161
g wall_block_01
usemtl MI_EBS_FWL_Basalt
f 1/1/1 2/2/2 3/3/3
f 4/4/4 5/5/5 6/6/6
f 7/7/7 8/8/8 9/9/9
f 10/10/10 11/11/11 12/12/12
f 13/13/13 14/14/14 15/15/15
f 16/16/16 17/17/17 18/18/18
f 19/19/19 20/20/20 21/21/21
f 22/22/22 23/23/23 24/24/24
f 25/25/25 26/26/26 27/27/27
f 28/28/28 29/29/29 30/30/30
g wall_block_02
f 31/31/31 32/32/32 33/33/33
f 34/34/34 35/35/35 36/36/36
f 37/37/37 38/38/38 39/39/39
f 40/40/40 41/41/41 42/42/42
f 43/43/43 44/44/44 45/45/45
f 46/46/46 47/47/47 48/48/48
f 49/49/49 50/50/50 51/51/51
f 52/52/52 53/53/53 54/54/54
f 55/55/55 56/56/56 57/57/57
f 58/58/58 59/59/59 60/60/60
g wall_block_03
f 61/61/61 62/62/62 63/63/63
f 64/64/64 65/65/65 66/66/66
f 67/67/67 68/68/68 69/69/69
f 70/70/70 71/71/71 72/72/72
f 73/73/73 74/74/74 75/75/75
f 76/76/76 77/77/77 78/78/78
f 79/79/79 80/80/80 81/81/81
f 82/82/82 83/83/83 84/84/84
f 85/85/85 86/86/86 87/87/87
f 88/88/88 89/89/89 90/90/90
g wall_block_04
f 91/91/91 92/92/92 93/93/93
f 94/94/94 95/95/95 96/96/96
f 97/97/97 98/98/98 99/99/99
f 100/100/100 101/101/101 102/102/102
f 103/103/103 104/104/104 105/105/105
f 106/106/106 107/107/107 108/108/108
f 109/109/109 110/110/110 111/111/111
f 112/112/112 113/113/113 114/114/114
f 115/115/115 116/116/116 117/117/117
f 118/118/118 119/119/119 120/120/120
g wall_block_05
f 121/121/121 122/122/122 123/123/123
f 124/124/124 125/125/125 126/126/126
f 127/127/127 128/128/128 129/129/129
f 130/130/130 131/131/131 132/132/132
f 133/133/133 134/134/134 135/135/135
f 136/136/136 137/137/137 138/138/138
f 139/139/139 140/140/140 141/141/141
f 142/142/142 143/143/143 144/144/144
f 145/145/145 146/146/146 147/147/147
f 148/148/148 149/149/149 150/150/150
g wall_block_06
f 151/151/151 152/152/152 153/153/153
f 154/154/154 155/155/155 156/156/156
f 157/157/157 158/158/158 159/159/159
f 160/160/160 161/161/161 162/162/162
f 163/163/163 164/164/164 165/165/165
f 166/166/166 167/167/167 168/168/168
f 169/169/169 170/170/170 171/171/171
f 172/172/172 173/173/173 174/174/174
f 175/175/175 176/176/176 177/177/177
f 178/178/178 179/179/179 180/180/180
g wall_block_07
f 181/181/181 182/182/182 183/183/183
f 184/184/184 185/185/185 186/186/186
f 187/187/187 188/188/188 189/189/189
f 190/190/190 191/191/191 192/192/192
f 193/193/193 194/194/194 195/195/195
f 196/196/196 197/197/197 198/198/198
f 199/199/199 200/200/200 201/201/201
f 202/202/202 203/203/203 204/204/204
f 205/205/205 206/206/206 207/207/207
f 208/208/208 209/209/209 210/210/210
g wall_block_08
f 211/211/211 212/212/212 213/213/213
f 214/214/214 215/215/215 216/216/216
f 217/217/217 218/218/218 219/219/219
f 220/220/220 221/221/221 222/222/222
f 223/223/223 224/224/224 225/225/225
f 226/226/226 227/227/227 228/228/228
f 229/229/229 230/230/230 231/231/231
f 232/232/232 233/233/233 234/234/234
f 235/235/235 236/236/236 237/237/237
f 238/238/238 239/239/239 240/240/240
g wall_tall_01
f 241/241/241 242/242/242 243/243/243
f 244/244/244 245/245/245 246/246/246
f 247/247/247 248/248/248 249/249/249
f 250/250/250 251/251/251 252/252/252
f 253/253/253 254/254/254 255/255/255
f 256/256/256 257/257/257 258/258/258
f 259/259/259 260/260/260 261/261/261
f 262/262/262 263/263/263 264/264/264
f 265/265/265 266/266/266 267/267/267
f 268/268/268 269/269/269 270/270/270
f 271/271/271 272/272/272 273/273/273
f 274/274/274 275/275/275 276/276/276
f 277/277/277 278/278/278 279/279/279
f 280/280/280 281/281/281 282/282/282
f 283/283/283 284/284/284 285/285/285
f 286/286/286 287/287/287 288/288/288
f 289/289/289 290/290/290 291/291/291
f 292/292/292 293/293/293 294/294/294
f 295/295/295 296/296/296 297/297/297
f 298/298/298 299/299/299 300/300/300
f 301/301/301 302/302/302 303/303/303
f 304/304/304 305/305/305 306/306/306
f 307/307/307 308/308/308 309/309/309
f 310/310/310 311/311/311 312/312/312
f 313/313/313 314/314/314 315/315/315
f 316/316/316 317/317/317 318/318/318
f 319/319/319 320/320/320 321/321/321
f 322/322/322 323/323/323 324/324/324
g wall_block_09
f 325/325/325 326/326/326 327/327/327
f 328/328/328 329/329/329 330/330/330
f 331/331/331 332/332/332 333/333/333
f 334/334/334 335/335/335 336/336/336
f 337/337/337 338/338/338 339/339/339
f 340/340/340 341/341/341 342/342/342
f 343/343/343 344/344/344 345/345/345
f 346/346/346 347/347/347 348/348/348
f 349/349/349 350/350/350 351/351/351
f 352/352/352 353/353/353 354/354/354
g wall_block_10
f 355/355/355 356/356/356 357/357/357
f 358/358/358 359/359/359 360/360/360
f 361/361/361 362/362/362 363/363/363
f 364/364/364 365/365/365 366/366/366
f 367/367/367 368/368/368 369/369/369
f 370/370/370 371/371/371 372/372/372
f 373/373/373 374/374/374 375/375/375
f 376/376/376 377/377/377 378/378/378
f 379/379/379 380/380/380 381/381/381
f 382/382/382 383/383/383 384/384/384
g wall_block_11
f 385/385/385 386/386/386 387/387/387
f 388/388/388 389/389/389 390/390/390
f 391/391/391 392/392/392 393/393/393
f 394/394/394 395/395/395 396/396/396
f 397/397/397 398/398/398 399/399/399
f 400/400/400 401/401/401 402/402/402
f 403/403/403 404/404/404 405/405/405
f 406/406/406 407/407/407 408/408/408
f 409/409/409 410/410/410 411/411/411
f 412/412/412 413/413/413 414/414/414
g wall_block_12
f 415/415/415 416/416/416 417/417/417
f 418/418/418 419/419/419 420/420/420
f 421/421/421 422/422/422 423/423/423
f 424/424/424 425/425/425 426/426/426
f 427/427/427 428/428/428 429/429/429
f 430/430/430 431/431/431 432/432/432
f 433/433/433 434/434/434 435/435/435
f 436/436/436 437/437/437 438/438/438
f 439/439/439 440/440/440 441/441/441
f 442/442/442 443/443/443 444/444/444
g wall_block_13
f 445/445/445 446/446/446 447/447/447
f 448/448/448 449/449/449 450/450/450
f 451/451/451 452/452/452 453/453/453
f 454/454/454 455/455/455 456/456/456
f 457/457/457 458/458/458 459/459/459
f 460/460/460 461/461/461 462/462/462
f 463/463/463 464/464/464 465/465/465
f 466/466/466 467/467/467 468/468/468
f 469/469/469 470/470/470 471/471/471
f 472/472/472 473/473/473 474/474/474
g wall_block_14
f 475/475/475 476/476/476 477/477/477
f 478/478/478 479/479/479 480/480/480
f 481/481/481 482/482/482 483/483/483
f 484/484/484 485/485/485 486/486/486
f 487/487/487 488/488/488 489/489/489
f 490/490/490 491/491/491 492/492/492
f 493/493/493 494/494/494 495/495/495
f 496/496/496 497/497/497 498/498/498
f 499/499/499 500/500/500 501/501/501
f 502/502/502 503/503/503 504/504/504
g wall_block_15
f 505/505/505 506/506/506 507/507/507
f 508/508/508 509/509/509 510/510/510
f 511/511/511 512/512/512 513/513/513
f 514/514/514 515/515/515 516/516/516
f 517/517/517 518/518/518 519/519/519
f 520/520/520 521/521/521 522/522/522
f 523/523/523 524/524/524 525/525/525
f 526/526/526 527/527/527 528/528/528
f 529/529/529 530/530/530 531/531/531
f 532/532/532 533/533/533 534/534/534
g wall_block_16
f 535/535/535 536/536/536 537/537/537
f 538/538/538 539/539/539 540/540/540
f 541/541/541 542/542/542 543/543/543
f 544/544/544 545/545/545 546/546/546
f 547/547/547 548/548/548 549/549/549
f 550/550/550 551/551/551 552/552/552
f 553/553/553 554/554/554 555/555/555
f 556/556/556 557/557/557 558/558/558
f 559/559/559 560/560/560 561/561/561
f 562/562/562 563/563/563 564/564/564
g wall_tall_02
f 565/565/565 566/566/566 567/567/567
f 568/568/568 569/569/569 570/570/570
f 571/571/571 572/572/572 573/573/573
f 574/574/574 575/575/575 576/576/576
f 577/577/577 578/578/578 579/579/579
f 580/580/580 581/581/581 582/582/582
f 583/583/583 584/584/584 585/585/585
f 586/586/586 587/587/587 588/588/588
f 589/589/589 590/590/590 591/591/591
f 592/592/592 593/593/593 594/594/594
f 595/595/595 596/596/596 597/597/597
f 598/598/598 599/599/599 600/600/600
f 601/601/601 602/602/602 603/603/603
f 604/604/604 605/605/605 606/606/606
f 607/607/607 608/608/608 609/609/609
f 610/610/610 611/611/611 612/612/612
f 613/613/613 614/614/614 615/615/615
f 616/616/616 617/617/617 618/618/618
f 619/619/619 620/620/620 621/621/621
f 622/622/622 623/623/623 624/624/624
f 625/625/625 626/626/626 627/627/627
f 628/628/628 629/629/629 630/630/630
f 631/631/631 632/632/632 633/633/633
f 634/634/634 635/635/635 636/636/636
f 637/637/637 638/638/638 639/639/639
f 640/640/640 641/641/641 642/642/642
f 643/643/643 644/644/644 645/645/645
f 646/646/646 647/647/647 648/648/648
g wall_block_17
f 649/649/649 650/650/650 651/651/651
f 652/652/652 653/653/653 654/654/654
f 655/655/655 656/656/656 657/657/657
f 658/658/658 659/659/659 660/660/660
f 661/661/661 662/662/662 663/663/663
f 664/664/664 665/665/665 666/666/666
f 667/667/667 668/668/668 669/669/669
f 670/670/670 671/671/671 672/672/672
f 673/673/673 674/674/674 675/675/675
f 676/676/676 677/677/677 678/678/678
g wall_block_18
f 679/679/679 680/680/680 681/681/681
f 682/682/682 683/683/683 684/684/684
f 685/685/685 686/686/686 687/687/687
f 688/688/688 689/689/689 690/690/690
f 691/691/691 692/692/692 693/693/693
f 694/694/694 695/695/695 696/696/696
f 697/697/697 698/698/698 699/699/699
f 700/700/700 701/701/701 702/702/702
f 703/703/703 704/704/704 705/705/705
f 706/706/706 707/707/707 708/708/708
g wall_block_19
f 709/709/709 710/710/710 711/711/711
f 712/712/712 713/713/713 714/714/714
f 715/715/715 716/716/716 717/717/717
f 718/718/718 719/719/719 720/720/720
f 721/721/721 722/722/722 723/723/723
f 724/724/724 725/725/725 726/726/726
f 727/727/727 728/728/728 729/729/729
f 730/730/730 731/731/731 732/732/732
f 733/733/733 734/734/734 735/735/735
f 736/736/736 737/737/737 738/738/738
g wall_block_20
f 739/739/739 740/740/740 741/741/741
f 742/742/742 743/743/743 744/744/744
f 745/745/745 746/746/746 747/747/747
f 748/748/748 749/749/749 750/750/750
f 751/751/751 752/752/752 753/753/753
f 754/754/754 755/755/755 756/756/756
f 757/757/757 758/758/758 759/759/759
f 760/760/760 761/761/761 762/762/762
f 763/763/763 764/764/764 765/765/765
f 766/766/766 767/767/767 768/768/768
g wall_block_21
f 769/769/769 770/770/770 771/771/771
f 772/772/772 773/773/773 774/774/774
f 775/775/775 776/776/776 777/777/777
f 778/778/778 779/779/779 780/780/780
f 781/781/781 782/782/782 783/783/783
f 784/784/784 785/785/785 786/786/786
f 787/787/787 788/788/788 789/789/789
f 790/790/790 791/791/791 792/792/792
f 793/793/793 794/794/794 795/795/795
f 796/796/796 797/797/797 798/798/798
g wall_block_22
f 799/799/799 800/800/800 801/801/801
f 802/802/802 803/803/803 804/804/804
f 805/805/805 806/806/806 807/807/807
f 808/808/808 809/809/809 810/810/810
f 811/811/811 812/812/812 813/813/813
f 814/814/814 815/815/815 816/816/816
f 817/817/817 818/818/818 819/819/819
f 820/820/820 821/821/821 822/822/822
f 823/823/823 824/824/824 825/825/825
f 826/826/826 827/827/827 828/828/828
g wall_block_23
f 829/829/829 830/830/830 831/831/831
f 832/832/832 833/833/833 834/834/834
f 835/835/835 836/836/836 837/837/837
f 838/838/838 839/839/839 840/840/840
f 841/841/841 842/842/842 843/843/843
f 844/844/844 845/845/845 846/846/846
f 847/847/847 848/848/848 849/849/849
f 850/850/850 851/851/851 852/852/852
f 853/853/853 854/854/854 855/855/855
f 856/856/856 857/857/857 858/858/858
g wall_block_24
f 859/859/859 860/860/860 861/861/861
f 862/862/862 863/863/863 864/864/864
f 865/865/865 866/866/866 867/867/867
f 868/868/868 869/869/869 870/870/870
f 871/871/871 872/872/872 873/873/873
f 874/874/874 875/875/875 876/876/876
f 877/877/877 878/878/878 879/879/879
f 880/880/880 881/881/881 882/882/882
f 883/883/883 884/884/884 885/885/885
f 886/886/886 887/887/887 888/888/888
g wall_tall_03
f 889/889/889 890/890/890 891/891/891
f 892/892/892 893/893/893 894/894/894
f 895/895/895 896/896/896 897/897/897
f 898/898/898 899/899/899 900/900/900
f 901/901/901 902/902/902 903/903/903
f 904/904/904 905/905/905 906/906/906
f 907/907/907 908/908/908 909/909/909
f 910/910/910 911/911/911 912/912/912
f 913/913/913 914/914/914 915/915/915
f 916/916/916 917/917/917 918/918/918
f 919/919/919 920/920/920 921/921/921
f 922/922/922 923/923/923 924/924/924
f 925/925/925 926/926/926 927/927/927
f 928/928/928 929/929/929 930/930/930
f 931/931/931 932/932/932 933/933/933
f 934/934/934 935/935/935 936/936/936
f 937/937/937 938/938/938 939/939/939
f 940/940/940 941/941/941 942/942/942
f 943/943/943 944/944/944 945/945/945
f 946/946/946 947/947/947 948/948/948
f 949/949/949 950/950/950 951/951/951
f 952/952/952 953/953/953 954/954/954
f 955/955/955 956/956/956 957/957/957
f 958/958/958 959/959/959 960/960/960
f 961/961/961 962/962/962 963/963/963
f 964/964/964 965/965/965 966/966/966
f 967/967/967 968/968/968 969/969/969
f 970/970/970 971/971/971 972/972/972
g wall_block_25
f 973/973/973 974/974/974 975/975/975
f 976/976/976 977/977/977 978/978/978
f 979/979/979 980/980/980 981/981/981
f 982/982/982 983/983/983 984/984/984
f 985/985/985 986/986/986 987/987/987
f 988/988/988 989/989/989 990/990/990
f 991/991/991 992/992/992 993/993/993
f 994/994/994 995/995/995 996/996/996
f 997/997/997 998/998/998 999/999/999
f 1000/1000/1000 1001/1001/1001 1002/1002/1002
g wall_block_26
f 1003/1003/1003 1004/1004/1004 1005/1005/1005
f 1006/1006/1006 1007/1007/1007 1008/1008/1008
f 1009/1009/1009 1010/1010/1010 1011/1011/1011
f 1012/1012/1012 1013/1013/1013 1014/1014/1014
f 1015/1015/1015 1016/1016/1016 1017/1017/1017
f 1018/1018/1018 1019/1019/1019 1020/1020/1020
f 1021/1021/1021 1022/1022/1022 1023/1023/1023
f 1024/1024/1024 1025/1025/1025 1026/1026/1026
f 1027/1027/1027 1028/1028/1028 1029/1029/1029
f 1030/1030/1030 1031/1031/1031 1032/1032/1032
g wall_block_27
f 1033/1033/1033 1034/1034/1034 1035/1035/1035
f 1036/1036/1036 1037/1037/1037 1038/1038/1038
f 1039/1039/1039 1040/1040/1040 1041/1041/1041
f 1042/1042/1042 1043/1043/1043 1044/1044/1044
f 1045/1045/1045 1046/1046/1046 1047/1047/1047
f 1048/1048/1048 1049/1049/1049 1050/1050/1050
f 1051/1051/1051 1052/1052/1052 1053/1053/1053
f 1054/1054/1054 1055/1055/1055 1056/1056/1056
f 1057/1057/1057 1058/1058/1058 1059/1059/1059
f 1060/1060/1060 1061/1061/1061 1062/1062/1062
g wall_block_28
f 1063/1063/1063 1064/1064/1064 1065/1065/1065
f 1066/1066/1066 1067/1067/1067 1068/1068/1068
f 1069/1069/1069 1070/1070/1070 1071/1071/1071
f 1072/1072/1072 1073/1073/1073 1074/1074/1074
f 1075/1075/1075 1076/1076/1076 1077/1077/1077
f 1078/1078/1078 1079/1079/1079 1080/1080/1080
f 1081/1081/1081 1082/1082/1082 1083/1083/1083
f 1084/1084/1084 1085/1085/1085 1086/1086/1086
f 1087/1087/1087 1088/1088/1088 1089/1089/1089
f 1090/1090/1090 1091/1091/1091 1092/1092/1092
g wall_block_29
f 1093/1093/1093 1094/1094/1094 1095/1095/1095
f 1096/1096/1096 1097/1097/1097 1098/1098/1098
f 1099/1099/1099 1100/1100/1100 1101/1101/1101
f 1102/1102/1102 1103/1103/1103 1104/1104/1104
f 1105/1105/1105 1106/1106/1106 1107/1107/1107
f 1108/1108/1108 1109/1109/1109 1110/1110/1110
f 1111/1111/1111 1112/1112/1112 1113/1113/1113
f 1114/1114/1114 1115/1115/1115 1116/1116/1116
f 1117/1117/1117 1118/1118/1118 1119/1119/1119
f 1120/1120/1120 1121/1121/1121 1122/1122/1122
g wall_block_30
f 1123/1123/1123 1124/1124/1124 1125/1125/1125
f 1126/1126/1126 1127/1127/1127 1128/1128/1128
f 1129/1129/1129 1130/1130/1130 1131/1131/1131
f 1132/1132/1132 1133/1133/1133 1134/1134/1134
f 1135/1135/1135 1136/1136/1136 1137/1137/1137
f 1138/1138/1138 1139/1139/1139 1140/1140/1140
f 1141/1141/1141 1142/1142/1142 1143/1143/1143
f 1144/1144/1144 1145/1145/1145 1146/1146/1146
f 1147/1147/1147 1148/1148/1148 1149/1149/1149
f 1150/1150/1150 1151/1151/1151 1152/1152/1152
g wall_block_31
f 1153/1153/1153 1154/1154/1154 1155/1155/1155
f 1156/1156/1156 1157/1157/1157 1158/1158/1158
f 1159/1159/1159 1160/1160/1160 1161/1161/1161
f 1162/1162/1162 1163/1163/1163 1164/1164/1164
f 1165/1165/1165 1166/1166/1166 1167/1167/1167
f 1168/1168/1168 1169/1169/1169 1170/1170/1170
f 1171/1171/1171 1172/1172/1172 1173/1173/1173
f 1174/1174/1174 1175/1175/1175 1176/1176/1176
f 1177/1177/1177 1178/1178/1178 1179/1179/1179
f 1180/1180/1180 1181/1181/1181 1182/1182/1182
g wall_block_32
f 1183/1183/1183 1184/1184/1184 1185/1185/1185
f 1186/1186/1186 1187/1187/1187 1188/1188/1188
f 1189/1189/1189 1190/1190/1190 1191/1191/1191
f 1192/1192/1192 1193/1193/1193 1194/1194/1194
f 1195/1195/1195 1196/1196/1196 1197/1197/1197
f 1198/1198/1198 1199/1199/1199 1200/1200/1200
f 1201/1201/1201 1202/1202/1202 1203/1203/1203
f 1204/1204/1204 1205/1205/1205 1206/1206/1206
f 1207/1207/1207 1208/1208/1208 1209/1209/1209
f 1210/1210/1210 1211/1211/1211 1212/1212/1212
g wall_tall_04
f 1213/1213/1213 1214/1214/1214 1215/1215/1215
f 1216/1216/1216 1217/1217/1217 1218/1218/1218
f 1219/1219/1219 1220/1220/1220 1221/1221/1221
f 1222/1222/1222 1223/1223/1223 1224/1224/1224
f 1225/1225/1225 1226/1226/1226 1227/1227/1227
f 1228/1228/1228 1229/1229/1229 1230/1230/1230
f 1231/1231/1231 1232/1232/1232 1233/1233/1233
f 1234/1234/1234 1235/1235/1235 1236/1236/1236
f 1237/1237/1237 1238/1238/1238 1239/1239/1239
f 1240/1240/1240 1241/1241/1241 1242/1242/1242
f 1243/1243/1243 1244/1244/1244 1245/1245/1245
f 1246/1246/1246 1247/1247/1247 1248/1248/1248
f 1249/1249/1249 1250/1250/1250 1251/1251/1251
f 1252/1252/1252 1253/1253/1253 1254/1254/1254
f 1255/1255/1255 1256/1256/1256 1257/1257/1257
f 1258/1258/1258 1259/1259/1259 1260/1260/1260
f 1261/1261/1261 1262/1262/1262 1263/1263/1263
f 1264/1264/1264 1265/1265/1265 1266/1266/1266
f 1267/1267/1267 1268/1268/1268 1269/1269/1269
f 1270/1270/1270 1271/1271/1271 1272/1272/1272
f 1273/1273/1273 1274/1274/1274 1275/1275/1275
f 1276/1276/1276 1277/1277/1277 1278/1278/1278
f 1279/1279/1279 1280/1280/1280 1281/1281/1281
f 1282/1282/1282 1283/1283/1283 1284/1284/1284
f 1285/1285/1285 1286/1286/1286 1287/1287/1287
f 1288/1288/1288 1289/1289/1289 1290/1290/1290
f 1291/1291/1291 1292/1292/1292 1293/1293/1293
f 1294/1294/1294 1295/1295/1295 1296/1296/1296
