# SM_EBS_FWL_SYS_001_Petal
# Author: Angelis Pseftis
# Frame: Unreal +X forward, +Y right, +Z up; centimeters; no axis conversion
# Kit: ebs-meshkit-v3
# Production ID EBS-FWL-SYS-001
# Revision ebs-fwl-sys-001-blockout-v1
# LOD0
o SM_EBS_FWL_SYS_001_Petal
v 0.0 -34.0 0.0
v 0.0 34.0 0.0
v -18.7 0.0 172.0
v 0.0 34.0 0.0
v -16.83 11.9 0.0
v -18.7 0.0 172.0
v -16.83 11.9 0.0
v -16.83 -11.9 0.0
v -18.7 0.0 172.0
v -16.83 -11.9 0.0
v 0.0 -34.0 0.0
v -18.7 0.0 172.0
v -16.83 -11.9 0.0
v -16.83 11.9 0.0
v 0.0 34.0 0.0
v -16.83 -11.9 0.0
v 0.0 34.0 0.0
v 0.0 -34.0 0.0
v -1.0225 -3.0 1.72
v -1.0225 3.0 1.72
v -1.0225 3.0 104.92
v -1.0225 -3.0 1.72
v -1.0225 3.0 104.92
v -1.0225 -3.0 104.92
v -3.5225 -3.0 1.72
v -3.5225 -3.0 104.92
v -3.5225 3.0 104.92
v -3.5225 -3.0 1.72
v -3.5225 3.0 104.92
v -3.5225 3.0 1.72
v -3.5225 3.0 1.72
v -3.5225 3.0 104.92
v -1.0225 3.0 104.92
v -3.5225 3.0 1.72
v -1.0225 3.0 104.92
v -1.0225 3.0 1.72
v -3.5225 -3.0 1.72
v -1.0225 -3.0 1.72
v -1.0225 -3.0 104.92
v -3.5225 -3.0 1.72
v -1.0225 -3.0 104.92
v -3.5225 -3.0 104.92
v -3.5225 -3.0 104.92
v -1.0225 -3.0 104.92
v -1.0225 3.0 104.92
v -3.5225 -3.0 104.92
v -1.0225 3.0 104.92
v -3.5225 3.0 104.92
v -3.5225 -3.0 1.72
v -3.5225 3.0 1.72
v -1.0225 3.0 1.72
v -3.5225 -3.0 1.72
v -1.0225 3.0 1.72
v -1.0225 -3.0 1.72
v -3.0 -5.0 146.42
v -3.0 5.0 146.42
v -3.0 5.0 149.42
v -3.0 -5.0 146.42
v -3.0 5.0 149.42
v -3.0 -5.0 149.42
v -9.0 -5.0 146.42
v -9.0 -5.0 149.42
v -9.0 5.0 149.42
v -9.0 -5.0 146.42
v -9.0 5.0 149.42
v -9.0 5.0 146.42
v -9.0 5.0 146.42
v -9.0 5.0 149.42
v -3.0 5.0 149.42
v -9.0 5.0 146.42
v -3.0 5.0 149.42
v -3.0 5.0 146.42
v -9.0 -5.0 146.42
v -3.0 -5.0 146.42
v -3.0 -5.0 149.42
v -9.0 -5.0 146.42
v -3.0 -5.0 149.42
v -9.0 -5.0 149.42
v -9.0 -5.0 149.42
v -3.0 -5.0 149.42
v -3.0 5.0 149.42
v -9.0 -5.0 149.42
v -3.0 5.0 149.42
v -9.0 5.0 149.42
v -9.0 -5.0 146.42
v -9.0 5.0 146.42
v -3.0 5.0 146.42
v -9.0 -5.0 146.42
v -3.0 5.0 146.42
v -3.0 -5.0 146.42
vt -0.1328 1.0
vt 0.1328 1.0
vt 0.0 1.6719
vt 0.1328 1.0
vt 0.0465 1.0
vt 0.0 1.6719
vt 0.0465 1.0
vt -0.0465 1.0
vt 0.0 1.6719
vt -0.0465 1.0
vt -0.1328 1.0
vt 0.0 1.6719
vt -0.0657 1.0465
vt -0.0657 0.9535
vt 0.0 0.8672
vt -0.0657 1.0465
vt 0.0 0.8672
vt 0.0 1.1328
vt -0.0117 1.0067
vt 0.0117 1.0067
vt 0.0117 1.4098
vt -0.0117 1.0067
vt 0.0117 1.4098
vt -0.0117 1.4098
vt -0.0117 1.0067
vt -0.0117 1.4098
vt 0.0117 1.4098
vt -0.0117 1.0067
vt 0.0117 1.4098
vt 0.0117 1.0067
vt -0.0138 1.0067
vt -0.0138 1.4098
vt -0.004 1.4098
vt -0.0138 1.0067
vt -0.004 1.4098
vt -0.004 1.0067
vt -0.0138 1.0067
vt -0.004 1.0067
vt -0.004 1.4098
vt -0.0138 1.0067
vt -0.004 1.4098
vt -0.0138 1.4098
vt -0.0138 1.0117
vt -0.004 1.0117
vt -0.004 0.9883
vt -0.0138 1.0117
vt -0.004 0.9883
vt -0.0138 0.9883
vt -0.0138 1.0117
vt -0.0138 0.9883
vt -0.004 0.9883
vt -0.0138 1.0117
vt -0.004 0.9883
vt -0.004 1.0117
vt -0.0195 1.572
vt 0.0195 1.572
vt 0.0195 1.5837
vt -0.0195 1.572
vt 0.0195 1.5837
vt -0.0195 1.5837
vt -0.0195 1.572
vt -0.0195 1.5837
vt 0.0195 1.5837
vt -0.0195 1.572
vt 0.0195 1.5837
vt 0.0195 1.572
vt -0.0352 1.572
vt -0.0352 1.5837
vt -0.0117 1.5837
vt -0.0352 1.572
vt -0.0117 1.5837
vt -0.0117 1.572
vt -0.0352 1.572
vt -0.0117 1.572
vt -0.0117 1.5837
vt -0.0352 1.572
vt -0.0117 1.5837
vt -0.0352 1.5837
vt -0.0352 1.0195
vt -0.0117 1.0195
vt -0.0117 0.9805
vt -0.0352 1.0195
vt -0.0117 0.9805
vt -0.0352 0.9805
vt -0.0352 1.0195
vt -0.0352 0.9805
vt -0.0117 0.9805
vt -0.0352 1.0195
vt -0.0117 0.9805
vt -0.0117 1.0195
vn 0.9941 0.0 0.1081
vn 0.9941 0.0 0.1081
vn 0.9941 0.0 0.1081
vn -0.7951 0.6055 0.0332
vn -0.7951 0.6055 0.0332
vn -0.7951 0.6055 0.0332
vn -0.9999 0.0 -0.0109
vn -0.9999 0.0 -0.0109
vn -0.9999 0.0 -0.0109
vn -0.7951 -0.6055 0.0332
vn -0.7951 -0.6055 0.0332
vn -0.7951 -0.6055 0.0332
vn 0.0 0.0 -1.0
vn 0.0 0.0 -1.0
vn 0.0 0.0 -1.0
vn 0.0 0.0 -1.0
vn 0.0 0.0 -1.0
vn 0.0 0.0 -1.0
vn 1.0 0.0 0.0
vn 1.0 0.0 0.0
vn 1.0 0.0 0.0
vn 1.0 0.0 0.0
vn 1.0 0.0 0.0
vn 1.0 0.0 0.0
vn -1.0 0.0 0.0
vn -1.0 0.0 0.0
vn -1.0 0.0 0.0
vn -1.0 0.0 0.0
vn -1.0 0.0 0.0
vn -1.0 0.0 0.0
vn 0.0 1.0 0.0
vn 0.0 1.0 0.0
vn 0.0 1.0 0.0
vn 0.0 1.0 0.0
vn 0.0 1.0 0.0
vn 0.0 1.0 0.0
vn 0.0 -1.0 0.0
vn 0.0 -1.0 0.0
vn 0.0 -1.0 0.0
vn 0.0 -1.0 0.0
vn 0.0 -1.0 0.0
vn 0.0 -1.0 0.0
vn 0.0 0.0 1.0
vn 0.0 0.0 1.0
vn 0.0 0.0 1.0
vn 0.0 0.0 1.0
vn 0.0 0.0 1.0
vn 0.0 0.0 1.0
vn 0.0 0.0 -1.0
vn 0.0 0.0 -1.0
vn 0.0 0.0 -1.0
vn 0.0 0.0 -1.0
vn 0.0 0.0 -1.0
vn 0.0 0.0 -1.0
vn 1.0 0.0 0.0
vn 1.0 0.0 0.0
vn 1.0 0.0 0.0
vn 1.0 0.0 0.0
vn 1.0 0.0 0.0
vn 1.0 0.0 0.0
vn -1.0 0.0 0.0
vn -1.0 0.0 0.0
vn -1.0 0.0 0.0
vn -1.0 0.0 0.0
vn -1.0 0.0 0.0
vn -1.0 0.0 0.0
vn 0.0 1.0 0.0
vn 0.0 1.0 0.0
vn 0.0 1.0 0.0
vn 0.0 1.0 0.0
vn 0.0 1.0 0.0
vn 0.0 1.0 0.0
vn 0.0 -1.0 0.0
vn 0.0 -1.0 0.0
vn 0.0 -1.0 0.0
vn 0.0 -1.0 0.0
vn 0.0 -1.0 0.0
vn 0.0 -1.0 0.0
vn 0.0 0.0 1.0
vn 0.0 0.0 1.0
vn 0.0 0.0 1.0
vn 0.0 0.0 1.0
vn 0.0 0.0 1.0
vn 0.0 0.0 1.0
vn 0.0 0.0 -1.0
vn 0.0 0.0 -1.0
vn 0.0 0.0 -1.0
vn 0.0 0.0 -1.0
vn 0.0 0.0 -1.0
vn 0.0 0.0 -1.0
g petal_body
usemtl MI_EBS_FWL_Vitrified
f 1/1/1 2/2/2 3/3/3
f 4/4/4 5/5/5 6/6/6
f 7/7/7 8/8/8 9/9/9
f 10/10/10 11/11/11 12/12/12
f 13/13/13 14/14/14 15/15/15
f 16/16/16 17/17/17 18/18/18
g petal_seam
usemtl MI_EBS_FWL_State
f 19/19/19 20/20/20 21/21/21
f 22/22/22 23/23/23 24/24/24
f 25/25/25 26/26/26 27/27/27
f 28/28/28 29/29/29 30/30/30
f 31/31/31 32/32/32 33/33/33
f 34/34/34 35/35/35 36/36/36
f 37/37/37 38/38/38 39/39/39
f 40/40/40 41/41/41 42/42/42
f 43/43/43 44/44/44 45/45/45
f 46/46/46 47/47/47 48/48/48
f 49/49/49 50/50/50 51/51/51
f 52/52/52 53/53/53 54/54/54
g petal_tip_mark
f 55/55/55 56/56/56 57/57/57
f 58/58/58 59/59/59 60/60/60
f 61/61/61 62/62/62 63/63/63
f 64/64/64 65/65/65 66/66/66
f 67/67/67 68/68/68 69/69/69
f 70/70/70 71/71/71 72/72/72
f 73/73/73 74/74/74 75/75/75
f 76/76/76 77/77/77 78/78/78
f 79/79/79 80/80/80 81/81/81
f 82/82/82 83/83/83 84/84/84
f 85/85/85 86/86/86 87/87/87
f 88/88/88 89/89/89 90/90/90
