# SM_EBS_FWL_SYS_001_Spire
# Author: Angelis Pseftis
# Frame: Unreal +X forward, +Y right, +Z up; centimeters; no axis conversion
# Kit: ebs-meshkit-v3
# Production ID EBS-FWL-SYS-001
# Revision ebs-fwl-sys-001-concept-v3
# LOD0
o SM_EBS_FWL_SYS_001_Spire
v 71.2347 -46.2604 0.0
v -50.8356 -78.2799 0.0
v -74.3659 48.2938 0.0
v 71.2347 -46.2604 0.0
v -74.3659 48.2938 0.0
v 50.8356 78.2799 0.0
v 50.8356 78.2799 0.0
v -74.3659 48.2938 0.0
v -50.5766 21.8025 83.6
v 50.8356 78.2799 0.0
v -50.5766 21.8025 83.6
v 27.61 54.1385 83.6
v 27.61 54.1385 83.6
v -50.5766 21.8025 83.6
v 7.0 -5.0 220.0
v -74.3659 48.2938 0.0
v -50.8356 -78.2799 0.0
v -22.29 -57.9385 83.6
v -74.3659 48.2938 0.0
v -22.29 -57.9385 83.6
v -50.5766 21.8025 83.6
v -50.5766 21.8025 83.6
v -22.29 -57.9385 83.6
v 7.0 -5.0 220.0
v -50.8356 -78.2799 0.0
v 71.2347 -46.2604 0.0
v 53.6551 -24.6045 83.6
v -50.8356 -78.2799 0.0
v 53.6551 -24.6045 83.6
v -22.29 -57.9385 83.6
v -22.29 -57.9385 83.6
v 53.6551 -24.6045 83.6
v 7.0 -5.0 220.0
v 71.2347 -46.2604 0.0
v 50.8356 78.2799 0.0
v 27.61 54.1385 83.6
v 71.2347 -46.2604 0.0
v 27.61 54.1385 83.6
v 53.6551 -24.6045 83.6
v 53.6551 -24.6045 83.6
v 27.61 54.1385 83.6
v 7.0 -5.0 220.0
v 29.1491 50.3502 90.0946
v 24.9312 53.3211 90.7454
v 28.5949 54.0431 90.42
v 10.4581 2.0012 210.452
v 6.7944 1.2792 210.7774
v 11.0123 -1.6917 210.1266
v 28.5949 54.0431 90.42
v 24.9312 53.3211 90.7454
v 6.7944 1.2792 210.7774
v 28.5949 54.0431 90.42
v 6.7944 1.2792 210.7774
v 10.4581 2.0012 210.452
v 24.9312 53.3211 90.7454
v 29.1491 50.3502 90.0946
v 11.0123 -1.6917 210.1266
v 24.9312 53.3211 90.7454
v 11.0123 -1.6917 210.1266
v 6.7944 1.2792 210.7774
v 29.1491 50.3502 90.0946
v 28.5949 54.0431 90.42
v 10.4581 2.0012 210.452
v 29.1491 50.3502 90.0946
v 10.4581 2.0012 210.452
v 11.0123 -1.6917 210.1266
v 51.9669 76.6445 4.3812
v 48.1972 78.8777 3.9788
v 51.2033 79.6539 4.18
v 30.7648 58.4095 77.748
v 27.7586 57.6333 77.5468
v 31.5284 55.4001 77.9492
v 51.2033 79.6539 4.18
v 48.1972 78.8777 3.9788
v 27.7586 57.6333 77.5468
v 51.2033 79.6539 4.18
v 27.7586 57.6333 77.5468
v 30.7648 58.4095 77.748
v 48.1972 78.8777 3.9788
v 51.9669 76.6445 4.3812
v 31.5284 55.4001 77.9492
v 48.1972 78.8777 3.9788
v 31.5284 55.4001 77.9492
v 27.7586 57.6333 77.5468
v 51.9669 76.6445 4.3812
v 51.2033 79.6539 4.18
v 30.7648 58.4095 77.748
v 51.9669 76.6445 4.3812
v 30.7648 58.4095 77.748
v 31.5284 55.4001 77.9492
v -47.5093 23.1749 90.5018
v -49.3791 18.3254 90.3382
v -50.9634 21.7215 90.42
v -0.296 -1.8646 210.452
v 1.2883 -5.2607 210.3702
v 3.1581 -0.4113 210.5338
v -50.9634 21.7215 90.42
v -49.3791 18.3254 90.3382
v 1.2883 -5.2607 210.3702
v -50.9634 21.7215 90.42
v 1.2883 -5.2607 210.3702
v -0.296 -1.8646 210.452
v -49.3791 18.3254 90.3382
v -47.5093 23.1749 90.5018
v 3.1581 -0.4113 210.5338
v -49.3791 18.3254 90.3382
v 3.1581 -0.4113 210.5338
v 1.2883 -5.2607 210.3702
v -47.5093 23.1749 90.5018
v -50.9634 21.7215 90.42
v -0.296 -1.8646 210.452
v -47.5093 23.1749 90.5018
v -0.296 -1.8646 210.452
v 3.1581 -0.4113 210.5338
v -72.8077 49.2615 4.4789
v -74.9406 45.4598 3.8811
v -75.7928 48.4371 4.18
v -54.8582 25.1247 77.748
v -54.006 22.1474 77.4491
v -51.8731 25.9492 78.0469
v -75.7928 48.4371 4.18
v -74.9406 45.4598 3.8811
v -54.006 22.1474 77.4491
v -75.7928 48.4371 4.18
v -54.006 22.1474 77.4491
v -54.8582 25.1247 77.748
v -74.9406 45.4598 3.8811
v -72.8077 49.2615 4.4789
v -51.8731 25.9492 78.0469
v -74.9406 45.4598 3.8811
v -51.8731 25.9492 78.0469
v -54.006 22.1474 77.4491
v -72.8077 49.2615 4.4789
v -75.7928 48.4371 4.18
v -54.8582 25.1247 77.748
v -72.8077 49.2615 4.4789
v -54.8582 25.1247 77.748
v -51.8731 25.9492 78.0469
v -23.5237 -55.4594 90.7223
v -18.5049 -56.6786 90.1177
v -21.6517 -58.6927 90.42
v 4.1235 -12.1068 210.452
v 7.2702 -10.0927 210.1497
v 2.2515 -8.8735 210.7543
v -21.6517 -58.6927 90.42
v -18.5049 -56.6786 90.1177
v 7.2702 -10.0927 210.1497
v -21.6517 -58.6927 90.42
v 7.2702 -10.0927 210.1497
v 4.1235 -12.1068 210.452
v -18.5049 -56.6786 90.1177
v -23.5237 -55.4594 90.7223
v 2.2515 -8.8735 210.7543
v -18.5049 -56.6786 90.1177
v 2.2515 -8.8735 210.7543
v 7.2702 -10.0927 210.1497
v -23.5237 -55.4594 90.7223
v -21.6517 -58.6927 90.42
v 4.1235 -12.1068 210.452
v -23.5237 -55.4594 90.7223
v 4.1235 -12.1068 210.452
v 2.2515 -8.8735 210.7543
v -51.6924 -76.9446 4.5818
v -47.8809 -78.9908 3.7782
v -50.8272 -79.9061 4.18
v -25.7071 -62.0056 77.748
v -22.7608 -61.0903 77.3462
v -26.5723 -59.0442 78.1498
v -50.8272 -79.9061 4.18
v -47.8809 -78.9908 3.7782
v -22.7608 -61.0903 77.3462
v -50.8272 -79.9061 4.18
v -22.7608 -61.0903 77.3462
v -25.7071 -62.0056 77.748
v -47.8809 -78.9908 3.7782
v -51.6924 -76.9446 4.5818
v -26.5723 -59.0442 78.1498
v -47.8809 -78.9908 3.7782
v -26.5723 -59.0442 78.1498
v -22.7608 -61.0903 77.3462
v -51.6924 -76.9446 4.5818
v -50.8272 -79.9061 4.18
v -25.7071 -62.0056 77.748
v -51.6924 -76.9446 4.5818
v -25.7071 -62.0056 77.748
v -26.5723 -59.0442 78.1498
v 50.9011 -26.3112 90.3658
v 53.1814 -21.6391 90.4742
v 54.4676 -25.1594 90.42
v 13.4112 -7.9075 210.452
v 12.125 -4.3872 210.5062
v 9.8446 -9.0592 210.3978
v 54.4676 -25.1594 90.42
v 53.1814 -21.6391 90.4742
v 12.125 -4.3872 210.5062
v 54.4676 -25.1594 90.42
v 12.125 -4.3872 210.5062
v 13.4112 -7.9075 210.452
v 53.1814 -21.6391 90.4742
v 50.9011 -26.3112 90.3658
v 9.8446 -9.0592 210.3978
v 53.1814 -21.6391 90.4742
v 9.8446 -9.0592 210.3978
v 12.125 -4.3872 210.5062
v 50.9011 -26.3112 90.3658
v 54.4676 -25.1594 90.42
v 13.4112 -7.9075 210.452
v 50.9011 -26.3112 90.3658
v 13.4112 -7.9075 210.452
v 9.8446 -9.0592 210.3978
v 69.9737 -47.4718 4.4454
v 72.1293 -43.6729 3.9146
v 72.965 -46.6581 4.18
v 57.4949 -27.6009 77.748
v 56.6592 -24.6157 77.4826
v 54.5036 -28.4146 78.0134
v 72.965 -46.6581 4.18
v 72.1293 -43.6729 3.9146
v 56.6592 -24.6157 77.4826
v 72.965 -46.6581 4.18
v 56.6592 -24.6157 77.4826
v 57.4949 -27.6009 77.748
v 72.1293 -43.6729 3.9146
v 69.9737 -47.4718 4.4454
v 54.5036 -28.4146 78.0134
v 72.1293 -43.6729 3.9146
v 54.5036 -28.4146 78.0134
v 56.6592 -24.6157 77.4826
v 69.9737 -47.4718 4.4454
v 72.965 -46.6581 4.18
v 57.4949 -27.6009 77.748
v 69.9737 -47.4718 4.4454
v 57.4949 -27.6009 77.748
v 54.5036 -28.4146 78.0134
vt 0.2783 1.1807
vt -0.1986 1.3058
vt -0.2905 0.8114
vt 0.2783 1.1807
vt -0.2905 0.8114
vt 0.1986 0.6942
vt 0.1986 1.0
vt -0.2905 1.0
vt -0.1976 1.3266
vt 0.1986 1.0
vt -0.1976 1.3266
vt 0.1079 1.3266
vt 0.1079 1.3266
vt -0.1976 1.3266
vt 0.0273 1.8594
vt 0.1886 1.0
vt -0.3058 1.0
vt -0.2263 1.3266
vt 0.1886 1.0
vt -0.2263 1.3266
vt 0.0852 1.3266
vt 0.0852 1.3266
vt -0.2263 1.3266
vt -0.0195 1.8594
vt -0.1986 1.0
vt 0.2783 1.0
vt 0.2096 1.3266
vt -0.1986 1.0
vt 0.2096 1.3266
vt -0.0871 1.3266
vt -0.0871 1.3266
vt 0.2096 1.3266
vt 0.0273 1.8594
vt -0.1807 1.0
vt 0.3058 1.0
vt 0.2115 1.3266
vt -0.1807 1.0
vt 0.2115 1.3266
vt -0.0961 1.3266
vt -0.0961 1.3266
vt 0.2115 1.3266
vt -0.0195 1.8594
vt 0.1139 0.8033
vt 0.0974 0.7917
vt 0.1117 0.7889
vt 0.0409 0.9922
vt 0.0265 0.995
vt 0.043 1.0066
vt 0.1117 1.3532
vt 0.0974 1.3545
vt 0.0265 1.8233
vt 0.1117 1.3532
vt 0.0265 1.8233
vt 0.0409 1.8221
vt 0.0974 1.3545
vt 0.1139 1.3519
vt 0.043 1.8208
vt 0.0974 1.3545
vt 0.043 1.8208
vt 0.0265 1.8233
vt 0.1967 1.3519
vt 0.2111 1.3532
vt 0.0078 1.8221
vt 0.1967 1.3519
vt 0.0078 1.8221
vt -0.0066 1.8208
vt 0.203 0.7006
vt 0.1883 0.6919
vt 0.2 0.6889
vt 0.1202 0.7718
vt 0.1084 0.7749
vt 0.1232 0.7836
vt 0.2 1.0163
vt 0.1883 1.0155
vt 0.1084 1.3029
vt 0.2 1.0163
vt 0.1084 1.3029
vt 0.1202 1.3037
vt 0.1883 1.0155
vt 0.203 1.0171
vt 0.1232 1.3045
vt 0.1883 1.0155
vt 0.1232 1.3045
vt 0.1084 1.3029
vt 0.2994 1.0171
vt 0.3111 1.0163
vt 0.2282 1.3037
vt 0.2994 1.0171
vt 0.2282 1.3037
vt 0.2164 1.3045
vt -0.1856 0.9095
vt -0.1929 0.9284
vt -0.1991 0.9152
vt -0.0012 1.0073
vt 0.005 1.0205
vt 0.0123 1.0016
vt 0.0848 1.3532
vt 0.0716 1.3529
vt -0.0205 1.8218
vt 0.0848 1.3532
vt -0.0205 1.8218
vt -0.0073 1.8221
vt 0.0716 1.3529
vt 0.0905 1.3535
vt -0.0016 1.8224
vt 0.0716 1.3529
vt -0.0016 1.8224
vt -0.0205 1.8218
vt -0.1856 1.3535
vt -0.1991 1.3532
vt -0.0012 1.8221
vt -0.1856 1.3535
vt -0.0012 1.8221
vt 0.0123 1.8224
vt -0.2844 0.8076
vt -0.2927 0.8224
vt -0.2961 0.8108
vt -0.2143 0.9019
vt -0.211 0.9135
vt -0.2026 0.8986
vt 0.1892 1.0163
vt 0.1776 1.0152
vt 0.0865 1.3025
vt 0.1892 1.0163
vt 0.0865 1.3025
vt 0.0981 1.3037
vt 0.1776 1.0152
vt 0.1924 1.0175
vt 0.1014 1.3049
vt 0.1776 1.0152
vt 0.1014 1.3049
vt 0.0865 1.3025
vt -0.2844 1.0175
vt -0.2961 1.0163
vt -0.2143 1.3037
vt -0.2844 1.0175
vt -0.2143 1.3037
vt -0.2026 1.3049
vt -0.0919 1.2166
vt -0.0723 1.2214
vt -0.0846 1.2293
vt 0.0161 1.0473
vt 0.0284 1.0394
vt 0.0088 1.0347
vt -0.0846 1.3532
vt -0.0723 1.352
vt 0.0284 1.8209
vt -0.0846 1.3532
vt 0.0284 1.8209
vt 0.0161 1.8221
vt -0.0723 1.352
vt -0.0919 1.3544
vt 0.0088 1.8233
vt -0.0723 1.352
vt 0.0088 1.8233
vt 0.0284 1.8209
vt -0.2166 1.3544
vt -0.2293 1.3532
vt -0.0473 1.8221
vt -0.2166 1.3544
vt -0.0473 1.8221
vt -0.0347 1.8233
vt -0.2019 1.3006
vt -0.187 1.3086
vt -0.1985 1.3121
vt -0.1004 1.2422
vt -0.0889 1.2386
vt -0.1038 1.2306
vt -0.1985 1.0163
vt -0.187 1.0148
vt -0.0889 1.3021
vt -0.1985 1.0163
vt -0.0889 1.3021
vt -0.1004 1.3037
vt -0.187 1.0148
vt -0.2019 1.0179
vt -0.1038 1.3053
vt -0.187 1.0148
vt -0.1038 1.3053
vt -0.0889 1.3021
vt -0.3006 1.0179
vt -0.3121 1.0163
vt -0.2422 1.3037
vt -0.3006 1.0179
vt -0.2422 1.3037
vt -0.2306 1.3053
vt 0.1988 1.1028
vt 0.2077 1.0845
vt 0.2128 1.0983
vt 0.0524 1.0309
vt 0.0474 1.0171
vt 0.0385 1.0354
vt -0.0983 1.3532
vt -0.0845 1.3534
vt -0.0171 1.8223
vt -0.0983 1.3532
vt -0.0171 1.8223
vt -0.0309 1.8221
vt -0.0845 1.3534
vt -0.1028 1.353
vt -0.0354 1.8219
vt -0.0845 1.3534
vt -0.0354 1.8219
vt -0.0171 1.8223
vt 0.1988 1.353
vt 0.2128 1.3532
vt 0.0524 1.8221
vt 0.1988 1.353
vt 0.0524 1.8221
vt 0.0385 1.8219
vt 0.2733 1.1854
vt 0.2818 1.1706
vt 0.285 1.1823
vt 0.2246 1.1078
vt 0.2213 1.0962
vt 0.2129 1.111
vt -0.1823 1.0163
vt -0.1706 1.0153
vt -0.0962 1.3027
vt -0.1823 1.0163
vt -0.0962 1.3027
vt -0.1078 1.3037
vt -0.1706 1.0153
vt -0.1854 1.0174
vt -0.111 1.3047
vt -0.1706 1.0153
vt -0.111 1.3047
vt -0.0962 1.3027
vt 0.2733 1.0174
vt 0.285 1.0163
vt 0.2246 1.3037
vt 0.2733 1.0174
vt 0.2246 1.3037
vt 0.2129 1.3047
vn 0.0 0.0 -1.0
vn 0.0 0.0 -1.0
vn 0.0 0.0 -1.0
vn 0.0 0.0 -1.0
vn 0.0 0.0 -1.0
vn 0.0 0.0 -1.0
vn -0.2181 0.9107 0.3507
vn -0.2181 0.9107 0.3507
vn -0.2181 0.9107 0.3507
vn -0.3773 0.9124 0.1586
vn -0.3773 0.9124 0.1586
vn -0.3773 0.9124 0.1586
vn -0.3615 0.8741 0.3244
vn -0.3615 0.8741 0.3244
vn -0.3615 0.8741 0.3244
vn -0.919 -0.1708 0.3554
vn -0.919 -0.1708 0.3554
vn -0.919 -0.1708 0.3554
vn -0.9303 -0.33 0.1602
vn -0.9303 -0.33 0.1602
vn -0.9303 -0.33 0.1602
vn -0.8944 -0.3173 0.3152
vn -0.8944 -0.3173 0.3152
vn -0.8944 -0.3173 0.3152
vn 0.2428 -0.9255 0.2908
vn 0.2428 -0.9255 0.2908
vn 0.2428 -0.9255 0.2908
vn 0.4004 -0.9123 0.0853
vn 0.4004 -0.9123 0.0853
vn 0.4004 -0.9123 0.0853
vn 0.3881 -0.8842 0.2598
vn 0.3881 -0.8842 0.2598
vn 0.3881 -0.8842 0.2598
vn 0.9397 0.1539 0.3055
vn 0.9397 0.1539 0.3055
vn 0.9397 0.1539 0.3055
vn 0.9428 0.3119 0.1175
vn 0.9428 0.3119 0.1175
vn 0.9428 0.3119 0.1175
vn 0.9143 0.3024 0.2693
vn 0.9143 0.3024 0.2693
vn 0.9143 0.3024 0.2693
vn -0.1023 0.0721 -0.9921
vn -0.1023 0.0721 -0.9921
vn -0.1023 0.0721 -0.9921
vn 0.1023 -0.0721 0.9921
vn 0.1023 -0.0721 0.9921
vn 0.1023 -0.0721 0.9921
vn -0.1471 0.9154 0.3747
vn -0.1471 0.9154 0.3747
vn -0.1471 0.9154 0.3747
vn -0.1471 0.9154 0.3747
vn -0.1471 0.9154 0.3747
vn -0.1471 0.9154 0.3747
vn -0.5685 -0.72 -0.3981
vn -0.5685 -0.72 -0.3981
vn -0.5685 -0.72 -0.3981
vn -0.5685 -0.72 -0.3981
vn -0.5685 -0.72 -0.3981
vn -0.5685 -0.72 -0.3981
vn 0.971 0.1279 0.2022
vn 0.971 0.1279 0.2022
vn 0.971 0.1279 0.2022
vn 0.971 0.1279 0.2022
vn 0.971 0.1279 0.2022
vn 0.971 0.1279 0.2022
vn 0.0787 -0.0466 -0.9958
vn 0.0787 -0.0466 -0.9958
vn 0.0787 -0.0466 -0.9958
vn -0.0787 0.0466 0.9958
vn -0.0787 0.0466 0.9958
vn -0.0787 0.0466 0.9958
vn -0.2575 0.9451 0.2014
vn -0.2575 0.9451 0.2014
vn -0.2575 0.9451 0.2014
vn -0.2575 0.9451 0.2014
vn -0.2575 0.9451 0.2014
vn -0.2575 0.9451 0.2014
vn -0.4466 -0.8189 -0.3605
vn -0.4466 -0.8189 -0.3605
vn -0.4466 -0.8189 -0.3605
vn -0.4466 -0.8189 -0.3605
vn -0.4466 -0.8189 -0.3605
vn -0.4466 -0.8189 -0.3605
vn 0.9109 0.2529 0.3261
vn 0.9109 0.2529 0.3261
vn 0.9109 0.2529 0.3261
vn 0.9109 0.2529 0.3261
vn 0.9109 0.2529 0.3261
vn 0.9109 0.2529 0.3261
vn 0.0113 0.0294 -0.9995
vn 0.0113 0.0294 -0.9995
vn 0.0113 0.0294 -0.9995
vn -0.0113 -0.0294 0.9995
vn -0.0113 -0.0294 0.9995
vn -0.0113 -0.0294 0.9995
vn -0.8661 -0.4109 0.2848
vn -0.8661 -0.4109 0.2848
vn -0.8661 -0.4109 0.2848
vn -0.8661 -0.4109 0.2848
vn -0.8661 -0.4109 0.2848
vn -0.8661 -0.4109 0.2848
vn 0.851 -0.3139 -0.4209
vn 0.851 -0.3139 -0.4209
vn 0.851 -0.3139 -0.4209
vn 0.851 -0.3139 -0.4209
vn 0.851 -0.3139 -0.4209
vn 0.851 -0.3139 -0.4209
vn -0.373 0.8679 0.328
vn -0.373 0.8679 0.328
vn -0.373 0.8679 0.328
vn -0.373 0.8679 0.328
vn -0.373 0.8679 0.328
vn -0.373 0.8679 0.328
vn 0.0665 0.1185 -0.9907
vn 0.0665 0.1185 -0.9907
vn 0.0665 0.1185 -0.9907
vn -0.0665 -0.1185 0.9907
vn -0.0665 -0.1185 0.9907
vn -0.0665 -0.1185 0.9907
vn -0.9414 -0.2872 0.1769
vn -0.9414 -0.2872 0.1769
vn -0.9414 -0.2872 0.1769
vn -0.9414 -0.2872 0.1769
vn -0.9414 -0.2872 0.1769
vn -0.9414 -0.2872 0.1769
vn 0.8346 -0.4104 -0.3675
vn 0.8346 -0.4104 -0.3675
vn 0.8346 -0.4104 -0.3675
vn 0.8346 -0.4104 -0.3675
vn 0.8346 -0.4104 -0.3675
vn 0.8346 -0.4104 -0.3675
vn -0.2817 0.8887 0.3618
vn -0.2817 0.8887 0.3618
vn -0.2817 0.8887 0.3618
vn -0.2817 0.8887 0.3618
vn -0.2817 0.8887 0.3618
vn -0.2817 0.8887 0.3618
vn -0.113 0.0274 -0.9932
vn -0.113 0.0274 -0.9932
vn -0.113 0.0274 -0.9932
vn 0.113 -0.0274 0.9932
vn 0.113 -0.0274 0.9932
vn 0.113 -0.0274 0.9932
vn 0.5417 -0.8163 0.2005
vn 0.5417 -0.8163 0.2005
vn 0.5417 -0.8163 0.2005
vn 0.5417 -0.8163 0.2005
vn 0.5417 -0.8163 0.2005
vn 0.5417 -0.8163 0.2005
vn 0.1731 0.9051 -0.3884
vn 0.1731 0.9051 -0.3884
vn 0.1731 0.9051 -0.3884
vn 0.1731 0.9051 -0.3884
vn 0.1731 0.9051 -0.3884
vn 0.1731 0.9051 -0.3884
vn -0.792 -0.4923 0.3611
vn -0.792 -0.4923 0.3611
vn -0.792 -0.4923 0.3611
vn -0.792 -0.4923 0.3611
vn -0.792 -0.4923 0.3611
vn -0.792 -0.4923 0.3611
vn -0.1609 0.0864 -0.9832
vn -0.1609 0.0864 -0.9832
vn -0.1609 0.0864 -0.9832
vn 0.1609 -0.0864 0.9832
vn 0.1609 -0.0864 0.9832
vn 0.1609 -0.0864 0.9832
vn 0.3097 -0.9428 0.1236
vn 0.3097 -0.9428 0.1236
vn 0.3097 -0.9428 0.1236
vn 0.3097 -0.9428 0.1236
vn 0.3097 -0.9428 0.1236
vn 0.3097 -0.9428 0.1236
vn 0.3879 0.8564 -0.3408
vn 0.3879 0.8564 -0.3408
vn 0.3879 0.8564 -0.3408
vn 0.3879 0.8564 -0.3408
vn 0.3879 0.8564 -0.3408
vn 0.3879 0.8564 -0.3408
vn -0.8755 -0.3065 0.3735
vn -0.8755 -0.3065 0.3735
vn -0.8755 -0.3065 0.3735
vn -0.8755 -0.3065 0.3735
vn -0.8755 -0.3065 0.3735
vn -0.8755 -0.3065 0.3735
vn 0.0091 0.0187 -0.9998
vn 0.0091 0.0187 -0.9998
vn 0.0091 0.0187 -0.9998
vn -0.0091 -0.0187 0.9998
vn -0.0091 -0.0187 0.9998
vn -0.0091 -0.0187 0.9998
vn 0.9074 0.3275 0.2633
vn 0.9074 0.3275 0.2633
vn 0.9074 0.3275 0.2633
vn 0.9074 0.3275 0.2633
vn 0.9074 0.3275 0.2633
vn 0.9074 0.3275 0.2633
vn -0.8396 0.4178 -0.3472
vn -0.8396 0.4178 -0.3472
vn -0.8396 0.4178 -0.3472
vn -0.8396 0.4178 -0.3472
vn -0.8396 0.4178 -0.3472
vn -0.8396 0.4178 -0.3472
vn 0.2955 -0.9262 0.2342
vn 0.2955 -0.9262 0.2342
vn 0.2955 -0.9262 0.2342
vn 0.2955 -0.9262 0.2342
vn 0.2955 -0.9262 0.2342
vn 0.2955 -0.9262 0.2342
vn -0.0595 -0.1049 -0.9927
vn -0.0595 -0.1049 -0.9927
vn -0.0595 -0.1049 -0.9927
vn 0.0595 0.1049 0.9927
vn 0.0595 0.1049 0.9927
vn 0.0595 0.1049 0.9927
vn 0.952 0.2779 0.1282
vn 0.952 0.2779 0.1282
vn 0.952 0.2779 0.1282
vn 0.952 0.2779 0.1282
vn 0.952 0.2779 0.1282
vn 0.952 0.2779 0.1282
vn -0.8486 0.4407 -0.2926
vn -0.8486 0.4407 -0.2926
vn -0.8486 0.4407 -0.2926
vn -0.8486 0.4407 -0.2926
vn -0.8486 0.4407 -0.2926
vn -0.8486 0.4407 -0.2926
vn 0.2751 -0.9151 0.2949
vn 0.2751 -0.9151 0.2949
vn 0.2751 -0.9151 0.2949
vn 0.2751 -0.9151 0.2949
vn 0.2751 -0.9151 0.2949
vn 0.2751 -0.9151 0.2949
g spire_body
usemtl MI_EBS_FWL_Vitrified
f 1/1/1 2/2/2 3/3/3
f 4/4/4 5/5/5 6/6/6
f 7/7/7 8/8/8 9/9/9
f 10/10/10 11/11/11 12/12/12
f 13/13/13 14/14/14 15/15/15
f 16/16/16 17/17/17 18/18/18
f 19/19/19 20/20/20 21/21/21
f 22/22/22 23/23/23 24/24/24
f 25/25/25 26/26/26 27/27/27
f 28/28/28 29/29/29 30/30/30
f 31/31/31 32/32/32 33/33/33
f 34/34/34 35/35/35 36/36/36
f 37/37/37 38/38/38 39/39/39
f 40/40/40 41/41/41 42/42/42
g spire_seam_01
usemtl MI_EBS_FWL_State
f 43/43/43 44/44/44 45/45/45
f 46/46/46 47/47/47 48/48/48
f 49/49/49 50/50/50 51/51/51
f 52/52/52 53/53/53 54/54/54
f 55/55/55 56/56/56 57/57/57
f 58/58/58 59/59/59 60/60/60
f 61/61/61 62/62/62 63/63/63
f 64/64/64 65/65/65 66/66/66
f 67/67/67 68/68/68 69/69/69
f 70/70/70 71/71/71 72/72/72
f 73/73/73 74/74/74 75/75/75
f 76/76/76 77/77/77 78/78/78
f 79/79/79 80/80/80 81/81/81
f 82/82/82 83/83/83 84/84/84
f 85/85/85 86/86/86 87/87/87
f 88/88/88 89/89/89 90/90/90
g spire_seam_02
f 91/91/91 92/92/92 93/93/93
f 94/94/94 95/95/95 96/96/96
f 97/97/97 98/98/98 99/99/99
f 100/100/100 101/101/101 102/102/102
f 103/103/103 104/104/104 105/105/105
f 106/106/106 107/107/107 108/108/108
f 109/109/109 110/110/110 111/111/111
f 112/112/112 113/113/113 114/114/114
f 115/115/115 116/116/116 117/117/117
f 118/118/118 119/119/119 120/120/120
f 121/121/121 122/122/122 123/123/123
f 124/124/124 125/125/125 126/126/126
f 127/127/127 128/128/128 129/129/129
f 130/130/130 131/131/131 132/132/132
f 133/133/133 134/134/134 135/135/135
f 136/136/136 137/137/137 138/138/138
g spire_seam_03
f 139/139/139 140/140/140 141/141/141
f 142/142/142 143/143/143 144/144/144
f 145/145/145 146/146/146 147/147/147
f 148/148/148 149/149/149 150/150/150
f 151/151/151 152/152/152 153/153/153
f 154/154/154 155/155/155 156/156/156
f 157/157/157 158/158/158 159/159/159
f 160/160/160 161/161/161 162/162/162
f 163/163/163 164/164/164 165/165/165
f 166/166/166 167/167/167 168/168/168
f 169/169/169 170/170/170 171/171/171
f 172/172/172 173/173/173 174/174/174
f 175/175/175 176/176/176 177/177/177
f 178/178/178 179/179/179 180/180/180
f 181/181/181 182/182/182 183/183/183
f 184/184/184 185/185/185 186/186/186
g spire_seam_04
f 187/187/187 188/188/188 189/189/189
f 190/190/190 191/191/191 192/192/192
f 193/193/193 194/194/194 195/195/195
f 196/196/196 197/197/197 198/198/198
f 199/199/199 200/200/200 201/201/201
f 202/202/202 203/203/203 204/204/204
f 205/205/205 206/206/206 207/207/207
f 208/208/208 209/209/209 210/210/210
f 211/211/211 212/212/212 213/213/213
f 214/214/214 215/215/215 216/216/216
f 217/217/217 218/218/218 219/219/219
f 220/220/220 221/221/221 222/222/222
f 223/223/223 224/224/224 225/225/225
f 226/226/226 227/227/227 228/228/228
f 229/229/229 230/230/230 231/231/231
f 232/232/232 233/233/233 234/234/234
