# SM_EBS_FWL_SYS_001_Spire
# Author: Angelis Pseftis
# Frame: Unreal +X forward, +Y right, +Z up; centimeters; no axis conversion
# Kit: ebs-meshkit-v3
# Production ID EBS-FWL-SYS-001
# Revision ebs-fwl-sys-001-concept-v3
# LOD1
o SM_EBS_FWL_SYS_001_Spire
v 71.2347 -46.2604 0.0
v -50.8356 -78.2799 0.0
v -74.3659 48.2938 0.0
v 71.2347 -46.2604 0.0
v -74.3659 48.2938 0.0
v 50.8356 78.2799 0.0
v 50.8356 78.2799 0.0
v -74.3659 48.2938 0.0
v -50.5766 21.8025 83.6
v 50.8356 78.2799 0.0
v -50.5766 21.8025 83.6
v 27.61 54.1385 83.6
v 27.61 54.1385 83.6
v -50.5766 21.8025 83.6
v 7.0 -5.0 220.0
v -74.3659 48.2938 0.0
v -50.8356 -78.2799 0.0
v -22.29 -57.9385 83.6
v -74.3659 48.2938 0.0
v -22.29 -57.9385 83.6
v -50.5766 21.8025 83.6
v -50.5766 21.8025 83.6
v -22.29 -57.9385 83.6
v 7.0 -5.0 220.0
v -50.8356 -78.2799 0.0
v 71.2347 -46.2604 0.0
v 53.6551 -24.6045 83.6
v -50.8356 -78.2799 0.0
v 53.6551 -24.6045 83.6
v -22.29 -57.9385 83.6
v -22.29 -57.9385 83.6
v 53.6551 -24.6045 83.6
v 7.0 -5.0 220.0
v 71.2347 -46.2604 0.0
v 50.8356 78.2799 0.0
v 27.61 54.1385 83.6
v 71.2347 -46.2604 0.0
v 27.61 54.1385 83.6
v 53.6551 -24.6045 83.6
v 53.6551 -24.6045 83.6
v 27.61 54.1385 83.6
v 7.0 -5.0 220.0
v 29.1491 50.3502 90.0946
v 24.9312 53.3211 90.7454
v 28.5949 54.0431 90.42
v 10.4581 2.0012 210.452
v 6.7944 1.2792 210.7774
v 11.0123 -1.6917 210.1266
v 28.5949 54.0431 90.42
v 24.9312 53.3211 90.7454
v 6.7944 1.2792 210.7774
v 28.5949 54.0431 90.42
v 6.7944 1.2792 210.7774
v 10.4581 2.0012 210.452
v 24.9312 53.3211 90.7454
v 29.1491 50.3502 90.0946
v 11.0123 -1.6917 210.1266
v 24.9312 53.3211 90.7454
v 11.0123 -1.6917 210.1266
v 6.7944 1.2792 210.7774
v 29.1491 50.3502 90.0946
v 28.5949 54.0431 90.42
v 10.4581 2.0012 210.452
v 29.1491 50.3502 90.0946
v 10.4581 2.0012 210.452
v 11.0123 -1.6917 210.1266
v -47.5093 23.1749 90.5018
v -49.3791 18.3254 90.3382
v -50.9634 21.7215 90.42
v -0.296 -1.8646 210.452
v 1.2883 -5.2607 210.3702
v 3.1581 -0.4113 210.5338
v -50.9634 21.7215 90.42
v -49.3791 18.3254 90.3382
v 1.2883 -5.2607 210.3702
v -50.9634 21.7215 90.42
v 1.2883 -5.2607 210.3702
v -0.296 -1.8646 210.452
v -49.3791 18.3254 90.3382
v -47.5093 23.1749 90.5018
v 3.1581 -0.4113 210.5338
v -49.3791 18.3254 90.3382
v 3.1581 -0.4113 210.5338
v 1.2883 -5.2607 210.3702
v -47.5093 23.1749 90.5018
v -50.9634 21.7215 90.42
v -0.296 -1.8646 210.452
v -47.5093 23.1749 90.5018
v -0.296 -1.8646 210.452
v 3.1581 -0.4113 210.5338
v -23.5237 -55.4594 90.7223
v -18.5049 -56.6786 90.1177
v -21.6517 -58.6927 90.42
v 4.1235 -12.1068 210.452
v 7.2702 -10.0927 210.1497
v 2.2515 -8.8735 210.7543
v -21.6517 -58.6927 90.42
v -18.5049 -56.6786 90.1177
v 7.2702 -10.0927 210.1497
v -21.6517 -58.6927 90.42
v 7.2702 -10.0927 210.1497
v 4.1235 -12.1068 210.452
v -18.5049 -56.6786 90.1177
v -23.5237 -55.4594 90.7223
v 2.2515 -8.8735 210.7543
v -18.5049 -56.6786 90.1177
v 2.2515 -8.8735 210.7543
v 7.2702 -10.0927 210.1497
v -23.5237 -55.4594 90.7223
v -21.6517 -58.6927 90.42
v 4.1235 -12.1068 210.452
v -23.5237 -55.4594 90.7223
v 4.1235 -12.1068 210.452
v 2.2515 -8.8735 210.7543
v 50.9011 -26.3112 90.3658
v 53.1814 -21.6391 90.4742
v 54.4676 -25.1594 90.42
v 13.4112 -7.9075 210.452
v 12.125 -4.3872 210.5062
v 9.8446 -9.0592 210.3978
v 54.4676 -25.1594 90.42
v 53.1814 -21.6391 90.4742
v 12.125 -4.3872 210.5062
v 54.4676 -25.1594 90.42
v 12.125 -4.3872 210.5062
v 13.4112 -7.9075 210.452
v 53.1814 -21.6391 90.4742
v 50.9011 -26.3112 90.3658
v 9.8446 -9.0592 210.3978
v 53.1814 -21.6391 90.4742
v 9.8446 -9.0592 210.3978
v 12.125 -4.3872 210.5062
v 50.9011 -26.3112 90.3658
v 54.4676 -25.1594 90.42
v 13.4112 -7.9075 210.452
v 50.9011 -26.3112 90.3658
v 13.4112 -7.9075 210.452
v 9.8446 -9.0592 210.3978
vt 0.2783 1.1807
vt -0.1986 1.3058
vt -0.2905 0.8114
vt 0.2783 1.1807
vt -0.2905 0.8114
vt 0.1986 0.6942
vt 0.1986 1.0
vt -0.2905 1.0
vt -0.1976 1.3266
vt 0.1986 1.0
vt -0.1976 1.3266
vt 0.1079 1.3266
vt 0.1079 1.3266
vt -0.1976 1.3266
vt 0.0273 1.8594
vt 0.1886 1.0
vt -0.3058 1.0
vt -0.2263 1.3266
vt 0.1886 1.0
vt -0.2263 1.3266
vt 0.0852 1.3266
vt 0.0852 1.3266
vt -0.2263 1.3266
vt -0.0195 1.8594
vt -0.1986 1.0
vt 0.2783 1.0
vt 0.2096 1.3266
vt -0.1986 1.0
vt 0.2096 1.3266
vt -0.0871 1.3266
vt -0.0871 1.3266
vt 0.2096 1.3266
vt 0.0273 1.8594
vt -0.1807 1.0
vt 0.3058 1.0
vt 0.2115 1.3266
vt -0.1807 1.0
vt 0.2115 1.3266
vt -0.0961 1.3266
vt -0.0961 1.3266
vt 0.2115 1.3266
vt -0.0195 1.8594
vt 0.1139 0.8033
vt 0.0974 0.7917
vt 0.1117 0.7889
vt 0.0409 0.9922
vt 0.0265 0.995
vt 0.043 1.0066
vt 0.1117 1.3532
vt 0.0974 1.3545
vt 0.0265 1.8233
vt 0.1117 1.3532
vt 0.0265 1.8233
vt 0.0409 1.8221
vt 0.0974 1.3545
vt 0.1139 1.3519
vt 0.043 1.8208
vt 0.0974 1.3545
vt 0.043 1.8208
vt 0.0265 1.8233
vt 0.1967 1.3519
vt 0.2111 1.3532
vt 0.0078 1.8221
vt 0.1967 1.3519
vt 0.0078 1.8221
vt -0.0066 1.8208
vt -0.1856 0.9095
vt -0.1929 0.9284
vt -0.1991 0.9152
vt -0.0012 1.0073
vt 0.005 1.0205
vt 0.0123 1.0016
vt 0.0848 1.3532
vt 0.0716 1.3529
vt -0.0205 1.8218
vt 0.0848 1.3532
vt -0.0205 1.8218
vt -0.0073 1.8221
vt 0.0716 1.3529
vt 0.0905 1.3535
vt -0.0016 1.8224
vt 0.0716 1.3529
vt -0.0016 1.8224
vt -0.0205 1.8218
vt -0.1856 1.3535
vt -0.1991 1.3532
vt -0.0012 1.8221
vt -0.1856 1.3535
vt -0.0012 1.8221
vt 0.0123 1.8224
vt -0.0919 1.2166
vt -0.0723 1.2214
vt -0.0846 1.2293
vt 0.0161 1.0473
vt 0.0284 1.0394
vt 0.0088 1.0347
vt -0.0846 1.3532
vt -0.0723 1.352
vt 0.0284 1.8209
vt -0.0846 1.3532
vt 0.0284 1.8209
vt 0.0161 1.8221
vt -0.0723 1.352
vt -0.0919 1.3544
vt 0.0088 1.8233
vt -0.0723 1.352
vt 0.0088 1.8233
vt 0.0284 1.8209
vt -0.2166 1.3544
vt -0.2293 1.3532
vt -0.0473 1.8221
vt -0.2166 1.3544
vt -0.0473 1.8221
vt -0.0347 1.8233
vt 0.1988 1.1028
vt 0.2077 1.0845
vt 0.2128 1.0983
vt 0.0524 1.0309
vt 0.0474 1.0171
vt 0.0385 1.0354
vt -0.0983 1.3532
vt -0.0845 1.3534
vt -0.0171 1.8223
vt -0.0983 1.3532
vt -0.0171 1.8223
vt -0.0309 1.8221
vt -0.0845 1.3534
vt -0.1028 1.353
vt -0.0354 1.8219
vt -0.0845 1.3534
vt -0.0354 1.8219
vt -0.0171 1.8223
vt 0.1988 1.353
vt 0.2128 1.3532
vt 0.0524 1.8221
vt 0.1988 1.353
vt 0.0524 1.8221
vt 0.0385 1.8219
vn 0.0 0.0 -1.0
vn 0.0 0.0 -1.0
vn 0.0 0.0 -1.0
vn 0.0 0.0 -1.0
vn 0.0 0.0 -1.0
vn 0.0 0.0 -1.0
vn -0.2181 0.9107 0.3507
vn -0.2181 0.9107 0.3507
vn -0.2181 0.9107 0.3507
vn -0.3773 0.9124 0.1586
vn -0.3773 0.9124 0.1586
vn -0.3773 0.9124 0.1586
vn -0.3615 0.8741 0.3244
vn -0.3615 0.8741 0.3244
vn -0.3615 0.8741 0.3244
vn -0.919 -0.1708 0.3554
vn -0.919 -0.1708 0.3554
vn -0.919 -0.1708 0.3554
vn -0.9303 -0.33 0.1602
vn -0.9303 -0.33 0.1602
vn -0.9303 -0.33 0.1602
vn -0.8944 -0.3173 0.3152
vn -0.8944 -0.3173 0.3152
vn -0.8944 -0.3173 0.3152
vn 0.2428 -0.9255 0.2908
vn 0.2428 -0.9255 0.2908
vn 0.2428 -0.9255 0.2908
vn 0.4004 -0.9123 0.0853
vn 0.4004 -0.9123 0.0853
vn 0.4004 -0.9123 0.0853
vn 0.3881 -0.8842 0.2598
vn 0.3881 -0.8842 0.2598
vn 0.3881 -0.8842 0.2598
vn 0.9397 0.1539 0.3055
vn 0.9397 0.1539 0.3055
vn 0.9397 0.1539 0.3055
vn 0.9428 0.3119 0.1175
vn 0.9428 0.3119 0.1175
vn 0.9428 0.3119 0.1175
vn 0.9143 0.3024 0.2693
vn 0.9143 0.3024 0.2693
vn 0.9143 0.3024 0.2693
vn -0.1023 0.0721 -0.9921
vn -0.1023 0.0721 -0.9921
vn -0.1023 0.0721 -0.9921
vn 0.1023 -0.0721 0.9921
vn 0.1023 -0.0721 0.9921
vn 0.1023 -0.0721 0.9921
vn -0.1471 0.9154 0.3747
vn -0.1471 0.9154 0.3747
vn -0.1471 0.9154 0.3747
vn -0.1471 0.9154 0.3747
vn -0.1471 0.9154 0.3747
vn -0.1471 0.9154 0.3747
vn -0.5685 -0.72 -0.3981
vn -0.5685 -0.72 -0.3981
vn -0.5685 -0.72 -0.3981
vn -0.5685 -0.72 -0.3981
vn -0.5685 -0.72 -0.3981
vn -0.5685 -0.72 -0.3981
vn 0.971 0.1279 0.2022
vn 0.971 0.1279 0.2022
vn 0.971 0.1279 0.2022
vn 0.971 0.1279 0.2022
vn 0.971 0.1279 0.2022
vn 0.971 0.1279 0.2022
vn 0.0113 0.0294 -0.9995
vn 0.0113 0.0294 -0.9995
vn 0.0113 0.0294 -0.9995
vn -0.0113 -0.0294 0.9995
vn -0.0113 -0.0294 0.9995
vn -0.0113 -0.0294 0.9995
vn -0.8661 -0.4109 0.2848
vn -0.8661 -0.4109 0.2848
vn -0.8661 -0.4109 0.2848
vn -0.8661 -0.4109 0.2848
vn -0.8661 -0.4109 0.2848
vn -0.8661 -0.4109 0.2848
vn 0.851 -0.3139 -0.4209
vn 0.851 -0.3139 -0.4209
vn 0.851 -0.3139 -0.4209
vn 0.851 -0.3139 -0.4209
vn 0.851 -0.3139 -0.4209
vn 0.851 -0.3139 -0.4209
vn -0.373 0.8679 0.328
vn -0.373 0.8679 0.328
vn -0.373 0.8679 0.328
vn -0.373 0.8679 0.328
vn -0.373 0.8679 0.328
vn -0.373 0.8679 0.328
vn -0.113 0.0274 -0.9932
vn -0.113 0.0274 -0.9932
vn -0.113 0.0274 -0.9932
vn 0.113 -0.0274 0.9932
vn 0.113 -0.0274 0.9932
vn 0.113 -0.0274 0.9932
vn 0.5417 -0.8163 0.2005
vn 0.5417 -0.8163 0.2005
vn 0.5417 -0.8163 0.2005
vn 0.5417 -0.8163 0.2005
vn 0.5417 -0.8163 0.2005
vn 0.5417 -0.8163 0.2005
vn 0.1731 0.9051 -0.3884
vn 0.1731 0.9051 -0.3884
vn 0.1731 0.9051 -0.3884
vn 0.1731 0.9051 -0.3884
vn 0.1731 0.9051 -0.3884
vn 0.1731 0.9051 -0.3884
vn -0.792 -0.4923 0.3611
vn -0.792 -0.4923 0.3611
vn -0.792 -0.4923 0.3611
vn -0.792 -0.4923 0.3611
vn -0.792 -0.4923 0.3611
vn -0.792 -0.4923 0.3611
vn 0.0091 0.0187 -0.9998
vn 0.0091 0.0187 -0.9998
vn 0.0091 0.0187 -0.9998
vn -0.0091 -0.0187 0.9998
vn -0.0091 -0.0187 0.9998
vn -0.0091 -0.0187 0.9998
vn 0.9074 0.3275 0.2633
vn 0.9074 0.3275 0.2633
vn 0.9074 0.3275 0.2633
vn 0.9074 0.3275 0.2633
vn 0.9074 0.3275 0.2633
vn 0.9074 0.3275 0.2633
vn -0.8396 0.4178 -0.3472
vn -0.8396 0.4178 -0.3472
vn -0.8396 0.4178 -0.3472
vn -0.8396 0.4178 -0.3472
vn -0.8396 0.4178 -0.3472
vn -0.8396 0.4178 -0.3472
vn 0.2955 -0.9262 0.2342
vn 0.2955 -0.9262 0.2342
vn 0.2955 -0.9262 0.2342
vn 0.2955 -0.9262 0.2342
vn 0.2955 -0.9262 0.2342
vn 0.2955 -0.9262 0.2342
g spire_body
usemtl MI_EBS_FWL_Vitrified
f 1/1/1 2/2/2 3/3/3
f 4/4/4 5/5/5 6/6/6
f 7/7/7 8/8/8 9/9/9
f 10/10/10 11/11/11 12/12/12
f 13/13/13 14/14/14 15/15/15
f 16/16/16 17/17/17 18/18/18
f 19/19/19 20/20/20 21/21/21
f 22/22/22 23/23/23 24/24/24
f 25/25/25 26/26/26 27/27/27
f 28/28/28 29/29/29 30/30/30
f 31/31/31 32/32/32 33/33/33
f 34/34/34 35/35/35 36/36/36
f 37/37/37 38/38/38 39/39/39
f 40/40/40 41/41/41 42/42/42
g spire_seam_01
usemtl MI_EBS_FWL_State
f 43/43/43 44/44/44 45/45/45
f 46/46/46 47/47/47 48/48/48
f 49/49/49 50/50/50 51/51/51
f 52/52/52 53/53/53 54/54/54
f 55/55/55 56/56/56 57/57/57
f 58/58/58 59/59/59 60/60/60
f 61/61/61 62/62/62 63/63/63
f 64/64/64 65/65/65 66/66/66
g spire_seam_02
f 67/67/67 68/68/68 69/69/69
f 70/70/70 71/71/71 72/72/72
f 73/73/73 74/74/74 75/75/75
f 76/76/76 77/77/77 78/78/78
f 79/79/79 80/80/80 81/81/81
f 82/82/82 83/83/83 84/84/84
f 85/85/85 86/86/86 87/87/87
f 88/88/88 89/89/89 90/90/90
g spire_seam_03
f 91/91/91 92/92/92 93/93/93
f 94/94/94 95/95/95 96/96/96
f 97/97/97 98/98/98 99/99/99
f 100/100/100 101/101/101 102/102/102
f 103/103/103 104/104/104 105/105/105
f 106/106/106 107/107/107 108/108/108
f 109/109/109 110/110/110 111/111/111
f 112/112/112 113/113/113 114/114/114
g spire_seam_04
f 115/115/115 116/116/116 117/117/117
f 118/118/118 119/119/119 120/120/120
f 121/121/121 122/122/122 123/123/123
f 124/124/124 125/125/125 126/126/126
f 127/127/127 128/128/128 129/129/129
f 130/130/130 131/131/131 132/132/132
f 133/133/133 134/134/134 135/135/135
f 136/136/136 137/137/137 138/138/138
