# SK_EBS_MER_BLD_004
# Author: Angelis Pseftis
# Frame: Unreal +X forward, +Y right, +Z up; centimeters; no axis conversion
# Kit: ebs-meshkit-v3
# SK_EBS_MER_BLD_004 LOD1 rest pose (powered)
# Revision ebs-mer-bld-004-concept-v1
# Unreal +X forward, +Y right, +Z up; centimetres
o SK_EBS_MER_BLD_004
v 7.8135 55.5333 203.0
v 29.8729 51.7413 222.5193
v 61.3729 106.3009 197.5193
v 7.8135 55.5333 203.0
v 61.3729 106.3009 197.5193
v 39.3135 110.0929 178.0
v 29.8729 51.7413 222.5193
v 44.1865 34.5333 203.0
v 75.6865 89.0929 178.0
v 29.8729 51.7413 222.5193
v 75.6865 89.0929 178.0
v 61.3729 106.3009 197.5193
v 44.1865 34.5333 203.0
v 22.1271 38.3253 183.4807
v 53.6271 92.8849 158.4807
v 44.1865 34.5333 203.0
v 53.6271 92.8849 158.4807
v 75.6865 89.0929 178.0
v 22.1271 38.3253 183.4807
v 7.8135 55.5333 203.0
v 39.3135 110.0929 178.0
v 22.1271 38.3253 183.4807
v 39.3135 110.0929 178.0
v 53.6271 92.8849 158.4807
v 22.1271 38.3253 183.4807
v 44.1865 34.5333 203.0
v 29.8729 51.7413 222.5193
v 22.1271 38.3253 183.4807
v 29.8729 51.7413 222.5193
v 7.8135 55.5333 203.0
v 39.3135 110.0929 178.0
v 61.3729 106.3009 197.5193
v 75.6865 89.0929 178.0
v 39.3135 110.0929 178.0
v 75.6865 89.0929 178.0
v 53.6271 92.8849 158.4807
v 86.1865 107.2795 157.0
v 49.8135 128.2795 157.0
v 49.8135 128.2795 199.0
v 86.1865 107.2795 157.0
v 49.8135 128.2795 199.0
v 86.1865 107.2795 199.0
v 65.1865 70.9064 157.0
v 65.1865 70.9064 199.0
v 28.8135 91.9064 199.0
v 65.1865 70.9064 157.0
v 28.8135 91.9064 199.0
v 28.8135 91.9064 157.0
v 28.8135 91.9064 157.0
v 28.8135 91.9064 199.0
v 49.8135 128.2795 199.0
v 28.8135 91.9064 157.0
v 49.8135 128.2795 199.0
v 49.8135 128.2795 157.0
v 65.1865 70.9064 157.0
v 86.1865 107.2795 157.0
v 86.1865 107.2795 199.0
v 65.1865 70.9064 157.0
v 86.1865 107.2795 199.0
v 65.1865 70.9064 199.0
v 65.1865 70.9064 199.0
v 86.1865 107.2795 199.0
v 49.8135 128.2795 199.0
v 65.1865 70.9064 199.0
v 49.8135 128.2795 199.0
v 28.8135 91.9064 199.0
v 65.1865 70.9064 157.0
v 28.8135 91.9064 157.0
v 49.8135 128.2795 157.0
v 65.1865 70.9064 157.0
v 49.8135 128.2795 157.0
v 86.1865 107.2795 157.0
v 57.5 115.5175 179.5515
v 73.475 99.5062 178.8901
v 82.475 115.0947 18.8901
v 57.5 115.5175 179.5515
v 82.475 115.0947 18.8901
v 66.5 131.106 19.5515
v 73.475 99.5062 178.8901
v 57.5 83.6683 176.4485
v 66.5 99.2568 16.4485
v 73.475 99.5062 178.8901
v 66.5 99.2568 16.4485
v 82.475 115.0947 18.8901
v 57.5 83.6683 176.4485
v 41.525 99.6796 177.1099
v 50.525 115.2681 17.1099
v 57.5 83.6683 176.4485
v 50.525 115.2681 17.1099
v 66.5 99.2568 16.4485
v 41.525 99.6796 177.1099
v 57.5 115.5175 179.5515
v 66.5 131.106 19.5515
v 41.525 99.6796 177.1099
v 66.5 131.106 19.5515
v 50.525 115.2681 17.1099
v 41.525 99.6796 177.1099
v 57.5 83.6683 176.4485
v 73.475 99.5062 178.8901
v 41.525 99.6796 177.1099
v 73.475 99.5062 178.8901
v 57.5 115.5175 179.5515
v 66.5 131.106 19.5515
v 82.475 115.0947 18.8901
v 66.5 99.2568 16.4485
v 66.5 131.106 19.5515
v 66.5 99.2568 16.4485
v 50.525 115.2681 17.1099
v 110.9808 132.2243 0.0
v 59.0192 162.2243 0.0
v 59.0192 162.2243 18.0
v 110.9808 132.2243 0.0
v 59.0192 162.2243 18.0
v 110.9808 132.2243 18.0
v 73.9808 68.1384 0.0
v 73.9808 68.1384 18.0
v 22.0192 98.1384 18.0
v 73.9808 68.1384 0.0
v 22.0192 98.1384 18.0
v 22.0192 98.1384 0.0
v 22.0192 98.1384 0.0
v 22.0192 98.1384 18.0
v 59.0192 162.2243 18.0
v 22.0192 98.1384 0.0
v 59.0192 162.2243 18.0
v 59.0192 162.2243 0.0
v 73.9808 68.1384 0.0
v 110.9808 132.2243 0.0
v 110.9808 132.2243 18.0
v 73.9808 68.1384 0.0
v 110.9808 132.2243 18.0
v 73.9808 68.1384 18.0
v 73.9808 68.1384 18.0
v 110.9808 132.2243 18.0
v 59.0192 162.2243 18.0
v 73.9808 68.1384 18.0
v 59.0192 162.2243 18.0
v 22.0192 98.1384 18.0
v 73.9808 68.1384 0.0
v 22.0192 98.1384 0.0
v 59.0192 162.2243 0.0
v 73.9808 68.1384 0.0
v 59.0192 162.2243 0.0
v 110.9808 132.2243 0.0
v 44.1865 -34.5333 203.0
v 29.8729 -51.7413 222.5193
v 61.3729 -106.3009 197.5193
v 44.1865 -34.5333 203.0
v 61.3729 -106.3009 197.5193
v 75.6865 -89.0929 178.0
v 29.8729 -51.7413 222.5193
v 7.8135 -55.5333 203.0
v 39.3135 -110.0929 178.0
v 29.8729 -51.7413 222.5193
v 39.3135 -110.0929 178.0
v 61.3729 -106.3009 197.5193
v 7.8135 -55.5333 203.0
v 22.1271 -38.3253 183.4807
v 53.6271 -92.8849 158.4807
v 7.8135 -55.5333 203.0
v 53.6271 -92.8849 158.4807
v 39.3135 -110.0929 178.0
v 22.1271 -38.3253 183.4807
v 44.1865 -34.5333 203.0
v 75.6865 -89.0929 178.0
v 22.1271 -38.3253 183.4807
v 75.6865 -89.0929 178.0
v 53.6271 -92.8849 158.4807
v 22.1271 -38.3253 183.4807
v 7.8135 -55.5333 203.0
v 29.8729 -51.7413 222.5193
v 22.1271 -38.3253 183.4807
v 29.8729 -51.7413 222.5193
v 44.1865 -34.5333 203.0
v 75.6865 -89.0929 178.0
v 61.3729 -106.3009 197.5193
v 39.3135 -110.0929 178.0
v 75.6865 -89.0929 178.0
v 39.3135 -110.0929 178.0
v 53.6271 -92.8849 158.4807
v 49.8135 -128.2795 157.0
v 86.1865 -107.2795 157.0
v 86.1865 -107.2795 199.0
v 49.8135 -128.2795 157.0
v 86.1865 -107.2795 199.0
v 49.8135 -128.2795 199.0
v 28.8135 -91.9064 157.0
v 28.8135 -91.9064 199.0
v 65.1865 -70.9064 199.0
v 28.8135 -91.9064 157.0
v 65.1865 -70.9064 199.0
v 65.1865 -70.9064 157.0
v 65.1865 -70.9064 157.0
v 65.1865 -70.9064 199.0
v 86.1865 -107.2795 199.0
v 65.1865 -70.9064 157.0
v 86.1865 -107.2795 199.0
v 86.1865 -107.2795 157.0
v 28.8135 -91.9064 157.0
v 49.8135 -128.2795 157.0
v 49.8135 -128.2795 199.0
v 28.8135 -91.9064 157.0
v 49.8135 -128.2795 199.0
v 28.8135 -91.9064 199.0
v 28.8135 -91.9064 199.0
v 49.8135 -128.2795 199.0
v 86.1865 -107.2795 199.0
v 28.8135 -91.9064 199.0
v 86.1865 -107.2795 199.0
v 65.1865 -70.9064 199.0
v 28.8135 -91.9064 157.0
v 65.1865 -70.9064 157.0
v 86.1865 -107.2795 157.0
v 28.8135 -91.9064 157.0
v 86.1865 -107.2795 157.0
v 49.8135 -128.2795 157.0
v 57.5 -83.6683 176.4485
v 73.475 -99.5062 178.8901
v 82.475 -115.0947 18.8901
v 57.5 -83.6683 176.4485
v 82.475 -115.0947 18.8901
v 66.5 -99.2568 16.4485
v 73.475 -99.5062 178.8901
v 57.5 -115.5175 179.5515
v 66.5 -131.106 19.5515
v 73.475 -99.5062 178.8901
v 66.5 -131.106 19.5515
v 82.475 -115.0947 18.8901
v 57.5 -115.5175 179.5515
v 41.525 -99.6796 177.1099
v 50.525 -115.2681 17.1099
v 57.5 -115.5175 179.5515
v 50.525 -115.2681 17.1099
v 66.5 -131.106 19.5515
v 41.525 -99.6796 177.1099
v 57.5 -83.6683 176.4485
v 66.5 -99.2568 16.4485
v 41.525 -99.6796 177.1099
v 66.5 -99.2568 16.4485
v 50.525 -115.2681 17.1099
v 41.525 -99.6796 177.1099
v 57.5 -115.5175 179.5515
v 73.475 -99.5062 178.8901
v 41.525 -99.6796 177.1099
v 73.475 -99.5062 178.8901
v 57.5 -83.6683 176.4485
v 66.5 -99.2568 16.4485
v 82.475 -115.0947 18.8901
v 66.5 -131.106 19.5515
v 66.5 -99.2568 16.4485
v 66.5 -131.106 19.5515
v 50.525 -115.2681 17.1099
v 59.0192 -162.2243 0.0
v 110.9808 -132.2243 0.0
v 110.9808 -132.2243 18.0
v 59.0192 -162.2243 0.0
v 110.9808 -132.2243 18.0
v 59.0192 -162.2243 18.0
v 22.0192 -98.1384 0.0
v 22.0192 -98.1384 18.0
v 73.9808 -68.1384 18.0
v 22.0192 -98.1384 0.0
v 73.9808 -68.1384 18.0
v 73.9808 -68.1384 0.0
v 73.9808 -68.1384 0.0
v 73.9808 -68.1384 18.0
v 110.9808 -132.2243 18.0
v 73.9808 -68.1384 0.0
v 110.9808 -132.2243 18.0
v 110.9808 -132.2243 0.0
v 22.0192 -98.1384 0.0
v 59.0192 -162.2243 0.0
v 59.0192 -162.2243 18.0
v 22.0192 -98.1384 0.0
v 59.0192 -162.2243 18.0
v 22.0192 -98.1384 18.0
v 22.0192 -98.1384 18.0
v 59.0192 -162.2243 18.0
v 110.9808 -132.2243 18.0
v 22.0192 -98.1384 18.0
v 110.9808 -132.2243 18.0
v 73.9808 -68.1384 18.0
v 22.0192 -98.1384 0.0
v 73.9808 -68.1384 0.0
v 110.9808 -132.2243 0.0
v 22.0192 -98.1384 0.0
v 110.9808 -132.2243 0.0
v 59.0192 -162.2243 0.0
v -52.0 -21.0 203.0
v -59.7458 0.0 222.5193
v -122.7458 0.0 197.5193
v -52.0 -21.0 203.0
v -122.7458 0.0 197.5193
v -115.0 -21.0 178.0
v -59.7458 0.0 222.5193
v -52.0 21.0 203.0
v -115.0 21.0 178.0
v -59.7458 0.0 222.5193
v -115.0 21.0 178.0
v -122.7458 0.0 197.5193
v -52.0 21.0 203.0
v -44.2542 0.0 183.4807
v -107.2542 0.0 158.4807
v -52.0 21.0 203.0
v -107.2542 0.0 158.4807
v -115.0 21.0 178.0
v -44.2542 0.0 183.4807
v -52.0 -21.0 203.0
v -115.0 -21.0 178.0
v -44.2542 0.0 183.4807
v -115.0 -21.0 178.0
v -107.2542 0.0 158.4807
v -44.2542 0.0 183.4807
v -52.0 21.0 203.0
v -59.7458 0.0 222.5193
v -44.2542 0.0 183.4807
v -59.7458 0.0 222.5193
v -52.0 -21.0 203.0
v -115.0 -21.0 178.0
v -122.7458 0.0 197.5193
v -115.0 21.0 178.0
v -115.0 -21.0 178.0
v -115.0 21.0 178.0
v -107.2542 0.0 158.4807
v -136.0 21.0 157.0
v -136.0 -21.0 157.0
v -136.0 -21.0 199.0
v -136.0 21.0 157.0
v -136.0 -21.0 199.0
v -136.0 21.0 199.0
v -94.0 21.0 157.0
v -94.0 21.0 199.0
v -94.0 -21.0 199.0
v -94.0 21.0 157.0
v -94.0 -21.0 199.0
v -94.0 -21.0 157.0
v -94.0 -21.0 157.0
v -94.0 -21.0 199.0
v -136.0 -21.0 199.0
v -94.0 -21.0 157.0
v -136.0 -21.0 199.0
v -136.0 -21.0 157.0
v -94.0 21.0 157.0
v -136.0 21.0 157.0
v -136.0 21.0 199.0
v -94.0 21.0 157.0
v -136.0 21.0 199.0
v -94.0 21.0 199.0
v -94.0 21.0 199.0
v -136.0 21.0 199.0
v -136.0 -21.0 199.0
v -94.0 21.0 199.0
v -136.0 -21.0 199.0
v -94.0 -21.0 199.0
v -94.0 21.0 157.0
v -94.0 -21.0 157.0
v -136.0 -21.0 157.0
v -94.0 21.0 157.0
v -136.0 -21.0 157.0
v -136.0 21.0 157.0
v -115.0 16.0 178.0
v -99.1003 0.0 176.2113
v -117.1003 0.0 16.2113
v -115.0 16.0 178.0
v -117.1003 0.0 16.2113
v -133.0 16.0 18.0
v -99.1003 0.0 176.2113
v -115.0 -16.0 178.0
v -133.0 -16.0 18.0
v -99.1003 0.0 176.2113
v -133.0 -16.0 18.0
v -117.1003 0.0 16.2113
v -115.0 -16.0 178.0
v -130.8997 0.0 179.7887
v -148.8997 0.0 19.7887
v -115.0 -16.0 178.0
v -148.8997 0.0 19.7887
v -133.0 -16.0 18.0
v -130.8997 0.0 179.7887
v -115.0 16.0 178.0
v -133.0 16.0 18.0
v -130.8997 0.0 179.7887
v -133.0 16.0 18.0
v -148.8997 0.0 19.7887
v -130.8997 0.0 179.7887
v -115.0 -16.0 178.0
v -99.1003 0.0 176.2113
v -130.8997 0.0 179.7887
v -99.1003 0.0 176.2113
v -115.0 16.0 178.0
v -133.0 16.0 18.0
v -117.1003 0.0 16.2113
v -133.0 -16.0 18.0
v -133.0 16.0 18.0
v -133.0 -16.0 18.0
v -148.8997 0.0 19.7887
v -170.0 30.0 0.0
v -170.0 -30.0 0.0
v -170.0 -30.0 18.0
v -170.0 30.0 0.0
v -170.0 -30.0 18.0
v -170.0 30.0 18.0
v -96.0 30.0 0.0
v -96.0 30.0 18.0
v -96.0 -30.0 18.0
v -96.0 30.0 0.0
v -96.0 -30.0 18.0
v -96.0 -30.0 0.0
v -96.0 -30.0 0.0
v -96.0 -30.0 18.0
v -170.0 -30.0 18.0
v -96.0 -30.0 0.0
v -170.0 -30.0 18.0
v -170.0 -30.0 0.0
v -96.0 30.0 0.0
v -170.0 30.0 0.0
v -170.0 30.0 18.0
v -96.0 30.0 0.0
v -170.0 30.0 18.0
v -96.0 30.0 18.0
v -96.0 30.0 18.0
v -170.0 30.0 18.0
v -170.0 -30.0 18.0
v -96.0 30.0 18.0
v -170.0 -30.0 18.0
v -96.0 -30.0 18.0
v -96.0 30.0 0.0
v -96.0 -30.0 0.0
v -170.0 -30.0 0.0
v -96.0 30.0 0.0
v -170.0 -30.0 0.0
v -170.0 30.0 0.0
v 60.0 0.0 203.0
v 30.0 51.9615 203.0
v 30.0 51.9615 255.0
v 60.0 0.0 203.0
v 30.0 51.9615 255.0
v 60.0 0.0 255.0
v 30.0 51.9615 203.0
v -30.0 51.9615 203.0
v -30.0 51.9615 255.0
v 30.0 51.9615 203.0
v -30.0 51.9615 255.0
v 30.0 51.9615 255.0
v -30.0 51.9615 203.0
v -60.0 0.0 203.0
v -60.0 0.0 255.0
v -30.0 51.9615 203.0
v -60.0 0.0 255.0
v -30.0 51.9615 255.0
v -60.0 0.0 203.0
v -30.0 -51.9615 203.0
v -30.0 -51.9615 255.0
v -60.0 0.0 203.0
v -30.0 -51.9615 255.0
v -60.0 0.0 255.0
v -30.0 -51.9615 203.0
v 30.0 -51.9615 203.0
v 30.0 -51.9615 255.0
v -30.0 -51.9615 203.0
v 30.0 -51.9615 255.0
v -30.0 -51.9615 255.0
v 30.0 -51.9615 203.0
v 60.0 0.0 203.0
v 60.0 0.0 255.0
v 30.0 -51.9615 203.0
v 60.0 0.0 255.0
v 30.0 -51.9615 255.0
v 30.0 -51.9615 203.0
v -30.0 -51.9615 203.0
v -60.0 0.0 203.0
v 30.0 -51.9615 203.0
v -60.0 0.0 203.0
v -30.0 51.9615 203.0
v 30.0 -51.9615 203.0
v -30.0 51.9615 203.0
v 30.0 51.9615 203.0
v 30.0 -51.9615 203.0
v 30.0 51.9615 203.0
v 60.0 0.0 203.0
v 60.0 0.0 255.0
v 30.0 51.9615 255.0
v -30.0 51.9615 255.0
v 60.0 0.0 255.0
v -30.0 51.9615 255.0
v -60.0 0.0 255.0
v 60.0 0.0 255.0
v -60.0 0.0 255.0
v -30.0 -51.9615 255.0
v 60.0 0.0 255.0
v -30.0 -51.9615 255.0
v 30.0 -51.9615 255.0
v 52.0 0.0 255.0
v 26.0 45.0333 255.0
v 26.0 45.0333 269.0
v 52.0 0.0 255.0
v 26.0 45.0333 269.0
v 52.0 0.0 269.0
v 26.0 45.0333 255.0
v -26.0 45.0333 255.0
v -26.0 45.0333 269.0
v 26.0 45.0333 255.0
v -26.0 45.0333 269.0
v 26.0 45.0333 269.0
v -26.0 45.0333 255.0
v -52.0 0.0 255.0
v -52.0 0.0 269.0
v -26.0 45.0333 255.0
v -52.0 0.0 269.0
v -26.0 45.0333 269.0
v -52.0 0.0 255.0
v -26.0 -45.0333 255.0
v -26.0 -45.0333 269.0
v -52.0 0.0 255.0
v -26.0 -45.0333 269.0
v -52.0 0.0 269.0
v -26.0 -45.0333 255.0
v 26.0 -45.0333 255.0
v 26.0 -45.0333 269.0
v -26.0 -45.0333 255.0
v 26.0 -45.0333 269.0
v -26.0 -45.0333 269.0
v 26.0 -45.0333 255.0
v 52.0 0.0 255.0
v 52.0 0.0 269.0
v 26.0 -45.0333 255.0
v 52.0 0.0 269.0
v 26.0 -45.0333 269.0
v 26.0 -45.0333 255.0
v -26.0 -45.0333 255.0
v -52.0 0.0 255.0
v 26.0 -45.0333 255.0
v -52.0 0.0 255.0
v -26.0 45.0333 255.0
v 26.0 -45.0333 255.0
v -26.0 45.0333 255.0
v 26.0 45.0333 255.0
v 26.0 -45.0333 255.0
v 26.0 45.0333 255.0
v 52.0 0.0 255.0
v 52.0 0.0 269.0
v 26.0 45.0333 269.0
v -26.0 45.0333 269.0
v 52.0 0.0 269.0
v -26.0 45.0333 269.0
v -52.0 0.0 269.0
v 52.0 0.0 269.0
v -52.0 0.0 269.0
v -26.0 -45.0333 269.0
v 52.0 0.0 269.0
v -26.0 -45.0333 269.0
v 26.0 -45.0333 269.0
v -52.0 -29.0 183.0
v -52.0 29.0 183.0
v -52.0 29.0 223.0
v -52.0 -29.0 183.0
v -52.0 29.0 223.0
v -52.0 -29.0 223.0
v -92.0 -29.0 183.0
v -92.0 -29.0 223.0
v -92.0 29.0 223.0
v -92.0 -29.0 183.0
v -92.0 29.0 223.0
v -92.0 29.0 183.0
v -92.0 29.0 183.0
v -92.0 29.0 223.0
v -52.0 29.0 223.0
v -92.0 29.0 183.0
v -52.0 29.0 223.0
v -52.0 29.0 183.0
v -92.0 -29.0 183.0
v -52.0 -29.0 183.0
v -52.0 -29.0 223.0
v -92.0 -29.0 183.0
v -52.0 -29.0 223.0
v -92.0 -29.0 223.0
v -92.0 -29.0 223.0
v -52.0 -29.0 223.0
v -52.0 29.0 223.0
v -92.0 -29.0 223.0
v -52.0 29.0 223.0
v -92.0 29.0 223.0
v -92.0 -29.0 183.0
v -92.0 29.0 183.0
v -52.0 29.0 183.0
v -92.0 -29.0 183.0
v -52.0 29.0 183.0
v -52.0 -29.0 183.0
v -86.0 -9.0 193.0
v -77.1154 -18.0 191.5636
v -104.1154 -18.0 24.5636
v -86.0 -9.0 193.0
v -104.1154 -18.0 24.5636
v -113.0 -9.0 26.0
v -77.1154 -18.0 191.5636
v -86.0 -27.0 193.0
v -113.0 -27.0 26.0
v -77.1154 -18.0 191.5636
v -113.0 -27.0 26.0
v -104.1154 -18.0 24.5636
v -86.0 -27.0 193.0
v -94.8846 -18.0 194.4364
v -121.8846 -18.0 27.4364
v -86.0 -27.0 193.0
v -121.8846 -18.0 27.4364
v -113.0 -27.0 26.0
v -94.8846 -18.0 194.4364
v -86.0 -9.0 193.0
v -113.0 -9.0 26.0
v -94.8846 -18.0 194.4364
v -113.0 -9.0 26.0
v -121.8846 -18.0 27.4364
v -94.8846 -18.0 194.4364
v -86.0 -27.0 193.0
v -77.1154 -18.0 191.5636
v -94.8846 -18.0 194.4364
v -77.1154 -18.0 191.5636
v -86.0 -9.0 193.0
v -113.0 -9.0 26.0
v -104.1154 -18.0 24.5636
v -113.0 -27.0 26.0
v -113.0 -9.0 26.0
v -113.0 -27.0 26.0
v -121.8846 -18.0 27.4364
v -86.0 27.0 193.0
v -77.1154 18.0 191.5636
v -104.1154 18.0 24.5636
v -86.0 27.0 193.0
v -104.1154 18.0 24.5636
v -113.0 27.0 26.0
v -77.1154 18.0 191.5636
v -86.0 9.0 193.0
v -113.0 9.0 26.0
v -77.1154 18.0 191.5636
v -113.0 9.0 26.0
v -104.1154 18.0 24.5636
v -86.0 9.0 193.0
v -94.8846 18.0 194.4364
v -121.8846 18.0 27.4364
v -86.0 9.0 193.0
v -121.8846 18.0 27.4364
v -113.0 9.0 26.0
v -94.8846 18.0 194.4364
v -86.0 27.0 193.0
v -113.0 27.0 26.0
v -94.8846 18.0 194.4364
v -113.0 27.0 26.0
v -121.8846 18.0 27.4364
v -94.8846 18.0 194.4364
v -86.0 9.0 193.0
v -77.1154 18.0 191.5636
v -94.8846 18.0 194.4364
v -77.1154 18.0 191.5636
v -86.0 27.0 193.0
v -113.0 27.0 26.0
v -104.1154 18.0 24.5636
v -113.0 9.0 26.0
v -113.0 27.0 26.0
v -113.0 9.0 26.0
v -121.8846 18.0 27.4364
v 55.0 -102.0 255.0
v 55.0 102.0 255.0
v 55.0 102.0 297.0
v 55.0 -102.0 255.0
v 55.0 102.0 297.0
v 55.0 -102.0 297.0
v -55.0 -102.0 255.0
v -55.0 -102.0 297.0
v -55.0 102.0 297.0
v -55.0 -102.0 255.0
v -55.0 102.0 297.0
v -55.0 102.0 255.0
v -55.0 102.0 255.0
v -55.0 102.0 297.0
v 55.0 102.0 297.0
v -55.0 102.0 255.0
v 55.0 102.0 297.0
v 55.0 102.0 255.0
v -55.0 -102.0 255.0
v 55.0 -102.0 255.0
v 55.0 -102.0 297.0
v -55.0 -102.0 255.0
v 55.0 -102.0 297.0
v -55.0 -102.0 297.0
v -55.0 -102.0 297.0
v 55.0 -102.0 297.0
v 55.0 102.0 297.0
v -55.0 -102.0 297.0
v 55.0 102.0 297.0
v -55.0 102.0 297.0
v -55.0 -102.0 255.0
v -55.0 102.0 255.0
v 55.0 102.0 255.0
v -55.0 -102.0 255.0
v 55.0 102.0 255.0
v 55.0 -102.0 255.0
v -32.0 -80.0 255.0
v -32.0 80.0 255.0
v -32.0 80.0 285.0
v -32.0 -80.0 255.0
v -32.0 80.0 285.0
v -32.0 -80.0 285.0
v -58.0 -80.0 255.0
v -58.0 -80.0 285.0
v -58.0 80.0 285.0
v -58.0 -80.0 255.0
v -58.0 80.0 285.0
v -58.0 80.0 255.0
v -58.0 80.0 255.0
v -58.0 80.0 285.0
v -32.0 80.0 285.0
v -58.0 80.0 255.0
v -32.0 80.0 285.0
v -32.0 80.0 255.0
v -58.0 -80.0 255.0
v -32.0 -80.0 255.0
v -32.0 -80.0 285.0
v -58.0 -80.0 255.0
v -32.0 -80.0 285.0
v -58.0 -80.0 285.0
v -58.0 -80.0 285.0
v -32.0 -80.0 285.0
v -32.0 80.0 285.0
v -58.0 -80.0 285.0
v -32.0 80.0 285.0
v -58.0 80.0 285.0
v -58.0 -80.0 255.0
v -58.0 80.0 255.0
v -32.0 80.0 255.0
v -58.0 -80.0 255.0
v -32.0 80.0 255.0
v -32.0 -80.0 255.0
v 50.0 -106.5 257.0
v 50.0 -101.5 257.0
v 50.0 -101.5 269.0
v 50.0 -106.5 257.0
v 50.0 -101.5 269.0
v 50.0 -106.5 269.0
v -38.0 -106.5 257.0
v -38.0 -106.5 269.0
v -38.0 -101.5 269.0
v -38.0 -106.5 257.0
v -38.0 -101.5 269.0
v -38.0 -101.5 257.0
v -38.0 -101.5 257.0
v -38.0 -101.5 269.0
v 50.0 -101.5 269.0
v -38.0 -101.5 257.0
v 50.0 -101.5 269.0
v 50.0 -101.5 257.0
v -38.0 -106.5 257.0
v 50.0 -106.5 257.0
v 50.0 -106.5 269.0
v -38.0 -106.5 257.0
v 50.0 -106.5 269.0
v -38.0 -106.5 269.0
v -38.0 -106.5 269.0
v 50.0 -106.5 269.0
v 50.0 -101.5 269.0
v -38.0 -106.5 269.0
v 50.0 -101.5 269.0
v -38.0 -101.5 269.0
v -38.0 -106.5 257.0
v -38.0 -101.5 257.0
v 50.0 -101.5 257.0
v -38.0 -106.5 257.0
v 50.0 -101.5 257.0
v 50.0 -106.5 257.0
v 50.0 101.5 257.0
v 50.0 106.5 257.0
v 50.0 106.5 269.0
v 50.0 101.5 257.0
v 50.0 106.5 269.0
v 50.0 101.5 269.0
v -38.0 101.5 257.0
v -38.0 101.5 269.0
v -38.0 106.5 269.0
v -38.0 101.5 257.0
v -38.0 106.5 269.0
v -38.0 106.5 257.0
v -38.0 106.5 257.0
v -38.0 106.5 269.0
v 50.0 106.5 269.0
v -38.0 106.5 257.0
v 50.0 106.5 269.0
v 50.0 106.5 257.0
v -38.0 101.5 257.0
v 50.0 101.5 257.0
v 50.0 101.5 269.0
v -38.0 101.5 257.0
v 50.0 101.5 269.0
v -38.0 101.5 269.0
v -38.0 101.5 269.0
v 50.0 101.5 269.0
v 50.0 106.5 269.0
v -38.0 101.5 269.0
v 50.0 106.5 269.0
v -38.0 106.5 269.0
v -38.0 101.5 257.0
v -38.0 106.5 257.0
v 50.0 106.5 257.0
v -38.0 101.5 257.0
v 50.0 106.5 257.0
v 50.0 101.5 257.0
v 59.5 -96.0 257.0
v 59.5 96.0 257.0
v 59.5 96.0 269.0
v 59.5 -96.0 257.0
v 59.5 96.0 269.0
v 59.5 -96.0 269.0
v 54.5 -96.0 257.0
v 54.5 -96.0 269.0
v 54.5 96.0 269.0
v 54.5 -96.0 257.0
v 54.5 96.0 269.0
v 54.5 96.0 257.0
v 54.5 96.0 257.0
v 54.5 96.0 269.0
v 59.5 96.0 269.0
v 54.5 96.0 257.0
v 59.5 96.0 269.0
v 59.5 96.0 257.0
v 54.5 -96.0 257.0
v 59.5 -96.0 257.0
v 59.5 -96.0 269.0
v 54.5 -96.0 257.0
v 59.5 -96.0 269.0
v 54.5 -96.0 269.0
v 54.5 -96.0 269.0
v 59.5 -96.0 269.0
v 59.5 96.0 269.0
v 54.5 -96.0 269.0
v 59.5 96.0 269.0
v 54.5 96.0 269.0
v 54.5 -96.0 257.0
v 54.5 96.0 257.0
v 59.5 96.0 257.0
v 54.5 -96.0 257.0
v 59.5 96.0 257.0
v 59.5 -96.0 257.0
v 47.0 -26.0 276.0
v 47.0 -52.0 302.0
v 115.0 -52.0 302.0
v 47.0 -26.0 276.0
v 115.0 -52.0 302.0
v 115.0 -26.0 276.0
v 47.0 -52.0 302.0
v 47.0 -78.0 276.0
v 115.0 -78.0 276.0
v 47.0 -52.0 302.0
v 115.0 -78.0 276.0
v 115.0 -52.0 302.0
v 47.0 -78.0 276.0
v 47.0 -52.0 250.0
v 115.0 -52.0 250.0
v 47.0 -78.0 276.0
v 115.0 -52.0 250.0
v 115.0 -78.0 276.0
v 47.0 -52.0 250.0
v 47.0 -26.0 276.0
v 115.0 -26.0 276.0
v 47.0 -52.0 250.0
v 115.0 -26.0 276.0
v 115.0 -52.0 250.0
v 47.0 -52.0 250.0
v 47.0 -78.0 276.0
v 47.0 -52.0 302.0
v 47.0 -52.0 250.0
v 47.0 -52.0 302.0
v 47.0 -26.0 276.0
v 115.0 -26.0 276.0
v 115.0 -52.0 302.0
v 115.0 -78.0 276.0
v 115.0 -26.0 276.0
v 115.0 -78.0 276.0
v 115.0 -52.0 250.0
v 116.0 -67.0 261.0
v 116.0 -37.0 261.0
v 116.0 -37.0 291.0
v 116.0 -67.0 261.0
v 116.0 -37.0 291.0
v 116.0 -67.0 291.0
v 108.0 -67.0 261.0
v 108.0 -67.0 291.0
v 108.0 -37.0 291.0
v 108.0 -67.0 261.0
v 108.0 -37.0 291.0
v 108.0 -37.0 261.0
v 108.0 -37.0 261.0
v 108.0 -37.0 291.0
v 116.0 -37.0 291.0
v 108.0 -37.0 261.0
v 116.0 -37.0 291.0
v 116.0 -37.0 261.0
v 108.0 -67.0 261.0
v 116.0 -67.0 261.0
v 116.0 -67.0 291.0
v 108.0 -67.0 261.0
v 116.0 -67.0 291.0
v 108.0 -67.0 291.0
v 108.0 -67.0 291.0
v 116.0 -67.0 291.0
v 116.0 -37.0 291.0
v 108.0 -67.0 291.0
v 116.0 -37.0 291.0
v 108.0 -37.0 291.0
v 108.0 -67.0 261.0
v 108.0 -37.0 261.0
v 116.0 -37.0 261.0
v 108.0 -67.0 261.0
v 116.0 -37.0 261.0
v 116.0 -67.0 261.0
v 116.0 -58.5 269.5
v 116.0 -45.5 269.5
v 116.0 -45.5 282.5
v 116.0 -58.5 269.5
v 116.0 -45.5 282.5
v 116.0 -58.5 282.5
v 112.0 -58.5 269.5
v 112.0 -58.5 282.5
v 112.0 -45.5 282.5
v 112.0 -58.5 269.5
v 112.0 -45.5 282.5
v 112.0 -45.5 269.5
v 112.0 -45.5 269.5
v 112.0 -45.5 282.5
v 116.0 -45.5 282.5
v 112.0 -45.5 269.5
v 116.0 -45.5 282.5
v 116.0 -45.5 269.5
v 112.0 -58.5 269.5
v 116.0 -58.5 269.5
v 116.0 -58.5 282.5
v 112.0 -58.5 269.5
v 116.0 -58.5 282.5
v 112.0 -58.5 282.5
v 112.0 -58.5 282.5
v 116.0 -58.5 282.5
v 116.0 -45.5 282.5
v 112.0 -58.5 282.5
v 116.0 -45.5 282.5
v 112.0 -45.5 282.5
v 112.0 -58.5 269.5
v 112.0 -45.5 269.5
v 116.0 -45.5 269.5
v 112.0 -58.5 269.5
v 116.0 -45.5 269.5
v 116.0 -58.5 269.5
v 47.0 78.0 276.0
v 47.0 52.0 302.0
v 115.0 52.0 302.0
v 47.0 78.0 276.0
v 115.0 52.0 302.0
v 115.0 78.0 276.0
v 47.0 52.0 302.0
v 47.0 26.0 276.0
v 115.0 26.0 276.0
v 47.0 52.0 302.0
v 115.0 26.0 276.0
v 115.0 52.0 302.0
v 47.0 26.0 276.0
v 47.0 52.0 250.0
v 115.0 52.0 250.0
v 47.0 26.0 276.0
v 115.0 52.0 250.0
v 115.0 26.0 276.0
v 47.0 52.0 250.0
v 47.0 78.0 276.0
v 115.0 78.0 276.0
v 47.0 52.0 250.0
v 115.0 78.0 276.0
v 115.0 52.0 250.0
v 47.0 52.0 250.0
v 47.0 26.0 276.0
v 47.0 52.0 302.0
v 47.0 52.0 250.0
v 47.0 52.0 302.0
v 47.0 78.0 276.0
v 115.0 78.0 276.0
v 115.0 52.0 302.0
v 115.0 26.0 276.0
v 115.0 78.0 276.0
v 115.0 26.0 276.0
v 115.0 52.0 250.0
v 116.0 37.0 261.0
v 116.0 67.0 261.0
v 116.0 67.0 291.0
v 116.0 37.0 261.0
v 116.0 67.0 291.0
v 116.0 37.0 291.0
v 108.0 37.0 261.0
v 108.0 37.0 291.0
v 108.0 67.0 291.0
v 108.0 37.0 261.0
v 108.0 67.0 291.0
v 108.0 67.0 261.0
v 108.0 67.0 261.0
v 108.0 67.0 291.0
v 116.0 67.0 291.0
v 108.0 67.0 261.0
v 116.0 67.0 291.0
v 116.0 67.0 261.0
v 108.0 37.0 261.0
v 116.0 37.0 261.0
v 116.0 37.0 291.0
v 108.0 37.0 261.0
v 116.0 37.0 291.0
v 108.0 37.0 291.0
v 108.0 37.0 291.0
v 116.0 37.0 291.0
v 116.0 67.0 291.0
v 108.0 37.0 291.0
v 116.0 67.0 291.0
v 108.0 67.0 291.0
v 108.0 37.0 261.0
v 108.0 67.0 261.0
v 116.0 67.0 261.0
v 108.0 37.0 261.0
v 116.0 67.0 261.0
v 116.0 37.0 261.0
v 116.0 45.5 269.5
v 116.0 58.5 269.5
v 116.0 58.5 282.5
v 116.0 45.5 269.5
v 116.0 58.5 282.5
v 116.0 45.5 282.5
v 112.0 45.5 269.5
v 112.0 45.5 282.5
v 112.0 58.5 282.5
v 112.0 45.5 269.5
v 112.0 58.5 282.5
v 112.0 58.5 269.5
v 112.0 58.5 269.5
v 112.0 58.5 282.5
v 116.0 58.5 282.5
v 112.0 58.5 269.5
v 116.0 58.5 282.5
v 116.0 58.5 269.5
v 112.0 45.5 269.5
v 116.0 45.5 269.5
v 116.0 45.5 282.5
v 112.0 45.5 269.5
v 116.0 45.5 282.5
v 112.0 45.5 282.5
v 112.0 45.5 282.5
v 116.0 45.5 282.5
v 116.0 58.5 282.5
v 112.0 45.5 282.5
v 116.0 58.5 282.5
v 112.0 58.5 282.5
v 112.0 45.5 269.5
v 112.0 58.5 269.5
v 116.0 58.5 269.5
v 112.0 45.5 269.5
v 116.0 58.5 269.5
v 116.0 45.5 269.5
vt 0.0305 0.7831
vt 0.1167 0.7979
vt 0.2397 0.5848
vt 0.0305 0.7831
vt 0.2397 0.5848
vt 0.1536 0.5699
vt 0.2021 1.8692
vt 0.1349 1.793
vt 0.348 1.6953
vt 0.2021 1.8692
vt 0.348 1.6953
vt 0.4152 1.7716
vt 0.1726 0.8651
vt 0.0864 0.8503
vt 0.2095 0.6372
vt 0.1726 0.8651
vt 0.2095 0.6372
vt 0.2957 0.652
vt 0.1497 1.7167
vt 0.2169 1.793
vt 0.4301 1.6953
vt 0.1497 1.7167
vt 0.4301 1.6953
vt 0.3628 1.6191
vt 0.0864 1.7167
vt 0.1726 1.793
vt 0.1167 1.8692
vt 0.0864 1.7167
vt 0.1167 1.8692
vt 0.0305 1.793
vt 0.1536 1.6953
vt 0.2397 1.7716
vt 0.2957 1.6953
vt 0.1536 1.6953
vt 0.2957 1.6953
vt 0.2095 1.6191
vt 0.3367 1.6133
vt 0.1946 1.6133
vt 0.1946 1.7773
vt 0.3367 1.6133
vt 0.1946 1.7773
vt 0.3367 1.7773
vt 0.2546 1.6133
vt 0.2546 1.7773
vt 0.1126 1.7773
vt 0.2546 1.6133
vt 0.1126 1.7773
vt 0.1126 1.6133
vt 0.359 1.6133
vt 0.359 1.7773
vt 0.5011 1.7773
vt 0.359 1.6133
vt 0.5011 1.7773
vt 0.5011 1.6133
vt 0.277 1.6133
vt 0.4191 1.6133
vt 0.4191 1.7773
vt 0.277 1.6133
vt 0.4191 1.7773
vt 0.277 1.7773
vt 0.2546 0.723
vt 0.3367 0.5809
vt 0.1946 0.4989
vt 0.2546 0.723
vt 0.1946 0.4989
vt 0.1126 0.641
vt 0.2546 0.723
vt 0.1126 0.641
vt 0.1946 0.4989
vt 0.2546 0.723
vt 0.1946 0.4989
vt 0.3367 0.5809
vt 0.4512 1.7014
vt 0.3887 1.6988
vt 0.4496 1.0738
vt 0.4512 1.7014
vt 0.4496 1.0738
vt 0.5121 1.0764
vt 0.287 1.6988
vt 0.2246 1.6893
vt 0.2598 1.0643
vt 0.287 1.6988
vt 0.2598 1.0643
vt 0.3222 1.0738
vt 0.3268 1.6893
vt 0.3894 1.6918
vt 0.4503 1.0668
vt 0.3268 1.6893
vt 0.4503 1.0668
vt 0.3877 1.0643
vt 0.1622 1.6918
vt 0.2246 1.7014
vt 0.2598 1.0764
vt 0.1622 1.6918
vt 0.2598 1.0764
vt 0.1974 1.0668
vt 0.1622 0.6106
vt 0.2246 0.6732
vt 0.287 0.6113
vt 0.1622 0.6106
vt 0.287 0.6113
vt 0.2246 0.5488
vt 0.2598 0.4879
vt 0.3222 0.5504
vt 0.2598 0.6123
vt 0.2598 0.4879
vt 0.2598 0.6123
vt 0.1974 0.5497
vt 0.4335 1.0
vt 0.2305 1.0
vt 0.2305 1.0703
vt 0.4335 1.0
vt 0.2305 1.0703
vt 0.4335 1.0703
vt 0.289 1.0
vt 0.289 1.0703
vt 0.086 1.0703
vt 0.289 1.0
vt 0.086 1.0703
vt 0.086 1.0
vt 0.3834 1.0
vt 0.3834 1.0703
vt 0.6337 1.0703
vt 0.3834 1.0
vt 0.6337 1.0703
vt 0.6337 1.0
vt 0.2662 1.0
vt 0.5165 1.0
vt 0.5165 1.0703
vt 0.2662 1.0
vt 0.5165 1.0703
vt 0.2662 1.0703
vt 0.289 0.7338
vt 0.4335 0.4835
vt 0.2305 0.3663
vt 0.289 0.7338
vt 0.2305 0.3663
vt 0.086 0.6166
vt 0.289 0.7338
vt 0.086 0.6166
vt 0.2305 0.3663
vt 0.289 0.7338
vt 0.2305 0.3663
vt 0.4335 0.4835
vt -0.1349 1.793
vt -0.2021 1.8692
vt -0.4152 1.7716
vt -0.1349 1.793
vt -0.4152 1.7716
vt -0.348 1.6953
vt 0.1167 1.2021
vt 0.0305 1.2169
vt 0.1536 1.4301
vt 0.1167 1.2021
vt 0.1536 1.4301
vt 0.2397 1.4152
vt -0.2169 1.793
vt -0.1497 1.7167
vt -0.3628 1.6191
vt -0.2169 1.793
vt -0.3628 1.6191
vt -0.4301 1.6953
vt 0.0864 1.1497
vt 0.1726 1.1349
vt 0.2957 1.348
vt 0.0864 1.1497
vt 0.2957 1.348
vt 0.2095 1.3628
vt 0.0864 1.7167
vt 0.0305 1.793
vt 0.1167 1.8692
vt 0.0864 1.7167
vt 0.1167 1.8692
vt 0.1726 1.793
vt 0.2957 1.6953
vt 0.2397 1.7716
vt 0.1536 1.6953
vt 0.2957 1.6953
vt 0.1536 1.6953
vt 0.2095 1.6191
vt 0.1946 1.6133
vt 0.3367 1.6133
vt 0.3367 1.7773
vt 0.1946 1.6133
vt 0.3367 1.7773
vt 0.1946 1.7773
vt 0.1126 1.6133
vt 0.1126 1.7773
vt 0.2546 1.7773
vt 0.1126 1.6133
vt 0.2546 1.7773
vt 0.2546 1.6133
vt -0.277 1.6133
vt -0.277 1.7773
vt -0.4191 1.7773
vt -0.277 1.6133
vt -0.4191 1.7773
vt -0.4191 1.6133
vt -0.359 1.6133
vt -0.5011 1.6133
vt -0.5011 1.7773
vt -0.359 1.6133
vt -0.5011 1.7773
vt -0.359 1.7773
vt 0.1126 1.359
vt 0.1946 1.5011
vt 0.3367 1.4191
vt 0.1126 1.359
vt 0.3367 1.4191
vt 0.2546 1.277
vt 0.1126 1.359
vt 0.2546 1.277
vt 0.3367 1.4191
vt 0.1126 1.359
vt 0.3367 1.4191
vt 0.1946 1.5011
vt 0.2246 1.6893
vt 0.287 1.6988
vt 0.3222 1.0738
vt 0.2246 1.6893
vt 0.3222 1.0738
vt 0.2598 1.0643
vt -0.3887 1.6988
vt -0.4512 1.7014
vt -0.5121 1.0764
vt -0.3887 1.6988
vt -0.5121 1.0764
vt -0.4496 1.0738
vt 0.2246 1.7014
vt 0.1622 1.6918
vt 0.1974 1.0668
vt 0.2246 1.7014
vt 0.1974 1.0668
vt 0.2598 1.0764
vt -0.3894 1.6918
vt -0.3268 1.6893
vt -0.3877 1.0643
vt -0.3894 1.6918
vt -0.3877 1.0643
vt -0.4503 1.0668
vt 0.1622 1.3894
vt 0.2246 1.4512
vt 0.287 1.3887
vt 0.1622 1.3894
vt 0.287 1.3887
vt 0.2246 1.3268
vt 0.2598 1.3877
vt 0.3222 1.4496
vt 0.2598 1.5121
vt 0.2598 1.3877
vt 0.2598 1.5121
vt 0.1974 1.4503
vt 0.2305 1.0
vt 0.4335 1.0
vt 0.4335 1.0703
vt 0.2305 1.0
vt 0.4335 1.0703
vt 0.2305 1.0703
vt 0.086 1.0
vt 0.086 1.0703
vt 0.289 1.0703
vt 0.086 1.0
vt 0.289 1.0703
vt 0.289 1.0
vt -0.2662 1.0
vt -0.2662 1.0703
vt -0.5165 1.0703
vt -0.2662 1.0
vt -0.5165 1.0703
vt -0.5165 1.0
vt -0.3834 1.0
vt -0.6337 1.0
vt -0.6337 1.0703
vt -0.3834 1.0
vt -0.6337 1.0703
vt -0.3834 1.0703
vt 0.086 1.3834
vt 0.2305 1.6337
vt 0.4335 1.5165
vt 0.086 1.3834
vt 0.4335 1.5165
vt 0.289 1.2662
vt 0.086 1.3834
vt 0.289 1.2662
vt 0.4335 1.5165
vt 0.086 1.3834
vt 0.4335 1.5165
vt 0.2305 1.6337
vt -0.2031 1.793
vt -0.2334 1.8692
vt -0.4795 1.7716
vt -0.2031 1.793
vt -0.4795 1.7716
vt -0.4492 1.6953
vt -0.2334 1.8692
vt -0.2031 1.793
vt -0.4492 1.6953
vt -0.2334 1.8692
vt -0.4492 1.6953
vt -0.4795 1.7716
vt -0.2031 1.793
vt -0.1729 1.7167
vt -0.419 1.6191
vt -0.2031 1.793
vt -0.419 1.6191
vt -0.4492 1.6953
vt -0.1729 1.7167
vt -0.2031 1.793
vt -0.4492 1.6953
vt -0.1729 1.7167
vt -0.4492 1.6953
vt -0.419 1.6191
vt 0.0 1.7167
vt 0.082 1.793
vt 0.0 1.8692
vt 0.0 1.7167
vt 0.0 1.8692
vt -0.082 1.793
vt -0.082 1.6953
vt 0.0 1.7716
vt 0.082 1.6953
vt -0.082 1.6953
vt 0.082 1.6953
vt 0.0 1.6191
vt 0.082 1.6133
vt -0.082 1.6133
vt -0.082 1.7773
vt 0.082 1.6133
vt -0.082 1.7773
vt 0.082 1.7773
vt 0.082 1.6133
vt 0.082 1.7773
vt -0.082 1.7773
vt 0.082 1.6133
vt -0.082 1.7773
vt -0.082 1.6133
vt -0.3672 1.6133
vt -0.3672 1.7773
vt -0.5312 1.7773
vt -0.3672 1.6133
vt -0.5312 1.7773
vt -0.5312 1.6133
vt -0.3672 1.6133
vt -0.5312 1.6133
vt -0.5312 1.7773
vt -0.3672 1.6133
vt -0.5312 1.7773
vt -0.3672 1.7773
vt -0.3672 0.918
vt -0.5312 0.918
vt -0.5312 1.082
vt -0.3672 0.918
vt -0.5312 1.082
vt -0.3672 1.082
vt -0.3672 0.918
vt -0.3672 1.082
vt -0.5312 1.082
vt -0.3672 0.918
vt -0.5312 1.082
vt -0.5312 0.918
vt -0.4492 1.6953
vt -0.3871 1.6883
vt -0.4574 1.0633
vt -0.4492 1.6953
vt -0.4574 1.0633
vt -0.5195 1.0703
vt -0.3871 1.6883
vt -0.4492 1.6953
vt -0.5195 1.0703
vt -0.3871 1.6883
vt -0.5195 1.0703
vt -0.4574 1.0633
vt -0.4492 1.6953
vt -0.5113 1.7023
vt -0.5816 1.0773
vt -0.4492 1.6953
vt -0.5816 1.0773
vt -0.5195 1.0703
vt -0.5113 1.7023
vt -0.4492 1.6953
vt -0.5195 1.0703
vt -0.5113 1.7023
vt -0.5195 1.0703
vt -0.5816 1.0773
vt -0.5113 1.0
vt -0.4492 1.0625
vt -0.3871 1.0
vt -0.5113 1.0
vt -0.3871 1.0
vt -0.4492 0.9375
vt -0.5195 0.9375
vt -0.4574 1.0
vt -0.5195 1.0625
vt -0.5195 0.9375
vt -0.5195 1.0625
vt -0.5816 1.0
vt 0.1172 1.0
vt -0.1172 1.0
vt -0.1172 1.0703
vt 0.1172 1.0
vt -0.1172 1.0703
vt 0.1172 1.0703
vt 0.1172 1.0
vt 0.1172 1.0703
vt -0.1172 1.0703
vt 0.1172 1.0
vt -0.1172 1.0703
vt -0.1172 1.0
vt -0.375 1.0
vt -0.375 1.0703
vt -0.6641 1.0703
vt -0.375 1.0
vt -0.6641 1.0703
vt -0.6641 1.0
vt -0.375 1.0
vt -0.6641 1.0
vt -0.6641 1.0703
vt -0.375 1.0
vt -0.6641 1.0703
vt -0.375 1.0703
vt -0.375 0.8828
vt -0.6641 0.8828
vt -0.6641 1.1172
vt -0.375 0.8828
vt -0.6641 1.1172
vt -0.375 1.1172
vt -0.375 0.8828
vt -0.375 1.1172
vt -0.6641 1.1172
vt -0.375 0.8828
vt -0.6641 1.1172
vt -0.6641 0.8828
vt 0.0 1.793
vt 0.203 1.793
vt 0.203 1.9961
vt 0.0 1.793
vt 0.203 1.9961
vt 0.0 1.9961
vt 0.1172 1.793
vt -0.1172 1.793
vt -0.1172 1.9961
vt 0.1172 1.793
vt -0.1172 1.9961
vt 0.1172 1.9961
vt 0.203 1.793
vt 0.0 1.793
vt 0.0 1.9961
vt 0.203 1.793
vt 0.0 1.9961
vt 0.203 1.9961
vt 0.0 1.793
vt -0.203 1.793
vt -0.203 1.9961
vt 0.0 1.793
vt -0.203 1.9961
vt 0.0 1.9961
vt -0.1172 1.793
vt 0.1172 1.793
vt 0.1172 1.9961
vt -0.1172 1.793
vt 0.1172 1.9961
vt -0.1172 1.9961
vt -0.203 1.793
vt 0.0 1.793
vt 0.0 1.9961
vt -0.203 1.793
vt 0.0 1.9961
vt -0.203 1.9961
vt 0.1172 1.203
vt -0.1172 1.203
vt -0.2344 1.0
vt 0.1172 1.203
vt -0.2344 1.0
vt -0.1172 0.797
vt 0.1172 1.203
vt -0.1172 0.797
vt 0.1172 0.797
vt 0.1172 1.203
vt 0.1172 0.797
vt 0.2344 1.0
vt 0.2344 1.0
vt 0.1172 0.797
vt -0.1172 0.797
vt 0.2344 1.0
vt -0.1172 0.797
vt -0.2344 1.0
vt 0.2344 1.0
vt -0.2344 1.0
vt -0.1172 1.203
vt 0.2344 1.0
vt -0.1172 1.203
vt 0.1172 1.203
vt 0.0 1.9961
vt 0.1759 1.9961
vt 0.1759 2.0508
vt 0.0 1.9961
vt 0.1759 2.0508
vt 0.0 2.0508
vt 0.1016 1.9961
vt -0.1016 1.9961
vt -0.1016 2.0508
vt 0.1016 1.9961
vt -0.1016 2.0508
vt 0.1016 2.0508
vt 0.1759 1.9961
vt 0.0 1.9961
vt 0.0 2.0508
vt 0.1759 1.9961
vt 0.0 2.0508
vt 0.1759 2.0508
vt 0.0 1.9961
vt -0.1759 1.9961
vt -0.1759 2.0508
vt 0.0 1.9961
vt -0.1759 2.0508
vt 0.0 2.0508
vt -0.1016 1.9961
vt 0.1016 1.9961
vt 0.1016 2.0508
vt -0.1016 1.9961
vt 0.1016 2.0508
vt -0.1016 2.0508
vt -0.1759 1.9961
vt 0.0 1.9961
vt 0.0 2.0508
vt -0.1759 1.9961
vt 0.0 2.0508
vt -0.1759 2.0508
vt 0.1016 1.1759
vt -0.1016 1.1759
vt -0.2031 1.0
vt 0.1016 1.1759
vt -0.2031 1.0
vt -0.1016 0.8241
vt 0.1016 1.1759
vt -0.1016 0.8241
vt 0.1016 0.8241
vt 0.1016 1.1759
vt 0.1016 0.8241
vt 0.2031 1.0
vt 0.2031 1.0
vt 0.1016 0.8241
vt -0.1016 0.8241
vt 0.2031 1.0
vt -0.1016 0.8241
vt -0.2031 1.0
vt 0.2031 1.0
vt -0.2031 1.0
vt -0.1016 1.1759
vt 0.2031 1.0
vt -0.1016 1.1759
vt 0.1016 1.1759
vt -0.1133 1.7148
vt 0.1133 1.7148
vt 0.1133 1.8711
vt -0.1133 1.7148
vt 0.1133 1.8711
vt -0.1133 1.8711
vt -0.1133 1.7148
vt -0.1133 1.8711
vt 0.1133 1.8711
vt -0.1133 1.7148
vt 0.1133 1.8711
vt 0.1133 1.7148
vt -0.3594 1.7148
vt -0.3594 1.8711
vt -0.2031 1.8711
vt -0.3594 1.7148
vt -0.2031 1.8711
vt -0.2031 1.7148
vt -0.3594 1.7148
vt -0.2031 1.7148
vt -0.2031 1.8711
vt -0.3594 1.7148
vt -0.2031 1.8711
vt -0.3594 1.8711
vt -0.3594 1.1133
vt -0.2031 1.1133
vt -0.2031 0.8867
vt -0.3594 1.1133
vt -0.2031 0.8867
vt -0.3594 0.8867
vt -0.3594 1.1133
vt -0.3594 0.8867
vt -0.2031 0.8867
vt -0.3594 1.1133
vt -0.2031 0.8867
vt -0.2031 1.1133
vt -0.3359 1.7539
vt -0.3012 1.7483
vt -0.4067 1.096
vt -0.3359 1.7539
vt -0.4067 1.096
vt -0.4414 1.1016
vt -0.3012 1.7483
vt -0.3359 1.7539
vt -0.4414 1.1016
vt -0.3012 1.7483
vt -0.4414 1.1016
vt -0.4067 1.096
vt -0.3359 1.7539
vt -0.3706 1.7595
vt -0.4761 1.1072
vt -0.3359 1.7539
vt -0.4761 1.1072
vt -0.4414 1.1016
vt -0.3706 1.7595
vt -0.3359 1.7539
vt -0.4414 1.1016
vt -0.3706 1.7595
vt -0.4414 1.1016
vt -0.4761 1.1072
vt -0.3706 1.0703
vt -0.3359 1.1055
vt -0.3012 1.0703
vt -0.3706 1.0703
vt -0.3012 1.0703
vt -0.3359 1.0352
vt -0.4414 1.0352
vt -0.4067 1.0703
vt -0.4414 1.1055
vt -0.4414 1.0352
vt -0.4414 1.1055
vt -0.4761 1.0703
vt -0.3359 1.7539
vt -0.3012 1.7483
vt -0.4067 1.096
vt -0.3359 1.7539
vt -0.4067 1.096
vt -0.4414 1.1016
vt -0.3012 1.7483
vt -0.3359 1.7539
vt -0.4414 1.1016
vt -0.3012 1.7483
vt -0.4414 1.1016
vt -0.4067 1.096
vt -0.3359 1.7539
vt -0.3706 1.7595
vt -0.4761 1.1072
vt -0.3359 1.7539
vt -0.4761 1.1072
vt -0.4414 1.1016
vt -0.3706 1.7595
vt -0.3359 1.7539
vt -0.4414 1.1016
vt -0.3706 1.7595
vt -0.4414 1.1016
vt -0.4761 1.1072
vt -0.3706 0.9297
vt -0.3359 0.9648
vt -0.3012 0.9297
vt -0.3706 0.9297
vt -0.3012 0.9297
vt -0.3359 0.8945
vt -0.4414 0.8945
vt -0.4067 0.9297
vt -0.4414 0.9648
vt -0.4414 0.8945
vt -0.4414 0.9648
vt -0.4761 0.9297
vt -0.3984 1.9961
vt 0.3984 1.9961
vt 0.3984 2.1602
vt -0.3984 1.9961
vt 0.3984 2.1602
vt -0.3984 2.1602
vt -0.3984 1.9961
vt -0.3984 2.1602
vt 0.3984 2.1602
vt -0.3984 1.9961
vt 0.3984 2.1602
vt 0.3984 1.9961
vt -0.2148 1.9961
vt -0.2148 2.1602
vt 0.2148 2.1602
vt -0.2148 1.9961
vt 0.2148 2.1602
vt 0.2148 1.9961
vt -0.2148 1.9961
vt 0.2148 1.9961
vt 0.2148 2.1602
vt -0.2148 1.9961
vt 0.2148 2.1602
vt -0.2148 2.1602
vt -0.2148 1.3984
vt 0.2148 1.3984
vt 0.2148 0.6016
vt -0.2148 1.3984
vt 0.2148 0.6016
vt -0.2148 0.6016
vt -0.2148 1.3984
vt -0.2148 0.6016
vt 0.2148 0.6016
vt -0.2148 1.3984
vt 0.2148 0.6016
vt 0.2148 1.3984
vt -0.3125 1.9961
vt 0.3125 1.9961
vt 0.3125 2.1133
vt -0.3125 1.9961
vt 0.3125 2.1133
vt -0.3125 2.1133
vt -0.3125 1.9961
vt -0.3125 2.1133
vt 0.3125 2.1133
vt -0.3125 1.9961
vt 0.3125 2.1133
vt 0.3125 1.9961
vt -0.2266 1.9961
vt -0.2266 2.1133
vt -0.125 2.1133
vt -0.2266 1.9961
vt -0.125 2.1133
vt -0.125 1.9961
vt -0.2266 1.9961
vt -0.125 1.9961
vt -0.125 2.1133
vt -0.2266 1.9961
vt -0.125 2.1133
vt -0.2266 2.1133
vt -0.2266 1.3125
vt -0.125 1.3125
vt -0.125 0.6875
vt -0.2266 1.3125
vt -0.125 0.6875
vt -0.2266 0.6875
vt -0.2266 1.3125
vt -0.2266 0.6875
vt -0.125 0.6875
vt -0.2266 1.3125
vt -0.125 0.6875
vt -0.125 1.3125
vt -0.416 2.0039
vt -0.3965 2.0039
vt -0.3965 2.0508
vt -0.416 2.0039
vt -0.3965 2.0508
vt -0.416 2.0508
vt -0.416 2.0039
vt -0.416 2.0508
vt -0.3965 2.0508
vt -0.416 2.0039
vt -0.3965 2.0508
vt -0.3965 2.0039
vt -0.1484 2.0039
vt -0.1484 2.0508
vt 0.1953 2.0508
vt -0.1484 2.0039
vt 0.1953 2.0508
vt 0.1953 2.0039
vt -0.1484 2.0039
vt 0.1953 2.0039
vt 0.1953 2.0508
vt -0.1484 2.0039
vt 0.1953 2.0508
vt -0.1484 2.0508
vt -0.1484 1.416
vt 0.1953 1.416
vt 0.1953 1.3965
vt -0.1484 1.416
vt 0.1953 1.3965
vt -0.1484 1.3965
vt -0.1484 1.416
vt -0.1484 1.3965
vt 0.1953 1.3965
vt -0.1484 1.416
vt 0.1953 1.3965
vt 0.1953 1.416
vt 0.3965 2.0039
vt 0.416 2.0039
vt 0.416 2.0508
vt 0.3965 2.0039
vt 0.416 2.0508
vt 0.3965 2.0508
vt 0.3965 2.0039
vt 0.3965 2.0508
vt 0.416 2.0508
vt 0.3965 2.0039
vt 0.416 2.0508
vt 0.416 2.0039
vt -0.1484 2.0039
vt -0.1484 2.0508
vt 0.1953 2.0508
vt -0.1484 2.0039
vt 0.1953 2.0508
vt 0.1953 2.0039
vt -0.1484 2.0039
vt 0.1953 2.0039
vt 0.1953 2.0508
vt -0.1484 2.0039
vt 0.1953 2.0508
vt -0.1484 2.0508
vt -0.1484 0.6035
vt 0.1953 0.6035
vt 0.1953 0.584
vt -0.1484 0.6035
vt 0.1953 0.584
vt -0.1484 0.584
vt -0.1484 0.6035
vt -0.1484 0.584
vt 0.1953 0.584
vt -0.1484 0.6035
vt 0.1953 0.584
vt 0.1953 0.6035
vt -0.375 2.0039
vt 0.375 2.0039
vt 0.375 2.0508
vt -0.375 2.0039
vt 0.375 2.0508
vt -0.375 2.0508
vt -0.375 2.0039
vt -0.375 2.0508
vt 0.375 2.0508
vt -0.375 2.0039
vt 0.375 2.0508
vt 0.375 2.0039
vt 0.2129 2.0039
vt 0.2129 2.0508
vt 0.2324 2.0508
vt 0.2129 2.0039
vt 0.2324 2.0508
vt 0.2324 2.0039
vt 0.2129 2.0039
vt 0.2324 2.0039
vt 0.2324 2.0508
vt 0.2129 2.0039
vt 0.2324 2.0508
vt 0.2129 2.0508
vt 0.2129 1.375
vt 0.2324 1.375
vt 0.2324 0.625
vt 0.2129 1.375
vt 0.2324 0.625
vt 0.2129 0.625
vt 0.2129 1.375
vt 0.2129 0.625
vt 0.2324 0.625
vt 0.2129 1.375
vt 0.2324 0.625
vt 0.2324 1.375
vt 0.1836 1.1016
vt 0.1836 1.2031
vt 0.4492 1.2031
vt 0.1836 1.1016
vt 0.4492 1.2031
vt 0.4492 1.1016
vt 0.1836 1.2031
vt 0.1836 1.3047
vt 0.4492 1.3047
vt 0.1836 1.2031
vt 0.4492 1.3047
vt 0.4492 1.2031
vt 0.1836 2.0781
vt 0.1836 1.9766
vt 0.4492 1.9766
vt 0.1836 2.0781
vt 0.4492 1.9766
vt 0.4492 2.0781
vt 0.1836 1.2031
vt 0.1836 1.1016
vt 0.4492 1.1016
vt 0.1836 1.2031
vt 0.4492 1.1016
vt 0.4492 1.2031
vt -0.2031 1.9766
vt -0.3047 2.0781
vt -0.2031 2.1797
vt -0.2031 1.9766
vt -0.2031 2.1797
vt -0.1016 2.0781
vt -0.1016 2.0781
vt -0.2031 2.1797
vt -0.3047 2.0781
vt -0.1016 2.0781
vt -0.3047 2.0781
vt -0.2031 1.9766
vt -0.2617 2.0195
vt -0.1445 2.0195
vt -0.1445 2.1367
vt -0.2617 2.0195
vt -0.1445 2.1367
vt -0.2617 2.1367
vt -0.2617 2.0195
vt -0.2617 2.1367
vt -0.1445 2.1367
vt -0.2617 2.0195
vt -0.1445 2.1367
vt -0.1445 2.0195
vt 0.4219 2.0195
vt 0.4219 2.1367
vt 0.4531 2.1367
vt 0.4219 2.0195
vt 0.4531 2.1367
vt 0.4531 2.0195
vt 0.4219 2.0195
vt 0.4531 2.0195
vt 0.4531 2.1367
vt 0.4219 2.0195
vt 0.4531 2.1367
vt 0.4219 2.1367
vt 0.4219 1.2617
vt 0.4531 1.2617
vt 0.4531 1.1445
vt 0.4219 1.2617
vt 0.4531 1.1445
vt 0.4219 1.1445
vt 0.4219 1.2617
vt 0.4219 1.1445
vt 0.4531 1.1445
vt 0.4219 1.2617
vt 0.4531 1.1445
vt 0.4531 1.2617
vt -0.2285 2.0527
vt -0.1777 2.0527
vt -0.1777 2.1035
vt -0.2285 2.0527
vt -0.1777 2.1035
vt -0.2285 2.1035
vt -0.2285 2.0527
vt -0.2285 2.1035
vt -0.1777 2.1035
vt -0.2285 2.0527
vt -0.1777 2.1035
vt -0.1777 2.0527
vt 0.4375 2.0527
vt 0.4375 2.1035
vt 0.4531 2.1035
vt 0.4375 2.0527
vt 0.4531 2.1035
vt 0.4531 2.0527
vt 0.4375 2.0527
vt 0.4531 2.0527
vt 0.4531 2.1035
vt 0.4375 2.0527
vt 0.4531 2.1035
vt 0.4375 2.1035
vt 0.4375 1.2285
vt 0.4531 1.2285
vt 0.4531 1.1777
vt 0.4375 1.2285
vt 0.4531 1.1777
vt 0.4375 1.1777
vt 0.4375 1.2285
vt 0.4375 1.1777
vt 0.4531 1.1777
vt 0.4375 1.2285
vt 0.4531 1.1777
vt 0.4531 1.2285
vt 0.1836 0.6953
vt 0.1836 0.7969
vt 0.4492 0.7969
vt 0.1836 0.6953
vt 0.4492 0.7969
vt 0.4492 0.6953
vt 0.1836 0.7969
vt 0.1836 0.8984
vt 0.4492 0.8984
vt 0.1836 0.7969
vt 0.4492 0.8984
vt 0.4492 0.7969
vt 0.1836 2.0781
vt 0.1836 1.9766
vt 0.4492 1.9766
vt 0.1836 2.0781
vt 0.4492 1.9766
vt 0.4492 2.0781
vt 0.1836 0.7969
vt 0.1836 0.6953
vt 0.4492 0.6953
vt 0.1836 0.7969
vt 0.4492 0.6953
vt 0.4492 0.7969
vt 0.2031 1.9766
vt 0.1016 2.0781
vt 0.2031 2.1797
vt 0.2031 1.9766
vt 0.2031 2.1797
vt 0.3047 2.0781
vt 0.3047 2.0781
vt 0.2031 2.1797
vt 0.1016 2.0781
vt 0.3047 2.0781
vt 0.1016 2.0781
vt 0.2031 1.9766
vt 0.1445 2.0195
vt 0.2617 2.0195
vt 0.2617 2.1367
vt 0.1445 2.0195
vt 0.2617 2.1367
vt 0.1445 2.1367
vt 0.1445 2.0195
vt 0.1445 2.1367
vt 0.2617 2.1367
vt 0.1445 2.0195
vt 0.2617 2.1367
vt 0.2617 2.0195
vt 0.4219 2.0195
vt 0.4219 2.1367
vt 0.4531 2.1367
vt 0.4219 2.0195
vt 0.4531 2.1367
vt 0.4531 2.0195
vt 0.4219 2.0195
vt 0.4531 2.0195
vt 0.4531 2.1367
vt 0.4219 2.0195
vt 0.4531 2.1367
vt 0.4219 2.1367
vt 0.4219 0.8555
vt 0.4531 0.8555
vt 0.4531 0.7383
vt 0.4219 0.8555
vt 0.4531 0.7383
vt 0.4219 0.7383
vt 0.4219 0.8555
vt 0.4219 0.7383
vt 0.4531 0.7383
vt 0.4219 0.8555
vt 0.4531 0.7383
vt 0.4531 0.8555
vt 0.1777 2.0527
vt 0.2285 2.0527
vt 0.2285 2.1035
vt 0.1777 2.0527
vt 0.2285 2.1035
vt 0.1777 2.1035
vt 0.1777 2.0527
vt 0.1777 2.1035
vt 0.2285 2.1035
vt 0.1777 2.0527
vt 0.2285 2.1035
vt 0.2285 2.0527
vt 0.4375 2.0527
vt 0.4375 2.1035
vt 0.4531 2.1035
vt 0.4375 2.0527
vt 0.4531 2.1035
vt 0.4531 2.0527
vt 0.4375 2.0527
vt 0.4531 2.0527
vt 0.4531 2.1035
vt 0.4375 2.0527
vt 0.4531 2.1035
vt 0.4375 2.1035
vt 0.4375 0.8223
vt 0.4531 0.8223
vt 0.4531 0.7715
vt 0.4375 0.8223
vt 0.4531 0.7715
vt 0.4375 0.7715
vt 0.4375 0.8223
vt 0.4375 0.7715
vt 0.4531 0.7715
vt 0.4375 0.8223
vt 0.4531 0.7715
vt 0.4531 0.8223
vn -0.482 0.5794 0.6572
vn -0.482 0.5794 0.6572
vn -0.482 0.5794 0.6572
vn -0.482 0.5794 0.6572
vn -0.482 0.5794 0.6572
vn -0.482 0.5794 0.6572
vn 0.7428 -0.1277 0.6572
vn 0.7428 -0.1277 0.6572
vn 0.7428 -0.1277 0.6572
vn 0.7428 -0.1277 0.6572
vn 0.7428 -0.1277 0.6572
vn 0.7428 -0.1277 0.6572
vn 0.482 -0.5794 -0.6572
vn 0.482 -0.5794 -0.6572
vn 0.482 -0.5794 -0.6572
vn 0.482 -0.5794 -0.6572
vn 0.482 -0.5794 -0.6572
vn 0.482 -0.5794 -0.6572
vn -0.7428 0.1277 -0.6572
vn -0.7428 0.1277 -0.6572
vn -0.7428 0.1277 -0.6572
vn -0.7428 0.1277 -0.6572
vn -0.7428 0.1277 -0.6572
vn -0.7428 0.1277 -0.6572
vn -0.4647 -0.805 0.3688
vn -0.4647 -0.805 0.3688
vn -0.4647 -0.805 0.3688
vn -0.4647 -0.805 0.3688
vn -0.4647 -0.805 0.3688
vn -0.4647 -0.805 0.3688
vn 0.4647 0.805 -0.3688
vn 0.4647 0.805 -0.3688
vn 0.4647 0.805 -0.3688
vn 0.4647 0.805 -0.3688
vn 0.4647 0.805 -0.3688
vn 0.4647 0.805 -0.3688
vn 0.5 0.866 0.0
vn 0.5 0.866 0.0
vn 0.5 0.866 0.0
vn 0.5 0.866 0.0
vn 0.5 0.866 0.0
vn 0.5 0.866 0.0
vn -0.5 -0.866 0.0
vn -0.5 -0.866 0.0
vn -0.5 -0.866 0.0
vn -0.5 -0.866 0.0
vn -0.5 -0.866 0.0
vn -0.5 -0.866 0.0
vn -0.866 0.5 0.0
vn -0.866 0.5 0.0
vn -0.866 0.5 0.0
vn -0.866 0.5 0.0
vn -0.866 0.5 0.0
vn -0.866 0.5 0.0
vn 0.866 -0.5 0.0
vn 0.866 -0.5 0.0
vn 0.866 -0.5 0.0
vn 0.866 -0.5 0.0
vn 0.866 -0.5 0.0
vn 0.866 -0.5 0.0
vn 0.0 0.0 1.0
vn 0.0 0.0 1.0
vn 0.0 0.0 1.0
vn 0.0 0.0 1.0
vn 0.0 0.0 1.0
vn 0.0 0.0 1.0
vn 0.0 0.0 -1.0
vn 0.0 0.0 -1.0
vn 0.0 0.0 -1.0
vn 0.0 0.0 -1.0
vn 0.0 0.0 -1.0
vn 0.0 0.0 -1.0
vn 0.706 0.6999 0.1079
vn 0.706 0.6999 0.1079
vn 0.706 0.6999 0.1079
vn 0.706 0.6999 0.1079
vn 0.706 0.6999 0.1079
vn 0.706 0.6999 0.1079
vn 0.706 -0.7076 -0.0292
vn 0.706 -0.7076 -0.0292
vn 0.706 -0.7076 -0.0292
vn 0.706 -0.7076 -0.0292
vn 0.706 -0.7076 -0.0292
vn 0.706 -0.7076 -0.0292
vn -0.706 -0.6999 -0.1079
vn -0.706 -0.6999 -0.1079
vn -0.706 -0.6999 -0.1079
vn -0.706 -0.6999 -0.1079
vn -0.706 -0.6999 -0.1079
vn -0.706 -0.6999 -0.1079
vn -0.706 0.7076 0.0292
vn -0.706 0.7076 0.0292
vn -0.706 0.7076 0.0292
vn -0.706 0.7076 0.0292
vn -0.706 0.7076 0.0292
vn -0.706 0.7076 0.0292
vn -0.0559 -0.0968 0.9937
vn -0.0559 -0.0968 0.9937
vn -0.0559 -0.0968 0.9937
vn -0.0559 -0.0968 0.9937
vn -0.0559 -0.0968 0.9937
vn -0.0559 -0.0968 0.9937
vn 0.0559 0.0968 -0.9937
vn 0.0559 0.0968 -0.9937
vn 0.0559 0.0968 -0.9937
vn 0.0559 0.0968 -0.9937
vn 0.0559 0.0968 -0.9937
vn 0.0559 0.0968 -0.9937
vn 0.5 0.866 0.0
vn 0.5 0.866 0.0
vn 0.5 0.866 0.0
vn 0.5 0.866 0.0
vn 0.5 0.866 0.0
vn 0.5 0.866 0.0
vn -0.5 -0.866 0.0
vn -0.5 -0.866 0.0
vn -0.5 -0.866 0.0
vn -0.5 -0.866 0.0
vn -0.5 -0.866 0.0
vn -0.5 -0.866 0.0
vn -0.866 0.5 0.0
vn -0.866 0.5 0.0
vn -0.866 0.5 0.0
vn -0.866 0.5 0.0
vn -0.866 0.5 0.0
vn -0.866 0.5 0.0
vn 0.866 -0.5 0.0
vn 0.866 -0.5 0.0
vn 0.866 -0.5 0.0
vn 0.866 -0.5 0.0
vn 0.866 -0.5 0.0
vn 0.866 -0.5 0.0
vn 0.0 0.0 1.0
vn 0.0 0.0 1.0
vn 0.0 0.0 1.0
vn 0.0 0.0 1.0
vn 0.0 0.0 1.0
vn 0.0 0.0 1.0
vn 0.0 0.0 -1.0
vn 0.0 0.0 -1.0
vn 0.0 0.0 -1.0
vn 0.0 0.0 -1.0
vn 0.0 0.0 -1.0
vn 0.0 0.0 -1.0
vn 0.7428 0.1277 0.6572
vn 0.7428 0.1277 0.6572
vn 0.7428 0.1277 0.6572
vn 0.7428 0.1277 0.6572
vn 0.7428 0.1277 0.6572
vn 0.7428 0.1277 0.6572
vn -0.482 -0.5794 0.6572
vn -0.482 -0.5794 0.6572
vn -0.482 -0.5794 0.6572
vn -0.482 -0.5794 0.6572
vn -0.482 -0.5794 0.6572
vn -0.482 -0.5794 0.6572
vn -0.7428 -0.1277 -0.6572
vn -0.7428 -0.1277 -0.6572
vn -0.7428 -0.1277 -0.6572
vn -0.7428 -0.1277 -0.6572
vn -0.7428 -0.1277 -0.6572
vn -0.7428 -0.1277 -0.6572
vn 0.482 0.5794 -0.6572
vn 0.482 0.5794 -0.6572
vn 0.482 0.5794 -0.6572
vn 0.482 0.5794 -0.6572
vn 0.482 0.5794 -0.6572
vn 0.482 0.5794 -0.6572
vn -0.4647 0.805 0.3688
vn -0.4647 0.805 0.3688
vn -0.4647 0.805 0.3688
vn -0.4647 0.805 0.3688
vn -0.4647 0.805 0.3688
vn -0.4647 0.805 0.3688
vn 0.4647 -0.805 -0.3688
vn 0.4647 -0.805 -0.3688
vn 0.4647 -0.805 -0.3688
vn 0.4647 -0.805 -0.3688
vn 0.4647 -0.805 -0.3688
vn 0.4647 -0.805 -0.3688
vn 0.5 -0.866 0.0
vn 0.5 -0.866 0.0
vn 0.5 -0.866 0.0
vn 0.5 -0.866 0.0
vn 0.5 -0.866 0.0
vn 0.5 -0.866 0.0
vn -0.5 0.866 0.0
vn -0.5 0.866 0.0
vn -0.5 0.866 0.0
vn -0.5 0.866 0.0
vn -0.5 0.866 0.0
vn -0.5 0.866 0.0
vn 0.866 0.5 0.0
vn 0.866 0.5 0.0
vn 0.866 0.5 0.0
vn 0.866 0.5 0.0
vn 0.866 0.5 0.0
vn 0.866 0.5 0.0
vn -0.866 -0.5 0.0
vn -0.866 -0.5 0.0
vn -0.866 -0.5 0.0
vn -0.866 -0.5 0.0
vn -0.866 -0.5 0.0
vn -0.866 -0.5 0.0
vn 0.0 0.0 1.0
vn 0.0 0.0 1.0
vn 0.0 0.0 1.0
vn 0.0 0.0 1.0
vn 0.0 0.0 1.0
vn 0.0 0.0 1.0
vn 0.0 0.0 -1.0
vn 0.0 0.0 -1.0
vn 0.0 0.0 -1.0
vn 0.0 0.0 -1.0
vn 0.0 0.0 -1.0
vn 0.0 0.0 -1.0
vn 0.706 0.7076 -0.0292
vn 0.706 0.7076 -0.0292
vn 0.706 0.7076 -0.0292
vn 0.706 0.7076 -0.0292
vn 0.706 0.7076 -0.0292
vn 0.706 0.7076 -0.0292
vn 0.706 -0.6999 0.1079
vn 0.706 -0.6999 0.1079
vn 0.706 -0.6999 0.1079
vn 0.706 -0.6999 0.1079
vn 0.706 -0.6999 0.1079
vn 0.706 -0.6999 0.1079
vn -0.706 -0.7076 0.0292
vn -0.706 -0.7076 0.0292
vn -0.706 -0.7076 0.0292
vn -0.706 -0.7076 0.0292
vn -0.706 -0.7076 0.0292
vn -0.706 -0.7076 0.0292
vn -0.706 0.6999 -0.1079
vn -0.706 0.6999 -0.1079
vn -0.706 0.6999 -0.1079
vn -0.706 0.6999 -0.1079
vn -0.706 0.6999 -0.1079
vn -0.706 0.6999 -0.1079
vn -0.0559 0.0968 0.9937
vn -0.0559 0.0968 0.9937
vn -0.0559 0.0968 0.9937
vn -0.0559 0.0968 0.9937
vn -0.0559 0.0968 0.9937
vn -0.0559 0.0968 0.9937
vn 0.0559 -0.0968 -0.9937
vn 0.0559 -0.0968 -0.9937
vn 0.0559 -0.0968 -0.9937
vn 0.0559 -0.0968 -0.9937
vn 0.0559 -0.0968 -0.9937
vn 0.0559 -0.0968 -0.9937
vn 0.5 -0.866 0.0
vn 0.5 -0.866 0.0
vn 0.5 -0.866 0.0
vn 0.5 -0.866 0.0
vn 0.5 -0.866 0.0
vn 0.5 -0.866 0.0
vn -0.5 0.866 0.0
vn -0.5 0.866 0.0
vn -0.5 0.866 0.0
vn -0.5 0.866 0.0
vn -0.5 0.866 0.0
vn -0.5 0.866 0.0
vn 0.866 0.5 0.0
vn 0.866 0.5 0.0
vn 0.866 0.5 0.0
vn 0.866 0.5 0.0
vn 0.866 0.5 0.0
vn 0.866 0.5 0.0
vn -0.866 -0.5 0.0
vn -0.866 -0.5 0.0
vn -0.866 -0.5 0.0
vn -0.866 -0.5 0.0
vn -0.866 -0.5 0.0
vn -0.866 -0.5 0.0
vn 0.0 0.0 1.0
vn 0.0 0.0 1.0
vn 0.0 0.0 1.0
vn 0.0 0.0 1.0
vn 0.0 0.0 1.0
vn 0.0 0.0 1.0
vn 0.0 0.0 -1.0
vn 0.0 0.0 -1.0
vn 0.0 0.0 -1.0
vn 0.0 0.0 -1.0
vn 0.0 0.0 -1.0
vn 0.0 0.0 -1.0
vn -0.2608 -0.7071 0.6572
vn -0.2608 -0.7071 0.6572
vn -0.2608 -0.7071 0.6572
vn -0.2608 -0.7071 0.6572
vn -0.2608 -0.7071 0.6572
vn -0.2608 -0.7071 0.6572
vn -0.2608 0.7071 0.6572
vn -0.2608 0.7071 0.6572
vn -0.2608 0.7071 0.6572
vn -0.2608 0.7071 0.6572
vn -0.2608 0.7071 0.6572
vn -0.2608 0.7071 0.6572
vn 0.2608 0.7071 -0.6572
vn 0.2608 0.7071 -0.6572
vn 0.2608 0.7071 -0.6572
vn 0.2608 0.7071 -0.6572
vn 0.2608 0.7071 -0.6572
vn 0.2608 0.7071 -0.6572
vn 0.2608 -0.7071 -0.6572
vn 0.2608 -0.7071 -0.6572
vn 0.2608 -0.7071 -0.6572
vn 0.2608 -0.7071 -0.6572
vn 0.2608 -0.7071 -0.6572
vn 0.2608 -0.7071 -0.6572
vn 0.9295 0.0 0.3688
vn 0.9295 0.0 0.3688
vn 0.9295 0.0 0.3688
vn 0.9295 0.0 0.3688
vn 0.9295 0.0 0.3688
vn 0.9295 0.0 0.3688
vn -0.9295 0.0 -0.3688
vn -0.9295 0.0 -0.3688
vn -0.9295 0.0 -0.3688
vn -0.9295 0.0 -0.3688
vn -0.9295 0.0 -0.3688
vn -0.9295 0.0 -0.3688
vn -1.0 0.0 0.0
vn -1.0 0.0 0.0
vn -1.0 0.0 0.0
vn -1.0 0.0 0.0
vn -1.0 0.0 0.0
vn -1.0 0.0 0.0
vn 1.0 0.0 0.0
vn 1.0 0.0 0.0
vn 1.0 0.0 0.0
vn 1.0 0.0 0.0
vn 1.0 0.0 0.0
vn 1.0 0.0 0.0
vn 0.0 -1.0 0.0
vn 0.0 -1.0 0.0
vn 0.0 -1.0 0.0
vn 0.0 -1.0 0.0
vn 0.0 -1.0 0.0
vn 0.0 -1.0 0.0
vn 0.0 1.0 0.0
vn 0.0 1.0 0.0
vn 0.0 1.0 0.0
vn 0.0 1.0 0.0
vn 0.0 1.0 0.0
vn 0.0 1.0 0.0
vn 0.0 0.0 1.0
vn 0.0 0.0 1.0
vn 0.0 0.0 1.0
vn 0.0 0.0 1.0
vn 0.0 0.0 1.0
vn 0.0 0.0 1.0
vn 0.0 0.0 -1.0
vn 0.0 0.0 -1.0
vn 0.0 0.0 -1.0
vn 0.0 0.0 -1.0
vn 0.0 0.0 -1.0
vn 0.0 0.0 -1.0
vn 0.7027 0.7071 -0.0791
vn 0.7027 0.7071 -0.0791
vn 0.7027 0.7071 -0.0791
vn 0.7027 0.7071 -0.0791
vn 0.7027 0.7071 -0.0791
vn 0.7027 0.7071 -0.0791
vn 0.7027 -0.7071 -0.0791
vn 0.7027 -0.7071 -0.0791
vn 0.7027 -0.7071 -0.0791
vn 0.7027 -0.7071 -0.0791
vn 0.7027 -0.7071 -0.0791
vn 0.7027 -0.7071 -0.0791
vn -0.7027 -0.7071 0.0791
vn -0.7027 -0.7071 0.0791
vn -0.7027 -0.7071 0.0791
vn -0.7027 -0.7071 0.0791
vn -0.7027 -0.7071 0.0791
vn -0.7027 -0.7071 0.0791
vn -0.7027 0.7071 0.0791
vn -0.7027 0.7071 0.0791
vn -0.7027 0.7071 0.0791
vn -0.7027 0.7071 0.0791
vn -0.7027 0.7071 0.0791
vn -0.7027 0.7071 0.0791
vn 0.1118 0.0 0.9937
vn 0.1118 0.0 0.9937
vn 0.1118 0.0 0.9937
vn 0.1118 0.0 0.9937
vn 0.1118 0.0 0.9937
vn 0.1118 0.0 0.9937
vn -0.1118 0.0 -0.9937
vn -0.1118 0.0 -0.9937
vn -0.1118 0.0 -0.9937
vn -0.1118 0.0 -0.9937
vn -0.1118 0.0 -0.9937
vn -0.1118 0.0 -0.9937
vn -1.0 0.0 0.0
vn -1.0 0.0 0.0
vn -1.0 0.0 0.0
vn -1.0 0.0 0.0
vn -1.0 0.0 0.0
vn -1.0 0.0 0.0
vn 1.0 0.0 0.0
vn 1.0 0.0 0.0
vn 1.0 0.0 0.0
vn 1.0 0.0 0.0
vn 1.0 0.0 0.0
vn 1.0 0.0 0.0
vn 0.0 -1.0 0.0
vn 0.0 -1.0 0.0
vn 0.0 -1.0 0.0
vn 0.0 -1.0 0.0
vn 0.0 -1.0 0.0
vn 0.0 -1.0 0.0
vn 0.0 1.0 0.0
vn 0.0 1.0 0.0
vn 0.0 1.0 0.0
vn 0.0 1.0 0.0
vn 0.0 1.0 0.0
vn 0.0 1.0 0.0
vn 0.0 0.0 1.0
vn 0.0 0.0 1.0
vn 0.0 0.0 1.0
vn 0.0 0.0 1.0
vn 0.0 0.0 1.0
vn 0.0 0.0 1.0
vn 0.0 0.0 -1.0
vn 0.0 0.0 -1.0
vn 0.0 0.0 -1.0
vn 0.0 0.0 -1.0
vn 0.0 0.0 -1.0
vn 0.0 0.0 -1.0
vn 0.866 0.5 0.0
vn 0.866 0.5 0.0
vn 0.866 0.5 0.0
vn 0.866 0.5 0.0
vn 0.866 0.5 0.0
vn 0.866 0.5 0.0
vn 0.0 1.0 0.0
vn 0.0 1.0 0.0
vn 0.0 1.0 0.0
vn 0.0 1.0 0.0
vn 0.0 1.0 0.0
vn 0.0 1.0 0.0
vn -0.866 0.5 0.0
vn -0.866 0.5 0.0
vn -0.866 0.5 0.0
vn -0.866 0.5 0.0
vn -0.866 0.5 0.0
vn -0.866 0.5 0.0
vn -0.866 -0.5 0.0
vn -0.866 -0.5 0.0
vn -0.866 -0.5 0.0
vn -0.866 -0.5 0.0
vn -0.866 -0.5 0.0
vn -0.866 -0.5 0.0
vn 0.0 -1.0 0.0
vn 0.0 -1.0 0.0
vn 0.0 -1.0 0.0
vn 0.0 -1.0 0.0
vn 0.0 -1.0 0.0
vn 0.0 -1.0 0.0
vn 0.866 -0.5 0.0
vn 0.866 -0.5 0.0
vn 0.866 -0.5 0.0
vn 0.866 -0.5 0.0
vn 0.866 -0.5 0.0
vn 0.866 -0.5 0.0
vn 0.0 0.0 -1.0
vn 0.0 0.0 -1.0
vn 0.0 0.0 -1.0
vn 0.0 0.0 -1.0
vn 0.0 0.0 -1.0
vn 0.0 0.0 -1.0
vn 0.0 0.0 -1.0
vn 0.0 0.0 -1.0
vn 0.0 0.0 -1.0
vn 0.0 0.0 -1.0
vn 0.0 0.0 -1.0
vn 0.0 0.0 -1.0
vn 0.0 0.0 1.0
vn 0.0 0.0 1.0
vn 0.0 0.0 1.0
vn 0.0 0.0 1.0
vn 0.0 0.0 1.0
vn 0.0 0.0 1.0
vn 0.0 0.0 1.0
vn 0.0 0.0 1.0
vn 0.0 0.0 1.0
vn 0.0 0.0 1.0
vn 0.0 0.0 1.0
vn 0.0 0.0 1.0
vn 0.866 0.5 0.0
vn 0.866 0.5 0.0
vn 0.866 0.5 0.0
vn 0.866 0.5 0.0
vn 0.866 0.5 0.0
vn 0.866 0.5 0.0
vn 0.0 1.0 0.0
vn 0.0 1.0 0.0
vn 0.0 1.0 0.0
vn 0.0 1.0 0.0
vn 0.0 1.0 0.0
vn 0.0 1.0 0.0
vn -0.866 0.5 0.0
vn -0.866 0.5 0.0
vn -0.866 0.5 0.0
vn -0.866 0.5 0.0
vn -0.866 0.5 0.0
vn -0.866 0.5 0.0
vn -0.866 -0.5 0.0
vn -0.866 -0.5 0.0
vn -0.866 -0.5 0.0
vn -0.866 -0.5 0.0
vn -0.866 -0.5 0.0
vn -0.866 -0.5 0.0
vn 0.0 -1.0 0.0
vn 0.0 -1.0 0.0
vn 0.0 -1.0 0.0
vn 0.0 -1.0 0.0
vn 0.0 -1.0 0.0
vn 0.0 -1.0 0.0
vn 0.866 -0.5 0.0
vn 0.866 -0.5 0.0
vn 0.866 -0.5 0.0
vn 0.866 -0.5 0.0
vn 0.866 -0.5 0.0
vn 0.866 -0.5 0.0
vn 0.0 0.0 -1.0
vn 0.0 0.0 -1.0
vn 0.0 0.0 -1.0
vn 0.0 0.0 -1.0
vn 0.0 0.0 -1.0
vn 0.0 0.0 -1.0
vn 0.0 0.0 -1.0
vn 0.0 0.0 -1.0
vn 0.0 0.0 -1.0
vn 0.0 0.0 -1.0
vn 0.0 0.0 -1.0
vn 0.0 0.0 -1.0
vn 0.0 0.0 1.0
vn 0.0 0.0 1.0
vn 0.0 0.0 1.0
vn 0.0 0.0 1.0
vn 0.0 0.0 1.0
vn 0.0 0.0 1.0
vn 0.0 0.0 1.0
vn 0.0 0.0 1.0
vn 0.0 0.0 1.0
vn 0.0 0.0 1.0
vn 0.0 0.0 1.0
vn 0.0 0.0 1.0
vn 1.0 0.0 0.0
vn 1.0 0.0 0.0
vn 1.0 0.0 0.0
vn 1.0 0.0 0.0
vn 1.0 0.0 0.0
vn 1.0 0.0 0.0
vn -1.0 0.0 0.0
vn -1.0 0.0 0.0
vn -1.0 0.0 0.0
vn -1.0 0.0 0.0
vn -1.0 0.0 0.0
vn -1.0 0.0 0.0
vn 0.0 1.0 0.0
vn 0.0 1.0 0.0
vn 0.0 1.0 0.0
vn 0.0 1.0 0.0
vn 0.0 1.0 0.0
vn 0.0 1.0 0.0
vn 0.0 -1.0 0.0
vn 0.0 -1.0 0.0
vn 0.0 -1.0 0.0
vn 0.0 -1.0 0.0
vn 0.0 -1.0 0.0
vn 0.0 -1.0 0.0
vn 0.0 0.0 1.0
vn 0.0 0.0 1.0
vn 0.0 0.0 1.0
vn 0.0 0.0 1.0
vn 0.0 0.0 1.0
vn 0.0 0.0 1.0
vn 0.0 0.0 -1.0
vn 0.0 0.0 -1.0
vn 0.0 0.0 -1.0
vn 0.0 0.0 -1.0
vn 0.0 0.0 -1.0
vn 0.0 0.0 -1.0
vn 0.698 0.7071 -0.1129
vn 0.698 0.7071 -0.1129
vn 0.698 0.7071 -0.1129
vn 0.698 0.7071 -0.1129
vn 0.698 0.7071 -0.1129
vn 0.698 0.7071 -0.1129
vn 0.698 -0.7071 -0.1129
vn 0.698 -0.7071 -0.1129
vn 0.698 -0.7071 -0.1129
vn 0.698 -0.7071 -0.1129
vn 0.698 -0.7071 -0.1129
vn 0.698 -0.7071 -0.1129
vn -0.698 -0.7071 0.1129
vn -0.698 -0.7071 0.1129
vn -0.698 -0.7071 0.1129
vn -0.698 -0.7071 0.1129
vn -0.698 -0.7071 0.1129
vn -0.698 -0.7071 0.1129
vn -0.698 0.7071 0.1129
vn -0.698 0.7071 0.1129
vn -0.698 0.7071 0.1129
vn -0.698 0.7071 0.1129
vn -0.698 0.7071 0.1129
vn -0.698 0.7071 0.1129
vn 0.1596 0.0 0.9872
vn 0.1596 0.0 0.9872
vn 0.1596 0.0 0.9872
vn 0.1596 0.0 0.9872
vn 0.1596 0.0 0.9872
vn 0.1596 0.0 0.9872
vn -0.1596 0.0 -0.9872
vn -0.1596 0.0 -0.9872
vn -0.1596 0.0 -0.9872
vn -0.1596 0.0 -0.9872
vn -0.1596 0.0 -0.9872
vn -0.1596 0.0 -0.9872
vn 0.698 0.7071 -0.1129
vn 0.698 0.7071 -0.1129
vn 0.698 0.7071 -0.1129
vn 0.698 0.7071 -0.1129
vn 0.698 0.7071 -0.1129
vn 0.698 0.7071 -0.1129
vn 0.698 -0.7071 -0.1129
vn 0.698 -0.7071 -0.1129
vn 0.698 -0.7071 -0.1129
vn 0.698 -0.7071 -0.1129
vn 0.698 -0.7071 -0.1129
vn 0.698 -0.7071 -0.1129
vn -0.698 -0.7071 0.1129
vn -0.698 -0.7071 0.1129
vn -0.698 -0.7071 0.1129
vn -0.698 -0.7071 0.1129
vn -0.698 -0.7071 0.1129
vn -0.698 -0.7071 0.1129
vn -0.698 0.7071 0.1129
vn -0.698 0.7071 0.1129
vn -0.698 0.7071 0.1129
vn -0.698 0.7071 0.1129
vn -0.698 0.7071 0.1129
vn -0.698 0.7071 0.1129
vn 0.1596 0.0 0.9872
vn 0.1596 0.0 0.9872
vn 0.1596 0.0 0.9872
vn 0.1596 0.0 0.9872
vn 0.1596 0.0 0.9872
vn 0.1596 0.0 0.9872
vn -0.1596 0.0 -0.9872
vn -0.1596 0.0 -0.9872
vn -0.1596 0.0 -0.9872
vn -0.1596 0.0 -0.9872
vn -0.1596 0.0 -0.9872
vn -0.1596 0.0 -0.9872
vn 1.0 0.0 0.0
vn 1.0 0.0 0.0
vn 1.0 0.0 0.0
vn 1.0 0.0 0.0
vn 1.0 0.0 0.0
vn 1.0 0.0 0.0
vn -1.0 0.0 0.0
vn -1.0 0.0 0.0
vn -1.0 0.0 0.0
vn -1.0 0.0 0.0
vn -1.0 0.0 0.0
vn -1.0 0.0 0.0
vn 0.0 1.0 0.0
vn 0.0 1.0 0.0
vn 0.0 1.0 0.0
vn 0.0 1.0 0.0
vn 0.0 1.0 0.0
vn 0.0 1.0 0.0
vn 0.0 -1.0 0.0
vn 0.0 -1.0 0.0
vn 0.0 -1.0 0.0
vn 0.0 -1.0 0.0
vn 0.0 -1.0 0.0
vn 0.0 -1.0 0.0
vn 0.0 0.0 1.0
vn 0.0 0.0 1.0
vn 0.0 0.0 1.0
vn 0.0 0.0 1.0
vn 0.0 0.0 1.0
vn 0.0 0.0 1.0
vn 0.0 0.0 -1.0
vn 0.0 0.0 -1.0
vn 0.0 0.0 -1.0
vn 0.0 0.0 -1.0
vn 0.0 0.0 -1.0
vn 0.0 0.0 -1.0
vn 1.0 0.0 0.0
vn 1.0 0.0 0.0
vn 1.0 0.0 0.0
vn 1.0 0.0 0.0
vn 1.0 0.0 0.0
vn 1.0 0.0 0.0
vn -1.0 0.0 0.0
vn -1.0 0.0 0.0
vn -1.0 0.0 0.0
vn -1.0 0.0 0.0
vn -1.0 0.0 0.0
vn -1.0 0.0 0.0
vn 0.0 1.0 0.0
vn 0.0 1.0 0.0
vn 0.0 1.0 0.0
vn 0.0 1.0 0.0
vn 0.0 1.0 0.0
vn 0.0 1.0 0.0
vn 0.0 -1.0 0.0
vn 0.0 -1.0 0.0
vn 0.0 -1.0 0.0
vn 0.0 -1.0 0.0
vn 0.0 -1.0 0.0
vn 0.0 -1.0 0.0
vn 0.0 0.0 1.0
vn 0.0 0.0 1.0
vn 0.0 0.0 1.0
vn 0.0 0.0 1.0
vn 0.0 0.0 1.0
vn 0.0 0.0 1.0
vn 0.0 0.0 -1.0
vn 0.0 0.0 -1.0
vn 0.0 0.0 -1.0
vn 0.0 0.0 -1.0
vn 0.0 0.0 -1.0
vn 0.0 0.0 -1.0
vn 1.0 0.0 0.0
vn 1.0 0.0 0.0
vn 1.0 0.0 0.0
vn 1.0 0.0 0.0
vn 1.0 0.0 0.0
vn 1.0 0.0 0.0
vn -1.0 0.0 0.0
vn -1.0 0.0 0.0
vn -1.0 0.0 0.0
vn -1.0 0.0 0.0
vn -1.0 0.0 0.0
vn -1.0 0.0 0.0
vn 0.0 1.0 0.0
vn 0.0 1.0 0.0
vn 0.0 1.0 0.0
vn 0.0 1.0 0.0
vn 0.0 1.0 0.0
vn 0.0 1.0 0.0
vn 0.0 -1.0 0.0
vn 0.0 -1.0 0.0
vn 0.0 -1.0 0.0
vn 0.0 -1.0 0.0
vn 0.0 -1.0 0.0
vn 0.0 -1.0 0.0
vn 0.0 0.0 1.0
vn 0.0 0.0 1.0
vn 0.0 0.0 1.0
vn 0.0 0.0 1.0
vn 0.0 0.0 1.0
vn 0.0 0.0 1.0
vn 0.0 0.0 -1.0
vn 0.0 0.0 -1.0
vn 0.0 0.0 -1.0
vn 0.0 0.0 -1.0
vn 0.0 0.0 -1.0
vn 0.0 0.0 -1.0
vn 1.0 0.0 0.0
vn 1.0 0.0 0.0
vn 1.0 0.0 0.0
vn 1.0 0.0 0.0
vn 1.0 0.0 0.0
vn 1.0 0.0 0.0
vn -1.0 0.0 0.0
vn -1.0 0.0 0.0
vn -1.0 0.0 0.0
vn -1.0 0.0 0.0
vn -1.0 0.0 0.0
vn -1.0 0.0 0.0
vn 0.0 1.0 0.0
vn 0.0 1.0 0.0
vn 0.0 1.0 0.0
vn 0.0 1.0 0.0
vn 0.0 1.0 0.0
vn 0.0 1.0 0.0
vn 0.0 -1.0 0.0
vn 0.0 -1.0 0.0
vn 0.0 -1.0 0.0
vn 0.0 -1.0 0.0
vn 0.0 -1.0 0.0
vn 0.0 -1.0 0.0
vn 0.0 0.0 1.0
vn 0.0 0.0 1.0
vn 0.0 0.0 1.0
vn 0.0 0.0 1.0
vn 0.0 0.0 1.0
vn 0.0 0.0 1.0
vn 0.0 0.0 -1.0
vn 0.0 0.0 -1.0
vn 0.0 0.0 -1.0
vn 0.0 0.0 -1.0
vn 0.0 0.0 -1.0
vn 0.0 0.0 -1.0
vn 1.0 0.0 0.0
vn 1.0 0.0 0.0
vn 1.0 0.0 0.0
vn 1.0 0.0 0.0
vn 1.0 0.0 0.0
vn 1.0 0.0 0.0
vn -1.0 0.0 0.0
vn -1.0 0.0 0.0
vn -1.0 0.0 0.0
vn -1.0 0.0 0.0
vn -1.0 0.0 0.0
vn -1.0 0.0 0.0
vn 0.0 1.0 0.0
vn 0.0 1.0 0.0
vn 0.0 1.0 0.0
vn 0.0 1.0 0.0
vn 0.0 1.0 0.0
vn 0.0 1.0 0.0
vn 0.0 -1.0 0.0
vn 0.0 -1.0 0.0
vn 0.0 -1.0 0.0
vn 0.0 -1.0 0.0
vn 0.0 -1.0 0.0
vn 0.0 -1.0 0.0
vn 0.0 0.0 1.0
vn 0.0 0.0 1.0
vn 0.0 0.0 1.0
vn 0.0 0.0 1.0
vn 0.0 0.0 1.0
vn 0.0 0.0 1.0
vn 0.0 0.0 -1.0
vn 0.0 0.0 -1.0
vn 0.0 0.0 -1.0
vn 0.0 0.0 -1.0
vn 0.0 0.0 -1.0
vn 0.0 0.0 -1.0
vn 0.0 0.7071 0.7071
vn 0.0 0.7071 0.7071
vn 0.0 0.7071 0.7071
vn 0.0 0.7071 0.7071
vn 0.0 0.7071 0.7071
vn 0.0 0.7071 0.7071
vn 0.0 -0.7071 0.7071
vn 0.0 -0.7071 0.7071
vn 0.0 -0.7071 0.7071
vn 0.0 -0.7071 0.7071
vn 0.0 -0.7071 0.7071
vn 0.0 -0.7071 0.7071
vn 0.0 -0.7071 -0.7071
vn 0.0 -0.7071 -0.7071
vn 0.0 -0.7071 -0.7071
vn 0.0 -0.7071 -0.7071
vn 0.0 -0.7071 -0.7071
vn 0.0 -0.7071 -0.7071
vn 0.0 0.7071 -0.7071
vn 0.0 0.7071 -0.7071
vn 0.0 0.7071 -0.7071
vn 0.0 0.7071 -0.7071
vn 0.0 0.7071 -0.7071
vn 0.0 0.7071 -0.7071
vn -1.0 0.0 0.0
vn -1.0 0.0 0.0
vn -1.0 0.0 0.0
vn -1.0 0.0 0.0
vn -1.0 0.0 0.0
vn -1.0 0.0 0.0
vn 1.0 0.0 0.0
vn 1.0 0.0 0.0
vn 1.0 0.0 0.0
vn 1.0 0.0 0.0
vn 1.0 0.0 0.0
vn 1.0 0.0 0.0
vn 1.0 0.0 0.0
vn 1.0 0.0 0.0
vn 1.0 0.0 0.0
vn 1.0 0.0 0.0
vn 1.0 0.0 0.0
vn 1.0 0.0 0.0
vn -1.0 0.0 0.0
vn -1.0 0.0 0.0
vn -1.0 0.0 0.0
vn -1.0 0.0 0.0
vn -1.0 0.0 0.0
vn -1.0 0.0 0.0
vn 0.0 1.0 0.0
vn 0.0 1.0 0.0
vn 0.0 1.0 0.0
vn 0.0 1.0 0.0
vn 0.0 1.0 0.0
vn 0.0 1.0 0.0
vn 0.0 -1.0 0.0
vn 0.0 -1.0 0.0
vn 0.0 -1.0 0.0
vn 0.0 -1.0 0.0
vn 0.0 -1.0 0.0
vn 0.0 -1.0 0.0
vn 0.0 0.0 1.0
vn 0.0 0.0 1.0
vn 0.0 0.0 1.0
vn 0.0 0.0 1.0
vn 0.0 0.0 1.0
vn 0.0 0.0 1.0
vn 0.0 0.0 -1.0
vn 0.0 0.0 -1.0
vn 0.0 0.0 -1.0
vn 0.0 0.0 -1.0
vn 0.0 0.0 -1.0
vn 0.0 0.0 -1.0
vn 1.0 0.0 0.0
vn 1.0 0.0 0.0
vn 1.0 0.0 0.0
vn 1.0 0.0 0.0
vn 1.0 0.0 0.0
vn 1.0 0.0 0.0
vn -1.0 0.0 0.0
vn -1.0 0.0 0.0
vn -1.0 0.0 0.0
vn -1.0 0.0 0.0
vn -1.0 0.0 0.0
vn -1.0 0.0 0.0
vn 0.0 1.0 0.0
vn 0.0 1.0 0.0
vn 0.0 1.0 0.0
vn 0.0 1.0 0.0
vn 0.0 1.0 0.0
vn 0.0 1.0 0.0
vn 0.0 -1.0 0.0
vn 0.0 -1.0 0.0
vn 0.0 -1.0 0.0
vn 0.0 -1.0 0.0
vn 0.0 -1.0 0.0
vn 0.0 -1.0 0.0
vn 0.0 0.0 1.0
vn 0.0 0.0 1.0
vn 0.0 0.0 1.0
vn 0.0 0.0 1.0
vn 0.0 0.0 1.0
vn 0.0 0.0 1.0
vn 0.0 0.0 -1.0
vn 0.0 0.0 -1.0
vn 0.0 0.0 -1.0
vn 0.0 0.0 -1.0
vn 0.0 0.0 -1.0
vn 0.0 0.0 -1.0
vn 0.0 0.7071 0.7071
vn 0.0 0.7071 0.7071
vn 0.0 0.7071 0.7071
vn 0.0 0.7071 0.7071
vn 0.0 0.7071 0.7071
vn 0.0 0.7071 0.7071
vn 0.0 -0.7071 0.7071
vn 0.0 -0.7071 0.7071
vn 0.0 -0.7071 0.7071
vn 0.0 -0.7071 0.7071
vn 0.0 -0.7071 0.7071
vn 0.0 -0.7071 0.7071
vn 0.0 -0.7071 -0.7071
vn 0.0 -0.7071 -0.7071
vn 0.0 -0.7071 -0.7071
vn 0.0 -0.7071 -0.7071
vn 0.0 -0.7071 -0.7071
vn 0.0 -0.7071 -0.7071
vn 0.0 0.7071 -0.7071
vn 0.0 0.7071 -0.7071
vn 0.0 0.7071 -0.7071
vn 0.0 0.7071 -0.7071
vn 0.0 0.7071 -0.7071
vn 0.0 0.7071 -0.7071
vn -1.0 0.0 0.0
vn -1.0 0.0 0.0
vn -1.0 0.0 0.0
vn -1.0 0.0 0.0
vn -1.0 0.0 0.0
vn -1.0 0.0 0.0
vn 1.0 0.0 0.0
vn 1.0 0.0 0.0
vn 1.0 0.0 0.0
vn 1.0 0.0 0.0
vn 1.0 0.0 0.0
vn 1.0 0.0 0.0
vn 1.0 0.0 0.0
vn 1.0 0.0 0.0
vn 1.0 0.0 0.0
vn 1.0 0.0 0.0
vn 1.0 0.0 0.0
vn 1.0 0.0 0.0
vn -1.0 0.0 0.0
vn -1.0 0.0 0.0
vn -1.0 0.0 0.0
vn -1.0 0.0 0.0
vn -1.0 0.0 0.0
vn -1.0 0.0 0.0
vn 0.0 1.0 0.0
vn 0.0 1.0 0.0
vn 0.0 1.0 0.0
vn 0.0 1.0 0.0
vn 0.0 1.0 0.0
vn 0.0 1.0 0.0
vn 0.0 -1.0 0.0
vn 0.0 -1.0 0.0
vn 0.0 -1.0 0.0
vn 0.0 -1.0 0.0
vn 0.0 -1.0 0.0
vn 0.0 -1.0 0.0
vn 0.0 0.0 1.0
vn 0.0 0.0 1.0
vn 0.0 0.0 1.0
vn 0.0 0.0 1.0
vn 0.0 0.0 1.0
vn 0.0 0.0 1.0
vn 0.0 0.0 -1.0
vn 0.0 0.0 -1.0
vn 0.0 0.0 -1.0
vn 0.0 0.0 -1.0
vn 0.0 0.0 -1.0
vn 0.0 0.0 -1.0
vn 1.0 0.0 0.0
vn 1.0 0.0 0.0
vn 1.0 0.0 0.0
vn 1.0 0.0 0.0
vn 1.0 0.0 0.0
vn 1.0 0.0 0.0
vn -1.0 0.0 0.0
vn -1.0 0.0 0.0
vn -1.0 0.0 0.0
vn -1.0 0.0 0.0
vn -1.0 0.0 0.0
vn -1.0 0.0 0.0
vn 0.0 1.0 0.0
vn 0.0 1.0 0.0
vn 0.0 1.0 0.0
vn 0.0 1.0 0.0
vn 0.0 1.0 0.0
vn 0.0 1.0 0.0
vn 0.0 -1.0 0.0
vn 0.0 -1.0 0.0
vn 0.0 -1.0 0.0
vn 0.0 -1.0 0.0
vn 0.0 -1.0 0.0
vn 0.0 -1.0 0.0
vn 0.0 0.0 1.0
vn 0.0 0.0 1.0
vn 0.0 0.0 1.0
vn 0.0 0.0 1.0
vn 0.0 0.0 1.0
vn 0.0 0.0 1.0
vn 0.0 0.0 -1.0
vn 0.0 0.0 -1.0
vn 0.0 0.0 -1.0
vn 0.0 0.0 -1.0
vn 0.0 0.0 -1.0
vn 0.0 0.0 -1.0
g leg_01_thigh
usemtl MI_EBS_MER_CeramicCivic
f 1/1/1 2/2/2 3/3/3
f 4/4/4 5/5/5 6/6/6
f 7/7/7 8/8/8 9/9/9
f 10/10/10 11/11/11 12/12/12
f 13/13/13 14/14/14 15/15/15
f 16/16/16 17/17/17 18/18/18
f 19/19/19 20/20/20 21/21/21
f 22/22/22 23/23/23 24/24/24
f 25/25/25 26/26/26 27/27/27
f 28/28/28 29/29/29 30/30/30
f 31/31/31 32/32/32 33/33/33
f 34/34/34 35/35/35 36/36/36
g leg_01_knee
usemtl MI_EBS_MER_CompactFrame
f 37/37/37 38/38/38 39/39/39
f 40/40/40 41/41/41 42/42/42
f 43/43/43 44/44/44 45/45/45
f 46/46/46 47/47/47 48/48/48
f 49/49/49 50/50/50 51/51/51
f 52/52/52 53/53/53 54/54/54
f 55/55/55 56/56/56 57/57/57
f 58/58/58 59/59/59 60/60/60
f 61/61/61 62/62/62 63/63/63
f 64/64/64 65/65/65 66/66/66
f 67/67/67 68/68/68 69/69/69
f 70/70/70 71/71/71 72/72/72
g leg_01_shin
f 73/73/73 74/74/74 75/75/75
f 76/76/76 77/77/77 78/78/78
f 79/79/79 80/80/80 81/81/81
f 82/82/82 83/83/83 84/84/84
f 85/85/85 86/86/86 87/87/87
f 88/88/88 89/89/89 90/90/90
f 91/91/91 92/92/92 93/93/93
f 94/94/94 95/95/95 96/96/96
f 97/97/97 98/98/98 99/99/99
f 100/100/100 101/101/101 102/102/102
f 103/103/103 104/104/104 105/105/105
f 106/106/106 107/107/107 108/108/108
g leg_01_pad
usemtl MI_EBS_MER_CeramicCivic
f 109/109/109 110/110/110 111/111/111
f 112/112/112 113/113/113 114/114/114
f 115/115/115 116/116/116 117/117/117
f 118/118/118 119/119/119 120/120/120
f 121/121/121 122/122/122 123/123/123
f 124/124/124 125/125/125 126/126/126
f 127/127/127 128/128/128 129/129/129
f 130/130/130 131/131/131 132/132/132
f 133/133/133 134/134/134 135/135/135
f 136/136/136 137/137/137 138/138/138
f 139/139/139 140/140/140 141/141/141
f 142/142/142 143/143/143 144/144/144
g leg_02_thigh
f 145/145/145 146/146/146 147/147/147
f 148/148/148 149/149/149 150/150/150
f 151/151/151 152/152/152 153/153/153
f 154/154/154 155/155/155 156/156/156
f 157/157/157 158/158/158 159/159/159
f 160/160/160 161/161/161 162/162/162
f 163/163/163 164/164/164 165/165/165
f 166/166/166 167/167/167 168/168/168
f 169/169/169 170/170/170 171/171/171
f 172/172/172 173/173/173 174/174/174
f 175/175/175 176/176/176 177/177/177
f 178/178/178 179/179/179 180/180/180
g leg_02_knee
usemtl MI_EBS_MER_CompactFrame
f 181/181/181 182/182/182 183/183/183
f 184/184/184 185/185/185 186/186/186
f 187/187/187 188/188/188 189/189/189
f 190/190/190 191/191/191 192/192/192
f 193/193/193 194/194/194 195/195/195
f 196/196/196 197/197/197 198/198/198
f 199/199/199 200/200/200 201/201/201
f 202/202/202 203/203/203 204/204/204
f 205/205/205 206/206/206 207/207/207
f 208/208/208 209/209/209 210/210/210
f 211/211/211 212/212/212 213/213/213
f 214/214/214 215/215/215 216/216/216
g leg_02_shin
f 217/217/217 218/218/218 219/219/219
f 220/220/220 221/221/221 222/222/222
f 223/223/223 224/224/224 225/225/225
f 226/226/226 227/227/227 228/228/228
f 229/229/229 230/230/230 231/231/231
f 232/232/232 233/233/233 234/234/234
f 235/235/235 236/236/236 237/237/237
f 238/238/238 239/239/239 240/240/240
f 241/241/241 242/242/242 243/243/243
f 244/244/244 245/245/245 246/246/246
f 247/247/247 248/248/248 249/249/249
f 250/250/250 251/251/251 252/252/252
g leg_02_pad
usemtl MI_EBS_MER_CeramicCivic
f 253/253/253 254/254/254 255/255/255
f 256/256/256 257/257/257 258/258/258
f 259/259/259 260/260/260 261/261/261
f 262/262/262 263/263/263 264/264/264
f 265/265/265 266/266/266 267/267/267
f 268/268/268 269/269/269 270/270/270
f 271/271/271 272/272/272 273/273/273
f 274/274/274 275/275/275 276/276/276
f 277/277/277 278/278/278 279/279/279
f 280/280/280 281/281/281 282/282/282
f 283/283/283 284/284/284 285/285/285
f 286/286/286 287/287/287 288/288/288
g leg_03_thigh
f 289/289/289 290/290/290 291/291/291
f 292/292/292 293/293/293 294/294/294
f 295/295/295 296/296/296 297/297/297
f 298/298/298 299/299/299 300/300/300
f 301/301/301 302/302/302 303/303/303
f 304/304/304 305/305/305 306/306/306
f 307/307/307 308/308/308 309/309/309
f 310/310/310 311/311/311 312/312/312
f 313/313/313 314/314/314 315/315/315
f 316/316/316 317/317/317 318/318/318
f 319/319/319 320/320/320 321/321/321
f 322/322/322 323/323/323 324/324/324
g leg_03_knee
usemtl MI_EBS_MER_CompactFrame
f 325/325/325 326/326/326 327/327/327
f 328/328/328 329/329/329 330/330/330
f 331/331/331 332/332/332 333/333/333
f 334/334/334 335/335/335 336/336/336
f 337/337/337 338/338/338 339/339/339
f 340/340/340 341/341/341 342/342/342
f 343/343/343 344/344/344 345/345/345
f 346/346/346 347/347/347 348/348/348
f 349/349/349 350/350/350 351/351/351
f 352/352/352 353/353/353 354/354/354
f 355/355/355 356/356/356 357/357/357
f 358/358/358 359/359/359 360/360/360
g leg_03_shin
f 361/361/361 362/362/362 363/363/363
f 364/364/364 365/365/365 366/366/366
f 367/367/367 368/368/368 369/369/369
f 370/370/370 371/371/371 372/372/372
f 373/373/373 374/374/374 375/375/375
f 376/376/376 377/377/377 378/378/378
f 379/379/379 380/380/380 381/381/381
f 382/382/382 383/383/383 384/384/384
f 385/385/385 386/386/386 387/387/387
f 388/388/388 389/389/389 390/390/390
f 391/391/391 392/392/392 393/393/393
f 394/394/394 395/395/395 396/396/396
g leg_03_pad
usemtl MI_EBS_MER_CeramicCivic
f 397/397/397 398/398/398 399/399/399
f 400/400/400 401/401/401 402/402/402
f 403/403/403 404/404/404 405/405/405
f 406/406/406 407/407/407 408/408/408
f 409/409/409 410/410/410 411/411/411
f 412/412/412 413/413/413 414/414/414
f 415/415/415 416/416/416 417/417/417
f 418/418/418 419/419/419 420/420/420
f 421/421/421 422/422/422 423/423/423
f 424/424/424 425/425/425 426/426/426
f 427/427/427 428/428/428 429/429/429
f 430/430/430 431/431/431 432/432/432
g hub
usemtl MI_EBS_MER_CompactFrame
f 433/433/433 434/434/434 435/435/435
f 436/436/436 437/437/437 438/438/438
f 439/439/439 440/440/440 441/441/441
f 442/442/442 443/443/443 444/444/444
f 445/445/445 446/446/446 447/447/447
f 448/448/448 449/449/449 450/450/450
f 451/451/451 452/452/452 453/453/453
f 454/454/454 455/455/455 456/456/456
f 457/457/457 458/458/458 459/459/459
f 460/460/460 461/461/461 462/462/462
f 463/463/463 464/464/464 465/465/465
f 466/466/466 467/467/467 468/468/468
f 469/469/469 470/470/470 471/471/471
f 472/472/472 473/473/473 474/474/474
f 475/475/475 476/476/476 477/477/477
f 478/478/478 479/479/479 480/480/480
f 481/481/481 482/482/482 483/483/483
f 484/484/484 485/485/485 486/486/486
f 487/487/487 488/488/488 489/489/489
f 490/490/490 491/491/491 492/492/492
g hub_collar
usemtl MI_EBS_MER_CeramicCivic
f 493/493/493 494/494/494 495/495/495
f 496/496/496 497/497/497 498/498/498
f 499/499/499 500/500/500 501/501/501
f 502/502/502 503/503/503 504/504/504
f 505/505/505 506/506/506 507/507/507
f 508/508/508 509/509/509 510/510/510
f 511/511/511 512/512/512 513/513/513
f 514/514/514 515/515/515 516/516/516
f 517/517/517 518/518/518 519/519/519
f 520/520/520 521/521/521 522/522/522
f 523/523/523 524/524/524 525/525/525
f 526/526/526 527/527/527 528/528/528
f 529/529/529 530/530/530 531/531/531
f 532/532/532 533/533/533 534/534/534
f 535/535/535 536/536/536 537/537/537
f 538/538/538 539/539/539 540/540/540
f 541/541/541 542/542/542 543/543/543
f 544/544/544 545/545/545 546/546/546
f 547/547/547 548/548/548 549/549/549
f 550/550/550 551/551/551 552/552/552
g power_coupling
usemtl MI_EBS_MER_CompactFrame
f 553/553/553 554/554/554 555/555/555
f 556/556/556 557/557/557 558/558/558
f 559/559/559 560/560/560 561/561/561
f 562/562/562 563/563/563 564/564/564
f 565/565/565 566/566/566 567/567/567
f 568/568/568 569/569/569 570/570/570
f 571/571/571 572/572/572 573/573/573
f 574/574/574 575/575/575 576/576/576
f 577/577/577 578/578/578 579/579/579
f 580/580/580 581/581/581 582/582/582
f 583/583/583 584/584/584 585/585/585
f 586/586/586 587/587/587 588/588/588
g power_cable_01
f 589/589/589 590/590/590 591/591/591
f 592/592/592 593/593/593 594/594/594
f 595/595/595 596/596/596 597/597/597
f 598/598/598 599/599/599 600/600/600
f 601/601/601 602/602/602 603/603/603
f 604/604/604 605/605/605 606/606/606
f 607/607/607 608/608/608 609/609/609
f 610/610/610 611/611/611 612/612/612
f 613/613/613 614/614/614 615/615/615
f 616/616/616 617/617/617 618/618/618
f 619/619/619 620/620/620 621/621/621
f 622/622/622 623/623/623 624/624/624
g power_cable_02
f 625/625/625 626/626/626 627/627/627
f 628/628/628 629/629/629 630/630/630
f 631/631/631 632/632/632 633/633/633
f 634/634/634 635/635/635 636/636/636
f 637/637/637 638/638/638 639/639/639
f 640/640/640 641/641/641 642/642/642
f 643/643/643 644/644/644 645/645/645
f 646/646/646 647/647/647 648/648/648
f 649/649/649 650/650/650 651/651/651
f 652/652/652 653/653/653 654/654/654
f 655/655/655 656/656/656 657/657/657
f 658/658/658 659/659/659 660/660/660
g head_shell
usemtl MI_EBS_MER_CeramicCivic
f 661/661/661 662/662/662 663/663/663
f 664/664/664 665/665/665 666/666/666
f 667/667/667 668/668/668 669/669/669
f 670/670/670 671/671/671 672/672/672
f 673/673/673 674/674/674 675/675/675
f 676/676/676 677/677/677 678/678/678
f 679/679/679 680/680/680 681/681/681
f 682/682/682 683/683/683 684/684/684
f 685/685/685 686/686/686 687/687/687
f 688/688/688 689/689/689 690/690/690
f 691/691/691 692/692/692 693/693/693
f 694/694/694 695/695/695 696/696/696
g head_yoke
usemtl MI_EBS_MER_CompactFrame
f 697/697/697 698/698/698 699/699/699
f 700/700/700 701/701/701 702/702/702
f 703/703/703 704/704/704 705/705/705
f 706/706/706 707/707/707 708/708/708
f 709/709/709 710/710/710 711/711/711
f 712/712/712 713/713/713 714/714/714
f 715/715/715 716/716/716 717/717/717
f 718/718/718 719/719/719 720/720/720
f 721/721/721 722/722/722 723/723/723
f 724/724/724 725/725/725 726/726/726
f 727/727/727 728/728/728 729/729/729
f 730/730/730 731/731/731 732/732/732
g supply_band_l
usemtl MI_EBS_MER_StatusCyan
f 733/733/733 734/734/734 735/735/735
f 736/736/736 737/737/737 738/738/738
f 739/739/739 740/740/740 741/741/741
f 742/742/742 743/743/743 744/744/744
f 745/745/745 746/746/746 747/747/747
f 748/748/748 749/749/749 750/750/750
f 751/751/751 752/752/752 753/753/753
f 754/754/754 755/755/755 756/756/756
f 757/757/757 758/758/758 759/759/759
f 760/760/760 761/761/761 762/762/762
f 763/763/763 764/764/764 765/765/765
f 766/766/766 767/767/767 768/768/768
g supply_band_r
f 769/769/769 770/770/770 771/771/771
f 772/772/772 773/773/773 774/774/774
f 775/775/775 776/776/776 777/777/777
f 778/778/778 779/779/779 780/780/780
f 781/781/781 782/782/782 783/783/783
f 784/784/784 785/785/785 786/786/786
f 787/787/787 788/788/788 789/789/789
f 790/790/790 791/791/791 792/792/792
f 793/793/793 794/794/794 795/795/795
f 796/796/796 797/797/797 798/798/798
f 799/799/799 800/800/800 801/801/801
f 802/802/802 803/803/803 804/804/804
g supply_band_f
f 805/805/805 806/806/806 807/807/807
f 808/808/808 809/809/809 810/810/810
f 811/811/811 812/812/812 813/813/813
f 814/814/814 815/815/815 816/816/816
f 817/817/817 818/818/818 819/819/819
f 820/820/820 821/821/821 822/822/822
f 823/823/823 824/824/824 825/825/825
f 826/826/826 827/827/827 828/828/828
f 829/829/829 830/830/830 831/831/831
f 832/832/832 833/833/833 834/834/834
f 835/835/835 836/836/836 837/837/837
f 838/838/838 839/839/839 840/840/840
g barrel_l
usemtl MI_EBS_MER_CeramicCivic
f 841/841/841 842/842/842 843/843/843
f 844/844/844 845/845/845 846/846/846
f 847/847/847 848/848/848 849/849/849
f 850/850/850 851/851/851 852/852/852
f 853/853/853 854/854/854 855/855/855
f 856/856/856 857/857/857 858/858/858
f 859/859/859 860/860/860 861/861/861
f 862/862/862 863/863/863 864/864/864
f 865/865/865 866/866/866 867/867/867
f 868/868/868 869/869/869 870/870/870
f 871/871/871 872/872/872 873/873/873
f 874/874/874 875/875/875 876/876/876
g muzzle_l
usemtl MI_EBS_MER_CompactFrame
f 877/877/877 878/878/878 879/879/879
f 880/880/880 881/881/881 882/882/882
f 883/883/883 884/884/884 885/885/885
f 886/886/886 887/887/887 888/888/888
f 889/889/889 890/890/890 891/891/891
f 892/892/892 893/893/893 894/894/894
f 895/895/895 896/896/896 897/897/897
f 898/898/898 899/899/899 900/900/900
f 901/901/901 902/902/902 903/903/903
f 904/904/904 905/905/905 906/906/906
f 907/907/907 908/908/908 909/909/909
f 910/910/910 911/911/911 912/912/912
g muzzle_core_l
usemtl MI_EBS_MER_StatusCyan
f 913/913/913 914/914/914 915/915/915
f 916/916/916 917/917/917 918/918/918
f 919/919/919 920/920/920 921/921/921
f 922/922/922 923/923/923 924/924/924
f 925/925/925 926/926/926 927/927/927
f 928/928/928 929/929/929 930/930/930
f 931/931/931 932/932/932 933/933/933
f 934/934/934 935/935/935 936/936/936
f 937/937/937 938/938/938 939/939/939
f 940/940/940 941/941/941 942/942/942
f 943/943/943 944/944/944 945/945/945
f 946/946/946 947/947/947 948/948/948
g barrel_r
usemtl MI_EBS_MER_CeramicCivic
f 949/949/949 950/950/950 951/951/951
f 952/952/952 953/953/953 954/954/954
f 955/955/955 956/956/956 957/957/957
f 958/958/958 959/959/959 960/960/960
f 961/961/961 962/962/962 963/963/963
f 964/964/964 965/965/965 966/966/966
f 967/967/967 968/968/968 969/969/969
f 970/970/970 971/971/971 972/972/972
f 973/973/973 974/974/974 975/975/975
f 976/976/976 977/977/977 978/978/978
f 979/979/979 980/980/980 981/981/981
f 982/982/982 983/983/983 984/984/984
g muzzle_r
usemtl MI_EBS_MER_CompactFrame
f 985/985/985 986/986/986 987/987/987
f 988/988/988 989/989/989 990/990/990
f 991/991/991 992/992/992 993/993/993
f 994/994/994 995/995/995 996/996/996
f 997/997/997 998/998/998 999/999/999
f 1000/1000/1000 1001/1001/1001 1002/1002/1002
f 1003/1003/1003 1004/1004/1004 1005/1005/1005
f 1006/1006/1006 1007/1007/1007 1008/1008/1008
f 1009/1009/1009 1010/1010/1010 1011/1011/1011
f 1012/1012/1012 1013/1013/1013 1014/1014/1014
f 1015/1015/1015 1016/1016/1016 1017/1017/1017
f 1018/1018/1018 1019/1019/1019 1020/1020/1020
g muzzle_core_r
usemtl MI_EBS_MER_StatusCyan
f 1021/1021/1021 1022/1022/1022 1023/1023/1023
f 1024/1024/1024 1025/1025/1025 1026/1026/1026
f 1027/1027/1027 1028/1028/1028 1029/1029/1029
f 1030/1030/1030 1031/1031/1031 1032/1032/1032
f 1033/1033/1033 1034/1034/1034 1035/1035/1035
f 1036/1036/1036 1037/1037/1037 1038/1038/1038
f 1039/1039/1039 1040/1040/1040 1041/1041/1041
f 1042/1042/1042 1043/1043/1043 1044/1044/1044
f 1045/1045/1045 1046/1046/1046 1047/1047/1047
f 1048/1048/1048 1049/1049/1049 1050/1050/1050
f 1051/1051/1051 1052/1052/1052 1053/1053/1053
f 1054/1054/1054 1055/1055/1055 1056/1056/1056
