# SK_EBS_KHA_BLD_004
# Author: Angelis Pseftis
# Frame: Unreal +X forward, +Y right, +Z up; centimeters; no axis conversion
# Kit: ebs-meshkit-v3
# SK_EBS_KHA_BLD_004 LOD1 rest pose (listening)
# Revision ebs-kha-bld-004-concept-v1
# Unreal +X forward, +Y right, +Z up; centimetres
o SK_EBS_KHA_BLD_004
v 102.7196 16.2692 0.0
v 16.2692 102.7196 0.0
v 16.2692 102.7196 46.0
v 102.7196 16.2692 0.0
v 16.2692 102.7196 46.0
v 102.7196 16.2692 46.0
v 16.2692 102.7196 0.0
v -92.6647 47.215 0.0
v -92.6647 47.215 46.0
v 16.2692 102.7196 0.0
v -92.6647 47.215 46.0
v 16.2692 102.7196 46.0
v -92.6647 47.215 0.0
v -73.5391 -73.5391 0.0
v -73.5391 -73.5391 46.0
v -92.6647 47.215 0.0
v -73.5391 -73.5391 46.0
v -92.6647 47.215 46.0
v -73.5391 -73.5391 0.0
v 47.215 -92.6647 0.0
v 47.215 -92.6647 46.0
v -73.5391 -73.5391 0.0
v 47.215 -92.6647 46.0
v -73.5391 -73.5391 46.0
v 47.215 -92.6647 0.0
v 102.7196 16.2692 0.0
v 102.7196 16.2692 46.0
v 47.215 -92.6647 0.0
v 102.7196 16.2692 46.0
v 47.215 -92.6647 46.0
v 47.215 -92.6647 0.0
v -73.5391 -73.5391 0.0
v -92.6647 47.215 0.0
v 47.215 -92.6647 0.0
v -92.6647 47.215 0.0
v 16.2692 102.7196 0.0
v 47.215 -92.6647 0.0
v 16.2692 102.7196 0.0
v 102.7196 16.2692 0.0
v 102.7196 16.2692 46.0
v 16.2692 102.7196 46.0
v -92.6647 47.215 46.0
v 102.7196 16.2692 46.0
v -92.6647 47.215 46.0
v -73.5391 -73.5391 46.0
v 102.7196 16.2692 46.0
v -73.5391 -73.5391 46.0
v 47.215 -92.6647 46.0
v 87.4972 28.4296 46.0
v 0.0 92.0 46.0
v 0.0 92.0 86.0
v 87.4972 28.4296 46.0
v 0.0 92.0 86.0
v 87.4972 28.4296 86.0
v 0.0 92.0 46.0
v -87.4972 28.4296 46.0
v -87.4972 28.4296 86.0
v 0.0 92.0 46.0
v -87.4972 28.4296 86.0
v 0.0 92.0 86.0
v -87.4972 28.4296 46.0
v -54.0762 -74.4296 46.0
v -54.0762 -74.4296 86.0
v -87.4972 28.4296 46.0
v -54.0762 -74.4296 86.0
v -87.4972 28.4296 86.0
v -54.0762 -74.4296 46.0
v 54.0762 -74.4296 46.0
v 54.0762 -74.4296 86.0
v -54.0762 -74.4296 46.0
v 54.0762 -74.4296 86.0
v -54.0762 -74.4296 86.0
v 54.0762 -74.4296 46.0
v 87.4972 28.4296 46.0
v 87.4972 28.4296 86.0
v 54.0762 -74.4296 46.0
v 87.4972 28.4296 86.0
v 54.0762 -74.4296 86.0
v 87.4972 28.4296 86.0
v 0.0 92.0 86.0
v -87.4972 28.4296 86.0
v 87.4972 28.4296 86.0
v -87.4972 28.4296 86.0
v -54.0762 -74.4296 86.0
v 87.4972 28.4296 86.0
v -54.0762 -74.4296 86.0
v 54.0762 -74.4296 86.0
v 71.2805 36.3192 86.0
v -12.5148 79.0151 86.0
v -12.5148 79.0151 118.0
v 71.2805 36.3192 86.0
v -12.5148 79.0151 118.0
v 71.2805 36.3192 118.0
v -12.5148 79.0151 86.0
v -79.0151 12.5148 86.0
v -79.0151 12.5148 118.0
v -12.5148 79.0151 86.0
v -79.0151 12.5148 118.0
v -12.5148 79.0151 118.0
v -79.0151 12.5148 86.0
v -36.3192 -71.2805 86.0
v -36.3192 -71.2805 118.0
v -79.0151 12.5148 86.0
v -36.3192 -71.2805 118.0
v -79.0151 12.5148 118.0
v -36.3192 -71.2805 86.0
v 56.5685 -56.5685 86.0
v 56.5685 -56.5685 118.0
v -36.3192 -71.2805 86.0
v 56.5685 -56.5685 118.0
v -36.3192 -71.2805 118.0
v 56.5685 -56.5685 86.0
v 71.2805 36.3192 86.0
v 71.2805 36.3192 118.0
v 56.5685 -56.5685 86.0
v 71.2805 36.3192 118.0
v 56.5685 -56.5685 118.0
v 71.2805 36.3192 118.0
v -12.5148 79.0151 118.0
v -79.0151 12.5148 118.0
v 71.2805 36.3192 118.0
v -79.0151 12.5148 118.0
v -36.3192 -71.2805 118.0
v 71.2805 36.3192 118.0
v -36.3192 -71.2805 118.0
v 56.5685 -56.5685 118.0
v 96.0 8.0 12.0
v 96.5322 0.0 19.9823
v 156.5322 0.0 15.9823
v 96.0 8.0 12.0
v 156.5322 0.0 15.9823
v 156.0 8.0 8.0
v 96.5322 0.0 19.9823
v 96.0 -8.0 12.0
v 156.0 -8.0 8.0
v 96.5322 0.0 19.9823
v 156.0 -8.0 8.0
v 156.5322 0.0 15.9823
v 96.0 -8.0 12.0
v 95.4678 0.0 4.0177
v 155.4678 0.0 0.0177
v 96.0 -8.0 12.0
v 155.4678 0.0 0.0177
v 156.0 -8.0 8.0
v 95.4678 0.0 4.0177
v 96.0 8.0 12.0
v 156.0 8.0 8.0
v 95.4678 0.0 4.0177
v 156.0 8.0 8.0
v 155.4678 0.0 0.0177
v 95.4678 0.0 4.0177
v 96.0 -8.0 12.0
v 96.5322 0.0 19.9823
v 95.4678 0.0 4.0177
v 96.5322 0.0 19.9823
v 96.0 8.0 12.0
v 156.0 8.0 8.0
v 156.5322 0.0 15.9823
v 156.0 -8.0 8.0
v 156.0 8.0 8.0
v 156.0 -8.0 8.0
v 155.4678 0.0 0.0177
v 22.0572 93.7736 12.0
v 29.8301 91.8075 19.9823
v 48.3711 148.8709 15.9823
v 22.0572 93.7736 12.0
v 48.3711 148.8709 15.9823
v 40.5982 150.837 8.0
v 29.8301 91.8075 19.9823
v 37.2741 88.8293 12.0
v 55.8151 145.8927 8.0
v 29.8301 91.8075 19.9823
v 55.8151 145.8927 8.0
v 48.3711 148.8709 15.9823
v 37.2741 88.8293 12.0
v 29.5012 90.7953 4.0177
v 48.0422 147.8587 0.0177
v 37.2741 88.8293 12.0
v 48.0422 147.8587 0.0177
v 55.8151 145.8927 8.0
v 29.5012 90.7953 4.0177
v 22.0572 93.7736 12.0
v 40.5982 150.837 8.0
v 29.5012 90.7953 4.0177
v 40.5982 150.837 8.0
v 48.0422 147.8587 0.0177
v 29.5012 90.7953 4.0177
v 37.2741 88.8293 12.0
v 29.8301 91.8075 19.9823
v 29.5012 90.7953 4.0177
v 29.8301 91.8075 19.9823
v 22.0572 93.7736 12.0
v 40.5982 150.837 8.0
v 48.3711 148.8709 15.9823
v 55.8151 145.8927 8.0
v 40.5982 150.837 8.0
v 55.8151 145.8927 8.0
v 48.0422 147.8587 0.0177
v -82.3679 49.9552 12.0
v -78.0962 56.7402 19.9823
v -126.6372 92.0073 15.9823
v -82.3679 49.9552 12.0
v -126.6372 92.0073 15.9823
v -130.9089 85.2224 8.0
v -78.0962 56.7402 19.9823
v -72.9633 62.8995 12.0
v -121.5044 98.1666 8.0
v -78.0962 56.7402 19.9823
v -121.5044 98.1666 8.0
v -126.6372 92.0073 15.9823
v -72.9633 62.8995 12.0
v -77.2351 56.1146 4.0177
v -125.7761 91.3817 0.0177
v -72.9633 62.8995 12.0
v -125.7761 91.3817 0.0177
v -121.5044 98.1666 8.0
v -77.2351 56.1146 4.0177
v -82.3679 49.9552 12.0
v -130.9089 85.2224 8.0
v -77.2351 56.1146 4.0177
v -130.9089 85.2224 8.0
v -125.7761 91.3817 0.0177
v -77.2351 56.1146 4.0177
v -72.9633 62.8995 12.0
v -78.0962 56.7402 19.9823
v -77.2351 56.1146 4.0177
v -78.0962 56.7402 19.9823
v -82.3679 49.9552 12.0
v -130.9089 85.2224 8.0
v -126.6372 92.0073 15.9823
v -121.5044 98.1666 8.0
v -130.9089 85.2224 8.0
v -121.5044 98.1666 8.0
v -125.7761 91.3817 0.0177
v -72.9633 -62.8995 12.0
v -78.0962 -56.7402 19.9823
v -126.6372 -92.0073 15.9823
v -72.9633 -62.8995 12.0
v -126.6372 -92.0073 15.9823
v -121.5044 -98.1666 8.0
v -78.0962 -56.7402 19.9823
v -82.3679 -49.9552 12.0
v -130.9089 -85.2224 8.0
v -78.0962 -56.7402 19.9823
v -130.9089 -85.2224 8.0
v -126.6372 -92.0073 15.9823
v -82.3679 -49.9552 12.0
v -77.2351 -56.1146 4.0177
v -125.7761 -91.3817 0.0177
v -82.3679 -49.9552 12.0
v -125.7761 -91.3817 0.0177
v -130.9089 -85.2224 8.0
v -77.2351 -56.1146 4.0177
v -72.9633 -62.8995 12.0
v -121.5044 -98.1666 8.0
v -77.2351 -56.1146 4.0177
v -121.5044 -98.1666 8.0
v -125.7761 -91.3817 0.0177
v -77.2351 -56.1146 4.0177
v -82.3679 -49.9552 12.0
v -78.0962 -56.7402 19.9823
v -77.2351 -56.1146 4.0177
v -78.0962 -56.7402 19.9823
v -72.9633 -62.8995 12.0
v -121.5044 -98.1666 8.0
v -126.6372 -92.0073 15.9823
v -130.9089 -85.2224 8.0
v -121.5044 -98.1666 8.0
v -130.9089 -85.2224 8.0
v -125.7761 -91.3817 0.0177
v 37.2741 -88.8293 12.0
v 29.8301 -91.8075 19.9823
v 48.3711 -148.8709 15.9823
v 37.2741 -88.8293 12.0
v 48.3711 -148.8709 15.9823
v 55.8151 -145.8927 8.0
v 29.8301 -91.8075 19.9823
v 22.0572 -93.7736 12.0
v 40.5982 -150.837 8.0
v 29.8301 -91.8075 19.9823
v 40.5982 -150.837 8.0
v 48.3711 -148.8709 15.9823
v 22.0572 -93.7736 12.0
v 29.5012 -90.7953 4.0177
v 48.0422 -147.8587 0.0177
v 22.0572 -93.7736 12.0
v 48.0422 -147.8587 0.0177
v 40.5982 -150.837 8.0
v 29.5012 -90.7953 4.0177
v 37.2741 -88.8293 12.0
v 55.8151 -145.8927 8.0
v 29.5012 -90.7953 4.0177
v 55.8151 -145.8927 8.0
v 48.0422 -147.8587 0.0177
v 29.5012 -90.7953 4.0177
v 22.0572 -93.7736 12.0
v 29.8301 -91.8075 19.9823
v 29.5012 -90.7953 4.0177
v 29.8301 -91.8075 19.9823
v 37.2741 -88.8293 12.0
v 55.8151 -145.8927 8.0
v 48.3711 -148.8709 15.9823
v 40.5982 -150.837 8.0
v 55.8151 -145.8927 8.0
v 40.5982 -150.837 8.0
v 48.0422 -147.8587 0.0177
v 67.5 0.0 118.0
v 20.8586 64.1963 118.0
v 7.1346 51.1188 232.2
v 67.5 0.0 118.0
v 7.1346 51.1188 232.2
v 53.2814 12.3969 232.2
v 20.8586 64.1963 118.0
v -54.6086 39.6755 118.0
v -43.9522 19.1962 232.2
v 20.8586 64.1963 118.0
v -43.9522 19.1962 232.2
v 7.1346 51.1188 232.2
v -54.6086 39.6755 118.0
v -54.6086 -39.6755 118.0
v -29.3787 -39.2549 232.2
v -54.6086 39.6755 118.0
v -29.3787 -39.2549 232.2
v -43.9522 19.1962 232.2
v -54.6086 -39.6755 118.0
v 20.8586 -64.1963 118.0
v 30.715 -43.457 232.2
v -54.6086 -39.6755 118.0
v 30.715 -43.457 232.2
v -29.3787 -39.2549 232.2
v 20.8586 -64.1963 118.0
v 67.5 0.0 118.0
v 53.2814 12.3969 232.2
v 20.8586 -64.1963 118.0
v 53.2814 12.3969 232.2
v 30.715 -43.457 232.2
v 20.8586 -64.1963 118.0
v -54.6086 -39.6755 118.0
v -54.6086 39.6755 118.0
v 20.8586 -64.1963 118.0
v -54.6086 39.6755 118.0
v 20.8586 64.1963 118.0
v 20.8586 -64.1963 118.0
v 20.8586 64.1963 118.0
v 67.5 0.0 118.0
v 53.2814 12.3969 232.2
v 7.1346 51.1188 232.2
v 7.9261 35.8082 346.4
v 53.2814 12.3969 232.2
v 7.9261 35.8082 346.4
v 46.3445 17.0703 346.4
v 7.1346 51.1188 232.2
v -43.9522 19.1962 232.2
v -21.7667 5.0604 346.4
v 7.1346 51.1188 232.2
v -21.7667 5.0604 346.4
v 7.9261 35.8082 346.4
v -43.9522 19.1962 232.2
v -29.3787 -39.2549 232.2
v -1.6994 -32.6807 346.4
v -43.9522 19.1962 232.2
v -1.6994 -32.6807 346.4
v -21.7667 5.0604 346.4
v -29.3787 -39.2549 232.2
v 30.715 -43.457 232.2
v 40.3956 -25.2582 346.4
v -29.3787 -39.2549 232.2
v 40.3956 -25.2582 346.4
v -1.6994 -32.6807 346.4
v 30.715 -43.457 232.2
v 53.2814 12.3969 232.2
v 46.3445 17.0703 346.4
v 30.715 -43.457 232.2
v 46.3445 17.0703 346.4
v 40.3956 -25.2582 346.4
v 46.3445 17.0703 346.4
v 7.9261 35.8082 346.4
v 22.6277 21.1403 460.6
v 46.3445 17.0703 346.4
v 22.6277 21.1403 460.6
v 49.2371 15.4843 460.6
v 7.9261 35.8082 346.4
v -21.7667 5.0604 346.4
v 9.0258 -2.4189 460.6
v 7.9261 35.8082 346.4
v 9.0258 -2.4189 460.6
v 22.6277 21.1403 460.6
v -21.7667 5.0604 346.4
v -1.6994 -32.6807 346.4
v 27.2287 -22.6353 460.6
v -21.7667 5.0604 346.4
v 27.2287 -22.6353 460.6
v 9.0258 -2.4189 460.6
v -1.6994 -32.6807 346.4
v 40.3956 -25.2582 346.4
v 52.0807 -11.5705 460.6
v -1.6994 -32.6807 346.4
v 52.0807 -11.5705 460.6
v 27.2287 -22.6353 460.6
v 40.3956 -25.2582 346.4
v 46.3445 17.0703 346.4
v 49.2371 15.4843 460.6
v 40.3956 -25.2582 346.4
v 49.2371 15.4843 460.6
v 52.0807 -11.5705 460.6
v 49.2371 15.4843 460.6
v 22.6277 21.1403 460.6
v 49.5003 9.548 574.8
v 49.2371 15.4843 460.6
v 49.5003 9.548 574.8
v 63.7355 10.0451 574.8
v 22.6277 21.1403 460.6
v 9.0258 -2.4189 460.6
v 45.5742 -4.1441 574.8
v 22.6277 21.1403 460.6
v 45.5742 -4.1441 574.8
v 49.5003 9.548 574.8
v 9.0258 -2.4189 460.6
v 27.2287 -22.6353 460.6
v 57.3829 -12.1092 574.8
v 9.0258 -2.4189 460.6
v 57.3829 -12.1092 574.8
v 45.5742 -4.1441 574.8
v 27.2287 -22.6353 460.6
v 52.0807 -11.5705 460.6
v 68.6072 -3.3398 574.8
v 27.2287 -22.6353 460.6
v 68.6072 -3.3398 574.8
v 57.3829 -12.1092 574.8
v 52.0807 -11.5705 460.6
v 49.2371 15.4843 460.6
v 63.7355 10.0451 574.8
v 52.0807 -11.5705 460.6
v 63.7355 10.0451 574.8
v 68.6072 -3.3398 574.8
v 63.7355 10.0451 574.8
v 49.5003 9.548 574.8
v 85.0599 3.0783 689.0
v 63.7355 10.0451 574.8
v 85.0599 3.0783 689.0
v 90.7101 4.6985 689.0
v 49.5003 9.548 574.8
v 45.5742 -4.1441 574.8
v 84.8548 -2.796 689.0
v 49.5003 9.548 574.8
v 84.8548 -2.796 689.0
v 85.0599 3.0783 689.0
v 45.5742 -4.1441 574.8
v 57.3829 -12.1092 574.8
v 90.3782 -4.8063 689.0
v 45.5742 -4.1441 574.8
v 90.3782 -4.8063 689.0
v 84.8548 -2.796 689.0
v 57.3829 -12.1092 574.8
v 68.6072 -3.3398 574.8
v 93.997 -0.1745 689.0
v 57.3829 -12.1092 574.8
v 93.997 -0.1745 689.0
v 90.3782 -4.8063 689.0
v 68.6072 -3.3398 574.8
v 63.7355 10.0451 574.8
v 90.7101 4.6985 689.0
v 68.6072 -3.3398 574.8
v 90.7101 4.6985 689.0
v 93.997 -0.1745 689.0
v 63.0183 0.0 574.8
v 58.8321 5.7618 574.8
v 89.0 0.0 711.0
v 58.8321 5.7618 574.8
v 52.0587 3.561 574.8
v 89.0 0.0 711.0
v 52.0587 3.561 574.8
v 52.0587 -3.561 574.8
v 89.0 0.0 711.0
v 52.0587 -3.561 574.8
v 58.8321 -5.7618 574.8
v 89.0 0.0 711.0
v 58.8321 -5.7618 574.8
v 63.0183 0.0 574.8
v 89.0 0.0 711.0
v -60.1403 -14.505 134.1287
v -60.1403 14.505 134.1287
v -60.1403 14.505 170.3912
v -60.1403 -14.505 134.1287
v -60.1403 14.505 170.3912
v -60.1403 -14.505 170.3912
v -80.4473 -14.505 134.1287
v -80.4473 -14.505 170.3912
v -80.4473 14.505 170.3912
v -80.4473 -14.505 134.1287
v -80.4473 14.505 170.3912
v -80.4473 14.505 134.1287
v -80.4473 14.505 134.1287
v -80.4473 14.505 170.3912
v -60.1403 14.505 170.3912
v -80.4473 14.505 134.1287
v -60.1403 14.505 170.3912
v -60.1403 14.505 134.1287
v -80.4473 -14.505 134.1287
v -60.1403 -14.505 134.1287
v -60.1403 -14.505 170.3912
v -80.4473 -14.505 134.1287
v -60.1403 -14.505 170.3912
v -80.4473 -14.505 170.3912
v -80.4473 -14.505 170.3912
v -60.1403 -14.505 170.3912
v -60.1403 14.505 170.3912
v -80.4473 -14.505 170.3912
v -60.1403 14.505 170.3912
v -80.4473 14.505 170.3912
v -80.4473 -14.505 134.1287
v -80.4473 14.505 134.1287
v -60.1403 14.505 134.1287
v -80.4473 -14.505 134.1287
v -60.1403 14.505 134.1287
v -60.1403 -14.505 134.1287
v -51.8872 -13.812 182.959
v -51.8872 13.812 182.959
v -51.8872 13.812 217.489
v -51.8872 -13.812 182.959
v -51.8872 13.812 217.489
v -51.8872 -13.812 217.489
v -71.224 -13.812 182.959
v -71.224 -13.812 217.489
v -71.224 13.812 217.489
v -71.224 -13.812 182.959
v -71.224 13.812 217.489
v -71.224 13.812 182.959
v -71.224 13.812 182.959
v -71.224 13.812 217.489
v -51.8872 13.812 217.489
v -71.224 13.812 182.959
v -51.8872 13.812 217.489
v -51.8872 13.812 182.959
v -71.224 -13.812 182.959
v -51.8872 -13.812 182.959
v -51.8872 -13.812 217.489
v -71.224 -13.812 182.959
v -51.8872 -13.812 217.489
v -71.224 -13.812 217.489
v -71.224 -13.812 217.489
v -51.8872 -13.812 217.489
v -51.8872 13.812 217.489
v -71.224 -13.812 217.489
v -51.8872 13.812 217.489
v -71.224 13.812 217.489
v -71.224 -13.812 182.959
v -71.224 13.812 182.959
v -51.8872 13.812 182.959
v -71.224 -13.812 182.959
v -51.8872 13.812 182.959
v -51.8872 -13.812 182.959
v -42.6088 -13.119 231.7892
v -42.6088 13.119 231.7892
v -42.6088 13.119 264.5867
v -42.6088 -13.119 231.7892
v -42.6088 13.119 264.5867
v -42.6088 -13.119 264.5867
v -60.9754 -13.119 231.7892
v -60.9754 -13.119 264.5867
v -60.9754 13.119 264.5867
v -60.9754 -13.119 231.7892
v -60.9754 13.119 264.5867
v -60.9754 13.119 231.7892
v -60.9754 13.119 231.7892
v -60.9754 13.119 264.5867
v -42.6088 13.119 264.5867
v -60.9754 13.119 231.7892
v -42.6088 13.119 264.5867
v -42.6088 13.119 231.7892
v -60.9754 -13.119 231.7892
v -42.6088 -13.119 231.7892
v -42.6088 -13.119 264.5867
v -60.9754 -13.119 231.7892
v -42.6088 -13.119 264.5867
v -60.9754 -13.119 264.5867
v -60.9754 -13.119 264.5867
v -42.6088 -13.119 264.5867
v -42.6088 13.119 264.5867
v -60.9754 -13.119 264.5867
v -42.6088 13.119 264.5867
v -60.9754 13.119 264.5867
v -60.9754 -13.119 231.7892
v -60.9754 13.119 231.7892
v -42.6088 13.119 231.7892
v -60.9754 -13.119 231.7892
v -42.6088 13.119 231.7892
v -42.6088 -13.119 231.7892
v -32.3213 -12.426 280.6195
v -32.3213 12.426 280.6195
v -32.3213 12.426 311.6845
v -32.3213 -12.426 280.6195
v -32.3213 12.426 311.6845
v -32.3213 -12.426 311.6845
v -49.7177 -12.426 280.6195
v -49.7177 -12.426 311.6845
v -49.7177 12.426 311.6845
v -49.7177 -12.426 280.6195
v -49.7177 12.426 311.6845
v -49.7177 12.426 280.6195
v -49.7177 12.426 280.6195
v -49.7177 12.426 311.6845
v -32.3213 12.426 311.6845
v -49.7177 12.426 280.6195
v -32.3213 12.426 311.6845
v -32.3213 12.426 280.6195
v -49.7177 -12.426 280.6195
v -32.3213 -12.426 280.6195
v -32.3213 -12.426 311.6845
v -49.7177 -12.426 280.6195
v -32.3213 -12.426 311.6845
v -49.7177 -12.426 311.6845
v -49.7177 -12.426 311.6845
v -32.3213 -12.426 311.6845
v -32.3213 12.426 311.6845
v -49.7177 -12.426 311.6845
v -32.3213 12.426 311.6845
v -49.7177 12.426 311.6845
v -49.7177 -12.426 280.6195
v -49.7177 12.426 280.6195
v -32.3213 12.426 280.6195
v -49.7177 -12.426 280.6195
v -32.3213 12.426 280.6195
v -32.3213 -12.426 280.6195
v -21.0439 -11.733 329.4497
v -21.0439 11.733 329.4497
v -21.0439 11.733 358.7822
v -21.0439 -11.733 329.4497
v -21.0439 11.733 358.7822
v -21.0439 -11.733 358.7822
v -37.4701 -11.733 329.4497
v -37.4701 -11.733 358.7822
v -37.4701 11.733 358.7822
v -37.4701 -11.733 329.4497
v -37.4701 11.733 358.7822
v -37.4701 11.733 329.4497
v -37.4701 11.733 329.4497
v -37.4701 11.733 358.7822
v -21.0439 11.733 358.7822
v -37.4701 11.733 329.4497
v -21.0439 11.733 358.7822
v -21.0439 11.733 329.4497
v -37.4701 -11.733 329.4497
v -21.0439 -11.733 329.4497
v -21.0439 -11.733 358.7822
v -37.4701 -11.733 329.4497
v -21.0439 -11.733 358.7822
v -37.4701 -11.733 358.7822
v -37.4701 -11.733 358.7822
v -21.0439 -11.733 358.7822
v -21.0439 11.733 358.7822
v -37.4701 -11.733 358.7822
v -21.0439 11.733 358.7822
v -37.4701 11.733 358.7822
v -37.4701 -11.733 329.4497
v -37.4701 11.733 329.4497
v -21.0439 11.733 329.4497
v -37.4701 -11.733 329.4497
v -21.0439 11.733 329.4497
v -21.0439 -11.733 329.4497
v -8.8002 -11.04 378.28
v -8.8002 11.04 378.28
v -8.8002 11.04 405.88
v -8.8002 -11.04 378.28
v -8.8002 11.04 405.88
v -8.8002 -11.04 405.88
v -24.2562 -11.04 378.28
v -24.2562 -11.04 405.88
v -24.2562 11.04 405.88
v -24.2562 -11.04 378.28
v -24.2562 11.04 405.88
v -24.2562 11.04 378.28
v -24.2562 11.04 378.28
v -24.2562 11.04 405.88
v -8.8002 11.04 405.88
v -24.2562 11.04 378.28
v -8.8002 11.04 405.88
v -8.8002 11.04 378.28
v -24.2562 -11.04 378.28
v -8.8002 -11.04 378.28
v -8.8002 -11.04 405.88
v -24.2562 -11.04 378.28
v -8.8002 -11.04 405.88
v -24.2562 -11.04 405.88
v -24.2562 -11.04 405.88
v -8.8002 -11.04 405.88
v -8.8002 11.04 405.88
v -24.2562 -11.04 405.88
v -8.8002 11.04 405.88
v -24.2562 11.04 405.88
v -24.2562 -11.04 378.28
v -24.2562 11.04 378.28
v -8.8002 11.04 378.28
v -24.2562 -11.04 378.28
v -8.8002 11.04 378.28
v -8.8002 -11.04 378.28
v 4.3799 -10.347 427.1103
v 4.3799 10.347 427.1103
v 4.3799 10.347 452.9778
v 4.3799 -10.347 427.1103
v 4.3799 10.347 452.9778
v 4.3799 -10.347 452.9778
v -10.1059 -10.347 427.1103
v -10.1059 -10.347 452.9778
v -10.1059 10.347 452.9778
v -10.1059 -10.347 427.1103
v -10.1059 10.347 452.9778
v -10.1059 10.347 427.1103
v -10.1059 10.347 427.1103
v -10.1059 10.347 452.9778
v 4.3799 10.347 452.9778
v -10.1059 10.347 427.1103
v 4.3799 10.347 452.9778
v 4.3799 10.347 427.1103
v -10.1059 -10.347 427.1103
v 4.3799 -10.347 427.1103
v 4.3799 -10.347 452.9778
v -10.1059 -10.347 427.1103
v 4.3799 -10.347 452.9778
v -10.1059 -10.347 452.9778
v -10.1059 -10.347 452.9778
v 4.3799 -10.347 452.9778
v 4.3799 10.347 452.9778
v -10.1059 -10.347 452.9778
v 4.3799 10.347 452.9778
v -10.1059 10.347 452.9778
v -10.1059 -10.347 427.1103
v -10.1059 10.347 427.1103
v 4.3799 10.347 427.1103
v -10.1059 -10.347 427.1103
v 4.3799 10.347 427.1103
v 4.3799 -10.347 427.1103
v 18.4575 -9.654 475.9405
v 18.4575 9.654 475.9405
v 18.4575 9.654 500.0755
v 18.4575 -9.654 475.9405
v 18.4575 9.654 500.0755
v 18.4575 -9.654 500.0755
v 4.9419 -9.654 475.9405
v 4.9419 -9.654 500.0755
v 4.9419 9.654 500.0755
v 4.9419 -9.654 475.9405
v 4.9419 9.654 500.0755
v 4.9419 9.654 475.9405
v 4.9419 9.654 475.9405
v 4.9419 9.654 500.0755
v 18.4575 9.654 500.0755
v 4.9419 9.654 475.9405
v 18.4575 9.654 500.0755
v 18.4575 9.654 475.9405
v 4.9419 -9.654 475.9405
v 18.4575 -9.654 475.9405
v 18.4575 -9.654 500.0755
v 4.9419 -9.654 475.9405
v 18.4575 -9.654 500.0755
v 4.9419 -9.654 500.0755
v 4.9419 -9.654 500.0755
v 18.4575 -9.654 500.0755
v 18.4575 9.654 500.0755
v 4.9419 -9.654 500.0755
v 18.4575 9.654 500.0755
v 4.9419 9.654 500.0755
v 4.9419 -9.654 475.9405
v 4.9419 9.654 475.9405
v 18.4575 9.654 475.9405
v 4.9419 -9.654 475.9405
v 18.4575 9.654 475.9405
v 18.4575 -9.654 475.9405
v 33.3781 -8.961 524.7708
v 33.3781 8.961 524.7708
v 33.3781 8.961 547.1732
v 33.3781 -8.961 524.7708
v 33.3781 8.961 547.1732
v 33.3781 -8.961 547.1732
v 20.8327 -8.961 524.7708
v 20.8327 -8.961 547.1732
v 20.8327 8.961 547.1732
v 20.8327 -8.961 524.7708
v 20.8327 8.961 547.1732
v 20.8327 8.961 524.7708
v 20.8327 8.961 524.7708
v 20.8327 8.961 547.1732
v 33.3781 8.961 547.1732
v 20.8327 8.961 524.7708
v 33.3781 8.961 547.1732
v 33.3781 8.961 524.7708
v 20.8327 -8.961 524.7708
v 33.3781 -8.961 524.7708
v 33.3781 -8.961 547.1732
v 20.8327 -8.961 524.7708
v 33.3781 -8.961 547.1732
v 20.8327 -8.961 547.1732
v 20.8327 -8.961 547.1732
v 33.3781 -8.961 547.1732
v 33.3781 8.961 547.1732
v 20.8327 -8.961 547.1732
v 33.3781 8.961 547.1732
v 20.8327 8.961 547.1732
v 20.8327 -8.961 524.7708
v 20.8327 8.961 524.7708
v 33.3781 8.961 524.7708
v 20.8327 -8.961 524.7708
v 33.3781 8.961 524.7708
v 33.3781 -8.961 524.7708
v 49.0598 -8.268 573.601
v 49.0598 8.268 573.601
v 49.0598 8.268 594.271
v 49.0598 -8.268 573.601
v 49.0598 8.268 594.271
v 49.0598 -8.268 594.271
v 37.4846 -8.268 573.601
v 37.4846 -8.268 594.271
v 37.4846 8.268 594.271
v 37.4846 -8.268 573.601
v 37.4846 8.268 594.271
v 37.4846 8.268 573.601
v 37.4846 8.268 573.601
v 37.4846 8.268 594.271
v 49.0598 8.268 594.271
v 37.4846 8.268 573.601
v 49.0598 8.268 594.271
v 49.0598 8.268 573.601
v 37.4846 -8.268 573.601
v 49.0598 -8.268 573.601
v 49.0598 -8.268 594.271
v 37.4846 -8.268 573.601
v 49.0598 -8.268 594.271
v 37.4846 -8.268 594.271
v 37.4846 -8.268 594.271
v 49.0598 -8.268 594.271
v 49.0598 8.268 594.271
v 37.4846 -8.268 594.271
v 49.0598 8.268 594.271
v 37.4846 8.268 594.271
v 37.4846 -8.268 573.601
v 37.4846 8.268 573.601
v 49.0598 8.268 573.601
v 37.4846 -8.268 573.601
v 49.0598 8.268 573.601
v 49.0598 -8.268 573.601
v 65.3587 -7.575 622.4313
v 65.3587 7.575 622.4313
v 65.3587 7.575 641.3688
v 65.3587 -7.575 622.4313
v 65.3587 7.575 641.3688
v 65.3587 -7.575 641.3688
v 54.7537 -7.575 622.4313
v 54.7537 -7.575 641.3688
v 54.7537 7.575 641.3688
v 54.7537 -7.575 622.4313
v 54.7537 7.575 641.3688
v 54.7537 7.575 622.4313
v 54.7537 7.575 622.4313
v 54.7537 7.575 641.3688
v 65.3587 7.575 641.3688
v 54.7537 7.575 622.4313
v 65.3587 7.575 641.3688
v 65.3587 7.575 622.4313
v 54.7537 -7.575 622.4313
v 65.3587 -7.575 622.4313
v 65.3587 -7.575 641.3688
v 54.7537 -7.575 622.4313
v 65.3587 -7.575 641.3688
v 54.7537 -7.575 641.3688
v 54.7537 -7.575 641.3688
v 65.3587 -7.575 641.3688
v 65.3587 7.575 641.3688
v 54.7537 -7.575 641.3688
v 65.3587 7.575 641.3688
v 54.7537 7.575 641.3688
v 54.7537 -7.575 622.4313
v 54.7537 7.575 622.4313
v 65.3587 7.575 622.4313
v 54.7537 -7.575 622.4313
v 65.3587 7.575 622.4313
v 65.3587 -7.575 622.4313
vt 0.0636 1.0
vt 0.4012 1.0
vt 0.4012 1.1797
vt 0.0636 1.0
vt 0.4012 1.1797
vt 0.0636 1.1797
vt 0.0636 1.0
vt -0.362 1.0
vt -0.362 1.1797
vt 0.0636 1.0
vt -0.362 1.1797
vt 0.0636 1.1797
vt 0.1844 1.0
vt -0.2873 1.0
vt -0.2873 1.1797
vt 0.1844 1.0
vt -0.2873 1.1797
vt 0.1844 1.1797
vt -0.2873 1.0
vt 0.1844 1.0
vt 0.1844 1.1797
vt -0.2873 1.0
vt 0.1844 1.1797
vt -0.2873 1.1797
vt -0.362 1.0
vt 0.0636 1.0
vt 0.0636 1.1797
vt -0.362 1.0
vt 0.0636 1.1797
vt -0.362 1.1797
vt 0.1844 1.362
vt -0.2873 1.2873
vt -0.362 0.8156
vt 0.1844 1.362
vt -0.362 0.8156
vt 0.0636 0.5988
vt 0.1844 1.362
vt 0.0636 0.5988
vt 0.4012 0.9364
vt 0.4012 0.9364
vt 0.0636 0.5988
vt -0.362 0.8156
vt 0.4012 0.9364
vt -0.362 0.8156
vt -0.2873 1.2873
vt 0.4012 0.9364
vt -0.2873 1.2873
vt 0.1844 1.362
vt 0.3418 1.1797
vt 0.0 1.1797
vt 0.0 1.3359
vt 0.3418 1.1797
vt 0.0 1.3359
vt 0.3418 1.3359
vt 0.0 1.1797
vt -0.3418 1.1797
vt -0.3418 1.3359
vt 0.0 1.1797
vt -0.3418 1.3359
vt 0.0 1.3359
vt 0.1111 1.1797
vt -0.2907 1.1797
vt -0.2907 1.3359
vt 0.1111 1.1797
vt -0.2907 1.3359
vt 0.1111 1.3359
vt -0.2112 1.1797
vt 0.2112 1.1797
vt 0.2112 1.3359
vt -0.2112 1.1797
vt 0.2112 1.3359
vt -0.2112 1.3359
vt -0.2907 1.1797
vt 0.1111 1.1797
vt 0.1111 1.3359
vt -0.2907 1.1797
vt 0.1111 1.3359
vt -0.2907 1.3359
vt 0.3418 0.8889
vt 0.0 0.6406
vt -0.3418 0.8889
vt 0.3418 0.8889
vt -0.3418 0.8889
vt -0.2112 1.2907
vt 0.3418 0.8889
vt -0.2112 1.2907
vt 0.2112 1.2907
vt 0.2784 1.3359
vt -0.0489 1.3359
vt -0.0489 1.4609
vt 0.2784 1.3359
vt -0.0489 1.4609
vt 0.2784 1.4609
vt 0.3087 1.3359
vt 0.0489 1.3359
vt 0.0489 1.4609
vt 0.3087 1.3359
vt 0.0489 1.4609
vt 0.3087 1.4609
vt 0.0489 1.3359
vt -0.2784 1.3359
vt -0.2784 1.4609
vt 0.0489 1.3359
vt -0.2784 1.4609
vt 0.0489 1.4609
vt -0.1419 1.3359
vt 0.221 1.3359
vt 0.221 1.4609
vt -0.1419 1.3359
vt 0.221 1.4609
vt -0.1419 1.4609
vt -0.221 1.3359
vt 0.1419 1.3359
vt 0.1419 1.4609
vt -0.221 1.3359
vt 0.1419 1.4609
vt -0.221 1.4609
vt 0.2784 0.8581
vt -0.0489 0.6913
vt -0.3087 0.9511
vt 0.2784 0.8581
vt -0.3087 0.9511
vt -0.1419 1.2784
vt 0.2784 0.8581
vt -0.1419 1.2784
vt 0.221 1.221
vt 0.375 1.0469
vt 0.3771 1.0781
vt 0.6115 1.0624
vt 0.375 1.0469
vt 0.6115 1.0624
vt 0.6094 1.0312
vt 0.3771 1.0781
vt 0.375 1.0469
vt 0.6094 1.0313
vt 0.3771 1.0781
vt 0.6094 1.0313
vt 0.6115 1.0624
vt 0.375 1.0469
vt 0.3729 1.0157
vt 0.6073 1.0001
vt 0.375 1.0469
vt 0.6073 1.0001
vt 0.6094 1.0313
vt 0.3729 1.0157
vt 0.375 1.0469
vt 0.6094 1.0312
vt 0.3729 1.0157
vt 0.6094 1.0312
vt 0.6073 1.0001
vt 0.0 1.0157
vt -0.0312 1.0469
vt 0.0 1.0781
vt 0.0 1.0157
vt 0.0 1.0781
vt 0.0312 1.0469
vt 0.0312 1.0312
vt 0.0 1.0624
vt -0.0312 1.0313
vt 0.0312 1.0312
vt -0.0312 1.0313
vt 0.0 1.0001
vt 0.0862 0.6337
vt 0.1165 0.6414
vt 0.1889 0.4185
vt 0.0862 0.6337
vt 0.1889 0.4185
vt 0.1586 0.4108
vt 0.1165 0.6414
vt 0.1456 0.653
vt 0.218 0.4301
vt 0.1165 0.6414
vt 0.218 0.4301
vt 0.1889 0.4185
vt 0.1456 0.653
vt 0.1152 0.6453
vt 0.1877 0.4224
vt 0.1456 0.653
vt 0.1877 0.4224
vt 0.218 0.4301
vt 0.1152 0.6453
vt 0.0862 0.6337
vt 0.1586 0.4108
vt 0.1152 0.6453
vt 0.1586 0.4108
vt 0.1877 0.4224
vt 0.1152 1.0157
vt 0.1456 1.0469
vt 0.1165 1.0781
vt 0.1152 1.0157
vt 0.1165 1.0781
vt 0.0862 1.0469
vt 0.1586 1.0312
vt 0.1889 1.0624
vt 0.218 1.0313
vt 0.1586 1.0312
vt 0.218 1.0313
vt 0.1877 1.0001
vt -0.3217 0.8049
vt -0.3051 0.7784
vt -0.4947 0.6406
vt -0.3217 0.8049
vt -0.4947 0.6406
vt -0.5114 0.6671
vt -0.3051 0.7784
vt -0.285 0.7543
vt -0.4746 0.6165
vt -0.3051 0.7784
vt -0.4746 0.6165
vt -0.4947 0.6406
vt -0.285 0.7543
vt -0.3017 0.7808
vt -0.4913 0.643
vt -0.285 0.7543
vt -0.4913 0.643
vt -0.4746 0.6165
vt -0.3017 0.7808
vt -0.3217 0.8049
vt -0.5114 0.6671
vt -0.3017 0.7808
vt -0.5114 0.6671
vt -0.4913 0.643
vt 0.2192 1.0157
vt 0.2457 1.0469
vt 0.2216 1.0781
vt 0.2192 1.0157
vt 0.2216 1.0781
vt 0.1951 1.0469
vt 0.3329 1.0312
vt 0.3594 1.0624
vt 0.3835 1.0313
vt 0.3329 1.0312
vt 0.3835 1.0313
vt 0.357 1.0001
vt -0.285 1.2457
vt -0.3051 1.2216
vt -0.4947 1.3594
vt -0.285 1.2457
vt -0.4947 1.3594
vt -0.4746 1.3835
vt -0.3051 1.2216
vt -0.3217 1.1951
vt -0.5114 1.3329
vt -0.3051 1.2216
vt -0.5114 1.3329
vt -0.4947 1.3594
vt -0.3217 1.1951
vt -0.3017 1.2192
vt -0.4913 1.357
vt -0.3217 1.1951
vt -0.4913 1.357
vt -0.5114 1.3329
vt -0.3017 1.2192
vt -0.285 1.2457
vt -0.4746 1.3835
vt -0.3017 1.2192
vt -0.4746 1.3835
vt -0.4913 1.357
vt -0.2192 1.0157
vt -0.1951 1.0469
vt -0.2216 1.0781
vt -0.2192 1.0157
vt -0.2216 1.0781
vt -0.2457 1.0469
vt -0.3835 1.0312
vt -0.3594 1.0624
vt -0.3329 1.0313
vt -0.3835 1.0312
vt -0.3329 1.0313
vt -0.357 1.0001
vt 0.1456 1.347
vt 0.1165 1.3586
vt 0.1889 1.5815
vt 0.1456 1.347
vt 0.1889 1.5815
vt 0.218 1.5699
vt 0.1165 1.3586
vt 0.0862 1.3663
vt 0.1586 1.5892
vt 0.1165 1.3586
vt 0.1586 1.5892
vt 0.1889 1.5815
vt 0.0862 1.3663
vt 0.1152 1.3547
vt 0.1877 1.5776
vt 0.0862 1.3663
vt 0.1877 1.5776
vt 0.1586 1.5892
vt 0.1152 1.3547
vt 0.1456 1.347
vt 0.218 1.5699
vt 0.1152 1.3547
vt 0.218 1.5699
vt 0.1877 1.5776
vt 0.1152 1.0157
vt 0.0862 1.0469
vt 0.1165 1.0781
vt 0.1152 1.0157
vt 0.1165 1.0781
vt 0.1456 1.0469
vt 0.218 1.0312
vt 0.1889 1.0624
vt 0.1586 1.0313
vt 0.218 1.0312
vt 0.1586 1.0313
vt 0.1877 1.0001
vt 0.0 1.4609
vt 0.2508 1.4609
vt 0.1997 1.907
vt 0.0 1.4609
vt 0.1997 1.907
vt 0.0484 1.907
vt 0.0815 1.4609
vt -0.2133 1.4609
vt -0.1717 1.907
vt 0.0815 1.4609
vt -0.1717 1.907
vt 0.0279 1.907
vt 0.155 1.4609
vt -0.155 1.4609
vt -0.1533 1.907
vt 0.155 1.4609
vt -0.1533 1.907
vt 0.075 1.907
vt -0.2133 1.4609
vt 0.0815 1.4609
vt 0.12 1.907
vt -0.2133 1.4609
vt 0.12 1.907
vt -0.1148 1.907
vt -0.2508 1.4609
vt 0.0 1.4609
vt 0.0484 1.907
vt -0.2508 1.4609
vt 0.0484 1.907
vt -0.1698 1.907
vt 0.0815 1.2508
vt -0.2133 1.155
vt -0.2133 0.845
vt 0.0815 1.2508
vt -0.2133 0.845
vt 0.0815 0.7492
vt 0.0815 1.2508
vt 0.0815 0.7492
vt 0.2637 1.0
vt 0.2081 1.907
vt 0.0279 1.907
vt 0.031 2.3531
vt 0.2081 1.907
vt 0.031 2.3531
vt 0.181 2.3531
vt 0.0279 1.907
vt -0.1717 1.907
vt -0.085 2.3531
vt 0.0279 1.907
vt -0.085 2.3531
vt 0.031 2.3531
vt 0.075 1.907
vt -0.1533 1.907
vt -0.1277 2.3531
vt 0.075 1.907
vt -0.1277 2.3531
vt 0.0198 2.3531
vt -0.1148 1.907
vt 0.12 1.907
vt 0.1578 2.3531
vt -0.1148 1.907
vt 0.1578 2.3531
vt -0.0066 2.3531
vt -0.1698 1.907
vt 0.0484 1.907
vt 0.0667 2.3531
vt -0.1698 1.907
vt 0.0667 2.3531
vt -0.0987 2.3531
vt 0.181 2.3531
vt 0.031 2.3531
vt 0.0884 2.7992
vt 0.181 2.3531
vt 0.0884 2.7992
vt 0.1923 2.7992
vt 0.1399 2.3531
vt 0.0198 2.3531
vt -0.0094 2.7992
vt 0.1399 2.3531
vt -0.0094 2.7992
vt 0.0826 2.7992
vt 0.0198 2.3531
vt -0.1277 2.3531
vt -0.0884 2.7992
vt 0.0198 2.3531
vt -0.0884 2.7992
vt -0.0094 2.7992
vt -0.0066 2.3531
vt 0.1578 2.3531
vt 0.2034 2.7992
vt -0.0066 2.3531
vt 0.2034 2.7992
vt 0.1064 2.7992
vt -0.0987 2.3531
vt 0.0667 2.3531
vt 0.0605 2.7992
vt -0.0987 2.3531
vt 0.0605 2.7992
vt -0.0452 2.7992
vt 0.1923 2.7992
vt 0.0884 2.7992
vt 0.1934 3.2453
vt 0.1923 2.7992
vt 0.1934 3.2453
vt 0.249 3.2453
vt 0.0826 2.7992
vt -0.0094 2.7992
vt -0.0162 3.2453
vt 0.0826 2.7992
vt -0.0162 3.2453
vt 0.0373 3.2453
vt -0.0094 2.7992
vt -0.0884 2.7992
vt -0.0473 3.2453
vt -0.0094 2.7992
vt -0.0473 3.2453
vt -0.0162 3.2453
vt 0.1064 2.7992
vt 0.2034 2.7992
vt 0.268 3.2453
vt 0.1064 2.7992
vt 0.268 3.2453
vt 0.2242 3.2453
vt -0.0452 2.7992
vt 0.0605 2.7992
vt 0.0392 3.2453
vt -0.0452 2.7992
vt 0.0392 3.2453
vt -0.013 3.2453
vt 0.249 3.2453
vt 0.1934 3.2453
vt 0.3323 3.6914
vt 0.249 3.2453
vt 0.3323 3.6914
vt 0.3543 3.6914
vt 0.0373 3.2453
vt -0.0162 3.2453
vt -0.0109 3.6914
vt 0.0373 3.2453
vt -0.0109 3.6914
vt 0.012 3.6914
vt 0.178 3.2453
vt 0.2242 3.2453
vt 0.353 3.6914
vt 0.178 3.2453
vt 0.353 3.6914
vt 0.3315 3.6914
vt 0.2242 3.2453
vt 0.268 3.2453
vt 0.3672 3.6914
vt 0.2242 3.2453
vt 0.3672 3.6914
vt 0.353 3.6914
vt -0.013 3.2453
vt 0.0392 3.2453
vt 0.0184 3.6914
vt -0.013 3.2453
vt 0.0184 3.6914
vt -0.0007 3.6914
vt 0.0 3.2453
vt 0.0225 3.2453
vt 0.0 3.7773
vt 0.2298 3.2453
vt 0.2034 3.2453
vt 0.3477 3.7773
vt 0.0139 3.2453
vt -0.0139 3.2453
vt 0.0 3.7773
vt 0.2034 3.2453
vt 0.2298 3.2453
vt 0.3477 3.7773
vt -0.0225 3.2453
vt 0.0 3.2453
vt 0.0 3.7773
vt -0.0567 1.5239
vt 0.0567 1.5239
vt 0.0567 1.6656
vt -0.0567 1.5239
vt 0.0567 1.6656
vt -0.0567 1.6656
vt -0.0567 1.5239
vt -0.0567 1.6656
vt 0.0567 1.6656
vt -0.0567 1.5239
vt 0.0567 1.6656
vt 0.0567 1.5239
vt -0.3142 1.5239
vt -0.3142 1.6656
vt -0.2349 1.6656
vt -0.3142 1.5239
vt -0.2349 1.6656
vt -0.2349 1.5239
vt -0.3142 1.5239
vt -0.2349 1.5239
vt -0.2349 1.6656
vt -0.3142 1.5239
vt -0.2349 1.6656
vt -0.3142 1.6656
vt -0.3142 1.0567
vt -0.2349 1.0567
vt -0.2349 0.9433
vt -0.3142 1.0567
vt -0.2349 0.9433
vt -0.3142 0.9433
vt -0.3142 1.0567
vt -0.3142 0.9433
vt -0.2349 0.9433
vt -0.3142 1.0567
vt -0.2349 0.9433
vt -0.2349 1.0567
vt -0.054 1.7147
vt 0.054 1.7147
vt 0.054 1.8496
vt -0.054 1.7147
vt 0.054 1.8496
vt -0.054 1.8496
vt -0.054 1.7147
vt -0.054 1.8496
vt 0.054 1.8496
vt -0.054 1.7147
vt 0.054 1.8496
vt 0.054 1.7147
vt -0.2782 1.7147
vt -0.2782 1.8496
vt -0.2027 1.8496
vt -0.2782 1.7147
vt -0.2027 1.8496
vt -0.2027 1.7147
vt -0.2782 1.7147
vt -0.2027 1.7147
vt -0.2027 1.8496
vt -0.2782 1.7147
vt -0.2027 1.8496
vt -0.2782 1.8496
vt -0.2782 1.054
vt -0.2027 1.054
vt -0.2027 0.946
vt -0.2782 1.054
vt -0.2027 0.946
vt -0.2782 0.946
vt -0.2782 1.054
vt -0.2782 0.946
vt -0.2027 0.946
vt -0.2782 1.054
vt -0.2027 0.946
vt -0.2027 1.054
vt -0.0512 1.9054
vt 0.0512 1.9054
vt 0.0512 2.0335
vt -0.0512 1.9054
vt 0.0512 2.0335
vt -0.0512 2.0335
vt -0.0512 1.9054
vt -0.0512 2.0335
vt 0.0512 2.0335
vt -0.0512 1.9054
vt 0.0512 2.0335
vt 0.0512 1.9054
vt -0.2382 1.9054
vt -0.2382 2.0335
vt -0.1664 2.0335
vt -0.2382 1.9054
vt -0.1664 2.0335
vt -0.1664 1.9054
vt -0.2382 1.9054
vt -0.1664 1.9054
vt -0.1664 2.0335
vt -0.2382 1.9054
vt -0.1664 2.0335
vt -0.2382 2.0335
vt -0.2382 1.0512
vt -0.1664 1.0512
vt -0.1664 0.9488
vt -0.2382 1.0512
vt -0.1664 0.9488
vt -0.2382 0.9488
vt -0.2382 1.0512
vt -0.2382 0.9488
vt -0.1664 0.9488
vt -0.2382 1.0512
vt -0.1664 0.9488
vt -0.1664 1.0512
vt -0.0485 2.0962
vt 0.0485 2.0962
vt 0.0485 2.2175
vt -0.0485 2.0962
vt 0.0485 2.2175
vt -0.0485 2.2175
vt -0.0485 2.0962
vt -0.0485 2.2175
vt 0.0485 2.2175
vt -0.0485 2.0962
vt 0.0485 2.2175
vt 0.0485 2.0962
vt -0.1942 2.0962
vt -0.1942 2.2175
vt -0.1263 2.2175
vt -0.1942 2.0962
vt -0.1263 2.2175
vt -0.1263 2.0962
vt -0.1942 2.0962
vt -0.1263 2.0962
vt -0.1263 2.2175
vt -0.1942 2.0962
vt -0.1263 2.2175
vt -0.1942 2.2175
vt -0.1942 1.0485
vt -0.1263 1.0485
vt -0.1263 0.9515
vt -0.1942 1.0485
vt -0.1263 0.9515
vt -0.1942 0.9515
vt -0.1942 1.0485
vt -0.1942 0.9515
vt -0.1263 0.9515
vt -0.1942 1.0485
vt -0.1263 0.9515
vt -0.1263 1.0485
vt -0.0458 2.2869
vt 0.0458 2.2869
vt 0.0458 2.4015
vt -0.0458 2.2869
vt 0.0458 2.4015
vt -0.0458 2.4015
vt -0.0458 2.2869
vt -0.0458 2.4015
vt 0.0458 2.4015
vt -0.0458 2.2869
vt 0.0458 2.4015
vt 0.0458 2.2869
vt -0.1464 2.2869
vt -0.1464 2.4015
vt -0.0822 2.4015
vt -0.1464 2.2869
vt -0.0822 2.4015
vt -0.0822 2.2869
vt -0.1464 2.2869
vt -0.0822 2.2869
vt -0.0822 2.4015
vt -0.1464 2.2869
vt -0.0822 2.4015
vt -0.1464 2.4015
vt -0.1464 1.0458
vt -0.0822 1.0458
vt -0.0822 0.9542
vt -0.1464 1.0458
vt -0.0822 0.9542
vt -0.1464 0.9542
vt -0.1464 1.0458
vt -0.1464 0.9542
vt -0.0822 0.9542
vt -0.1464 1.0458
vt -0.0822 0.9542
vt -0.0822 1.0458
vt -0.0431 2.4777
vt 0.0431 2.4777
vt 0.0431 2.5855
vt -0.0431 2.4777
vt 0.0431 2.5855
vt -0.0431 2.5855
vt -0.0431 2.4777
vt -0.0431 2.5855
vt 0.0431 2.5855
vt -0.0431 2.4777
vt 0.0431 2.5855
vt 0.0431 2.4777
vt -0.0948 2.4777
vt -0.0948 2.5855
vt -0.0344 2.5855
vt -0.0948 2.4777
vt -0.0344 2.5855
vt -0.0344 2.4777
vt -0.0948 2.4777
vt -0.0344 2.4777
vt -0.0344 2.5855
vt -0.0948 2.4777
vt -0.0344 2.5855
vt -0.0948 2.5855
vt -0.0948 1.0431
vt -0.0344 1.0431
vt -0.0344 0.9569
vt -0.0948 1.0431
vt -0.0344 0.9569
vt -0.0948 0.9569
vt -0.0948 1.0431
vt -0.0948 0.9569
vt -0.0344 0.9569
vt -0.0948 1.0431
vt -0.0344 0.9569
vt -0.0344 1.0431
vt -0.0404 2.6684
vt 0.0404 2.6684
vt 0.0404 2.7694
vt -0.0404 2.6684
vt 0.0404 2.7694
vt -0.0404 2.7694
vt -0.0404 2.6684
vt -0.0404 2.7694
vt 0.0404 2.7694
vt -0.0404 2.6684
vt 0.0404 2.7694
vt 0.0404 2.6684
vt -0.0395 2.6684
vt -0.0395 2.7694
vt 0.0171 2.7694
vt -0.0395 2.6684
vt 0.0171 2.7694
vt 0.0171 2.6684
vt -0.0395 2.6684
vt 0.0171 2.6684
vt 0.0171 2.7694
vt -0.0395 2.6684
vt 0.0171 2.7694
vt -0.0395 2.7694
vt -0.0395 1.0404
vt 0.0171 1.0404
vt 0.0171 0.9596
vt -0.0395 1.0404
vt 0.0171 0.9596
vt -0.0395 0.9596
vt -0.0395 1.0404
vt -0.0395 0.9596
vt 0.0171 0.9596
vt -0.0395 1.0404
vt 0.0171 0.9596
vt 0.0171 1.0404
vt -0.0377 2.8591
vt 0.0377 2.8591
vt 0.0377 2.9534
vt -0.0377 2.8591
vt 0.0377 2.9534
vt -0.0377 2.9534
vt -0.0377 2.8591
vt -0.0377 2.9534
vt 0.0377 2.9534
vt -0.0377 2.8591
vt 0.0377 2.9534
vt 0.0377 2.8591
vt 0.0193 2.8591
vt 0.0193 2.9534
vt 0.0721 2.9534
vt 0.0193 2.8591
vt 0.0721 2.9534
vt 0.0721 2.8591
vt 0.0193 2.8591
vt 0.0721 2.8591
vt 0.0721 2.9534
vt 0.0193 2.8591
vt 0.0721 2.9534
vt 0.0193 2.9534
vt 0.0193 1.0377
vt 0.0721 1.0377
vt 0.0721 0.9623
vt 0.0193 1.0377
vt 0.0721 0.9623
vt 0.0193 0.9623
vt 0.0193 1.0377
vt 0.0193 0.9623
vt 0.0721 0.9623
vt 0.0193 1.0377
vt 0.0721 0.9623
vt 0.0721 1.0377
vt -0.035 3.0499
vt 0.035 3.0499
vt 0.035 3.1374
vt -0.035 3.0499
vt 0.035 3.1374
vt -0.035 3.1374
vt -0.035 3.0499
vt -0.035 3.1374
vt 0.035 3.1374
vt -0.035 3.0499
vt 0.035 3.1374
vt 0.035 3.0499
vt 0.0814 3.0499
vt 0.0814 3.1374
vt 0.1304 3.1374
vt 0.0814 3.0499
vt 0.1304 3.1374
vt 0.1304 3.0499
vt 0.0814 3.0499
vt 0.1304 3.0499
vt 0.1304 3.1374
vt 0.0814 3.0499
vt 0.1304 3.1374
vt 0.0814 3.1374
vt 0.0814 1.035
vt 0.1304 1.035
vt 0.1304 0.965
vt 0.0814 1.035
vt 0.1304 0.965
vt 0.0814 0.965
vt 0.0814 1.035
vt 0.0814 0.965
vt 0.1304 0.965
vt 0.0814 1.035
vt 0.1304 0.965
vt 0.1304 1.035
vt -0.0323 3.2406
vt 0.0323 3.2406
vt 0.0323 3.3214
vt -0.0323 3.2406
vt 0.0323 3.3214
vt -0.0323 3.3214
vt -0.0323 3.2406
vt -0.0323 3.3214
vt 0.0323 3.3214
vt -0.0323 3.2406
vt 0.0323 3.3214
vt 0.0323 3.2406
vt 0.1464 3.2406
vt 0.1464 3.3214
vt 0.1916 3.3214
vt 0.1464 3.2406
vt 0.1916 3.3214
vt 0.1916 3.2406
vt 0.1464 3.2406
vt 0.1916 3.2406
vt 0.1916 3.3214
vt 0.1464 3.2406
vt 0.1916 3.3214
vt 0.1464 3.3214
vt 0.1464 1.0323
vt 0.1916 1.0323
vt 0.1916 0.9677
vt 0.1464 1.0323
vt 0.1916 0.9677
vt 0.1464 0.9677
vt 0.1464 1.0323
vt 0.1464 0.9677
vt 0.1916 0.9677
vt 0.1464 1.0323
vt 0.1916 0.9677
vt 0.1916 1.0323
vt -0.0296 3.4314
vt 0.0296 3.4314
vt 0.0296 3.5053
vt -0.0296 3.4314
vt 0.0296 3.5053
vt -0.0296 3.5053
vt -0.0296 3.4314
vt -0.0296 3.5053
vt 0.0296 3.5053
vt -0.0296 3.4314
vt 0.0296 3.5053
vt 0.0296 3.4314
vt 0.2139 3.4314
vt 0.2139 3.5053
vt 0.2553 3.5053
vt 0.2139 3.4314
vt 0.2553 3.5053
vt 0.2553 3.4314
vt 0.2139 3.4314
vt 0.2553 3.4314
vt 0.2553 3.5053
vt 0.2139 3.4314
vt 0.2553 3.5053
vt 0.2139 3.5053
vt 0.2139 1.0296
vt 0.2553 1.0296
vt 0.2553 0.9704
vt 0.2139 1.0296
vt 0.2553 0.9704
vt 0.2139 0.9704
vt 0.2139 1.0296
vt 0.2139 0.9704
vt 0.2553 0.9704
vt 0.2139 1.0296
vt 0.2553 0.9704
vt 0.2553 1.0296
vn 0.7071 0.7071 0.0
vn 0.7071 0.7071 0.0
vn 0.7071 0.7071 0.0
vn 0.7071 0.7071 0.0
vn 0.7071 0.7071 0.0
vn 0.7071 0.7071 0.0
vn -0.454 0.891 0.0
vn -0.454 0.891 0.0
vn -0.454 0.891 0.0
vn -0.454 0.891 0.0
vn -0.454 0.891 0.0
vn -0.454 0.891 0.0
vn -0.9877 -0.1564 0.0
vn -0.9877 -0.1564 0.0
vn -0.9877 -0.1564 0.0
vn -0.9877 -0.1564 0.0
vn -0.9877 -0.1564 0.0
vn -0.9877 -0.1564 0.0
vn -0.1564 -0.9877 0.0
vn -0.1564 -0.9877 0.0
vn -0.1564 -0.9877 0.0
vn -0.1564 -0.9877 0.0
vn -0.1564 -0.9877 0.0
vn -0.1564 -0.9877 0.0
vn 0.891 -0.454 0.0
vn 0.891 -0.454 0.0
vn 0.891 -0.454 0.0
vn 0.891 -0.454 0.0
vn 0.891 -0.454 0.0
vn 0.891 -0.454 0.0
vn 0.0 0.0 -1.0
vn 0.0 0.0 -1.0
vn 0.0 0.0 -1.0
vn 0.0 0.0 -1.0
vn 0.0 0.0 -1.0
vn 0.0 0.0 -1.0
vn 0.0 0.0 -1.0
vn 0.0 0.0 -1.0
vn 0.0 0.0 -1.0
vn 0.0 0.0 1.0
vn 0.0 0.0 1.0
vn 0.0 0.0 1.0
vn 0.0 0.0 1.0
vn 0.0 0.0 1.0
vn 0.0 0.0 1.0
vn 0.0 0.0 1.0
vn 0.0 0.0 1.0
vn 0.0 0.0 1.0
vn 0.5878 0.809 0.0
vn 0.5878 0.809 0.0
vn 0.5878 0.809 0.0
vn 0.5878 0.809 0.0
vn 0.5878 0.809 0.0
vn 0.5878 0.809 0.0
vn -0.5878 0.809 0.0
vn -0.5878 0.809 0.0
vn -0.5878 0.809 0.0
vn -0.5878 0.809 0.0
vn -0.5878 0.809 0.0
vn -0.5878 0.809 0.0
vn -0.9511 -0.309 0.0
vn -0.9511 -0.309 0.0
vn -0.9511 -0.309 0.0
vn -0.9511 -0.309 0.0
vn -0.9511 -0.309 0.0
vn -0.9511 -0.309 0.0
vn 0.0 -1.0 0.0
vn 0.0 -1.0 0.0
vn 0.0 -1.0 0.0
vn 0.0 -1.0 0.0
vn 0.0 -1.0 0.0
vn 0.0 -1.0 0.0
vn 0.9511 -0.309 0.0
vn 0.9511 -0.309 0.0
vn 0.9511 -0.309 0.0
vn 0.9511 -0.309 0.0
vn 0.9511 -0.309 0.0
vn 0.9511 -0.309 0.0
vn 0.0 0.0 1.0
vn 0.0 0.0 1.0
vn 0.0 0.0 1.0
vn 0.0 0.0 1.0
vn 0.0 0.0 1.0
vn 0.0 0.0 1.0
vn 0.0 0.0 1.0
vn 0.0 0.0 1.0
vn 0.0 0.0 1.0
vn 0.454 0.891 0.0
vn 0.454 0.891 0.0
vn 0.454 0.891 0.0
vn 0.454 0.891 0.0
vn 0.454 0.891 0.0
vn 0.454 0.891 0.0
vn -0.7071 0.7071 0.0
vn -0.7071 0.7071 0.0
vn -0.7071 0.7071 0.0
vn -0.7071 0.7071 0.0
vn -0.7071 0.7071 0.0
vn -0.7071 0.7071 0.0
vn -0.891 -0.454 0.0
vn -0.891 -0.454 0.0
vn -0.891 -0.454 0.0
vn -0.891 -0.454 0.0
vn -0.891 -0.454 0.0
vn -0.891 -0.454 0.0
vn 0.1564 -0.9877 0.0
vn 0.1564 -0.9877 0.0
vn 0.1564 -0.9877 0.0
vn 0.1564 -0.9877 0.0
vn 0.1564 -0.9877 0.0
vn 0.1564 -0.9877 0.0
vn 0.9877 -0.1564 0.0
vn 0.9877 -0.1564 0.0
vn 0.9877 -0.1564 0.0
vn 0.9877 -0.1564 0.0
vn 0.9877 -0.1564 0.0
vn 0.9877 -0.1564 0.0
vn 0.0 0.0 1.0
vn 0.0 0.0 1.0
vn 0.0 0.0 1.0
vn 0.0 0.0 1.0
vn 0.0 0.0 1.0
vn 0.0 0.0 1.0
vn 0.0 0.0 1.0
vn 0.0 0.0 1.0
vn 0.0 0.0 1.0
vn 0.047 0.7071 0.7055
vn 0.047 0.7071 0.7055
vn 0.047 0.7071 0.7055
vn 0.047 0.7071 0.7055
vn 0.047 0.7071 0.7055
vn 0.047 0.7071 0.7055
vn 0.047 -0.7071 0.7055
vn 0.047 -0.7071 0.7055
vn 0.047 -0.7071 0.7055
vn 0.047 -0.7071 0.7055
vn 0.047 -0.7071 0.7055
vn 0.047 -0.7071 0.7055
vn -0.047 -0.7071 -0.7055
vn -0.047 -0.7071 -0.7055
vn -0.047 -0.7071 -0.7055
vn -0.047 -0.7071 -0.7055
vn -0.047 -0.7071 -0.7055
vn -0.047 -0.7071 -0.7055
vn -0.047 0.7071 -0.7055
vn -0.047 0.7071 -0.7055
vn -0.047 0.7071 -0.7055
vn -0.047 0.7071 -0.7055
vn -0.047 0.7071 -0.7055
vn -0.047 0.7071 -0.7055
vn -0.9978 0.0 0.0665
vn -0.9978 0.0 0.0665
vn -0.9978 0.0 0.0665
vn -0.9978 0.0 0.0665
vn -0.9978 0.0 0.0665
vn -0.9978 0.0 0.0665
vn 0.9978 0.0 -0.0665
vn 0.9978 0.0 -0.0665
vn 0.9978 0.0 -0.0665
vn 0.9978 0.0 -0.0665
vn 0.9978 0.0 -0.0665
vn 0.9978 0.0 -0.0665
vn -0.658 0.2632 0.7055
vn -0.658 0.2632 0.7055
vn -0.658 0.2632 0.7055
vn -0.658 0.2632 0.7055
vn -0.658 0.2632 0.7055
vn -0.658 0.2632 0.7055
vn 0.687 -0.1738 0.7055
vn 0.687 -0.1738 0.7055
vn 0.687 -0.1738 0.7055
vn 0.687 -0.1738 0.7055
vn 0.687 -0.1738 0.7055
vn 0.687 -0.1738 0.7055
vn 0.658 -0.2632 -0.7055
vn 0.658 -0.2632 -0.7055
vn 0.658 -0.2632 -0.7055
vn 0.658 -0.2632 -0.7055
vn 0.658 -0.2632 -0.7055
vn 0.658 -0.2632 -0.7055
vn -0.687 0.1738 -0.7055
vn -0.687 0.1738 -0.7055
vn -0.687 0.1738 -0.7055
vn -0.687 0.1738 -0.7055
vn -0.687 0.1738 -0.7055
vn -0.687 0.1738 -0.7055
vn -0.3083 -0.949 0.0665
vn -0.3083 -0.949 0.0665
vn -0.3083 -0.949 0.0665
vn -0.3083 -0.949 0.0665
vn -0.3083 -0.949 0.0665
vn -0.3083 -0.949 0.0665
vn 0.3083 0.949 -0.0665
vn 0.3083 0.949 -0.0665
vn 0.3083 0.949 -0.0665
vn 0.3083 0.949 -0.0665
vn 0.3083 0.949 -0.0665
vn 0.3083 0.949 -0.0665
vn -0.4537 -0.5444 0.7055
vn -0.4537 -0.5444 0.7055
vn -0.4537 -0.5444 0.7055
vn -0.4537 -0.5444 0.7055
vn -0.4537 -0.5444 0.7055
vn -0.4537 -0.5444 0.7055
vn 0.3776 0.5997 0.7055
vn 0.3776 0.5997 0.7055
vn 0.3776 0.5997 0.7055
vn 0.3776 0.5997 0.7055
vn 0.3776 0.5997 0.7055
vn 0.3776 0.5997 0.7055
vn 0.4537 0.5444 -0.7055
vn 0.4537 0.5444 -0.7055
vn 0.4537 0.5444 -0.7055
vn 0.4537 0.5444 -0.7055
vn 0.4537 0.5444 -0.7055
vn 0.4537 0.5444 -0.7055
vn -0.3776 -0.5997 -0.7055
vn -0.3776 -0.5997 -0.7055
vn -0.3776 -0.5997 -0.7055
vn -0.3776 -0.5997 -0.7055
vn -0.3776 -0.5997 -0.7055
vn -0.3776 -0.5997 -0.7055
vn 0.8072 -0.5865 0.0665
vn 0.8072 -0.5865 0.0665
vn 0.8072 -0.5865 0.0665
vn 0.8072 -0.5865 0.0665
vn 0.8072 -0.5865 0.0665
vn 0.8072 -0.5865 0.0665
vn -0.8072 0.5865 -0.0665
vn -0.8072 0.5865 -0.0665
vn -0.8072 0.5865 -0.0665
vn -0.8072 0.5865 -0.0665
vn -0.8072 0.5865 -0.0665
vn -0.8072 0.5865 -0.0665
vn 0.3776 -0.5997 0.7055
vn 0.3776 -0.5997 0.7055
vn 0.3776 -0.5997 0.7055
vn 0.3776 -0.5997 0.7055
vn 0.3776 -0.5997 0.7055
vn 0.3776 -0.5997 0.7055
vn -0.4537 0.5444 0.7055
vn -0.4537 0.5444 0.7055
vn -0.4537 0.5444 0.7055
vn -0.4537 0.5444 0.7055
vn -0.4537 0.5444 0.7055
vn -0.4537 0.5444 0.7055
vn -0.3776 0.5997 -0.7055
vn -0.3776 0.5997 -0.7055
vn -0.3776 0.5997 -0.7055
vn -0.3776 0.5997 -0.7055
vn -0.3776 0.5997 -0.7055
vn -0.3776 0.5997 -0.7055
vn 0.4537 -0.5444 -0.7055
vn 0.4537 -0.5444 -0.7055
vn 0.4537 -0.5444 -0.7055
vn 0.4537 -0.5444 -0.7055
vn 0.4537 -0.5444 -0.7055
vn 0.4537 -0.5444 -0.7055
vn 0.8072 0.5865 0.0665
vn 0.8072 0.5865 0.0665
vn 0.8072 0.5865 0.0665
vn 0.8072 0.5865 0.0665
vn 0.8072 0.5865 0.0665
vn 0.8072 0.5865 0.0665
vn -0.8072 -0.5865 -0.0665
vn -0.8072 -0.5865 -0.0665
vn -0.8072 -0.5865 -0.0665
vn -0.8072 -0.5865 -0.0665
vn -0.8072 -0.5865 -0.0665
vn -0.8072 -0.5865 -0.0665
vn 0.687 0.1738 0.7055
vn 0.687 0.1738 0.7055
vn 0.687 0.1738 0.7055
vn 0.687 0.1738 0.7055
vn 0.687 0.1738 0.7055
vn 0.687 0.1738 0.7055
vn -0.658 -0.2632 0.7055
vn -0.658 -0.2632 0.7055
vn -0.658 -0.2632 0.7055
vn -0.658 -0.2632 0.7055
vn -0.658 -0.2632 0.7055
vn -0.658 -0.2632 0.7055
vn -0.687 -0.1738 -0.7055
vn -0.687 -0.1738 -0.7055
vn -0.687 -0.1738 -0.7055
vn -0.687 -0.1738 -0.7055
vn -0.687 -0.1738 -0.7055
vn -0.687 -0.1738 -0.7055
vn 0.658 0.2632 -0.7055
vn 0.658 0.2632 -0.7055
vn 0.658 0.2632 -0.7055
vn 0.658 0.2632 -0.7055
vn 0.658 0.2632 -0.7055
vn 0.658 0.2632 -0.7055
vn -0.3083 0.949 0.0665
vn -0.3083 0.949 0.0665
vn -0.3083 0.949 0.0665
vn -0.3083 0.949 0.0665
vn -0.3083 0.949 0.0665
vn -0.3083 0.949 0.0665
vn 0.3083 -0.949 -0.0665
vn 0.3083 -0.949 -0.0665
vn 0.3083 -0.949 -0.0665
vn 0.3083 -0.949 -0.0665
vn 0.3083 -0.949 -0.0665
vn 0.3083 -0.949 -0.0665
vn 0.7983 0.58 0.1624
vn 0.7983 0.58 0.1624
vn 0.7983 0.58 0.1624
vn 0.7983 0.58 0.1624
vn 0.7983 0.58 0.1624
vn 0.7983 0.58 0.1624
vn -0.3031 0.9327 0.1955
vn -0.3031 0.9327 0.1955
vn -0.3031 0.9327 0.1955
vn -0.3031 0.9327 0.1955
vn -0.3031 0.9327 0.1955
vn -0.3031 0.9327 0.1955
vn -0.9765 0.0 0.2157
vn -0.9765 0.0 0.2157
vn -0.9765 0.0 0.2157
vn -0.9765 0.0 0.2157
vn -0.9765 0.0 0.2157
vn -0.9765 0.0 0.2157
vn -0.3031 -0.9327 0.1955
vn -0.3031 -0.9327 0.1955
vn -0.3031 -0.9327 0.1955
vn -0.3031 -0.9327 0.1955
vn -0.3031 -0.9327 0.1955
vn -0.3031 -0.9327 0.1955
vn 0.7983 -0.58 0.1624
vn 0.7983 -0.58 0.1624
vn 0.7983 -0.58 0.1624
vn 0.7983 -0.58 0.1624
vn 0.7983 -0.58 0.1624
vn 0.7983 -0.58 0.1624
vn 0.0 0.0 -1.0
vn 0.0 0.0 -1.0
vn 0.0 0.0 -1.0
vn 0.0 0.0 -1.0
vn 0.0 0.0 -1.0
vn 0.0 0.0 -1.0
vn 0.0 0.0 -1.0
vn 0.0 0.0 -1.0
vn 0.0 0.0 -1.0
vn 0.6397 0.7624 0.0978
vn 0.6397 0.7624 0.0978
vn 0.6397 0.7624 0.0978
vn 0.6397 0.7624 0.0978
vn 0.6397 0.7624 0.0978
vn 0.6397 0.7624 0.0978
vn -0.5188 0.8303 0.2036
vn -0.5188 0.8303 0.2036
vn -0.5188 0.8303 0.2036
vn -0.5188 0.8303 0.2036
vn -0.5188 0.8303 0.2036
vn -0.5188 0.8303 0.2036
vn -0.9415 -0.2347 0.2417
vn -0.9415 -0.2347 0.2417
vn -0.9415 -0.2347 0.2417
vn -0.9415 -0.2347 0.2417
vn -0.9415 -0.2347 0.2417
vn -0.9415 -0.2347 0.2417
vn -0.0688 -0.9843 0.1627
vn -0.0688 -0.9843 0.1627
vn -0.0688 -0.9843 0.1627
vn -0.0688 -0.9843 0.1627
vn -0.0688 -0.9843 0.1627
vn -0.0688 -0.9843 0.1627
vn 0.9248 -0.3736 0.0715
vn 0.9248 -0.3736 0.0715
vn 0.9248 -0.3736 0.0715
vn 0.9248 -0.3736 0.0715
vn 0.9248 -0.3736 0.0715
vn 0.9248 -0.3736 0.0715
vn 0.4376 0.8972 0.0589
vn 0.4376 0.8972 0.0589
vn 0.4376 0.8972 0.0589
vn 0.4376 0.8972 0.0589
vn 0.4376 0.8972 0.0589
vn 0.4376 0.8972 0.0589
vn -0.6996 0.6756 0.2329
vn -0.6996 0.6756 0.2329
vn -0.6996 0.6756 0.2329
vn -0.6996 0.6756 0.2329
vn -0.6996 0.6756 0.2329
vn -0.6996 0.6756 0.2329
vn -0.8535 -0.4538 0.2561
vn -0.8535 -0.4538 0.2561
vn -0.8535 -0.4538 0.2561
vn -0.8535 -0.4538 0.2561
vn -0.8535 -0.4538 0.2561
vn -0.8535 -0.4538 0.2561
vn 0.1728 -0.9799 0.0998
vn 0.1728 -0.9799 0.0998
vn 0.1728 -0.9799 0.0998
vn 0.1728 -0.9799 0.0998
vn 0.1728 -0.9799 0.0998
vn 0.1728 -0.9799 0.0998
vn 0.9899 -0.1391 -0.027
vn 0.9899 -0.1391 -0.027
vn 0.9899 -0.1391 -0.027
vn 0.9899 -0.1391 -0.027
vn 0.9899 -0.1391 -0.027
vn 0.9899 -0.1391 -0.027
vn 0.2076 0.9769 0.0503
vn 0.2076 0.9769 0.0503
vn 0.2076 0.9769 0.0503
vn 0.2076 0.9769 0.0503
vn 0.2076 0.9769 0.0503
vn 0.2076 0.9769 0.0503
vn -0.8329 0.4809 0.2738
vn -0.8329 0.4809 0.2738
vn -0.8329 0.4809 0.2738
vn -0.8329 0.4809 0.2738
vn -0.8329 0.4809 0.2738
vn -0.8329 0.4809 0.2738
vn -0.7196 -0.6479 0.2497
vn -0.7196 -0.6479 0.2497
vn -0.7196 -0.6479 0.2497
vn -0.7196 -0.6479 0.2497
vn -0.7196 -0.6479 0.2497
vn -0.7196 -0.6479 0.2497
vn 0.4067 -0.9135 0.007
vn 0.4067 -0.9135 0.007
vn 0.4067 -0.9135 0.007
vn 0.4067 -0.9135 0.007
vn 0.4067 -0.9135 0.007
vn 0.4067 -0.9135 0.007
vn 0.9873 0.1038 -0.1204
vn 0.9873 0.1038 -0.1204
vn 0.9873 0.1038 -0.1204
vn 0.9873 0.1038 -0.1204
vn 0.9873 0.1038 -0.1204
vn 0.9873 0.1038 -0.1204
vn -0.0348 0.9971 0.0673
vn -0.0348 0.9971 0.0673
vn -0.0348 0.9971 0.0673
vn -0.0348 0.9971 0.0673
vn -0.0348 0.9971 0.0673
vn -0.0348 0.9971 0.0673
vn -0.9135 0.262 0.3111
vn -0.9135 0.262 0.3111
vn -0.9135 0.262 0.3111
vn -0.9135 0.262 0.3111
vn -0.9135 0.262 0.3111
vn -0.9135 0.262 0.3111
vn -0.5467 -0.8106 0.2098
vn -0.5467 -0.8106 0.2098
vn -0.5467 -0.8106 0.2098
vn -0.5467 -0.8106 0.2098
vn -0.5467 -0.8106 0.2098
vn -0.5467 -0.8106 0.2098
vn 0.6116 -0.7828 -0.1143
vn 0.6116 -0.7828 -0.1143
vn 0.6116 -0.7828 -0.1143
vn 0.6116 -0.7828 -0.1143
vn 0.6116 -0.7828 -0.1143
vn 0.6116 -0.7828 -0.1143
vn 0.9204 0.335 -0.2017
vn 0.9204 0.335 -0.2017
vn 0.9204 0.335 -0.2017
vn 0.9204 0.335 -0.2017
vn 0.9204 0.335 -0.2017
vn 0.9204 0.335 -0.2017
vn 0.7996 0.5809 -0.1525
vn 0.7996 0.5809 -0.1525
vn 0.7996 0.5809 -0.1525
vn -0.3072 0.9455 0.108
vn -0.3072 0.9455 0.108
vn -0.3072 0.9455 0.108
vn -0.9651 0.0 0.2618
vn -0.9651 0.0 0.2618
vn -0.9651 0.0 0.2618
vn -0.3072 -0.9455 0.108
vn -0.3072 -0.9455 0.108
vn -0.3072 -0.9455 0.108
vn 0.7996 -0.5809 -0.1525
vn 0.7996 -0.5809 -0.1525
vn 0.7996 -0.5809 -0.1525
vn 1.0 0.0 0.0
vn 1.0 0.0 0.0
vn 1.0 0.0 0.0
vn 1.0 0.0 0.0
vn 1.0 0.0 0.0
vn 1.0 0.0 0.0
vn -1.0 0.0 0.0
vn -1.0 0.0 0.0
vn -1.0 0.0 0.0
vn -1.0 0.0 0.0
vn -1.0 0.0 0.0
vn -1.0 0.0 0.0
vn 0.0 1.0 0.0
vn 0.0 1.0 0.0
vn 0.0 1.0 0.0
vn 0.0 1.0 0.0
vn 0.0 1.0 0.0
vn 0.0 1.0 0.0
vn 0.0 -1.0 0.0
vn 0.0 -1.0 0.0
vn 0.0 -1.0 0.0
vn 0.0 -1.0 0.0
vn 0.0 -1.0 0.0
vn 0.0 -1.0 0.0
vn 0.0 0.0 1.0
vn 0.0 0.0 1.0
vn 0.0 0.0 1.0
vn 0.0 0.0 1.0
vn 0.0 0.0 1.0
vn 0.0 0.0 1.0
vn 0.0 0.0 -1.0
vn 0.0 0.0 -1.0
vn 0.0 0.0 -1.0
vn 0.0 0.0 -1.0
vn 0.0 0.0 -1.0
vn 0.0 0.0 -1.0
vn 1.0 0.0 0.0
vn 1.0 0.0 0.0
vn 1.0 0.0 0.0
vn 1.0 0.0 0.0
vn 1.0 0.0 0.0
vn 1.0 0.0 0.0
vn -1.0 0.0 0.0
vn -1.0 0.0 0.0
vn -1.0 0.0 0.0
vn -1.0 0.0 0.0
vn -1.0 0.0 0.0
vn -1.0 0.0 0.0
vn 0.0 1.0 0.0
vn 0.0 1.0 0.0
vn 0.0 1.0 0.0
vn 0.0 1.0 0.0
vn 0.0 1.0 0.0
vn 0.0 1.0 0.0
vn 0.0 -1.0 0.0
vn 0.0 -1.0 0.0
vn 0.0 -1.0 0.0
vn 0.0 -1.0 0.0
vn 0.0 -1.0 0.0
vn 0.0 -1.0 0.0
vn 0.0 0.0 1.0
vn 0.0 0.0 1.0
vn 0.0 0.0 1.0
vn 0.0 0.0 1.0
vn 0.0 0.0 1.0
vn 0.0 0.0 1.0
vn 0.0 0.0 -1.0
vn 0.0 0.0 -1.0
vn 0.0 0.0 -1.0
vn 0.0 0.0 -1.0
vn 0.0 0.0 -1.0
vn 0.0 0.0 -1.0
vn 1.0 0.0 0.0
vn 1.0 0.0 0.0
vn 1.0 0.0 0.0
vn 1.0 0.0 0.0
vn 1.0 0.0 0.0
vn 1.0 0.0 0.0
vn -1.0 0.0 0.0
vn -1.0 0.0 0.0
vn -1.0 0.0 0.0
vn -1.0 0.0 0.0
vn -1.0 0.0 0.0
vn -1.0 0.0 0.0
vn 0.0 1.0 0.0
vn 0.0 1.0 0.0
vn 0.0 1.0 0.0
vn 0.0 1.0 0.0
vn 0.0 1.0 0.0
vn 0.0 1.0 0.0
vn 0.0 -1.0 0.0
vn 0.0 -1.0 0.0
vn 0.0 -1.0 0.0
vn 0.0 -1.0 0.0
vn 0.0 -1.0 0.0
vn 0.0 -1.0 0.0
vn 0.0 0.0 1.0
vn 0.0 0.0 1.0
vn 0.0 0.0 1.0
vn 0.0 0.0 1.0
vn 0.0 0.0 1.0
vn 0.0 0.0 1.0
vn 0.0 0.0 -1.0
vn 0.0 0.0 -1.0
vn 0.0 0.0 -1.0
vn 0.0 0.0 -1.0
vn 0.0 0.0 -1.0
vn 0.0 0.0 -1.0
vn 1.0 0.0 0.0
vn 1.0 0.0 0.0
vn 1.0 0.0 0.0
vn 1.0 0.0 0.0
vn 1.0 0.0 0.0
vn 1.0 0.0 0.0
vn -1.0 0.0 0.0
vn -1.0 0.0 0.0
vn -1.0 0.0 0.0
vn -1.0 0.0 0.0
vn -1.0 0.0 0.0
vn -1.0 0.0 0.0
vn 0.0 1.0 0.0
vn 0.0 1.0 0.0
vn 0.0 1.0 0.0
vn 0.0 1.0 0.0
vn 0.0 1.0 0.0
vn 0.0 1.0 0.0
vn 0.0 -1.0 0.0
vn 0.0 -1.0 0.0
vn 0.0 -1.0 0.0
vn 0.0 -1.0 0.0
vn 0.0 -1.0 0.0
vn 0.0 -1.0 0.0
vn 0.0 0.0 1.0
vn 0.0 0.0 1.0
vn 0.0 0.0 1.0
vn 0.0 0.0 1.0
vn 0.0 0.0 1.0
vn 0.0 0.0 1.0
vn 0.0 0.0 -1.0
vn 0.0 0.0 -1.0
vn 0.0 0.0 -1.0
vn 0.0 0.0 -1.0
vn 0.0 0.0 -1.0
vn 0.0 0.0 -1.0
vn 1.0 0.0 0.0
vn 1.0 0.0 0.0
vn 1.0 0.0 0.0
vn 1.0 0.0 0.0
vn 1.0 0.0 0.0
vn 1.0 0.0 0.0
vn -1.0 0.0 0.0
vn -1.0 0.0 0.0
vn -1.0 0.0 0.0
vn -1.0 0.0 0.0
vn -1.0 0.0 0.0
vn -1.0 0.0 0.0
vn 0.0 1.0 0.0
vn 0.0 1.0 0.0
vn 0.0 1.0 0.0
vn 0.0 1.0 0.0
vn 0.0 1.0 0.0
vn 0.0 1.0 0.0
vn 0.0 -1.0 0.0
vn 0.0 -1.0 0.0
vn 0.0 -1.0 0.0
vn 0.0 -1.0 0.0
vn 0.0 -1.0 0.0
vn 0.0 -1.0 0.0
vn 0.0 0.0 1.0
vn 0.0 0.0 1.0
vn 0.0 0.0 1.0
vn 0.0 0.0 1.0
vn 0.0 0.0 1.0
vn 0.0 0.0 1.0
vn 0.0 0.0 -1.0
vn 0.0 0.0 -1.0
vn 0.0 0.0 -1.0
vn 0.0 0.0 -1.0
vn 0.0 0.0 -1.0
vn 0.0 0.0 -1.0
vn 1.0 0.0 0.0
vn 1.0 0.0 0.0
vn 1.0 0.0 0.0
vn 1.0 0.0 0.0
vn 1.0 0.0 0.0
vn 1.0 0.0 0.0
vn -1.0 0.0 0.0
vn -1.0 0.0 0.0
vn -1.0 0.0 0.0
vn -1.0 0.0 0.0
vn -1.0 0.0 0.0
vn -1.0 0.0 0.0
vn 0.0 1.0 0.0
vn 0.0 1.0 0.0
vn 0.0 1.0 0.0
vn 0.0 1.0 0.0
vn 0.0 1.0 0.0
vn 0.0 1.0 0.0
vn 0.0 -1.0 0.0
vn 0.0 -1.0 0.0
vn 0.0 -1.0 0.0
vn 0.0 -1.0 0.0
vn 0.0 -1.0 0.0
vn 0.0 -1.0 0.0
vn 0.0 0.0 1.0
vn 0.0 0.0 1.0
vn 0.0 0.0 1.0
vn 0.0 0.0 1.0
vn 0.0 0.0 1.0
vn 0.0 0.0 1.0
vn 0.0 0.0 -1.0
vn 0.0 0.0 -1.0
vn 0.0 0.0 -1.0
vn 0.0 0.0 -1.0
vn 0.0 0.0 -1.0
vn 0.0 0.0 -1.0
vn 1.0 0.0 0.0
vn 1.0 0.0 0.0
vn 1.0 0.0 0.0
vn 1.0 0.0 0.0
vn 1.0 0.0 0.0
vn 1.0 0.0 0.0
vn -1.0 0.0 0.0
vn -1.0 0.0 0.0
vn -1.0 0.0 0.0
vn -1.0 0.0 0.0
vn -1.0 0.0 0.0
vn -1.0 0.0 0.0
vn 0.0 1.0 0.0
vn 0.0 1.0 0.0
vn 0.0 1.0 0.0
vn 0.0 1.0 0.0
vn 0.0 1.0 0.0
vn 0.0 1.0 0.0
vn 0.0 -1.0 0.0
vn 0.0 -1.0 0.0
vn 0.0 -1.0 0.0
vn 0.0 -1.0 0.0
vn 0.0 -1.0 0.0
vn 0.0 -1.0 0.0
vn 0.0 0.0 1.0
vn 0.0 0.0 1.0
vn 0.0 0.0 1.0
vn 0.0 0.0 1.0
vn 0.0 0.0 1.0
vn 0.0 0.0 1.0
vn 0.0 0.0 -1.0
vn 0.0 0.0 -1.0
vn 0.0 0.0 -1.0
vn 0.0 0.0 -1.0
vn 0.0 0.0 -1.0
vn 0.0 0.0 -1.0
vn 1.0 0.0 0.0
vn 1.0 0.0 0.0
vn 1.0 0.0 0.0
vn 1.0 0.0 0.0
vn 1.0 0.0 0.0
vn 1.0 0.0 0.0
vn -1.0 0.0 0.0
vn -1.0 0.0 0.0
vn -1.0 0.0 0.0
vn -1.0 0.0 0.0
vn -1.0 0.0 0.0
vn -1.0 0.0 0.0
vn 0.0 1.0 0.0
vn 0.0 1.0 0.0
vn 0.0 1.0 0.0
vn 0.0 1.0 0.0
vn 0.0 1.0 0.0
vn 0.0 1.0 0.0
vn 0.0 -1.0 0.0
vn 0.0 -1.0 0.0
vn 0.0 -1.0 0.0
vn 0.0 -1.0 0.0
vn 0.0 -1.0 0.0
vn 0.0 -1.0 0.0
vn 0.0 0.0 1.0
vn 0.0 0.0 1.0
vn 0.0 0.0 1.0
vn 0.0 0.0 1.0
vn 0.0 0.0 1.0
vn 0.0 0.0 1.0
vn 0.0 0.0 -1.0
vn 0.0 0.0 -1.0
vn 0.0 0.0 -1.0
vn 0.0 0.0 -1.0
vn 0.0 0.0 -1.0
vn 0.0 0.0 -1.0
vn 1.0 0.0 0.0
vn 1.0 0.0 0.0
vn 1.0 0.0 0.0
vn 1.0 0.0 0.0
vn 1.0 0.0 0.0
vn 1.0 0.0 0.0
vn -1.0 0.0 0.0
vn -1.0 0.0 0.0
vn -1.0 0.0 0.0
vn -1.0 0.0 0.0
vn -1.0 0.0 0.0
vn -1.0 0.0 0.0
vn 0.0 1.0 0.0
vn 0.0 1.0 0.0
vn 0.0 1.0 0.0
vn 0.0 1.0 0.0
vn 0.0 1.0 0.0
vn 0.0 1.0 0.0
vn 0.0 -1.0 0.0
vn 0.0 -1.0 0.0
vn 0.0 -1.0 0.0
vn 0.0 -1.0 0.0
vn 0.0 -1.0 0.0
vn 0.0 -1.0 0.0
vn 0.0 0.0 1.0
vn 0.0 0.0 1.0
vn 0.0 0.0 1.0
vn 0.0 0.0 1.0
vn 0.0 0.0 1.0
vn 0.0 0.0 1.0
vn 0.0 0.0 -1.0
vn 0.0 0.0 -1.0
vn 0.0 0.0 -1.0
vn 0.0 0.0 -1.0
vn 0.0 0.0 -1.0
vn 0.0 0.0 -1.0
vn 1.0 0.0 0.0
vn 1.0 0.0 0.0
vn 1.0 0.0 0.0
vn 1.0 0.0 0.0
vn 1.0 0.0 0.0
vn 1.0 0.0 0.0
vn -1.0 0.0 0.0
vn -1.0 0.0 0.0
vn -1.0 0.0 0.0
vn -1.0 0.0 0.0
vn -1.0 0.0 0.0
vn -1.0 0.0 0.0
vn 0.0 1.0 0.0
vn 0.0 1.0 0.0
vn 0.0 1.0 0.0
vn 0.0 1.0 0.0
vn 0.0 1.0 0.0
vn 0.0 1.0 0.0
vn 0.0 -1.0 0.0
vn 0.0 -1.0 0.0
vn 0.0 -1.0 0.0
vn 0.0 -1.0 0.0
vn 0.0 -1.0 0.0
vn 0.0 -1.0 0.0
vn 0.0 0.0 1.0
vn 0.0 0.0 1.0
vn 0.0 0.0 1.0
vn 0.0 0.0 1.0
vn 0.0 0.0 1.0
vn 0.0 0.0 1.0
vn 0.0 0.0 -1.0
vn 0.0 0.0 -1.0
vn 0.0 0.0 -1.0
vn 0.0 0.0 -1.0
vn 0.0 0.0 -1.0
vn 0.0 0.0 -1.0
vn 1.0 0.0 0.0
vn 1.0 0.0 0.0
vn 1.0 0.0 0.0
vn 1.0 0.0 0.0
vn 1.0 0.0 0.0
vn 1.0 0.0 0.0
vn -1.0 0.0 0.0
vn -1.0 0.0 0.0
vn -1.0 0.0 0.0
vn -1.0 0.0 0.0
vn -1.0 0.0 0.0
vn -1.0 0.0 0.0
vn 0.0 1.0 0.0
vn 0.0 1.0 0.0
vn 0.0 1.0 0.0
vn 0.0 1.0 0.0
vn 0.0 1.0 0.0
vn 0.0 1.0 0.0
vn 0.0 -1.0 0.0
vn 0.0 -1.0 0.0
vn 0.0 -1.0 0.0
vn 0.0 -1.0 0.0
vn 0.0 -1.0 0.0
vn 0.0 -1.0 0.0
vn 0.0 0.0 1.0
vn 0.0 0.0 1.0
vn 0.0 0.0 1.0
vn 0.0 0.0 1.0
vn 0.0 0.0 1.0
vn 0.0 0.0 1.0
vn 0.0 0.0 -1.0
vn 0.0 0.0 -1.0
vn 0.0 0.0 -1.0
vn 0.0 0.0 -1.0
vn 0.0 0.0 -1.0
vn 0.0 0.0 -1.0
g socket_step_01
usemtl MI_EBS_KHA_Strata
f 1/1/1 2/2/2 3/3/3
f 4/4/4 5/5/5 6/6/6
f 7/7/7 8/8/8 9/9/9
f 10/10/10 11/11/11 12/12/12
f 13/13/13 14/14/14 15/15/15
f 16/16/16 17/17/17 18/18/18
f 19/19/19 20/20/20 21/21/21
f 22/22/22 23/23/23 24/24/24
f 25/25/25 26/26/26 27/27/27
f 28/28/28 29/29/29 30/30/30
f 31/31/31 32/32/32 33/33/33
f 34/34/34 35/35/35 36/36/36
f 37/37/37 38/38/38 39/39/39
f 40/40/40 41/41/41 42/42/42
f 43/43/43 44/44/44 45/45/45
f 46/46/46 47/47/47 48/48/48
g socket_step_02
f 49/49/49 50/50/50 51/51/51
f 52/52/52 53/53/53 54/54/54
f 55/55/55 56/56/56 57/57/57
f 58/58/58 59/59/59 60/60/60
f 61/61/61 62/62/62 63/63/63
f 64/64/64 65/65/65 66/66/66
f 67/67/67 68/68/68 69/69/69
f 70/70/70 71/71/71 72/72/72
f 73/73/73 74/74/74 75/75/75
f 76/76/76 77/77/77 78/78/78
f 79/79/79 80/80/80 81/81/81
f 82/82/82 83/83/83 84/84/84
f 85/85/85 86/86/86 87/87/87
g socket_step_03
f 88/88/88 89/89/89 90/90/90
f 91/91/91 92/92/92 93/93/93
f 94/94/94 95/95/95 96/96/96
f 97/97/97 98/98/98 99/99/99
f 100/100/100 101/101/101 102/102/102
f 103/103/103 104/104/104 105/105/105
f 106/106/106 107/107/107 108/108/108
f 109/109/109 110/110/110 111/111/111
f 112/112/112 113/113/113 114/114/114
f 115/115/115 116/116/116 117/117/117
f 118/118/118 119/119/119 120/120/120
f 121/121/121 122/122/122 123/123/123
f 124/124/124 125/125/125 126/126/126
g root_01
f 127/127/127 128/128/128 129/129/129
f 130/130/130 131/131/131 132/132/132
f 133/133/133 134/134/134 135/135/135
f 136/136/136 137/137/137 138/138/138
f 139/139/139 140/140/140 141/141/141
f 142/142/142 143/143/143 144/144/144
f 145/145/145 146/146/146 147/147/147
f 148/148/148 149/149/149 150/150/150
f 151/151/151 152/152/152 153/153/153
f 154/154/154 155/155/155 156/156/156
f 157/157/157 158/158/158 159/159/159
f 160/160/160 161/161/161 162/162/162
g root_02
f 163/163/163 164/164/164 165/165/165
f 166/166/166 167/167/167 168/168/168
f 169/169/169 170/170/170 171/171/171
f 172/172/172 173/173/173 174/174/174
f 175/175/175 176/176/176 177/177/177
f 178/178/178 179/179/179 180/180/180
f 181/181/181 182/182/182 183/183/183
f 184/184/184 185/185/185 186/186/186
f 187/187/187 188/188/188 189/189/189
f 190/190/190 191/191/191 192/192/192
f 193/193/193 194/194/194 195/195/195
f 196/196/196 197/197/197 198/198/198
g root_03
f 199/199/199 200/200/200 201/201/201
f 202/202/202 203/203/203 204/204/204
f 205/205/205 206/206/206 207/207/207
f 208/208/208 209/209/209 210/210/210
f 211/211/211 212/212/212 213/213/213
f 214/214/214 215/215/215 216/216/216
f 217/217/217 218/218/218 219/219/219
f 220/220/220 221/221/221 222/222/222
f 223/223/223 224/224/224 225/225/225
f 226/226/226 227/227/227 228/228/228
f 229/229/229 230/230/230 231/231/231
f 232/232/232 233/233/233 234/234/234
g root_04
f 235/235/235 236/236/236 237/237/237
f 238/238/238 239/239/239 240/240/240
f 241/241/241 242/242/242 243/243/243
f 244/244/244 245/245/245 246/246/246
f 247/247/247 248/248/248 249/249/249
f 250/250/250 251/251/251 252/252/252
f 253/253/253 254/254/254 255/255/255
f 256/256/256 257/257/257 258/258/258
f 259/259/259 260/260/260 261/261/261
f 262/262/262 263/263/263 264/264/264
f 265/265/265 266/266/266 267/267/267
f 268/268/268 269/269/269 270/270/270
g root_05
f 271/271/271 272/272/272 273/273/273
f 274/274/274 275/275/275 276/276/276
f 277/277/277 278/278/278 279/279/279
f 280/280/280 281/281/281 282/282/282
f 283/283/283 284/284/284 285/285/285
f 286/286/286 287/287/287 288/288/288
f 289/289/289 290/290/290 291/291/291
f 292/292/292 293/293/293 294/294/294
f 295/295/295 296/296/296 297/297/297
f 298/298/298 299/299/299 300/300/300
f 301/301/301 302/302/302 303/303/303
f 304/304/304 305/305/305 306/306/306
g rib_course_01
f 307/307/307 308/308/308 309/309/309
f 310/310/310 311/311/311 312/312/312
f 313/313/313 314/314/314 315/315/315
f 316/316/316 317/317/317 318/318/318
f 319/319/319 320/320/320 321/321/321
f 322/322/322 323/323/323 324/324/324
f 325/325/325 326/326/326 327/327/327
f 328/328/328 329/329/329 330/330/330
f 331/331/331 332/332/332 333/333/333
f 334/334/334 335/335/335 336/336/336
f 337/337/337 338/338/338 339/339/339
f 340/340/340 341/341/341 342/342/342
f 343/343/343 344/344/344 345/345/345
g rib_course_02
f 346/346/346 347/347/347 348/348/348
f 349/349/349 350/350/350 351/351/351
f 352/352/352 353/353/353 354/354/354
f 355/355/355 356/356/356 357/357/357
f 358/358/358 359/359/359 360/360/360
f 361/361/361 362/362/362 363/363/363
f 364/364/364 365/365/365 366/366/366
f 367/367/367 368/368/368 369/369/369
f 370/370/370 371/371/371 372/372/372
f 373/373/373 374/374/374 375/375/375
g rib_course_03
f 376/376/376 377/377/377 378/378/378
f 379/379/379 380/380/380 381/381/381
f 382/382/382 383/383/383 384/384/384
f 385/385/385 386/386/386 387/387/387
f 388/388/388 389/389/389 390/390/390
f 391/391/391 392/392/392 393/393/393
f 394/394/394 395/395/395 396/396/396
f 397/397/397 398/398/398 399/399/399
f 400/400/400 401/401/401 402/402/402
f 403/403/403 404/404/404 405/405/405
g rib_course_04
f 406/406/406 407/407/407 408/408/408
f 409/409/409 410/410/410 411/411/411
f 412/412/412 413/413/413 414/414/414
f 415/415/415 416/416/416 417/417/417
f 418/418/418 419/419/419 420/420/420
f 421/421/421 422/422/422 423/423/423
f 424/424/424 425/425/425 426/426/426
f 427/427/427 428/428/428 429/429/429
f 430/430/430 431/431/431 432/432/432
f 433/433/433 434/434/434 435/435/435
g rib_course_05
f 436/436/436 437/437/437 438/438/438
f 439/439/439 440/440/440 441/441/441
f 442/442/442 443/443/443 444/444/444
f 445/445/445 446/446/446 447/447/447
f 448/448/448 449/449/449 450/450/450
f 451/451/451 452/452/452 453/453/453
f 454/454/454 455/455/455 456/456/456
f 457/457/457 458/458/458 459/459/459
f 460/460/460 461/461/461 462/462/462
f 463/463/463 464/464/464 465/465/465
g rib_tip
f 466/466/466 467/467/467 468/468/468
f 469/469/469 470/470/470 471/471/471
f 472/472/472 473/473/473 474/474/474
f 475/475/475 476/476/476 477/477/477
f 478/478/478 479/479/479 480/480/480
g nodule_01
f 481/481/481 482/482/482 483/483/483
f 484/484/484 485/485/485 486/486/486
f 487/487/487 488/488/488 489/489/489
f 490/490/490 491/491/491 492/492/492
f 493/493/493 494/494/494 495/495/495
f 496/496/496 497/497/497 498/498/498
f 499/499/499 500/500/500 501/501/501
f 502/502/502 503/503/503 504/504/504
f 505/505/505 506/506/506 507/507/507
f 508/508/508 509/509/509 510/510/510
f 511/511/511 512/512/512 513/513/513
f 514/514/514 515/515/515 516/516/516
g nodule_02
f 517/517/517 518/518/518 519/519/519
f 520/520/520 521/521/521 522/522/522
f 523/523/523 524/524/524 525/525/525
f 526/526/526 527/527/527 528/528/528
f 529/529/529 530/530/530 531/531/531
f 532/532/532 533/533/533 534/534/534
f 535/535/535 536/536/536 537/537/537
f 538/538/538 539/539/539 540/540/540
f 541/541/541 542/542/542 543/543/543
f 544/544/544 545/545/545 546/546/546
f 547/547/547 548/548/548 549/549/549
f 550/550/550 551/551/551 552/552/552
g nodule_03
f 553/553/553 554/554/554 555/555/555
f 556/556/556 557/557/557 558/558/558
f 559/559/559 560/560/560 561/561/561
f 562/562/562 563/563/563 564/564/564
f 565/565/565 566/566/566 567/567/567
f 568/568/568 569/569/569 570/570/570
f 571/571/571 572/572/572 573/573/573
f 574/574/574 575/575/575 576/576/576
f 577/577/577 578/578/578 579/579/579
f 580/580/580 581/581/581 582/582/582
f 583/583/583 584/584/584 585/585/585
f 586/586/586 587/587/587 588/588/588
g nodule_04
f 589/589/589 590/590/590 591/591/591
f 592/592/592 593/593/593 594/594/594
f 595/595/595 596/596/596 597/597/597
f 598/598/598 599/599/599 600/600/600
f 601/601/601 602/602/602 603/603/603
f 604/604/604 605/605/605 606/606/606
f 607/607/607 608/608/608 609/609/609
f 610/610/610 611/611/611 612/612/612
f 613/613/613 614/614/614 615/615/615
f 616/616/616 617/617/617 618/618/618
f 619/619/619 620/620/620 621/621/621
f 622/622/622 623/623/623 624/624/624
g nodule_05
f 625/625/625 626/626/626 627/627/627
f 628/628/628 629/629/629 630/630/630
f 631/631/631 632/632/632 633/633/633
f 634/634/634 635/635/635 636/636/636
f 637/637/637 638/638/638 639/639/639
f 640/640/640 641/641/641 642/642/642
f 643/643/643 644/644/644 645/645/645
f 646/646/646 647/647/647 648/648/648
f 649/649/649 650/650/650 651/651/651
f 652/652/652 653/653/653 654/654/654
f 655/655/655 656/656/656 657/657/657
f 658/658/658 659/659/659 660/660/660
g nodule_06
f 661/661/661 662/662/662 663/663/663
f 664/664/664 665/665/665 666/666/666
f 667/667/667 668/668/668 669/669/669
f 670/670/670 671/671/671 672/672/672
f 673/673/673 674/674/674 675/675/675
f 676/676/676 677/677/677 678/678/678
f 679/679/679 680/680/680 681/681/681
f 682/682/682 683/683/683 684/684/684
f 685/685/685 686/686/686 687/687/687
f 688/688/688 689/689/689 690/690/690
f 691/691/691 692/692/692 693/693/693
f 694/694/694 695/695/695 696/696/696
g nodule_07
f 697/697/697 698/698/698 699/699/699
f 700/700/700 701/701/701 702/702/702
f 703/703/703 704/704/704 705/705/705
f 706/706/706 707/707/707 708/708/708
f 709/709/709 710/710/710 711/711/711
f 712/712/712 713/713/713 714/714/714
f 715/715/715 716/716/716 717/717/717
f 718/718/718 719/719/719 720/720/720
f 721/721/721 722/722/722 723/723/723
f 724/724/724 725/725/725 726/726/726
f 727/727/727 728/728/728 729/729/729
f 730/730/730 731/731/731 732/732/732
g nodule_08
f 733/733/733 734/734/734 735/735/735
f 736/736/736 737/737/737 738/738/738
f 739/739/739 740/740/740 741/741/741
f 742/742/742 743/743/743 744/744/744
f 745/745/745 746/746/746 747/747/747
f 748/748/748 749/749/749 750/750/750
f 751/751/751 752/752/752 753/753/753
f 754/754/754 755/755/755 756/756/756
f 757/757/757 758/758/758 759/759/759
f 760/760/760 761/761/761 762/762/762
f 763/763/763 764/764/764 765/765/765
f 766/766/766 767/767/767 768/768/768
g nodule_09
f 769/769/769 770/770/770 771/771/771
f 772/772/772 773/773/773 774/774/774
f 775/775/775 776/776/776 777/777/777
f 778/778/778 779/779/779 780/780/780
f 781/781/781 782/782/782 783/783/783
f 784/784/784 785/785/785 786/786/786
f 787/787/787 788/788/788 789/789/789
f 790/790/790 791/791/791 792/792/792
f 793/793/793 794/794/794 795/795/795
f 796/796/796 797/797/797 798/798/798
f 799/799/799 800/800/800 801/801/801
f 802/802/802 803/803/803 804/804/804
g nodule_10
f 805/805/805 806/806/806 807/807/807
f 808/808/808 809/809/809 810/810/810
f 811/811/811 812/812/812 813/813/813
f 814/814/814 815/815/815 816/816/816
f 817/817/817 818/818/818 819/819/819
f 820/820/820 821/821/821 822/822/822
f 823/823/823 824/824/824 825/825/825
f 826/826/826 827/827/827 828/828/828
f 829/829/829 830/830/830 831/831/831
f 832/832/832 833/833/833 834/834/834
f 835/835/835 836/836/836 837/837/837
f 838/838/838 839/839/839 840/840/840
g nodule_11
f 841/841/841 842/842/842 843/843/843
f 844/844/844 845/845/845 846/846/846
f 847/847/847 848/848/848 849/849/849
f 850/850/850 851/851/851 852/852/852
f 853/853/853 854/854/854 855/855/855
f 856/856/856 857/857/857 858/858/858
f 859/859/859 860/860/860 861/861/861
f 862/862/862 863/863/863 864/864/864
f 865/865/865 866/866/866 867/867/867
f 868/868/868 869/869/869 870/870/870
f 871/871/871 872/872/872 873/873/873
f 874/874/874 875/875/875 876/876/876
