# SK_EBS_KHA_UNT_002
# Author: Angelis Pseftis
# Frame: Unreal +X forward, +Y right, +Z up; centimeters; no axis conversion
# Kit: ebs-meshkit-v3
# SK_EBS_KHA_UNT_002 LOD1 rest pose (baseline)
# Revision ebs-kha-unt-002-concept-v2
# Unreal +X forward, +Y right, +Z up; centimetres
o SK_EBS_KHA_UNT_002
v -48.0 -39.0 147.0
v -48.0 39.0 147.0
v -48.0 39.0 201.0
v -48.0 -39.0 147.0
v -48.0 39.0 201.0
v -48.0 -39.0 201.0
v -140.0 -39.0 147.0
v -140.0 -39.0 201.0
v -140.0 39.0 201.0
v -140.0 -39.0 147.0
v -140.0 39.0 201.0
v -140.0 39.0 147.0
v -140.0 39.0 147.0
v -140.0 39.0 201.0
v -48.0 39.0 201.0
v -140.0 39.0 147.0
v -48.0 39.0 201.0
v -48.0 39.0 147.0
v -140.0 -39.0 147.0
v -48.0 -39.0 147.0
v -48.0 -39.0 201.0
v -140.0 -39.0 147.0
v -48.0 -39.0 201.0
v -140.0 -39.0 201.0
v -140.0 -39.0 201.0
v -48.0 -39.0 201.0
v -48.0 39.0 201.0
v -140.0 -39.0 201.0
v -48.0 39.0 201.0
v -140.0 39.0 201.0
v -140.0 -39.0 147.0
v -140.0 39.0 147.0
v -48.0 39.0 147.0
v -140.0 -39.0 147.0
v -48.0 39.0 147.0
v -48.0 -39.0 147.0
v -7.5 -35.685 146.875
v -7.5 35.685 146.875
v -7.5 35.685 197.375
v -7.5 -35.685 146.875
v -7.5 35.685 197.375
v -7.5 -35.685 197.375
v -95.5 -35.685 146.875
v -95.5 -35.685 197.375
v -95.5 35.685 197.375
v -95.5 -35.685 146.875
v -95.5 35.685 197.375
v -95.5 35.685 146.875
v -95.5 35.685 146.875
v -95.5 35.685 197.375
v -7.5 35.685 197.375
v -95.5 35.685 146.875
v -7.5 35.685 197.375
v -7.5 35.685 146.875
v -95.5 -35.685 146.875
v -7.5 -35.685 146.875
v -7.5 -35.685 197.375
v -95.5 -35.685 146.875
v -7.5 -35.685 197.375
v -95.5 -35.685 197.375
v -95.5 -35.685 197.375
v -7.5 -35.685 197.375
v -7.5 35.685 197.375
v -95.5 -35.685 197.375
v -7.5 35.685 197.375
v -95.5 35.685 197.375
v -95.5 -35.685 146.875
v -95.5 35.685 146.875
v -7.5 35.685 146.875
v -95.5 -35.685 146.875
v -7.5 35.685 146.875
v -7.5 -35.685 146.875
v 33.0 -32.37 143.0
v 33.0 32.37 143.0
v 33.0 32.37 190.0
v 33.0 -32.37 143.0
v 33.0 32.37 190.0
v 33.0 -32.37 190.0
v -51.0 -32.37 143.0
v -51.0 -32.37 190.0
v -51.0 32.37 190.0
v -51.0 -32.37 143.0
v -51.0 32.37 190.0
v -51.0 32.37 143.0
v -51.0 32.37 143.0
v -51.0 32.37 190.0
v 33.0 32.37 190.0
v -51.0 32.37 143.0
v 33.0 32.37 190.0
v 33.0 32.37 143.0
v -51.0 -32.37 143.0
v 33.0 -32.37 143.0
v 33.0 -32.37 190.0
v -51.0 -32.37 143.0
v 33.0 -32.37 190.0
v -51.0 -32.37 190.0
v -51.0 -32.37 190.0
v 33.0 -32.37 190.0
v 33.0 32.37 190.0
v -51.0 -32.37 190.0
v 33.0 32.37 190.0
v -51.0 32.37 190.0
v -51.0 -32.37 143.0
v -51.0 32.37 143.0
v 33.0 32.37 143.0
v -51.0 -32.37 143.0
v 33.0 32.37 143.0
v 33.0 -32.37 143.0
v 73.5 -29.055 135.375
v 73.5 29.055 135.375
v 73.5 29.055 178.875
v 73.5 -29.055 135.375
v 73.5 29.055 178.875
v 73.5 -29.055 178.875
v -6.5 -29.055 135.375
v -6.5 -29.055 178.875
v -6.5 29.055 178.875
v -6.5 -29.055 135.375
v -6.5 29.055 178.875
v -6.5 29.055 135.375
v -6.5 29.055 135.375
v -6.5 29.055 178.875
v 73.5 29.055 178.875
v -6.5 29.055 135.375
v 73.5 29.055 178.875
v 73.5 29.055 135.375
v -6.5 -29.055 135.375
v 73.5 -29.055 135.375
v 73.5 -29.055 178.875
v -6.5 -29.055 135.375
v 73.5 -29.055 178.875
v -6.5 -29.055 178.875
v -6.5 -29.055 178.875
v 73.5 -29.055 178.875
v 73.5 29.055 178.875
v -6.5 -29.055 178.875
v 73.5 29.055 178.875
v -6.5 29.055 178.875
v -6.5 -29.055 135.375
v -6.5 29.055 135.375
v 73.5 29.055 135.375
v -6.5 -29.055 135.375
v 73.5 29.055 135.375
v 73.5 -29.055 135.375
v 114.0 -25.74 124.0
v 114.0 25.74 124.0
v 114.0 25.74 164.0
v 114.0 -25.74 124.0
v 114.0 25.74 164.0
v 114.0 -25.74 164.0
v 38.0 -25.74 124.0
v 38.0 -25.74 164.0
v 38.0 25.74 164.0
v 38.0 -25.74 124.0
v 38.0 25.74 164.0
v 38.0 25.74 124.0
v 38.0 25.74 124.0
v 38.0 25.74 164.0
v 114.0 25.74 164.0
v 38.0 25.74 124.0
v 114.0 25.74 164.0
v 114.0 25.74 124.0
v 38.0 -25.74 124.0
v 114.0 -25.74 124.0
v 114.0 -25.74 164.0
v 38.0 -25.74 124.0
v 114.0 -25.74 164.0
v 38.0 -25.74 164.0
v 38.0 -25.74 164.0
v 114.0 -25.74 164.0
v 114.0 25.74 164.0
v 38.0 -25.74 164.0
v 114.0 25.74 164.0
v 38.0 25.74 164.0
v 38.0 -25.74 124.0
v 38.0 25.74 124.0
v 114.0 25.74 124.0
v 38.0 -25.74 124.0
v 114.0 25.74 124.0
v 114.0 -25.74 124.0
v 82.0 -34.0 118.0
v 82.0 34.0 118.0
v 82.0 34.0 158.0
v 82.0 -34.0 118.0
v 82.0 34.0 158.0
v 82.0 -34.0 158.0
v -114.0 -34.0 118.0
v -114.0 -34.0 158.0
v -114.0 34.0 158.0
v -114.0 -34.0 118.0
v -114.0 34.0 158.0
v -114.0 34.0 118.0
v -114.0 34.0 118.0
v -114.0 34.0 158.0
v 82.0 34.0 158.0
v -114.0 34.0 118.0
v 82.0 34.0 158.0
v 82.0 34.0 118.0
v -114.0 -34.0 118.0
v 82.0 -34.0 118.0
v 82.0 -34.0 158.0
v -114.0 -34.0 118.0
v 82.0 -34.0 158.0
v -114.0 -34.0 158.0
v -114.0 -34.0 158.0
v 82.0 -34.0 158.0
v 82.0 34.0 158.0
v -114.0 -34.0 158.0
v 82.0 34.0 158.0
v -114.0 34.0 158.0
v -114.0 -34.0 118.0
v -114.0 34.0 118.0
v 82.0 34.0 118.0
v -114.0 -34.0 118.0
v 82.0 34.0 118.0
v 82.0 -34.0 118.0
v 146.0 0.0 128.0
v 44.0 -22.0 182.0
v 44.0 -36.0 154.0
v 146.0 0.0 128.0
v 44.0 22.0 182.0
v 44.0 -22.0 182.0
v 146.0 0.0 128.0
v 44.0 36.0 154.0
v 44.0 22.0 182.0
v 146.0 0.0 128.0
v 44.0 22.0 128.0
v 44.0 36.0 154.0
v 146.0 0.0 128.0
v 44.0 -22.0 128.0
v 44.0 22.0 128.0
v 146.0 0.0 128.0
v 44.0 -36.0 154.0
v 44.0 -22.0 128.0
v 44.0 -36.0 154.0
v 44.0 -22.0 182.0
v 44.0 22.0 182.0
v 44.0 -36.0 154.0
v 44.0 22.0 182.0
v 44.0 36.0 154.0
v 44.0 -36.0 154.0
v 44.0 36.0 154.0
v 44.0 22.0 128.0
v 44.0 -36.0 154.0
v 44.0 22.0 128.0
v 44.0 -22.0 128.0
v 83.0 -21.0 161.0
v 83.0 21.0 161.0
v 83.0 21.0 191.0
v 83.0 -21.0 161.0
v 83.0 21.0 191.0
v 83.0 -21.0 191.0
v 9.0 -21.0 161.0
v 9.0 -21.0 191.0
v 9.0 21.0 191.0
v 9.0 -21.0 161.0
v 9.0 21.0 191.0
v 9.0 21.0 161.0
v 9.0 21.0 161.0
v 9.0 21.0 191.0
v 83.0 21.0 191.0
v 9.0 21.0 161.0
v 83.0 21.0 191.0
v 83.0 21.0 161.0
v 9.0 -21.0 161.0
v 83.0 -21.0 161.0
v 83.0 -21.0 191.0
v 9.0 -21.0 161.0
v 83.0 -21.0 191.0
v 9.0 -21.0 191.0
v 9.0 -21.0 191.0
v 83.0 -21.0 191.0
v 83.0 21.0 191.0
v 9.0 -21.0 191.0
v 83.0 21.0 191.0
v 9.0 21.0 191.0
v 9.0 -21.0 161.0
v 9.0 21.0 161.0
v 83.0 21.0 161.0
v 9.0 -21.0 161.0
v 83.0 21.0 161.0
v 83.0 -21.0 161.0
v 84.0 -8.0 171.5
v 84.0 8.0 171.5
v 84.0 8.0 180.5
v 84.0 -8.0 171.5
v 84.0 8.0 180.5
v 84.0 -8.0 180.5
v 76.0 -8.0 171.5
v 76.0 -8.0 180.5
v 76.0 8.0 180.5
v 76.0 -8.0 171.5
v 76.0 8.0 180.5
v 76.0 8.0 171.5
v 76.0 8.0 171.5
v 76.0 8.0 180.5
v 84.0 8.0 180.5
v 76.0 8.0 171.5
v 84.0 8.0 180.5
v 84.0 8.0 171.5
v 76.0 -8.0 171.5
v 84.0 -8.0 171.5
v 84.0 -8.0 180.5
v 76.0 -8.0 171.5
v 84.0 -8.0 180.5
v 76.0 -8.0 180.5
v 76.0 -8.0 180.5
v 84.0 -8.0 180.5
v 84.0 8.0 180.5
v 76.0 -8.0 180.5
v 84.0 8.0 180.5
v 76.0 8.0 180.5
v 76.0 -8.0 171.5
v 76.0 8.0 171.5
v 84.0 8.0 171.5
v 76.0 -8.0 171.5
v 84.0 8.0 171.5
v 84.0 -8.0 171.5
v 51.0 -59.0 127.0
v 51.0 -33.0 127.0
v 51.0 -33.0 161.0
v 51.0 -59.0 127.0
v 51.0 -33.0 161.0
v 51.0 -59.0 161.0
v 17.0 -59.0 127.0
v 17.0 -59.0 161.0
v 17.0 -33.0 161.0
v 17.0 -59.0 127.0
v 17.0 -33.0 161.0
v 17.0 -33.0 127.0
v 17.0 -33.0 127.0
v 17.0 -33.0 161.0
v 51.0 -33.0 161.0
v 17.0 -33.0 127.0
v 51.0 -33.0 161.0
v 51.0 -33.0 127.0
v 17.0 -59.0 127.0
v 51.0 -59.0 127.0
v 51.0 -59.0 161.0
v 17.0 -59.0 127.0
v 51.0 -59.0 161.0
v 17.0 -59.0 161.0
v 17.0 -59.0 161.0
v 51.0 -59.0 161.0
v 51.0 -33.0 161.0
v 17.0 -59.0 161.0
v 51.0 -33.0 161.0
v 17.0 -33.0 161.0
v 17.0 -59.0 127.0
v 17.0 -33.0 127.0
v 51.0 -33.0 127.0
v 17.0 -59.0 127.0
v 51.0 -33.0 127.0
v 51.0 -59.0 127.0
v 46.7485 -38.0959 144.0
v 32.935 -44.2822 158.8632
v 63.935 -94.2822 166.8632
v 46.7485 -38.0959 144.0
v 63.935 -94.2822 166.8632
v 77.7485 -88.0959 152.0
v 32.935 -44.2822 158.8632
v 21.2515 -53.9041 144.0
v 52.2515 -103.9041 152.0
v 32.935 -44.2822 158.8632
v 52.2515 -103.9041 152.0
v 63.935 -94.2822 166.8632
v 21.2515 -53.9041 144.0
v 35.065 -47.7178 129.1368
v 66.065 -97.7178 137.1368
v 21.2515 -53.9041 144.0
v 66.065 -97.7178 137.1368
v 52.2515 -103.9041 152.0
v 35.065 -47.7178 129.1368
v 46.7485 -38.0959 144.0
v 77.7485 -88.0959 152.0
v 35.065 -47.7178 129.1368
v 77.7485 -88.0959 152.0
v 66.065 -97.7178 137.1368
v 35.065 -47.7178 129.1368
v 21.2515 -53.9041 144.0
v 32.935 -44.2822 158.8632
v 35.065 -47.7178 129.1368
v 32.935 -44.2822 158.8632
v 46.7485 -38.0959 144.0
v 77.7485 -88.0959 152.0
v 63.935 -94.2822 166.8632
v 52.2515 -103.9041 152.0
v 77.7485 -88.0959 152.0
v 52.2515 -103.9041 152.0
v 66.065 -97.7178 137.1368
v 80.0 -109.0 138.0
v 80.0 -83.0 138.0
v 80.0 -83.0 166.0
v 80.0 -109.0 138.0
v 80.0 -83.0 166.0
v 80.0 -109.0 166.0
v 50.0 -109.0 138.0
v 50.0 -109.0 166.0
v 50.0 -83.0 166.0
v 50.0 -109.0 138.0
v 50.0 -83.0 166.0
v 50.0 -83.0 138.0
v 50.0 -83.0 138.0
v 50.0 -83.0 166.0
v 80.0 -83.0 166.0
v 50.0 -83.0 138.0
v 80.0 -83.0 166.0
v 80.0 -83.0 138.0
v 50.0 -109.0 138.0
v 80.0 -109.0 138.0
v 80.0 -109.0 166.0
v 50.0 -109.0 138.0
v 80.0 -109.0 166.0
v 50.0 -109.0 166.0
v 50.0 -109.0 166.0
v 80.0 -109.0 166.0
v 80.0 -83.0 166.0
v 50.0 -109.0 166.0
v 80.0 -83.0 166.0
v 50.0 -83.0 166.0
v 50.0 -109.0 138.0
v 50.0 -83.0 138.0
v 80.0 -83.0 138.0
v 50.0 -109.0 138.0
v 80.0 -83.0 138.0
v 80.0 -109.0 138.0
v 65.0 -85.1639 153.892
v 75.6905 -96.4457 154.5524
v 106.6905 -74.4457 28.5524
v 65.0 -85.1639 153.892
v 106.6905 -74.4457 28.5524
v 96.0 -63.1639 27.892
v 75.6905 -96.4457 154.5524
v 65.0 -106.8361 150.108
v 96.0 -84.8361 24.108
v 75.6905 -96.4457 154.5524
v 96.0 -84.8361 24.108
v 106.6905 -74.4457 28.5524
v 65.0 -106.8361 150.108
v 54.3095 -95.5543 149.4476
v 85.3095 -73.5543 23.4476
v 65.0 -106.8361 150.108
v 85.3095 -73.5543 23.4476
v 96.0 -84.8361 24.108
v 54.3095 -95.5543 149.4476
v 65.0 -85.1639 153.892
v 96.0 -63.1639 27.892
v 54.3095 -95.5543 149.4476
v 96.0 -63.1639 27.892
v 85.3095 -73.5543 23.4476
v 54.3095 -95.5543 149.4476
v 65.0 -106.8361 150.108
v 75.6905 -96.4457 154.5524
v 54.3095 -95.5543 149.4476
v 75.6905 -96.4457 154.5524
v 65.0 -85.1639 153.892
v 96.0 -63.1639 27.892
v 106.6905 -74.4457 28.5524
v 96.0 -84.8361 24.108
v 96.0 -63.1639 27.892
v 96.0 -84.8361 24.108
v 85.3095 -73.5543 23.4476
v 96.0 -66.0 26.0
v 101.032 -74.0 32.2193
v 123.032 -74.0 14.4193
v 96.0 -66.0 26.0
v 123.032 -74.0 14.4193
v 118.0 -66.0 8.2
v 101.032 -74.0 32.2193
v 96.0 -82.0 26.0
v 118.0 -82.0 8.2
v 101.032 -74.0 32.2193
v 118.0 -82.0 8.2
v 123.032 -74.0 14.4193
v 96.0 -82.0 26.0
v 90.968 -74.0 19.7807
v 112.968 -74.0 1.9807
v 96.0 -82.0 26.0
v 112.968 -74.0 1.9807
v 118.0 -82.0 8.2
v 90.968 -74.0 19.7807
v 96.0 -66.0 26.0
v 118.0 -66.0 8.2
v 90.968 -74.0 19.7807
v 118.0 -66.0 8.2
v 112.968 -74.0 1.9807
v 90.968 -74.0 19.7807
v 96.0 -82.0 26.0
v 101.032 -74.0 32.2193
v 90.968 -74.0 19.7807
v 101.032 -74.0 32.2193
v 96.0 -66.0 26.0
v 118.0 -66.0 8.2
v 123.032 -74.0 14.4193
v 118.0 -82.0 8.2
v 118.0 -66.0 8.2
v 118.0 -82.0 8.2
v 112.968 -74.0 1.9807
v 51.0 33.0 127.0
v 51.0 59.0 127.0
v 51.0 59.0 161.0
v 51.0 33.0 127.0
v 51.0 59.0 161.0
v 51.0 33.0 161.0
v 17.0 33.0 127.0
v 17.0 33.0 161.0
v 17.0 59.0 161.0
v 17.0 33.0 127.0
v 17.0 59.0 161.0
v 17.0 59.0 127.0
v 17.0 59.0 127.0
v 17.0 59.0 161.0
v 51.0 59.0 161.0
v 17.0 59.0 127.0
v 51.0 59.0 161.0
v 51.0 59.0 127.0
v 17.0 33.0 127.0
v 51.0 33.0 127.0
v 51.0 33.0 161.0
v 17.0 33.0 127.0
v 51.0 33.0 161.0
v 17.0 33.0 161.0
v 17.0 33.0 161.0
v 51.0 33.0 161.0
v 51.0 59.0 161.0
v 17.0 33.0 161.0
v 51.0 59.0 161.0
v 17.0 59.0 161.0
v 17.0 33.0 127.0
v 17.0 59.0 127.0
v 51.0 59.0 127.0
v 17.0 33.0 127.0
v 51.0 59.0 127.0
v 51.0 33.0 127.0
v 21.2515 53.9041 144.0
v 32.935 44.2822 158.8632
v 63.935 94.2822 166.8632
v 21.2515 53.9041 144.0
v 63.935 94.2822 166.8632
v 52.2515 103.9041 152.0
v 32.935 44.2822 158.8632
v 46.7485 38.0959 144.0
v 77.7485 88.0959 152.0
v 32.935 44.2822 158.8632
v 77.7485 88.0959 152.0
v 63.935 94.2822 166.8632
v 46.7485 38.0959 144.0
v 35.065 47.7178 129.1368
v 66.065 97.7178 137.1368
v 46.7485 38.0959 144.0
v 66.065 97.7178 137.1368
v 77.7485 88.0959 152.0
v 35.065 47.7178 129.1368
v 21.2515 53.9041 144.0
v 52.2515 103.9041 152.0
v 35.065 47.7178 129.1368
v 52.2515 103.9041 152.0
v 66.065 97.7178 137.1368
v 35.065 47.7178 129.1368
v 46.7485 38.0959 144.0
v 32.935 44.2822 158.8632
v 35.065 47.7178 129.1368
v 32.935 44.2822 158.8632
v 21.2515 53.9041 144.0
v 52.2515 103.9041 152.0
v 63.935 94.2822 166.8632
v 77.7485 88.0959 152.0
v 52.2515 103.9041 152.0
v 77.7485 88.0959 152.0
v 66.065 97.7178 137.1368
v 80.0 83.0 138.0
v 80.0 109.0 138.0
v 80.0 109.0 166.0
v 80.0 83.0 138.0
v 80.0 109.0 166.0
v 80.0 83.0 166.0
v 50.0 83.0 138.0
v 50.0 83.0 166.0
v 50.0 109.0 166.0
v 50.0 83.0 138.0
v 50.0 109.0 166.0
v 50.0 109.0 138.0
v 50.0 109.0 138.0
v 50.0 109.0 166.0
v 80.0 109.0 166.0
v 50.0 109.0 138.0
v 80.0 109.0 166.0
v 80.0 109.0 138.0
v 50.0 83.0 138.0
v 80.0 83.0 138.0
v 80.0 83.0 166.0
v 50.0 83.0 138.0
v 80.0 83.0 166.0
v 50.0 83.0 166.0
v 50.0 83.0 166.0
v 80.0 83.0 166.0
v 80.0 109.0 166.0
v 50.0 83.0 166.0
v 80.0 109.0 166.0
v 50.0 109.0 166.0
v 50.0 83.0 138.0
v 50.0 109.0 138.0
v 80.0 109.0 138.0
v 50.0 83.0 138.0
v 80.0 109.0 138.0
v 80.0 83.0 138.0
v 65.0 106.8361 150.108
v 75.6905 96.4457 154.5524
v 106.6905 74.4457 28.5524
v 65.0 106.8361 150.108
v 106.6905 74.4457 28.5524
v 96.0 84.8361 24.108
v 75.6905 96.4457 154.5524
v 65.0 85.1639 153.892
v 96.0 63.1639 27.892
v 75.6905 96.4457 154.5524
v 96.0 63.1639 27.892
v 106.6905 74.4457 28.5524
v 65.0 85.1639 153.892
v 54.3095 95.5543 149.4476
v 85.3095 73.5543 23.4476
v 65.0 85.1639 153.892
v 85.3095 73.5543 23.4476
v 96.0 63.1639 27.892
v 54.3095 95.5543 149.4476
v 65.0 106.8361 150.108
v 96.0 84.8361 24.108
v 54.3095 95.5543 149.4476
v 96.0 84.8361 24.108
v 85.3095 73.5543 23.4476
v 54.3095 95.5543 149.4476
v 65.0 85.1639 153.892
v 75.6905 96.4457 154.5524
v 54.3095 95.5543 149.4476
v 75.6905 96.4457 154.5524
v 65.0 106.8361 150.108
v 96.0 84.8361 24.108
v 106.6905 74.4457 28.5524
v 96.0 63.1639 27.892
v 96.0 84.8361 24.108
v 96.0 63.1639 27.892
v 85.3095 73.5543 23.4476
v 96.0 82.0 26.0
v 101.032 74.0 32.2193
v 123.032 74.0 14.4193
v 96.0 82.0 26.0
v 123.032 74.0 14.4193
v 118.0 82.0 8.2
v 101.032 74.0 32.2193
v 96.0 66.0 26.0
v 118.0 66.0 8.2
v 101.032 74.0 32.2193
v 118.0 66.0 8.2
v 123.032 74.0 14.4193
v 96.0 66.0 26.0
v 90.968 74.0 19.7807
v 112.968 74.0 1.9807
v 96.0 66.0 26.0
v 112.968 74.0 1.9807
v 118.0 66.0 8.2
v 90.968 74.0 19.7807
v 96.0 82.0 26.0
v 118.0 82.0 8.2
v 90.968 74.0 19.7807
v 118.0 82.0 8.2
v 112.968 74.0 1.9807
v 90.968 74.0 19.7807
v 96.0 66.0 26.0
v 101.032 74.0 32.2193
v 90.968 74.0 19.7807
v 101.032 74.0 32.2193
v 96.0 82.0 26.0
v 118.0 82.0 8.2
v 123.032 74.0 14.4193
v 118.0 66.0 8.2
v 118.0 82.0 8.2
v 118.0 66.0 8.2
v 112.968 74.0 1.9807
v -53.0 -59.0 127.0
v -53.0 -33.0 127.0
v -53.0 -33.0 161.0
v -53.0 -59.0 127.0
v -53.0 -33.0 161.0
v -53.0 -59.0 161.0
v -87.0 -59.0 127.0
v -87.0 -59.0 161.0
v -87.0 -33.0 161.0
v -87.0 -59.0 127.0
v -87.0 -33.0 161.0
v -87.0 -33.0 127.0
v -87.0 -33.0 127.0
v -87.0 -33.0 161.0
v -53.0 -33.0 161.0
v -87.0 -33.0 127.0
v -53.0 -33.0 161.0
v -53.0 -33.0 127.0
v -87.0 -59.0 127.0
v -53.0 -59.0 127.0
v -53.0 -59.0 161.0
v -87.0 -59.0 127.0
v -53.0 -59.0 161.0
v -87.0 -59.0 161.0
v -87.0 -59.0 161.0
v -53.0 -59.0 161.0
v -53.0 -33.0 161.0
v -87.0 -59.0 161.0
v -53.0 -33.0 161.0
v -87.0 -33.0 161.0
v -87.0 -59.0 127.0
v -87.0 -33.0 127.0
v -53.0 -33.0 127.0
v -87.0 -59.0 127.0
v -53.0 -33.0 127.0
v -53.0 -59.0 127.0
v -57.7115 -54.6019 144.0
v -68.882 -44.4029 158.8728
v -103.882 -94.4029 166.8728
v -57.7115 -54.6019 144.0
v -103.882 -94.4029 166.8728
v -92.7115 -104.6019 152.0
v -68.882 -44.4029 158.8728
v -82.2885 -37.3981 144.0
v -117.2885 -87.3981 152.0
v -68.882 -44.4029 158.8728
v -117.2885 -87.3981 152.0
v -103.882 -94.4029 166.8728
v -82.2885 -37.3981 144.0
v -71.118 -47.5971 129.1272
v -106.118 -97.5971 137.1272
v -82.2885 -37.3981 144.0
v -106.118 -97.5971 137.1272
v -117.2885 -87.3981 152.0
v -71.118 -47.5971 129.1272
v -57.7115 -54.6019 144.0
v -92.7115 -104.6019 152.0
v -71.118 -47.5971 129.1272
v -92.7115 -104.6019 152.0
v -106.118 -97.5971 137.1272
v -71.118 -47.5971 129.1272
v -82.2885 -37.3981 144.0
v -68.882 -44.4029 158.8728
v -71.118 -47.5971 129.1272
v -68.882 -44.4029 158.8728
v -57.7115 -54.6019 144.0
v -92.7115 -104.6019 152.0
v -103.882 -94.4029 166.8728
v -117.2885 -87.3981 152.0
v -92.7115 -104.6019 152.0
v -117.2885 -87.3981 152.0
v -106.118 -97.5971 137.1272
v -90.0 -109.0 138.0
v -90.0 -83.0 138.0
v -90.0 -83.0 166.0
v -90.0 -109.0 138.0
v -90.0 -83.0 166.0
v -90.0 -109.0 166.0
v -120.0 -109.0 138.0
v -120.0 -109.0 166.0
v -120.0 -83.0 166.0
v -120.0 -109.0 138.0
v -120.0 -83.0 166.0
v -120.0 -83.0 138.0
v -120.0 -83.0 138.0
v -120.0 -83.0 166.0
v -90.0 -83.0 166.0
v -120.0 -83.0 138.0
v -90.0 -83.0 166.0
v -90.0 -83.0 138.0
v -120.0 -109.0 138.0
v -90.0 -109.0 138.0
v -90.0 -109.0 166.0
v -120.0 -109.0 138.0
v -90.0 -109.0 166.0
v -120.0 -109.0 166.0
v -120.0 -109.0 166.0
v -90.0 -109.0 166.0
v -90.0 -83.0 166.0
v -120.0 -109.0 166.0
v -90.0 -83.0 166.0
v -120.0 -83.0 166.0
v -120.0 -109.0 138.0
v -120.0 -83.0 138.0
v -90.0 -83.0 138.0
v -120.0 -109.0 138.0
v -90.0 -83.0 138.0
v -90.0 -109.0 138.0
v -105.0 -85.1639 153.892
v -94.3901 -95.5006 149.14
v -129.3901 -73.5006 23.14
v -105.0 -85.1639 153.892
v -129.3901 -73.5006 23.14
v -140.0 -63.1639 27.892
v -94.3901 -95.5006 149.14
v -105.0 -106.8361 150.108
v -140.0 -84.8361 24.108
v -94.3901 -95.5006 149.14
v -140.0 -84.8361 24.108
v -129.3901 -73.5006 23.14
v -105.0 -106.8361 150.108
v -115.6099 -96.4994 154.86
v -150.6099 -74.4994 28.86
v -105.0 -106.8361 150.108
v -150.6099 -74.4994 28.86
v -140.0 -84.8361 24.108
v -115.6099 -96.4994 154.86
v -105.0 -85.1639 153.892
v -140.0 -63.1639 27.892
v -115.6099 -96.4994 154.86
v -140.0 -63.1639 27.892
v -150.6099 -74.4994 28.86
v -115.6099 -96.4994 154.86
v -105.0 -106.8361 150.108
v -94.3901 -95.5006 149.14
v -115.6099 -96.4994 154.86
v -94.3901 -95.5006 149.14
v -105.0 -85.1639 153.892
v -140.0 -63.1639 27.892
v -129.3901 -73.5006 23.14
v -140.0 -84.8361 24.108
v -140.0 -63.1639 27.892
v -140.0 -84.8361 24.108
v -150.6099 -74.4994 28.86
v -140.0 -66.0 26.0
v -134.968 -74.0 32.2193
v -112.968 -74.0 14.4193
v -140.0 -66.0 26.0
v -112.968 -74.0 14.4193
v -118.0 -66.0 8.2
v -134.968 -74.0 32.2193
v -140.0 -82.0 26.0
v -118.0 -82.0 8.2
v -134.968 -74.0 32.2193
v -118.0 -82.0 8.2
v -112.968 -74.0 14.4193
v -140.0 -82.0 26.0
v -145.032 -74.0 19.7807
v -123.032 -74.0 1.9807
v -140.0 -82.0 26.0
v -123.032 -74.0 1.9807
v -118.0 -82.0 8.2
v -145.032 -74.0 19.7807
v -140.0 -66.0 26.0
v -118.0 -66.0 8.2
v -145.032 -74.0 19.7807
v -118.0 -66.0 8.2
v -123.032 -74.0 1.9807
v -145.032 -74.0 19.7807
v -140.0 -82.0 26.0
v -134.968 -74.0 32.2193
v -145.032 -74.0 19.7807
v -134.968 -74.0 32.2193
v -140.0 -66.0 26.0
v -118.0 -66.0 8.2
v -112.968 -74.0 14.4193
v -118.0 -82.0 8.2
v -118.0 -66.0 8.2
v -118.0 -82.0 8.2
v -123.032 -74.0 1.9807
v -53.0 33.0 127.0
v -53.0 59.0 127.0
v -53.0 59.0 161.0
v -53.0 33.0 127.0
v -53.0 59.0 161.0
v -53.0 33.0 161.0
v -87.0 33.0 127.0
v -87.0 33.0 161.0
v -87.0 59.0 161.0
v -87.0 33.0 127.0
v -87.0 59.0 161.0
v -87.0 59.0 127.0
v -87.0 59.0 127.0
v -87.0 59.0 161.0
v -53.0 59.0 161.0
v -87.0 59.0 127.0
v -53.0 59.0 161.0
v -53.0 59.0 127.0
v -87.0 33.0 127.0
v -53.0 33.0 127.0
v -53.0 33.0 161.0
v -87.0 33.0 127.0
v -53.0 33.0 161.0
v -87.0 33.0 161.0
v -87.0 33.0 161.0
v -53.0 33.0 161.0
v -53.0 59.0 161.0
v -87.0 33.0 161.0
v -53.0 59.0 161.0
v -87.0 59.0 161.0
v -87.0 33.0 127.0
v -87.0 59.0 127.0
v -53.0 59.0 127.0
v -87.0 33.0 127.0
v -53.0 59.0 127.0
v -53.0 33.0 127.0
v -82.2885 37.3981 144.0
v -68.882 44.4029 158.8728
v -103.882 94.4029 166.8728
v -82.2885 37.3981 144.0
v -103.882 94.4029 166.8728
v -117.2885 87.3981 152.0
v -68.882 44.4029 158.8728
v -57.7115 54.6019 144.0
v -92.7115 104.6019 152.0
v -68.882 44.4029 158.8728
v -92.7115 104.6019 152.0
v -103.882 94.4029 166.8728
v -57.7115 54.6019 144.0
v -71.118 47.5971 129.1272
v -106.118 97.5971 137.1272
v -57.7115 54.6019 144.0
v -106.118 97.5971 137.1272
v -92.7115 104.6019 152.0
v -71.118 47.5971 129.1272
v -82.2885 37.3981 144.0
v -117.2885 87.3981 152.0
v -71.118 47.5971 129.1272
v -117.2885 87.3981 152.0
v -106.118 97.5971 137.1272
v -71.118 47.5971 129.1272
v -57.7115 54.6019 144.0
v -68.882 44.4029 158.8728
v -71.118 47.5971 129.1272
v -68.882 44.4029 158.8728
v -82.2885 37.3981 144.0
v -117.2885 87.3981 152.0
v -103.882 94.4029 166.8728
v -92.7115 104.6019 152.0
v -117.2885 87.3981 152.0
v -92.7115 104.6019 152.0
v -106.118 97.5971 137.1272
v -90.0 83.0 138.0
v -90.0 109.0 138.0
v -90.0 109.0 166.0
v -90.0 83.0 138.0
v -90.0 109.0 166.0
v -90.0 83.0 166.0
v -120.0 83.0 138.0
v -120.0 83.0 166.0
v -120.0 109.0 166.0
v -120.0 83.0 138.0
v -120.0 109.0 166.0
v -120.0 109.0 138.0
v -120.0 109.0 138.0
v -120.0 109.0 166.0
v -90.0 109.0 166.0
v -120.0 109.0 138.0
v -90.0 109.0 166.0
v -90.0 109.0 138.0
v -120.0 83.0 138.0
v -90.0 83.0 138.0
v -90.0 83.0 166.0
v -120.0 83.0 138.0
v -90.0 83.0 166.0
v -120.0 83.0 166.0
v -120.0 83.0 166.0
v -90.0 83.0 166.0
v -90.0 109.0 166.0
v -120.0 83.0 166.0
v -90.0 109.0 166.0
v -120.0 109.0 166.0
v -120.0 83.0 138.0
v -120.0 109.0 138.0
v -90.0 109.0 138.0
v -120.0 83.0 138.0
v -90.0 109.0 138.0
v -90.0 83.0 138.0
v -105.0 106.8361 150.108
v -94.3901 95.5006 149.14
v -129.3901 73.5006 23.14
v -105.0 106.8361 150.108
v -129.3901 73.5006 23.14
v -140.0 84.8361 24.108
v -94.3901 95.5006 149.14
v -105.0 85.1639 153.892
v -140.0 63.1639 27.892
v -94.3901 95.5006 149.14
v -140.0 63.1639 27.892
v -129.3901 73.5006 23.14
v -105.0 85.1639 153.892
v -115.6099 96.4994 154.86
v -150.6099 74.4994 28.86
v -105.0 85.1639 153.892
v -150.6099 74.4994 28.86
v -140.0 63.1639 27.892
v -115.6099 96.4994 154.86
v -105.0 106.8361 150.108
v -140.0 84.8361 24.108
v -115.6099 96.4994 154.86
v -140.0 84.8361 24.108
v -150.6099 74.4994 28.86
v -115.6099 96.4994 154.86
v -105.0 85.1639 153.892
v -94.3901 95.5006 149.14
v -115.6099 96.4994 154.86
v -94.3901 95.5006 149.14
v -105.0 106.8361 150.108
v -140.0 84.8361 24.108
v -129.3901 73.5006 23.14
v -140.0 63.1639 27.892
v -140.0 84.8361 24.108
v -140.0 63.1639 27.892
v -150.6099 74.4994 28.86
v -140.0 82.0 26.0
v -134.968 74.0 32.2193
v -112.968 74.0 14.4193
v -140.0 82.0 26.0
v -112.968 74.0 14.4193
v -118.0 82.0 8.2
v -134.968 74.0 32.2193
v -140.0 66.0 26.0
v -118.0 66.0 8.2
v -134.968 74.0 32.2193
v -118.0 66.0 8.2
v -112.968 74.0 14.4193
v -140.0 66.0 26.0
v -145.032 74.0 19.7807
v -123.032 74.0 1.9807
v -140.0 66.0 26.0
v -123.032 74.0 1.9807
v -118.0 66.0 8.2
v -145.032 74.0 19.7807
v -140.0 82.0 26.0
v -118.0 82.0 8.2
v -145.032 74.0 19.7807
v -118.0 82.0 8.2
v -123.032 74.0 1.9807
v -145.032 74.0 19.7807
v -140.0 66.0 26.0
v -134.968 74.0 32.2193
v -145.032 74.0 19.7807
v -134.968 74.0 32.2193
v -140.0 82.0 26.0
v -118.0 82.0 8.2
v -112.968 74.0 14.4193
v -118.0 66.0 8.2
v -118.0 82.0 8.2
v -118.0 66.0 8.2
v -123.032 74.0 1.9807
vt 0.1582 0.4014
vt 0.0806 0.4014
vt 0.0806 0.4551
vt 0.1582 0.4014
vt 0.0806 0.4551
vt 0.1582 0.4551
vt 0.001 0.4014
vt 0.001 0.4551
vt 0.0786 0.4551
vt 0.001 0.4014
vt 0.0786 0.4551
vt 0.0786 0.4014
vt 0.9019 0.4614
vt 0.9019 0.5151
vt 0.9932 0.5151
vt 0.9019 0.4614
vt 0.9932 0.5151
vt 0.9932 0.4614
vt 0.8999 0.4614
vt 0.8086 0.4614
vt 0.8086 0.5151
vt 0.8999 0.4614
vt 0.8086 0.5151
vt 0.8999 0.5151
vt 0.1836 0.7334
vt 0.2749 0.7334
vt 0.2749 0.6558
vt 0.1836 0.7334
vt 0.2749 0.6558
vt 0.1836 0.6558
vt 0.1816 0.7334
vt 0.1816 0.6558
vt 0.0903 0.6558
vt 0.1816 0.7334
vt 0.0903 0.6558
vt 0.0903 0.7334
vt 0.1445 0.3491
vt 0.0737 0.3491
vt 0.0737 0.3994
vt 0.1445 0.3491
vt 0.0737 0.3994
vt 0.1445 0.3994
vt 0.001 0.3491
vt 0.001 0.3994
vt 0.0718 0.3994
vt 0.001 0.3491
vt 0.0718 0.3994
vt 0.0718 0.3491
vt 0.9097 0.4048
vt 0.9097 0.4551
vt 0.9971 0.4551
vt 0.9097 0.4048
vt 0.9971 0.4551
vt 0.9971 0.4048
vt 0.9077 0.4048
vt 0.8203 0.4048
vt 0.8203 0.4551
vt 0.9077 0.4048
vt 0.8203 0.4551
vt 0.9077 0.4551
vt 0.5371 0.7334
vt 0.6245 0.7334
vt 0.6245 0.6626
vt 0.5371 0.7334
vt 0.6245 0.6626
vt 0.5371 0.6626
vt 0.5352 0.7334
vt 0.5352 0.6626
vt 0.4478 0.6626
vt 0.5352 0.7334
vt 0.4478 0.6626
vt 0.4478 0.7334
vt 0.6035 0.3525
vt 0.5391 0.3525
vt 0.5391 0.3994
vt 0.6035 0.3525
vt 0.5391 0.3994
vt 0.6035 0.3994
vt 0.4727 0.3525
vt 0.4727 0.3994
vt 0.5371 0.3994
vt 0.4727 0.3525
vt 0.5371 0.3994
vt 0.5371 0.3525
vt 0.2319 0.3525
vt 0.2319 0.3994
vt 0.3154 0.3994
vt 0.2319 0.3525
vt 0.3154 0.3994
vt 0.3154 0.3525
vt 0.23 0.3525
vt 0.1465 0.3525
vt 0.1465 0.3994
vt 0.23 0.3525
vt 0.1465 0.3994
vt 0.23 0.3994
vt 0.4458 0.6494
vt 0.5293 0.6494
vt 0.5293 0.585
vt 0.4458 0.6494
vt 0.5293 0.585
vt 0.4458 0.585
vt 0.4438 0.6494
vt 0.4438 0.585
vt 0.3604 0.585
vt 0.4438 0.6494
vt 0.3604 0.585
vt 0.3604 0.6494
vt 0.2812 0.3037
vt 0.2236 0.3037
vt 0.2236 0.3472
vt 0.2812 0.3037
vt 0.2236 0.3472
vt 0.2812 0.3472
vt 0.1641 0.3037
vt 0.1641 0.3472
vt 0.2217 0.3472
vt 0.1641 0.3037
vt 0.2217 0.3472
vt 0.2217 0.3037
vt 0.0825 0.3037
vt 0.0825 0.3472
vt 0.1621 0.3472
vt 0.0825 0.3037
vt 0.1621 0.3472
vt 0.1621 0.3037
vt 0.0806 0.3037
vt 0.001 0.3037
vt 0.001 0.3472
vt 0.0806 0.3037
vt 0.001 0.3472
vt 0.0806 0.3472
vt 0.2642 0.5151
vt 0.3438 0.5151
vt 0.3438 0.4575
vt 0.2642 0.5151
vt 0.3438 0.4575
vt 0.2642 0.4575
vt 0.2622 0.5151
vt 0.2622 0.4575
vt 0.1826 0.4575
vt 0.2622 0.5151
vt 0.1826 0.4575
vt 0.1826 0.5151
vt 0.5957 0.2617
vt 0.5444 0.2617
vt 0.5444 0.3018
vt 0.5957 0.2617
vt 0.5444 0.3018
vt 0.5957 0.3018
vt 0.4912 0.2617
vt 0.4912 0.3018
vt 0.5425 0.3018
vt 0.4912 0.2617
vt 0.5425 0.3018
vt 0.5425 0.2617
vt 0.2749 0.2617
vt 0.2749 0.3018
vt 0.3506 0.3018
vt 0.2749 0.2617
vt 0.3506 0.3018
vt 0.3506 0.2617
vt 0.2729 0.2617
vt 0.1973 0.2617
vt 0.1973 0.3018
vt 0.2729 0.2617
vt 0.1973 0.3018
vt 0.2729 0.3018
vt 0.605 0.4551
vt 0.6807 0.4551
vt 0.6807 0.4038
vt 0.605 0.4551
vt 0.6807 0.4038
vt 0.605 0.4038
vt 0.603 0.4551
vt 0.603 0.4038
vt 0.5273 0.4038
vt 0.603 0.4551
vt 0.5273 0.4038
vt 0.5273 0.4551
vt 0.4893 0.2617
vt 0.4219 0.2617
vt 0.4219 0.3018
vt 0.4893 0.2617
vt 0.4219 0.3018
vt 0.4893 0.3018
vt 0.3525 0.2617
vt 0.3525 0.3018
vt 0.4199 0.3018
vt 0.3525 0.2617
vt 0.4199 0.3018
vt 0.4199 0.2617
vt 0.001 0.2617
vt 0.001 0.3018
vt 0.1953 0.3018
vt 0.001 0.2617
vt 0.1953 0.3018
vt 0.1953 0.2617
vt 0.9258 0.3071
vt 0.7314 0.3071
vt 0.7314 0.3472
vt 0.9258 0.3071
vt 0.7314 0.3472
vt 0.9258 0.3472
vt 0.001 0.6494
vt 0.1953 0.6494
vt 0.1953 0.582
vt 0.001 0.6494
vt 0.1953 0.582
vt 0.001 0.582
vt 0.8208 0.7334
vt 0.8208 0.666
vt 0.6265 0.666
vt 0.8208 0.7334
vt 0.6265 0.666
vt 0.6265 0.7334
vt 0.2295 0.521
vt 0.3299 0.5801
vt 0.3359 0.5494
vt 0.6519 0.7505
vt 0.6299 0.8647
vt 0.6738 0.8647
vt 0.4443 0.521
vt 0.3379 0.5494
vt 0.3439 0.5801
vt 0.2158 0.1611
vt 0.1123 0.1611
vt 0.1094 0.1904
vt 0.8516 0.3774
vt 0.9526 0.3994
vt 0.9526 0.3555
vt 0.001 0.1611
vt 0.1074 0.1904
vt 0.1045 0.1611
vt 0.1602 0.4272
vt 0.174 0.4551
vt 0.2176 0.4551
vt 0.1602 0.4272
vt 0.2176 0.4551
vt 0.2314 0.4272
vt 0.1602 0.4272
vt 0.2314 0.4272
vt 0.2176 0.4014
vt 0.1602 0.4272
vt 0.2176 0.4014
vt 0.174 0.4014
vt 0.6558 0.1943
vt 0.6138 0.1943
vt 0.6138 0.2241
vt 0.6558 0.1943
vt 0.6138 0.2241
vt 0.6558 0.2241
vt 0.5698 0.1943
vt 0.5698 0.2241
vt 0.6118 0.2241
vt 0.5698 0.1943
vt 0.6118 0.2241
vt 0.6118 0.1943
vt 0.4507 0.1943
vt 0.4507 0.2241
vt 0.5239 0.2241
vt 0.4507 0.1943
vt 0.5239 0.2241
vt 0.5239 0.1943
vt 0.4487 0.1943
vt 0.3755 0.1943
vt 0.3755 0.2241
vt 0.4487 0.1943
vt 0.3755 0.2241
vt 0.4487 0.2241
vt 0.541 0.3472
vt 0.6143 0.3472
vt 0.6143 0.3052
vt 0.541 0.3472
vt 0.6143 0.3052
vt 0.541 0.3052
vt 0.5391 0.3472
vt 0.5391 0.3052
vt 0.4658 0.3052
vt 0.5391 0.3472
vt 0.4658 0.3052
vt 0.4658 0.3472
vt 0.3857 0.0522
vt 0.3696 0.0522
vt 0.3696 0.0615
vt 0.3857 0.0522
vt 0.3696 0.0615
vt 0.3857 0.0615
vt 0.3516 0.0522
vt 0.3516 0.0615
vt 0.3677 0.0615
vt 0.3516 0.0522
vt 0.3677 0.0615
vt 0.3677 0.0522
vt 0.416 0.0522
vt 0.416 0.0615
vt 0.4243 0.0615
vt 0.416 0.0522
vt 0.4243 0.0615
vt 0.4243 0.0522
vt 0.4141 0.0522
vt 0.4058 0.0522
vt 0.4058 0.0615
vt 0.4141 0.0522
vt 0.4058 0.0615
vt 0.4141 0.0615
vt 0.8335 0.1035
vt 0.8418 0.1035
vt 0.8418 0.0874
vt 0.8335 0.1035
vt 0.8418 0.0874
vt 0.8335 0.0874
vt 0.8315 0.1035
vt 0.8315 0.0874
vt 0.8232 0.0874
vt 0.8315 0.1035
vt 0.8232 0.0874
vt 0.8232 0.1035
vt 0.9365 0.2681
vt 0.9106 0.2681
vt 0.9106 0.3018
vt 0.9365 0.2681
vt 0.9106 0.3018
vt 0.9365 0.3018
vt 0.8828 0.2681
vt 0.8828 0.3018
vt 0.9087 0.3018
vt 0.8828 0.2681
vt 0.9087 0.3018
vt 0.9087 0.2681
vt 0.6333 0.2681
vt 0.6333 0.3018
vt 0.667 0.3018
vt 0.6333 0.2681
vt 0.667 0.3018
vt 0.667 0.2681
vt 0.6313 0.2681
vt 0.5977 0.2681
vt 0.5977 0.3018
vt 0.6313 0.2681
vt 0.5977 0.3018
vt 0.6313 0.3018
vt 0.2036 0.1592
vt 0.2373 0.1592
vt 0.2373 0.1333
vt 0.2036 0.1592
vt 0.2373 0.1333
vt 0.2036 0.1333
vt 0.2017 0.1592
vt 0.2017 0.1333
vt 0.168 0.1333
vt 0.2017 0.1592
vt 0.168 0.1333
vt 0.168 0.1592
vt 0.7716 0.228
vt 0.7676 0.2487
vt 0.8256 0.2598
vt 0.7716 0.228
vt 0.8256 0.2598
vt 0.8296 0.2391
vt 0.7017 0.2487
vt 0.6977 0.228
vt 0.6396 0.2391
vt 0.7017 0.2487
vt 0.6396 0.2391
vt 0.6436 0.2598
vt 0.7656 0.2487
vt 0.7616 0.228
vt 0.7036 0.2391
vt 0.7656 0.2487
vt 0.7036 0.2391
vt 0.7076 0.2598
vt 0.8355 0.228
vt 0.8315 0.2487
vt 0.8896 0.2598
vt 0.8355 0.228
vt 0.8896 0.2598
vt 0.8936 0.2391
vt 0.7166 0.1943
vt 0.7017 0.2092
vt 0.7166 0.2241
vt 0.7166 0.1943
vt 0.7166 0.2241
vt 0.7314 0.2092
vt 0.7334 0.2092
vt 0.7483 0.2241
vt 0.7632 0.2092
vt 0.7334 0.2092
vt 0.7632 0.2092
vt 0.7483 0.1943
vt 0.9941 0.1626
vt 0.9683 0.1626
vt 0.9683 0.1904
vt 0.9941 0.1626
vt 0.9683 0.1904
vt 0.9941 0.1904
vt 0.9404 0.1626
vt 0.9404 0.1904
vt 0.9663 0.1904
vt 0.9404 0.1626
vt 0.9663 0.1904
vt 0.9663 0.1626
vt 0.7183 0.1626
vt 0.7183 0.1904
vt 0.748 0.1904
vt 0.7183 0.1626
vt 0.748 0.1904
vt 0.748 0.1626
vt 0.7163 0.1626
vt 0.6865 0.1626
vt 0.6865 0.1904
vt 0.7163 0.1626
vt 0.6865 0.1904
vt 0.7163 0.1904
vt 0.4849 0.1592
vt 0.5146 0.1592
vt 0.5146 0.1333
vt 0.4849 0.1592
vt 0.5146 0.1333
vt 0.4849 0.1333
vt 0.4829 0.1592
vt 0.4829 0.1333
vt 0.4531 0.1333
vt 0.4829 0.1592
vt 0.4531 0.1333
vt 0.4531 0.1592
vt 0.5166 0.9983
vt 0.5322 0.999
vt 0.5381 0.8688
vt 0.5166 0.9983
vt 0.5381 0.8688
vt 0.5225 0.8682
vt 0.0926 0.8647
vt 0.1074 0.8603
vt 0.07 0.7354
vt 0.0926 0.8647
vt 0.07 0.7354
vt 0.0552 0.7398
vt 0.499 0.999
vt 0.5146 0.9983
vt 0.5088 0.8682
vt 0.499 0.999
vt 0.5088 0.8682
vt 0.4932 0.8688
vt 0.001 0.8603
vt 0.0158 0.8647
vt 0.0532 0.7398
vt 0.001 0.8603
vt 0.0532 0.7398
vt 0.0384 0.7354
vt 0.0635 0.0925
vt 0.0742 0.1035
vt 0.085 0.0925
vt 0.0635 0.0925
vt 0.085 0.0925
vt 0.0742 0.0815
vt 0.0977 0.0815
vt 0.0869 0.0925
vt 0.0977 0.1035
vt 0.0977 0.0815
vt 0.0977 0.1035
vt 0.1084 0.0925
vt 0.3057 0.183
vt 0.3142 0.1904
vt 0.333 0.1691
vt 0.3057 0.183
vt 0.333 0.1691
vt 0.3244 0.1616
vt 0.2951 0.1904
vt 0.3037 0.183
vt 0.2849 0.1616
vt 0.2951 0.1904
vt 0.2849 0.1616
vt 0.2764 0.1691
vt 0.2365 0.1904
vt 0.2451 0.183
vt 0.2264 0.1616
vt 0.2365 0.1904
vt 0.2264 0.1616
vt 0.2178 0.1691
vt 0.2471 0.183
vt 0.2557 0.1904
vt 0.2744 0.1691
vt 0.2471 0.183
vt 0.2744 0.1691
vt 0.2658 0.1616
vt 0.6868 0.0874
vt 0.6787 0.0955
vt 0.6868 0.1035
vt 0.6868 0.0874
vt 0.6868 0.1035
vt 0.6948 0.0955
vt 0.6968 0.0955
vt 0.7048 0.1035
vt 0.7129 0.0955
vt 0.6968 0.0955
vt 0.7129 0.0955
vt 0.7048 0.0874
vt 0.9922 0.2681
vt 0.9663 0.2681
vt 0.9663 0.3018
vt 0.9922 0.2681
vt 0.9663 0.3018
vt 0.9922 0.3018
vt 0.9385 0.2681
vt 0.9385 0.3018
vt 0.9644 0.3018
vt 0.9385 0.2681
vt 0.9644 0.3018
vt 0.9644 0.2681
vt 0.7046 0.2681
vt 0.7046 0.3018
vt 0.7383 0.3018
vt 0.7046 0.2681
vt 0.7383 0.3018
vt 0.7383 0.2681
vt 0.7026 0.2681
vt 0.6689 0.2681
vt 0.6689 0.3018
vt 0.7026 0.2681
vt 0.6689 0.3018
vt 0.7026 0.3018
vt 0.2749 0.1592
vt 0.3086 0.1592
vt 0.3086 0.1333
vt 0.2749 0.1592
vt 0.3086 0.1333
vt 0.2749 0.1333
vt 0.2729 0.1592
vt 0.2729 0.1333
vt 0.2393 0.1333
vt 0.2729 0.1592
vt 0.2393 0.1333
vt 0.2393 0.1592
vt 0.8995 0.228
vt 0.8955 0.2487
vt 0.9535 0.2598
vt 0.8995 0.228
vt 0.9535 0.2598
vt 0.9575 0.2391
vt 0.127 0.213
vt 0.123 0.1924
vt 0.0649 0.2035
vt 0.127 0.213
vt 0.0649 0.2035
vt 0.0689 0.2241
vt 0.1909 0.213
vt 0.1869 0.1924
vt 0.1289 0.2035
vt 0.1909 0.213
vt 0.1289 0.2035
vt 0.1329 0.2241
vt 0.005 0.1924
vt 0.001 0.213
vt 0.059 0.2241
vt 0.005 0.1924
vt 0.059 0.2241
vt 0.063 0.2035
vt 0.78 0.1943
vt 0.7651 0.2092
vt 0.78 0.2241
vt 0.78 0.1943
vt 0.78 0.2241
vt 0.7949 0.2092
vt 0.7969 0.2092
vt 0.8118 0.2241
vt 0.8267 0.2092
vt 0.7969 0.2092
vt 0.8267 0.2092
vt 0.8118 0.1943
vt 0.0547 0.1313
vt 0.0288 0.1313
vt 0.0288 0.1592
vt 0.0547 0.1313
vt 0.0288 0.1592
vt 0.0547 0.1592
vt 0.001 0.1313
vt 0.001 0.1592
vt 0.0269 0.1592
vt 0.001 0.1313
vt 0.0269 0.1592
vt 0.0269 0.1313
vt 0.7817 0.1626
vt 0.7817 0.1904
vt 0.8115 0.1904
vt 0.7817 0.1626
vt 0.8115 0.1904
vt 0.8115 0.1626
vt 0.7798 0.1626
vt 0.75 0.1626
vt 0.75 0.1904
vt 0.7798 0.1626
vt 0.75 0.1904
vt 0.7798 0.1904
vt 0.6118 0.1592
vt 0.6416 0.1592
vt 0.6416 0.1333
vt 0.6118 0.1592
vt 0.6416 0.1333
vt 0.6118 0.1333
vt 0.6099 0.1592
vt 0.6099 0.1333
vt 0.5801 0.1333
vt 0.6099 0.1592
vt 0.5801 0.1333
vt 0.5801 0.1592
vt 0.1636 0.8603
vt 0.1784 0.8647
vt 0.2158 0.7398
vt 0.1636 0.8603
vt 0.2158 0.7398
vt 0.201 0.7354
vt 0.5693 0.999
vt 0.585 0.9983
vt 0.5791 0.8682
vt 0.5693 0.999
vt 0.5791 0.8682
vt 0.5635 0.8688
vt 0.1468 0.8647
vt 0.1616 0.8603
vt 0.1242 0.7354
vt 0.1468 0.8647
vt 0.1242 0.7354
vt 0.1094 0.7398
vt 0.54 0.9983
vt 0.5557 0.999
vt 0.5615 0.8688
vt 0.54 0.9983
vt 0.5615 0.8688
vt 0.5459 0.8682
vt 0.1104 0.0925
vt 0.1211 0.1035
vt 0.1318 0.0925
vt 0.1104 0.0925
vt 0.1318 0.0925
vt 0.1211 0.0815
vt 0.1445 0.0815
vt 0.1338 0.0925
vt 0.1445 0.1035
vt 0.1445 0.0815
vt 0.1445 0.1035
vt 0.1553 0.0925
vt 0.4229 0.183
vt 0.4314 0.1904
vt 0.4502 0.1691
vt 0.4229 0.183
vt 0.4502 0.1691
vt 0.4416 0.1616
vt 0.4123 0.1904
vt 0.4209 0.183
vt 0.4021 0.1616
vt 0.4123 0.1904
vt 0.4021 0.1616
vt 0.3936 0.1691
vt 0.3537 0.1904
vt 0.3623 0.183
vt 0.3435 0.1616
vt 0.3537 0.1904
vt 0.3435 0.1616
vt 0.335 0.1691
vt 0.3643 0.183
vt 0.3728 0.1904
vt 0.3916 0.1691
vt 0.3643 0.183
vt 0.3916 0.1691
vt 0.383 0.1616
vt 0.7229 0.0874
vt 0.7148 0.0955
vt 0.7229 0.1035
vt 0.7229 0.0874
vt 0.7229 0.1035
vt 0.731 0.0955
vt 0.7329 0.0955
vt 0.741 0.1035
vt 0.749 0.0955
vt 0.7329 0.0955
vt 0.749 0.0955
vt 0.741 0.0874
vt 0.0547 0.2261
vt 0.0288 0.2261
vt 0.0288 0.2598
vt 0.0547 0.2261
vt 0.0288 0.2598
vt 0.0547 0.2598
vt 0.001 0.2261
vt 0.001 0.2598
vt 0.0269 0.2598
vt 0.001 0.2261
vt 0.0269 0.2598
vt 0.0269 0.2261
vt 0.7759 0.2681
vt 0.7759 0.3018
vt 0.8096 0.3018
vt 0.7759 0.2681
vt 0.8096 0.3018
vt 0.8096 0.2681
vt 0.7739 0.2681
vt 0.7402 0.2681
vt 0.7402 0.3018
vt 0.7739 0.2681
vt 0.7402 0.3018
vt 0.7739 0.3018
vt 0.3462 0.1592
vt 0.3799 0.1592
vt 0.3799 0.1333
vt 0.3462 0.1592
vt 0.3799 0.1333
vt 0.3462 0.1333
vt 0.3442 0.1592
vt 0.3442 0.1333
vt 0.3105 0.1333
vt 0.3442 0.1592
vt 0.3105 0.1333
vt 0.3105 0.1592
vt 0.3139 0.2275
vt 0.3101 0.2485
vt 0.3702 0.2598
vt 0.3139 0.2275
vt 0.3702 0.2598
vt 0.374 0.2388
vt 0.2422 0.2485
vt 0.2383 0.2275
vt 0.1782 0.2388
vt 0.2422 0.2485
vt 0.1782 0.2388
vt 0.1821 0.2598
vt 0.1763 0.2485
vt 0.1724 0.2275
vt 0.1123 0.2388
vt 0.1763 0.2485
vt 0.1123 0.2388
vt 0.1161 0.2598
vt 0.248 0.2275
vt 0.2441 0.2485
vt 0.3043 0.2598
vt 0.248 0.2275
vt 0.3043 0.2598
vt 0.3081 0.2388
vt 0.8752 0.1943
vt 0.8604 0.2092
vt 0.8752 0.2241
vt 0.8752 0.1943
vt 0.8752 0.2241
vt 0.8901 0.2092
vt 0.8286 0.2092
vt 0.8435 0.2241
vt 0.8584 0.2092
vt 0.8286 0.2092
vt 0.8584 0.2092
vt 0.8435 0.1943
vt 0.1104 0.1313
vt 0.0845 0.1313
vt 0.0845 0.1592
vt 0.1104 0.1313
vt 0.0845 0.1592
vt 0.1104 0.1592
vt 0.0566 0.1313
vt 0.0566 0.1592
vt 0.0825 0.1592
vt 0.0566 0.1313
vt 0.0825 0.1592
vt 0.0825 0.1313
vt 0.8452 0.1626
vt 0.8452 0.1904
vt 0.875 0.1904
vt 0.8452 0.1626
vt 0.875 0.1904
vt 0.875 0.1626
vt 0.8433 0.1626
vt 0.8135 0.1626
vt 0.8135 0.1904
vt 0.8433 0.1626
vt 0.8135 0.1904
vt 0.8433 0.1904
vt 0.7388 0.1592
vt 0.7686 0.1592
vt 0.7686 0.1333
vt 0.7388 0.1592
vt 0.7686 0.1333
vt 0.7388 0.1333
vt 0.7368 0.1592
vt 0.7368 0.1333
vt 0.707 0.1333
vt 0.7368 0.1592
vt 0.707 0.1333
vt 0.707 0.1592
vt 0.829 0.999
vt 0.8438 0.9943
vt 0.8033 0.8691
vt 0.829 0.999
vt 0.8033 0.8691
vt 0.7886 0.8739
vt 0.0273 0.998
vt 0.043 0.999
vt 0.0518 0.8677
vt 0.0273 0.998
vt 0.0518 0.8677
vt 0.0361 0.8667
vt 0.7314 0.9943
vt 0.7462 0.999
vt 0.7866 0.8739
vt 0.7314 0.9943
vt 0.7866 0.8739
vt 0.7719 0.8691
vt 0.0097 0.999
vt 0.0254 0.998
vt 0.0166 0.8667
vt 0.0097 0.999
vt 0.0166 0.8667
vt 0.001 0.8677
vt 0.1807 0.0925
vt 0.1914 0.1035
vt 0.2021 0.0925
vt 0.1807 0.0925
vt 0.2021 0.0925
vt 0.1914 0.0815
vt 0.168 0.0815
vt 0.1572 0.0925
vt 0.168 0.1035
vt 0.168 0.0815
vt 0.168 0.1035
vt 0.1787 0.0925
vt 0.54 0.183
vt 0.5486 0.1904
vt 0.5674 0.1691
vt 0.54 0.183
vt 0.5674 0.1691
vt 0.5588 0.1616
vt 0.5295 0.1904
vt 0.5381 0.183
vt 0.5193 0.1616
vt 0.5295 0.1904
vt 0.5193 0.1616
vt 0.5107 0.1691
vt 0.4709 0.1904
vt 0.4795 0.183
vt 0.4607 0.1616
vt 0.4709 0.1904
vt 0.4607 0.1616
vt 0.4521 0.1691
vt 0.4814 0.183
vt 0.49 0.1904
vt 0.5088 0.1691
vt 0.4814 0.183
vt 0.5088 0.1691
vt 0.5002 0.1616
vt 0.759 0.0874
vt 0.751 0.0955
vt 0.759 0.1035
vt 0.759 0.0874
vt 0.759 0.1035
vt 0.7671 0.0955
vt 0.769 0.0955
vt 0.7771 0.1035
vt 0.7852 0.0955
vt 0.769 0.0955
vt 0.7852 0.0955
vt 0.7771 0.0874
vt 0.1104 0.2261
vt 0.0845 0.2261
vt 0.0845 0.2598
vt 0.1104 0.2261
vt 0.0845 0.2598
vt 0.1104 0.2598
vt 0.0566 0.2261
vt 0.0566 0.2598
vt 0.0825 0.2598
vt 0.0566 0.2261
vt 0.0825 0.2598
vt 0.0825 0.2261
vt 0.8472 0.2681
vt 0.8472 0.3018
vt 0.8809 0.3018
vt 0.8472 0.2681
vt 0.8809 0.3018
vt 0.8809 0.2681
vt 0.8452 0.2681
vt 0.8115 0.2681
vt 0.8115 0.3018
vt 0.8452 0.2681
vt 0.8115 0.3018
vt 0.8452 0.3018
vt 0.4175 0.1592
vt 0.4512 0.1592
vt 0.4512 0.1333
vt 0.4175 0.1592
vt 0.4512 0.1333
vt 0.4175 0.1333
vt 0.4155 0.1592
vt 0.4155 0.1333
vt 0.3818 0.1333
vt 0.4155 0.1592
vt 0.3818 0.1333
vt 0.3818 0.1592
vt 0.4457 0.2275
vt 0.4419 0.2485
vt 0.502 0.2598
vt 0.4457 0.2275
vt 0.502 0.2598
vt 0.5059 0.2388
vt 0.6377 0.2485
vt 0.6339 0.2275
vt 0.5737 0.2388
vt 0.6377 0.2485
vt 0.5737 0.2388
vt 0.5776 0.2598
vt 0.5718 0.2485
vt 0.5679 0.2275
vt 0.5078 0.2388
vt 0.5718 0.2485
vt 0.5078 0.2388
vt 0.5117 0.2598
vt 0.3798 0.2275
vt 0.376 0.2485
vt 0.4361 0.2598
vt 0.3798 0.2275
vt 0.4361 0.2598
vt 0.4399 0.2388
vt 0.9387 0.1943
vt 0.9238 0.2092
vt 0.9387 0.2241
vt 0.9387 0.1943
vt 0.9387 0.2241
vt 0.9536 0.2092
vt 0.8921 0.2092
vt 0.907 0.2241
vt 0.9219 0.2092
vt 0.8921 0.2092
vt 0.9219 0.2092
vt 0.907 0.1943
vt 0.166 0.1313
vt 0.1401 0.1313
vt 0.1401 0.1592
vt 0.166 0.1313
vt 0.1401 0.1592
vt 0.166 0.1592
vt 0.1123 0.1313
vt 0.1123 0.1592
vt 0.1382 0.1592
vt 0.1123 0.1313
vt 0.1382 0.1592
vt 0.1382 0.1313
vt 0.9087 0.1626
vt 0.9087 0.1904
vt 0.9385 0.1904
vt 0.9087 0.1626
vt 0.9385 0.1904
vt 0.9385 0.1626
vt 0.9067 0.1626
vt 0.877 0.1626
vt 0.877 0.1904
vt 0.9067 0.1626
vt 0.877 0.1904
vt 0.9067 0.1904
vt 0.8657 0.1592
vt 0.8955 0.1592
vt 0.8955 0.1333
vt 0.8657 0.1592
vt 0.8955 0.1333
vt 0.8657 0.1333
vt 0.8638 0.1592
vt 0.8638 0.1333
vt 0.834 0.1333
vt 0.8638 0.1592
vt 0.834 0.1333
vt 0.834 0.1592
vt 0.0888 0.999
vt 0.1045 0.998
vt 0.0957 0.8667
vt 0.0888 0.999
vt 0.0957 0.8667
vt 0.0801 0.8677
vt 0.9028 0.9943
vt 0.9176 0.999
vt 0.958 0.8739
vt 0.9028 0.9943
vt 0.958 0.8739
vt 0.9433 0.8691
vt 0.0537 0.998
vt 0.0694 0.999
vt 0.0781 0.8677
vt 0.0537 0.998
vt 0.0781 0.8677
vt 0.0625 0.8667
vt 0.8861 0.999
vt 0.9009 0.9943
vt 0.8605 0.8691
vt 0.8861 0.999
vt 0.8605 0.8691
vt 0.8457 0.8739
vt 0.2275 0.0925
vt 0.2383 0.1035
vt 0.249 0.0925
vt 0.2275 0.0925
vt 0.249 0.0925
vt 0.2383 0.0815
vt 0.2148 0.0815
vt 0.2041 0.0925
vt 0.2148 0.1035
vt 0.2148 0.0815
vt 0.2148 0.1035
vt 0.2256 0.0925
vt 0.6572 0.183
vt 0.6658 0.1904
vt 0.6846 0.1691
vt 0.6572 0.183
vt 0.6846 0.1691
vt 0.676 0.1616
vt 0.6467 0.1904
vt 0.6553 0.183
vt 0.6365 0.1616
vt 0.6467 0.1904
vt 0.6365 0.1616
vt 0.6279 0.1691
vt 0.5881 0.1904
vt 0.5967 0.183
vt 0.5779 0.1616
vt 0.5881 0.1904
vt 0.5779 0.1616
vt 0.5693 0.1691
vt 0.5986 0.183
vt 0.6072 0.1904
vt 0.626 0.1691
vt 0.5986 0.183
vt 0.626 0.1691
vt 0.6174 0.1616
vt 0.7952 0.0874
vt 0.7871 0.0955
vt 0.7952 0.1035
vt 0.7952 0.0874
vt 0.7952 0.1035
vt 0.8032 0.0955
vt 0.8052 0.0955
vt 0.8132 0.1035
vt 0.8213 0.0955
vt 0.8052 0.0955
vt 0.8213 0.0955
vt 0.8132 0.0874
vn 1.0 0.0 0.0
vn 1.0 0.0 0.0
vn 1.0 0.0 0.0
vn 1.0 0.0 0.0
vn 1.0 0.0 0.0
vn 1.0 0.0 0.0
vn -1.0 0.0 0.0
vn -1.0 0.0 0.0
vn -1.0 0.0 0.0
vn -1.0 0.0 0.0
vn -1.0 0.0 0.0
vn -1.0 0.0 0.0
vn 0.0 1.0 0.0
vn 0.0 1.0 0.0
vn 0.0 1.0 0.0
vn 0.0 1.0 0.0
vn 0.0 1.0 0.0
vn 0.0 1.0 0.0
vn 0.0 -1.0 0.0
vn 0.0 -1.0 0.0
vn 0.0 -1.0 0.0
vn 0.0 -1.0 0.0
vn 0.0 -1.0 0.0
vn 0.0 -1.0 0.0
vn 0.0 0.0 1.0
vn 0.0 0.0 1.0
vn 0.0 0.0 1.0
vn 0.0 0.0 1.0
vn 0.0 0.0 1.0
vn 0.0 0.0 1.0
vn 0.0 0.0 -1.0
vn 0.0 0.0 -1.0
vn 0.0 0.0 -1.0
vn 0.0 0.0 -1.0
vn 0.0 0.0 -1.0
vn 0.0 0.0 -1.0
vn 1.0 0.0 0.0
vn 1.0 0.0 0.0
vn 1.0 0.0 0.0
vn 1.0 0.0 0.0
vn 1.0 0.0 0.0
vn 1.0 0.0 0.0
vn -1.0 0.0 0.0
vn -1.0 0.0 0.0
vn -1.0 0.0 0.0
vn -1.0 0.0 0.0
vn -1.0 0.0 0.0
vn -1.0 0.0 0.0
vn 0.0 1.0 0.0
vn 0.0 1.0 0.0
vn 0.0 1.0 0.0
vn 0.0 1.0 0.0
vn 0.0 1.0 0.0
vn 0.0 1.0 0.0
vn 0.0 -1.0 0.0
vn 0.0 -1.0 0.0
vn 0.0 -1.0 0.0
vn 0.0 -1.0 0.0
vn 0.0 -1.0 0.0
vn 0.0 -1.0 0.0
vn 0.0 0.0 1.0
vn 0.0 0.0 1.0
vn 0.0 0.0 1.0
vn 0.0 0.0 1.0
vn 0.0 0.0 1.0
vn 0.0 0.0 1.0
vn 0.0 0.0 -1.0
vn 0.0 0.0 -1.0
vn 0.0 0.0 -1.0
vn 0.0 0.0 -1.0
vn 0.0 0.0 -1.0
vn 0.0 0.0 -1.0
vn 1.0 0.0 0.0
vn 1.0 0.0 0.0
vn 1.0 0.0 0.0
vn 1.0 0.0 0.0
vn 1.0 0.0 0.0
vn 1.0 0.0 0.0
vn -1.0 0.0 0.0
vn -1.0 0.0 0.0
vn -1.0 0.0 0.0
vn -1.0 0.0 0.0
vn -1.0 0.0 0.0
vn -1.0 0.0 0.0
vn 0.0 1.0 0.0
vn 0.0 1.0 0.0
vn 0.0 1.0 0.0
vn 0.0 1.0 0.0
vn 0.0 1.0 0.0
vn 0.0 1.0 0.0
vn 0.0 -1.0 0.0
vn 0.0 -1.0 0.0
vn 0.0 -1.0 0.0
vn 0.0 -1.0 0.0
vn 0.0 -1.0 0.0
vn 0.0 -1.0 0.0
vn 0.0 0.0 1.0
vn 0.0 0.0 1.0
vn 0.0 0.0 1.0
vn 0.0 0.0 1.0
vn 0.0 0.0 1.0
vn 0.0 0.0 1.0
vn 0.0 0.0 -1.0
vn 0.0 0.0 -1.0
vn 0.0 0.0 -1.0
vn 0.0 0.0 -1.0
vn 0.0 0.0 -1.0
vn 0.0 0.0 -1.0
vn 1.0 0.0 0.0
vn 1.0 0.0 0.0
vn 1.0 0.0 0.0
vn 1.0 0.0 0.0
vn 1.0 0.0 0.0
vn 1.0 0.0 0.0
vn -1.0 0.0 0.0
vn -1.0 0.0 0.0
vn -1.0 0.0 0.0
vn -1.0 0.0 0.0
vn -1.0 0.0 0.0
vn -1.0 0.0 0.0
vn 0.0 1.0 0.0
vn 0.0 1.0 0.0
vn 0.0 1.0 0.0
vn 0.0 1.0 0.0
vn 0.0 1.0 0.0
vn 0.0 1.0 0.0
vn 0.0 -1.0 0.0
vn 0.0 -1.0 0.0
vn 0.0 -1.0 0.0
vn 0.0 -1.0 0.0
vn 0.0 -1.0 0.0
vn 0.0 -1.0 0.0
vn 0.0 0.0 1.0
vn 0.0 0.0 1.0
vn 0.0 0.0 1.0
vn 0.0 0.0 1.0
vn 0.0 0.0 1.0
vn 0.0 0.0 1.0
vn 0.0 0.0 -1.0
vn 0.0 0.0 -1.0
vn 0.0 0.0 -1.0
vn 0.0 0.0 -1.0
vn 0.0 0.0 -1.0
vn 0.0 0.0 -1.0
vn 1.0 0.0 0.0
vn 1.0 0.0 0.0
vn 1.0 0.0 0.0
vn 1.0 0.0 0.0
vn 1.0 0.0 0.0
vn 1.0 0.0 0.0
vn -1.0 0.0 0.0
vn -1.0 0.0 0.0
vn -1.0 0.0 0.0
vn -1.0 0.0 0.0
vn -1.0 0.0 0.0
vn -1.0 0.0 0.0
vn 0.0 1.0 0.0
vn 0.0 1.0 0.0
vn 0.0 1.0 0.0
vn 0.0 1.0 0.0
vn 0.0 1.0 0.0
vn 0.0 1.0 0.0
vn 0.0 -1.0 0.0
vn 0.0 -1.0 0.0
vn 0.0 -1.0 0.0
vn 0.0 -1.0 0.0
vn 0.0 -1.0 0.0
vn 0.0 -1.0 0.0
vn 0.0 0.0 1.0
vn 0.0 0.0 1.0
vn 0.0 0.0 1.0
vn 0.0 0.0 1.0
vn 0.0 0.0 1.0
vn 0.0 0.0 1.0
vn 0.0 0.0 -1.0
vn 0.0 0.0 -1.0
vn 0.0 0.0 -1.0
vn 0.0 0.0 -1.0
vn 0.0 0.0 -1.0
vn 0.0 0.0 -1.0
vn 1.0 0.0 0.0
vn 1.0 0.0 0.0
vn 1.0 0.0 0.0
vn 1.0 0.0 0.0
vn 1.0 0.0 0.0
vn 1.0 0.0 0.0
vn -1.0 0.0 0.0
vn -1.0 0.0 0.0
vn -1.0 0.0 0.0
vn -1.0 0.0 0.0
vn -1.0 0.0 0.0
vn -1.0 0.0 0.0
vn 0.0 1.0 0.0
vn 0.0 1.0 0.0
vn 0.0 1.0 0.0
vn 0.0 1.0 0.0
vn 0.0 1.0 0.0
vn 0.0 1.0 0.0
vn 0.0 -1.0 0.0
vn 0.0 -1.0 0.0
vn 0.0 -1.0 0.0
vn 0.0 -1.0 0.0
vn 0.0 -1.0 0.0
vn 0.0 -1.0 0.0
vn 0.0 0.0 1.0
vn 0.0 0.0 1.0
vn 0.0 0.0 1.0
vn 0.0 0.0 1.0
vn 0.0 0.0 1.0
vn 0.0 0.0 1.0
vn 0.0 0.0 -1.0
vn 0.0 0.0 -1.0
vn 0.0 0.0 -1.0
vn 0.0 0.0 -1.0
vn 0.0 0.0 -1.0
vn 0.0 0.0 -1.0
vn 0.3948 -0.8218 0.4109
vn 0.3948 -0.8218 0.4109
vn 0.3948 -0.8218 0.4109
vn 0.4679 0.0 0.8838
vn 0.4679 0.0 0.8838
vn 0.4679 0.0 0.8838
vn 0.3948 0.8218 0.4109
vn 0.3948 0.8218 0.4109
vn 0.3948 0.8218 0.4109
vn 0.1866 0.865 -0.4658
vn 0.1866 0.865 -0.4658
vn 0.1866 0.865 -0.4658
vn 0.0 0.0 -1.0
vn 0.0 0.0 -1.0
vn 0.0 0.0 -1.0
vn 0.1866 -0.865 -0.4658
vn 0.1866 -0.865 -0.4658
vn 0.1866 -0.865 -0.4658
vn -1.0 0.0 0.0
vn -1.0 0.0 0.0
vn -1.0 0.0 0.0
vn -1.0 0.0 0.0
vn -1.0 0.0 0.0
vn -1.0 0.0 0.0
vn -1.0 0.0 0.0
vn -1.0 0.0 0.0
vn -1.0 0.0 0.0
vn -1.0 0.0 0.0
vn -1.0 0.0 0.0
vn -1.0 0.0 0.0
vn 1.0 0.0 0.0
vn 1.0 0.0 0.0
vn 1.0 0.0 0.0
vn 1.0 0.0 0.0
vn 1.0 0.0 0.0
vn 1.0 0.0 0.0
vn -1.0 0.0 0.0
vn -1.0 0.0 0.0
vn -1.0 0.0 0.0
vn -1.0 0.0 0.0
vn -1.0 0.0 0.0
vn -1.0 0.0 0.0
vn 0.0 1.0 0.0
vn 0.0 1.0 0.0
vn 0.0 1.0 0.0
vn 0.0 1.0 0.0
vn 0.0 1.0 0.0
vn 0.0 1.0 0.0
vn 0.0 -1.0 0.0
vn 0.0 -1.0 0.0
vn 0.0 -1.0 0.0
vn 0.0 -1.0 0.0
vn 0.0 -1.0 0.0
vn 0.0 -1.0 0.0
vn 0.0 0.0 1.0
vn 0.0 0.0 1.0
vn 0.0 0.0 1.0
vn 0.0 0.0 1.0
vn 0.0 0.0 1.0
vn 0.0 0.0 1.0
vn 0.0 0.0 -1.0
vn 0.0 0.0 -1.0
vn 0.0 0.0 -1.0
vn 0.0 0.0 -1.0
vn 0.0 0.0 -1.0
vn 0.0 0.0 -1.0
vn 1.0 0.0 0.0
vn 1.0 0.0 0.0
vn 1.0 0.0 0.0
vn 1.0 0.0 0.0
vn 1.0 0.0 0.0
vn 1.0 0.0 0.0
vn -1.0 0.0 0.0
vn -1.0 0.0 0.0
vn -1.0 0.0 0.0
vn -1.0 0.0 0.0
vn -1.0 0.0 0.0
vn -1.0 0.0 0.0
vn 0.0 1.0 0.0
vn 0.0 1.0 0.0
vn 0.0 1.0 0.0
vn 0.0 1.0 0.0
vn 0.0 1.0 0.0
vn 0.0 1.0 0.0
vn 0.0 -1.0 0.0
vn 0.0 -1.0 0.0
vn 0.0 -1.0 0.0
vn 0.0 -1.0 0.0
vn 0.0 -1.0 0.0
vn 0.0 -1.0 0.0
vn 0.0 0.0 1.0
vn 0.0 0.0 1.0
vn 0.0 0.0 1.0
vn 0.0 0.0 1.0
vn 0.0 0.0 1.0
vn 0.0 0.0 1.0
vn 0.0 0.0 -1.0
vn 0.0 0.0 -1.0
vn 0.0 0.0 -1.0
vn 0.0 0.0 -1.0
vn 0.0 0.0 -1.0
vn 0.0 0.0 -1.0
vn 1.0 0.0 0.0
vn 1.0 0.0 0.0
vn 1.0 0.0 0.0
vn 1.0 0.0 0.0
vn 1.0 0.0 0.0
vn 1.0 0.0 0.0
vn -1.0 0.0 0.0
vn -1.0 0.0 0.0
vn -1.0 0.0 0.0
vn -1.0 0.0 0.0
vn -1.0 0.0 0.0
vn -1.0 0.0 0.0
vn 0.0 1.0 0.0
vn 0.0 1.0 0.0
vn 0.0 1.0 0.0
vn 0.0 1.0 0.0
vn 0.0 1.0 0.0
vn 0.0 1.0 0.0
vn 0.0 -1.0 0.0
vn 0.0 -1.0 0.0
vn 0.0 -1.0 0.0
vn 0.0 -1.0 0.0
vn 0.0 -1.0 0.0
vn 0.0 -1.0 0.0
vn 0.0 0.0 1.0
vn 0.0 0.0 1.0
vn 0.0 0.0 1.0
vn 0.0 0.0 1.0
vn 0.0 0.0 1.0
vn 0.0 0.0 1.0
vn 0.0 0.0 -1.0
vn 0.0 0.0 -1.0
vn 0.0 0.0 -1.0
vn 0.0 0.0 -1.0
vn 0.0 0.0 -1.0
vn 0.0 0.0 -1.0
vn 0.5508 0.4536 0.7007
vn 0.5508 0.4536 0.7007
vn 0.5508 0.4536 0.7007
vn 0.5508 0.4536 0.7007
vn 0.5508 0.4536 0.7007
vn 0.5508 0.4536 0.7007
vn -0.6512 -0.2916 0.7007
vn -0.6512 -0.2916 0.7007
vn -0.6512 -0.2916 0.7007
vn -0.6512 -0.2916 0.7007
vn -0.6512 -0.2916 0.7007
vn -0.6512 -0.2916 0.7007
vn -0.5508 -0.4536 -0.7007
vn -0.5508 -0.4536 -0.7007
vn -0.5508 -0.4536 -0.7007
vn -0.5508 -0.4536 -0.7007
vn -0.5508 -0.4536 -0.7007
vn -0.5508 -0.4536 -0.7007
vn 0.6512 0.2916 -0.7007
vn 0.6512 0.2916 -0.7007
vn 0.6512 0.2916 -0.7007
vn 0.6512 0.2916 -0.7007
vn 0.6512 0.2916 -0.7007
vn 0.6512 0.2916 -0.7007
vn -0.5221 0.8422 -0.1347
vn -0.5221 0.8422 -0.1347
vn -0.5221 0.8422 -0.1347
vn -0.5221 0.8422 -0.1347
vn -0.5221 0.8422 -0.1347
vn -0.5221 0.8422 -0.1347
vn 0.5221 -0.8422 0.1347
vn 0.5221 -0.8422 0.1347
vn 0.5221 -0.8422 0.1347
vn 0.5221 -0.8422 0.1347
vn 0.5221 -0.8422 0.1347
vn 0.5221 -0.8422 0.1347
vn 1.0 0.0 0.0
vn 1.0 0.0 0.0
vn 1.0 0.0 0.0
vn 1.0 0.0 0.0
vn 1.0 0.0 0.0
vn 1.0 0.0 0.0
vn -1.0 0.0 0.0
vn -1.0 0.0 0.0
vn -1.0 0.0 0.0
vn -1.0 0.0 0.0
vn -1.0 0.0 0.0
vn -1.0 0.0 0.0
vn 0.0 1.0 0.0
vn 0.0 1.0 0.0
vn 0.0 1.0 0.0
vn 0.0 1.0 0.0
vn 0.0 1.0 0.0
vn 0.0 1.0 0.0
vn 0.0 -1.0 0.0
vn 0.0 -1.0 0.0
vn 0.0 -1.0 0.0
vn 0.0 -1.0 0.0
vn 0.0 -1.0 0.0
vn 0.0 -1.0 0.0
vn 0.0 0.0 1.0
vn 0.0 0.0 1.0
vn 0.0 0.0 1.0
vn 0.0 0.0 1.0
vn 0.0 0.0 1.0
vn 0.0 0.0 1.0
vn 0.0 0.0 -1.0
vn 0.0 0.0 -1.0
vn 0.0 0.0 -1.0
vn 0.0 0.0 -1.0
vn 0.0 0.0 -1.0
vn 0.0 0.0 -1.0
vn 0.6872 0.6679 0.2857
vn 0.6872 0.6679 0.2857
vn 0.6872 0.6679 0.2857
vn 0.6872 0.6679 0.2857
vn 0.6872 0.6679 0.2857
vn 0.6872 0.6679 0.2857
vn 0.6872 -0.7252 0.0425
vn 0.6872 -0.7252 0.0425
vn 0.6872 -0.7252 0.0425
vn 0.6872 -0.7252 0.0425
vn 0.6872 -0.7252 0.0425
vn 0.6872 -0.7252 0.0425
vn -0.6872 -0.6679 -0.2857
vn -0.6872 -0.6679 -0.2857
vn -0.6872 -0.6679 -0.2857
vn -0.6872 -0.6679 -0.2857
vn -0.6872 -0.6679 -0.2857
vn -0.6872 -0.6679 -0.2857
vn -0.6872 0.7252 -0.0425
vn -0.6872 0.7252 -0.0425
vn -0.6872 0.7252 -0.0425
vn -0.6872 0.7252 -0.0425
vn -0.6872 0.7252 -0.0425
vn -0.6872 0.7252 -0.0425
vn -0.2355 -0.1672 0.9574
vn -0.2355 -0.1672 0.9574
vn -0.2355 -0.1672 0.9574
vn -0.2355 -0.1672 0.9574
vn -0.2355 -0.1672 0.9574
vn -0.2355 -0.1672 0.9574
vn 0.2355 0.1672 -0.9574
vn 0.2355 0.1672 -0.9574
vn 0.2355 0.1672 -0.9574
vn 0.2355 0.1672 -0.9574
vn 0.2355 0.1672 -0.9574
vn 0.2355 0.1672 -0.9574
vn 0.4448 0.7071 0.5497
vn 0.4448 0.7071 0.5497
vn 0.4448 0.7071 0.5497
vn 0.4448 0.7071 0.5497
vn 0.4448 0.7071 0.5497
vn 0.4448 0.7071 0.5497
vn 0.4448 -0.7071 0.5497
vn 0.4448 -0.7071 0.5497
vn 0.4448 -0.7071 0.5497
vn 0.4448 -0.7071 0.5497
vn 0.4448 -0.7071 0.5497
vn 0.4448 -0.7071 0.5497
vn -0.4448 -0.7071 -0.5497
vn -0.4448 -0.7071 -0.5497
vn -0.4448 -0.7071 -0.5497
vn -0.4448 -0.7071 -0.5497
vn -0.4448 -0.7071 -0.5497
vn -0.4448 -0.7071 -0.5497
vn -0.4448 0.7071 -0.5497
vn -0.4448 0.7071 -0.5497
vn -0.4448 0.7071 -0.5497
vn -0.4448 0.7071 -0.5497
vn -0.4448 0.7071 -0.5497
vn -0.4448 0.7071 -0.5497
vn -0.7774 0.0 0.629
vn -0.7774 0.0 0.629
vn -0.7774 0.0 0.629
vn -0.7774 0.0 0.629
vn -0.7774 0.0 0.629
vn -0.7774 0.0 0.629
vn 0.7774 0.0 -0.629
vn 0.7774 0.0 -0.629
vn 0.7774 0.0 -0.629
vn 0.7774 0.0 -0.629
vn 0.7774 0.0 -0.629
vn 0.7774 0.0 -0.629
vn 1.0 0.0 0.0
vn 1.0 0.0 0.0
vn 1.0 0.0 0.0
vn 1.0 0.0 0.0
vn 1.0 0.0 0.0
vn 1.0 0.0 0.0
vn -1.0 0.0 0.0
vn -1.0 0.0 0.0
vn -1.0 0.0 0.0
vn -1.0 0.0 0.0
vn -1.0 0.0 0.0
vn -1.0 0.0 0.0
vn 0.0 1.0 0.0
vn 0.0 1.0 0.0
vn 0.0 1.0 0.0
vn 0.0 1.0 0.0
vn 0.0 1.0 0.0
vn 0.0 1.0 0.0
vn 0.0 -1.0 0.0
vn 0.0 -1.0 0.0
vn 0.0 -1.0 0.0
vn 0.0 -1.0 0.0
vn 0.0 -1.0 0.0
vn 0.0 -1.0 0.0
vn 0.0 0.0 1.0
vn 0.0 0.0 1.0
vn 0.0 0.0 1.0
vn 0.0 0.0 1.0
vn 0.0 0.0 1.0
vn 0.0 0.0 1.0
vn 0.0 0.0 -1.0
vn 0.0 0.0 -1.0
vn 0.0 0.0 -1.0
vn 0.0 0.0 -1.0
vn 0.0 0.0 -1.0
vn 0.0 0.0 -1.0
vn -0.6512 0.2916 0.7007
vn -0.6512 0.2916 0.7007
vn -0.6512 0.2916 0.7007
vn -0.6512 0.2916 0.7007
vn -0.6512 0.2916 0.7007
vn -0.6512 0.2916 0.7007
vn 0.5508 -0.4536 0.7007
vn 0.5508 -0.4536 0.7007
vn 0.5508 -0.4536 0.7007
vn 0.5508 -0.4536 0.7007
vn 0.5508 -0.4536 0.7007
vn 0.5508 -0.4536 0.7007
vn 0.6512 -0.2916 -0.7007
vn 0.6512 -0.2916 -0.7007
vn 0.6512 -0.2916 -0.7007
vn 0.6512 -0.2916 -0.7007
vn 0.6512 -0.2916 -0.7007
vn 0.6512 -0.2916 -0.7007
vn -0.5508 0.4536 -0.7007
vn -0.5508 0.4536 -0.7007
vn -0.5508 0.4536 -0.7007
vn -0.5508 0.4536 -0.7007
vn -0.5508 0.4536 -0.7007
vn -0.5508 0.4536 -0.7007
vn -0.5221 -0.8422 -0.1347
vn -0.5221 -0.8422 -0.1347
vn -0.5221 -0.8422 -0.1347
vn -0.5221 -0.8422 -0.1347
vn -0.5221 -0.8422 -0.1347
vn -0.5221 -0.8422 -0.1347
vn 0.5221 0.8422 0.1347
vn 0.5221 0.8422 0.1347
vn 0.5221 0.8422 0.1347
vn 0.5221 0.8422 0.1347
vn 0.5221 0.8422 0.1347
vn 0.5221 0.8422 0.1347
vn 1.0 0.0 0.0
vn 1.0 0.0 0.0
vn 1.0 0.0 0.0
vn 1.0 0.0 0.0
vn 1.0 0.0 0.0
vn 1.0 0.0 0.0
vn -1.0 0.0 0.0
vn -1.0 0.0 0.0
vn -1.0 0.0 0.0
vn -1.0 0.0 0.0
vn -1.0 0.0 0.0
vn -1.0 0.0 0.0
vn 0.0 1.0 0.0
vn 0.0 1.0 0.0
vn 0.0 1.0 0.0
vn 0.0 1.0 0.0
vn 0.0 1.0 0.0
vn 0.0 1.0 0.0
vn 0.0 -1.0 0.0
vn 0.0 -1.0 0.0
vn 0.0 -1.0 0.0
vn 0.0 -1.0 0.0
vn 0.0 -1.0 0.0
vn 0.0 -1.0 0.0
vn 0.0 0.0 1.0
vn 0.0 0.0 1.0
vn 0.0 0.0 1.0
vn 0.0 0.0 1.0
vn 0.0 0.0 1.0
vn 0.0 0.0 1.0
vn 0.0 0.0 -1.0
vn 0.0 0.0 -1.0
vn 0.0 0.0 -1.0
vn 0.0 0.0 -1.0
vn 0.0 0.0 -1.0
vn 0.0 0.0 -1.0
vn 0.6872 0.7252 0.0425
vn 0.6872 0.7252 0.0425
vn 0.6872 0.7252 0.0425
vn 0.6872 0.7252 0.0425
vn 0.6872 0.7252 0.0425
vn 0.6872 0.7252 0.0425
vn 0.6872 -0.6679 0.2857
vn 0.6872 -0.6679 0.2857
vn 0.6872 -0.6679 0.2857
vn 0.6872 -0.6679 0.2857
vn 0.6872 -0.6679 0.2857
vn 0.6872 -0.6679 0.2857
vn -0.6872 -0.7252 -0.0425
vn -0.6872 -0.7252 -0.0425
vn -0.6872 -0.7252 -0.0425
vn -0.6872 -0.7252 -0.0425
vn -0.6872 -0.7252 -0.0425
vn -0.6872 -0.7252 -0.0425
vn -0.6872 0.6679 -0.2857
vn -0.6872 0.6679 -0.2857
vn -0.6872 0.6679 -0.2857
vn -0.6872 0.6679 -0.2857
vn -0.6872 0.6679 -0.2857
vn -0.6872 0.6679 -0.2857
vn -0.2355 0.1672 0.9574
vn -0.2355 0.1672 0.9574
vn -0.2355 0.1672 0.9574
vn -0.2355 0.1672 0.9574
vn -0.2355 0.1672 0.9574
vn -0.2355 0.1672 0.9574
vn 0.2355 -0.1672 -0.9574
vn 0.2355 -0.1672 -0.9574
vn 0.2355 -0.1672 -0.9574
vn 0.2355 -0.1672 -0.9574
vn 0.2355 -0.1672 -0.9574
vn 0.2355 -0.1672 -0.9574
vn 0.4448 0.7071 0.5497
vn 0.4448 0.7071 0.5497
vn 0.4448 0.7071 0.5497
vn 0.4448 0.7071 0.5497
vn 0.4448 0.7071 0.5497
vn 0.4448 0.7071 0.5497
vn 0.4448 -0.7071 0.5497
vn 0.4448 -0.7071 0.5497
vn 0.4448 -0.7071 0.5497
vn 0.4448 -0.7071 0.5497
vn 0.4448 -0.7071 0.5497
vn 0.4448 -0.7071 0.5497
vn -0.4448 -0.7071 -0.5497
vn -0.4448 -0.7071 -0.5497
vn -0.4448 -0.7071 -0.5497
vn -0.4448 -0.7071 -0.5497
vn -0.4448 -0.7071 -0.5497
vn -0.4448 -0.7071 -0.5497
vn -0.4448 0.7071 -0.5497
vn -0.4448 0.7071 -0.5497
vn -0.4448 0.7071 -0.5497
vn -0.4448 0.7071 -0.5497
vn -0.4448 0.7071 -0.5497
vn -0.4448 0.7071 -0.5497
vn -0.7774 0.0 0.629
vn -0.7774 0.0 0.629
vn -0.7774 0.0 0.629
vn -0.7774 0.0 0.629
vn -0.7774 0.0 0.629
vn -0.7774 0.0 0.629
vn 0.7774 0.0 -0.629
vn 0.7774 0.0 -0.629
vn 0.7774 0.0 -0.629
vn 0.7774 0.0 -0.629
vn 0.7774 0.0 -0.629
vn 0.7774 0.0 -0.629
vn 1.0 0.0 0.0
vn 1.0 0.0 0.0
vn 1.0 0.0 0.0
vn 1.0 0.0 0.0
vn 1.0 0.0 0.0
vn 1.0 0.0 0.0
vn -1.0 0.0 0.0
vn -1.0 0.0 0.0
vn -1.0 0.0 0.0
vn -1.0 0.0 0.0
vn -1.0 0.0 0.0
vn -1.0 0.0 0.0
vn 0.0 1.0 0.0
vn 0.0 1.0 0.0
vn 0.0 1.0 0.0
vn 0.0 1.0 0.0
vn 0.0 1.0 0.0
vn 0.0 1.0 0.0
vn 0.0 -1.0 0.0
vn 0.0 -1.0 0.0
vn 0.0 -1.0 0.0
vn 0.0 -1.0 0.0
vn 0.0 -1.0 0.0
vn 0.0 -1.0 0.0
vn 0.0 0.0 1.0
vn 0.0 0.0 1.0
vn 0.0 0.0 1.0
vn 0.0 0.0 1.0
vn 0.0 0.0 1.0
vn 0.0 0.0 1.0
vn 0.0 0.0 -1.0
vn 0.0 0.0 -1.0
vn 0.0 0.0 -1.0
vn 0.0 0.0 -1.0
vn 0.0 0.0 -1.0
vn 0.0 0.0 -1.0
vn 0.632 -0.3302 0.7011
vn 0.632 -0.3302 0.7011
vn 0.632 -0.3302 0.7011
vn 0.632 -0.3302 0.7011
vn 0.632 -0.3302 0.7011
vn 0.632 -0.3302 0.7011
vn -0.5266 0.4808 0.7011
vn -0.5266 0.4808 0.7011
vn -0.5266 0.4808 0.7011
vn -0.5266 0.4808 0.7011
vn -0.5266 0.4808 0.7011
vn -0.5266 0.4808 0.7011
vn -0.632 0.3302 -0.7011
vn -0.632 0.3302 -0.7011
vn -0.632 0.3302 -0.7011
vn -0.632 0.3302 -0.7011
vn -0.632 0.3302 -0.7011
vn -0.632 0.3302 -0.7011
vn 0.5266 -0.4808 -0.7011
vn 0.5266 -0.4808 -0.7011
vn 0.5266 -0.4808 -0.7011
vn 0.5266 -0.4808 -0.7011
vn 0.5266 -0.4808 -0.7011
vn 0.5266 -0.4808 -0.7011
vn 0.5686 0.8123 -0.13
vn 0.5686 0.8123 -0.13
vn 0.5686 0.8123 -0.13
vn 0.5686 0.8123 -0.13
vn 0.5686 0.8123 -0.13
vn 0.5686 0.8123 -0.13
vn -0.5686 -0.8123 0.13
vn -0.5686 -0.8123 0.13
vn -0.5686 -0.8123 0.13
vn -0.5686 -0.8123 0.13
vn -0.5686 -0.8123 0.13
vn -0.5686 -0.8123 0.13
vn 1.0 0.0 0.0
vn 1.0 0.0 0.0
vn 1.0 0.0 0.0
vn 1.0 0.0 0.0
vn 1.0 0.0 0.0
vn 1.0 0.0 0.0
vn -1.0 0.0 0.0
vn -1.0 0.0 0.0
vn -1.0 0.0 0.0
vn -1.0 0.0 0.0
vn -1.0 0.0 0.0
vn -1.0 0.0 0.0
vn 0.0 1.0 0.0
vn 0.0 1.0 0.0
vn 0.0 1.0 0.0
vn 0.0 1.0 0.0
vn 0.0 1.0 0.0
vn 0.0 1.0 0.0
vn 0.0 -1.0 0.0
vn 0.0 -1.0 0.0
vn 0.0 -1.0 0.0
vn 0.0 -1.0 0.0
vn 0.0 -1.0 0.0
vn 0.0 -1.0 0.0
vn 0.0 0.0 1.0
vn 0.0 0.0 1.0
vn 0.0 0.0 1.0
vn 0.0 0.0 1.0
vn 0.0 0.0 1.0
vn 0.0 0.0 1.0
vn 0.0 0.0 -1.0
vn 0.0 0.0 -1.0
vn 0.0 0.0 -1.0
vn 0.0 0.0 -1.0
vn 0.0 0.0 -1.0
vn 0.0 0.0 -1.0
vn 0.682 0.7287 -0.0622
vn 0.682 0.7287 -0.0622
vn 0.682 0.7287 -0.0622
vn 0.682 0.7287 -0.0622
vn 0.682 0.7287 -0.0622
vn 0.682 0.7287 -0.0622
vn 0.682 -0.6645 -0.3055
vn 0.682 -0.6645 -0.3055
vn 0.682 -0.6645 -0.3055
vn 0.682 -0.6645 -0.3055
vn 0.682 -0.6645 -0.3055
vn 0.682 -0.6645 -0.3055
vn -0.682 -0.7287 0.0622
vn -0.682 -0.7287 0.0622
vn -0.682 -0.7287 0.0622
vn -0.682 -0.7287 0.0622
vn -0.682 -0.7287 0.0622
vn -0.682 -0.7287 0.0622
vn -0.682 0.6645 0.3055
vn -0.682 0.6645 0.3055
vn -0.682 0.6645 0.3055
vn -0.682 0.6645 0.3055
vn -0.682 0.6645 0.3055
vn -0.682 0.6645 0.3055
vn 0.2639 -0.1659 0.9502
vn 0.2639 -0.1659 0.9502
vn 0.2639 -0.1659 0.9502
vn 0.2639 -0.1659 0.9502
vn 0.2639 -0.1659 0.9502
vn 0.2639 -0.1659 0.9502
vn -0.2639 0.1659 -0.9502
vn -0.2639 0.1659 -0.9502
vn -0.2639 0.1659 -0.9502
vn -0.2639 0.1659 -0.9502
vn -0.2639 0.1659 -0.9502
vn -0.2639 0.1659 -0.9502
vn 0.4448 0.7071 0.5497
vn 0.4448 0.7071 0.5497
vn 0.4448 0.7071 0.5497
vn 0.4448 0.7071 0.5497
vn 0.4448 0.7071 0.5497
vn 0.4448 0.7071 0.5497
vn 0.4448 -0.7071 0.5497
vn 0.4448 -0.7071 0.5497
vn 0.4448 -0.7071 0.5497
vn 0.4448 -0.7071 0.5497
vn 0.4448 -0.7071 0.5497
vn 0.4448 -0.7071 0.5497
vn -0.4448 -0.7071 -0.5497
vn -0.4448 -0.7071 -0.5497
vn -0.4448 -0.7071 -0.5497
vn -0.4448 -0.7071 -0.5497
vn -0.4448 -0.7071 -0.5497
vn -0.4448 -0.7071 -0.5497
vn -0.4448 0.7071 -0.5497
vn -0.4448 0.7071 -0.5497
vn -0.4448 0.7071 -0.5497
vn -0.4448 0.7071 -0.5497
vn -0.4448 0.7071 -0.5497
vn -0.4448 0.7071 -0.5497
vn -0.7774 0.0 0.629
vn -0.7774 0.0 0.629
vn -0.7774 0.0 0.629
vn -0.7774 0.0 0.629
vn -0.7774 0.0 0.629
vn -0.7774 0.0 0.629
vn 0.7774 0.0 -0.629
vn 0.7774 0.0 -0.629
vn 0.7774 0.0 -0.629
vn 0.7774 0.0 -0.629
vn 0.7774 0.0 -0.629
vn 0.7774 0.0 -0.629
vn 1.0 0.0 0.0
vn 1.0 0.0 0.0
vn 1.0 0.0 0.0
vn 1.0 0.0 0.0
vn 1.0 0.0 0.0
vn 1.0 0.0 0.0
vn -1.0 0.0 0.0
vn -1.0 0.0 0.0
vn -1.0 0.0 0.0
vn -1.0 0.0 0.0
vn -1.0 0.0 0.0
vn -1.0 0.0 0.0
vn 0.0 1.0 0.0
vn 0.0 1.0 0.0
vn 0.0 1.0 0.0
vn 0.0 1.0 0.0
vn 0.0 1.0 0.0
vn 0.0 1.0 0.0
vn 0.0 -1.0 0.0
vn 0.0 -1.0 0.0
vn 0.0 -1.0 0.0
vn 0.0 -1.0 0.0
vn 0.0 -1.0 0.0
vn 0.0 -1.0 0.0
vn 0.0 0.0 1.0
vn 0.0 0.0 1.0
vn 0.0 0.0 1.0
vn 0.0 0.0 1.0
vn 0.0 0.0 1.0
vn 0.0 0.0 1.0
vn 0.0 0.0 -1.0
vn 0.0 0.0 -1.0
vn 0.0 0.0 -1.0
vn 0.0 0.0 -1.0
vn 0.0 0.0 -1.0
vn 0.0 0.0 -1.0
vn -0.5266 -0.4808 0.7011
vn -0.5266 -0.4808 0.7011
vn -0.5266 -0.4808 0.7011
vn -0.5266 -0.4808 0.7011
vn -0.5266 -0.4808 0.7011
vn -0.5266 -0.4808 0.7011
vn 0.632 0.3302 0.7011
vn 0.632 0.3302 0.7011
vn 0.632 0.3302 0.7011
vn 0.632 0.3302 0.7011
vn 0.632 0.3302 0.7011
vn 0.632 0.3302 0.7011
vn 0.5266 0.4808 -0.7011
vn 0.5266 0.4808 -0.7011
vn 0.5266 0.4808 -0.7011
vn 0.5266 0.4808 -0.7011
vn 0.5266 0.4808 -0.7011
vn 0.5266 0.4808 -0.7011
vn -0.632 -0.3302 -0.7011
vn -0.632 -0.3302 -0.7011
vn -0.632 -0.3302 -0.7011
vn -0.632 -0.3302 -0.7011
vn -0.632 -0.3302 -0.7011
vn -0.632 -0.3302 -0.7011
vn 0.5686 -0.8123 -0.13
vn 0.5686 -0.8123 -0.13
vn 0.5686 -0.8123 -0.13
vn 0.5686 -0.8123 -0.13
vn 0.5686 -0.8123 -0.13
vn 0.5686 -0.8123 -0.13
vn -0.5686 0.8123 0.13
vn -0.5686 0.8123 0.13
vn -0.5686 0.8123 0.13
vn -0.5686 0.8123 0.13
vn -0.5686 0.8123 0.13
vn -0.5686 0.8123 0.13
vn 1.0 0.0 0.0
vn 1.0 0.0 0.0
vn 1.0 0.0 0.0
vn 1.0 0.0 0.0
vn 1.0 0.0 0.0
vn 1.0 0.0 0.0
vn -1.0 0.0 0.0
vn -1.0 0.0 0.0
vn -1.0 0.0 0.0
vn -1.0 0.0 0.0
vn -1.0 0.0 0.0
vn -1.0 0.0 0.0
vn 0.0 1.0 0.0
vn 0.0 1.0 0.0
vn 0.0 1.0 0.0
vn 0.0 1.0 0.0
vn 0.0 1.0 0.0
vn 0.0 1.0 0.0
vn 0.0 -1.0 0.0
vn 0.0 -1.0 0.0
vn 0.0 -1.0 0.0
vn 0.0 -1.0 0.0
vn 0.0 -1.0 0.0
vn 0.0 -1.0 0.0
vn 0.0 0.0 1.0
vn 0.0 0.0 1.0
vn 0.0 0.0 1.0
vn 0.0 0.0 1.0
vn 0.0 0.0 1.0
vn 0.0 0.0 1.0
vn 0.0 0.0 -1.0
vn 0.0 0.0 -1.0
vn 0.0 0.0 -1.0
vn 0.0 0.0 -1.0
vn 0.0 0.0 -1.0
vn 0.0 0.0 -1.0
vn 0.682 0.6645 -0.3055
vn 0.682 0.6645 -0.3055
vn 0.682 0.6645 -0.3055
vn 0.682 0.6645 -0.3055
vn 0.682 0.6645 -0.3055
vn 0.682 0.6645 -0.3055
vn 0.682 -0.7287 -0.0622
vn 0.682 -0.7287 -0.0622
vn 0.682 -0.7287 -0.0622
vn 0.682 -0.7287 -0.0622
vn 0.682 -0.7287 -0.0622
vn 0.682 -0.7287 -0.0622
vn -0.682 -0.6645 0.3055
vn -0.682 -0.6645 0.3055
vn -0.682 -0.6645 0.3055
vn -0.682 -0.6645 0.3055
vn -0.682 -0.6645 0.3055
vn -0.682 -0.6645 0.3055
vn -0.682 0.7287 0.0622
vn -0.682 0.7287 0.0622
vn -0.682 0.7287 0.0622
vn -0.682 0.7287 0.0622
vn -0.682 0.7287 0.0622
vn -0.682 0.7287 0.0622
vn 0.2639 0.1659 0.9502
vn 0.2639 0.1659 0.9502
vn 0.2639 0.1659 0.9502
vn 0.2639 0.1659 0.9502
vn 0.2639 0.1659 0.9502
vn 0.2639 0.1659 0.9502
vn -0.2639 -0.1659 -0.9502
vn -0.2639 -0.1659 -0.9502
vn -0.2639 -0.1659 -0.9502
vn -0.2639 -0.1659 -0.9502
vn -0.2639 -0.1659 -0.9502
vn -0.2639 -0.1659 -0.9502
vn 0.4448 0.7071 0.5497
vn 0.4448 0.7071 0.5497
vn 0.4448 0.7071 0.5497
vn 0.4448 0.7071 0.5497
vn 0.4448 0.7071 0.5497
vn 0.4448 0.7071 0.5497
vn 0.4448 -0.7071 0.5497
vn 0.4448 -0.7071 0.5497
vn 0.4448 -0.7071 0.5497
vn 0.4448 -0.7071 0.5497
vn 0.4448 -0.7071 0.5497
vn 0.4448 -0.7071 0.5497
vn -0.4448 -0.7071 -0.5497
vn -0.4448 -0.7071 -0.5497
vn -0.4448 -0.7071 -0.5497
vn -0.4448 -0.7071 -0.5497
vn -0.4448 -0.7071 -0.5497
vn -0.4448 -0.7071 -0.5497
vn -0.4448 0.7071 -0.5497
vn -0.4448 0.7071 -0.5497
vn -0.4448 0.7071 -0.5497
vn -0.4448 0.7071 -0.5497
vn -0.4448 0.7071 -0.5497
vn -0.4448 0.7071 -0.5497
vn -0.7774 0.0 0.629
vn -0.7774 0.0 0.629
vn -0.7774 0.0 0.629
vn -0.7774 0.0 0.629
vn -0.7774 0.0 0.629
vn -0.7774 0.0 0.629
vn 0.7774 0.0 -0.629
vn 0.7774 0.0 -0.629
vn 0.7774 0.0 -0.629
vn 0.7774 0.0 -0.629
vn 0.7774 0.0 -0.629
vn 0.7774 0.0 -0.629
g shell_01
usemtl MI_EBS_KHA_Strata
f 1/1/1 2/2/2 3/3/3
f 4/4/4 5/5/5 6/6/6
f 7/7/7 8/8/8 9/9/9
f 10/10/10 11/11/11 12/12/12
f 13/13/13 14/14/14 15/15/15
f 16/16/16 17/17/17 18/18/18
f 19/19/19 20/20/20 21/21/21
f 22/22/22 23/23/23 24/24/24
f 25/25/25 26/26/26 27/27/27
f 28/28/28 29/29/29 30/30/30
f 31/31/31 32/32/32 33/33/33
f 34/34/34 35/35/35 36/36/36
g shell_02
f 37/37/37 38/38/38 39/39/39
f 40/40/40 41/41/41 42/42/42
f 43/43/43 44/44/44 45/45/45
f 46/46/46 47/47/47 48/48/48
f 49/49/49 50/50/50 51/51/51
f 52/52/52 53/53/53 54/54/54
f 55/55/55 56/56/56 57/57/57
f 58/58/58 59/59/59 60/60/60
f 61/61/61 62/62/62 63/63/63
f 64/64/64 65/65/65 66/66/66
f 67/67/67 68/68/68 69/69/69
f 70/70/70 71/71/71 72/72/72
g shell_03
f 73/73/73 74/74/74 75/75/75
f 76/76/76 77/77/77 78/78/78
f 79/79/79 80/80/80 81/81/81
f 82/82/82 83/83/83 84/84/84
f 85/85/85 86/86/86 87/87/87
f 88/88/88 89/89/89 90/90/90
f 91/91/91 92/92/92 93/93/93
f 94/94/94 95/95/95 96/96/96
f 97/97/97 98/98/98 99/99/99
f 100/100/100 101/101/101 102/102/102
f 103/103/103 104/104/104 105/105/105
f 106/106/106 107/107/107 108/108/108
g shell_04
f 109/109/109 110/110/110 111/111/111
f 112/112/112 113/113/113 114/114/114
f 115/115/115 116/116/116 117/117/117
f 118/118/118 119/119/119 120/120/120
f 121/121/121 122/122/122 123/123/123
f 124/124/124 125/125/125 126/126/126
f 127/127/127 128/128/128 129/129/129
f 130/130/130 131/131/131 132/132/132
f 133/133/133 134/134/134 135/135/135
f 136/136/136 137/137/137 138/138/138
f 139/139/139 140/140/140 141/141/141
f 142/142/142 143/143/143 144/144/144
g shell_05
f 145/145/145 146/146/146 147/147/147
f 148/148/148 149/149/149 150/150/150
f 151/151/151 152/152/152 153/153/153
f 154/154/154 155/155/155 156/156/156
f 157/157/157 158/158/158 159/159/159
f 160/160/160 161/161/161 162/162/162
f 163/163/163 164/164/164 165/165/165
f 166/166/166 167/167/167 168/168/168
f 169/169/169 170/170/170 171/171/171
f 172/172/172 173/173/173 174/174/174
f 175/175/175 176/176/176 177/177/177
f 178/178/178 179/179/179 180/180/180
g underbody
f 181/181/181 182/182/182 183/183/183
f 184/184/184 185/185/185 186/186/186
f 187/187/187 188/188/188 189/189/189
f 190/190/190 191/191/191 192/192/192
f 193/193/193 194/194/194 195/195/195
f 196/196/196 197/197/197 198/198/198
f 199/199/199 200/200/200 201/201/201
f 202/202/202 203/203/203 204/204/204
f 205/205/205 206/206/206 207/207/207
f 208/208/208 209/209/209 210/210/210
f 211/211/211 212/212/212 213/213/213
f 214/214/214 215/215/215 216/216/216
g prow
f 217/217/217 218/218/218 219/219/219
f 220/220/220 221/221/221 222/222/222
f 223/223/223 224/224/224 225/225/225
f 226/226/226 227/227/227 228/228/228
f 229/229/229 230/230/230 231/231/231
f 232/232/232 233/233/233 234/234/234
f 235/235/235 236/236/236 237/237/237
f 238/238/238 239/239/239 240/240/240
f 241/241/241 242/242/242 243/243/243
f 244/244/244 245/245/245 246/246/246
g caster_housing
f 247/247/247 248/248/248 249/249/249
f 250/250/250 251/251/251 252/252/252
f 253/253/253 254/254/254 255/255/255
f 256/256/256 257/257/257 258/258/258
f 259/259/259 260/260/260 261/261/261
f 262/262/262 263/263/263 264/264/264
f 265/265/265 266/266/266 267/267/267
f 268/268/268 269/269/269 270/270/270
f 271/271/271 272/272/272 273/273/273
f 274/274/274 275/275/275 276/276/276
f 277/277/277 278/278/278 279/279/279
f 280/280/280 281/281/281 282/282/282
g caster_slot
usemtl MI_EBS_KHA_Amber
f 283/283/283 284/284/284 285/285/285
f 286/286/286 287/287/287 288/288/288
f 289/289/289 290/290/290 291/291/291
f 292/292/292 293/293/293 294/294/294
f 295/295/295 296/296/296 297/297/297
f 298/298/298 299/299/299 300/300/300
f 301/301/301 302/302/302 303/303/303
f 304/304/304 305/305/305 306/306/306
f 307/307/307 308/308/308 309/309/309
f 310/310/310 311/311/311 312/312/312
f 313/313/313 314/314/314 315/315/315
f 316/316/316 317/317/317 318/318/318
g fl_hip
usemtl MI_EBS_KHA_Strata
f 319/319/319 320/320/320 321/321/321
f 322/322/322 323/323/323 324/324/324
f 325/325/325 326/326/326 327/327/327
f 328/328/328 329/329/329 330/330/330
f 331/331/331 332/332/332 333/333/333
f 334/334/334 335/335/335 336/336/336
f 337/337/337 338/338/338 339/339/339
f 340/340/340 341/341/341 342/342/342
f 343/343/343 344/344/344 345/345/345
f 346/346/346 347/347/347 348/348/348
f 349/349/349 350/350/350 351/351/351
f 352/352/352 353/353/353 354/354/354
g fl_upper
f 355/355/355 356/356/356 357/357/357
f 358/358/358 359/359/359 360/360/360
f 361/361/361 362/362/362 363/363/363
f 364/364/364 365/365/365 366/366/366
f 367/367/367 368/368/368 369/369/369
f 370/370/370 371/371/371 372/372/372
f 373/373/373 374/374/374 375/375/375
f 376/376/376 377/377/377 378/378/378
f 379/379/379 380/380/380 381/381/381
f 382/382/382 383/383/383 384/384/384
f 385/385/385 386/386/386 387/387/387
f 388/388/388 389/389/389 390/390/390
g fl_knee
f 391/391/391 392/392/392 393/393/393
f 394/394/394 395/395/395 396/396/396
f 397/397/397 398/398/398 399/399/399
f 400/400/400 401/401/401 402/402/402
f 403/403/403 404/404/404 405/405/405
f 406/406/406 407/407/407 408/408/408
f 409/409/409 410/410/410 411/411/411
f 412/412/412 413/413/413 414/414/414
f 415/415/415 416/416/416 417/417/417
f 418/418/418 419/419/419 420/420/420
f 421/421/421 422/422/422 423/423/423
f 424/424/424 425/425/425 426/426/426
g fl_lower
f 427/427/427 428/428/428 429/429/429
f 430/430/430 431/431/431 432/432/432
f 433/433/433 434/434/434 435/435/435
f 436/436/436 437/437/437 438/438/438
f 439/439/439 440/440/440 441/441/441
f 442/442/442 443/443/443 444/444/444
f 445/445/445 446/446/446 447/447/447
f 448/448/448 449/449/449 450/450/450
f 451/451/451 452/452/452 453/453/453
f 454/454/454 455/455/455 456/456/456
f 457/457/457 458/458/458 459/459/459
f 460/460/460 461/461/461 462/462/462
g fl_foot
f 463/463/463 464/464/464 465/465/465
f 466/466/466 467/467/467 468/468/468
f 469/469/469 470/470/470 471/471/471
f 472/472/472 473/473/473 474/474/474
f 475/475/475 476/476/476 477/477/477
f 478/478/478 479/479/479 480/480/480
f 481/481/481 482/482/482 483/483/483
f 484/484/484 485/485/485 486/486/486
f 487/487/487 488/488/488 489/489/489
f 490/490/490 491/491/491 492/492/492
f 493/493/493 494/494/494 495/495/495
f 496/496/496 497/497/497 498/498/498
g fr_hip
f 499/499/499 500/500/500 501/501/501
f 502/502/502 503/503/503 504/504/504
f 505/505/505 506/506/506 507/507/507
f 508/508/508 509/509/509 510/510/510
f 511/511/511 512/512/512 513/513/513
f 514/514/514 515/515/515 516/516/516
f 517/517/517 518/518/518 519/519/519
f 520/520/520 521/521/521 522/522/522
f 523/523/523 524/524/524 525/525/525
f 526/526/526 527/527/527 528/528/528
f 529/529/529 530/530/530 531/531/531
f 532/532/532 533/533/533 534/534/534
g fr_upper
f 535/535/535 536/536/536 537/537/537
f 538/538/538 539/539/539 540/540/540
f 541/541/541 542/542/542 543/543/543
f 544/544/544 545/545/545 546/546/546
f 547/547/547 548/548/548 549/549/549
f 550/550/550 551/551/551 552/552/552
f 553/553/553 554/554/554 555/555/555
f 556/556/556 557/557/557 558/558/558
f 559/559/559 560/560/560 561/561/561
f 562/562/562 563/563/563 564/564/564
f 565/565/565 566/566/566 567/567/567
f 568/568/568 569/569/569 570/570/570
g fr_knee
f 571/571/571 572/572/572 573/573/573
f 574/574/574 575/575/575 576/576/576
f 577/577/577 578/578/578 579/579/579
f 580/580/580 581/581/581 582/582/582
f 583/583/583 584/584/584 585/585/585
f 586/586/586 587/587/587 588/588/588
f 589/589/589 590/590/590 591/591/591
f 592/592/592 593/593/593 594/594/594
f 595/595/595 596/596/596 597/597/597
f 598/598/598 599/599/599 600/600/600
f 601/601/601 602/602/602 603/603/603
f 604/604/604 605/605/605 606/606/606
g fr_lower
f 607/607/607 608/608/608 609/609/609
f 610/610/610 611/611/611 612/612/612
f 613/613/613 614/614/614 615/615/615
f 616/616/616 617/617/617 618/618/618
f 619/619/619 620/620/620 621/621/621
f 622/622/622 623/623/623 624/624/624
f 625/625/625 626/626/626 627/627/627
f 628/628/628 629/629/629 630/630/630
f 631/631/631 632/632/632 633/633/633
f 634/634/634 635/635/635 636/636/636
f 637/637/637 638/638/638 639/639/639
f 640/640/640 641/641/641 642/642/642
g fr_foot
f 643/643/643 644/644/644 645/645/645
f 646/646/646 647/647/647 648/648/648
f 649/649/649 650/650/650 651/651/651
f 652/652/652 653/653/653 654/654/654
f 655/655/655 656/656/656 657/657/657
f 658/658/658 659/659/659 660/660/660
f 661/661/661 662/662/662 663/663/663
f 664/664/664 665/665/665 666/666/666
f 667/667/667 668/668/668 669/669/669
f 670/670/670 671/671/671 672/672/672
f 673/673/673 674/674/674 675/675/675
f 676/676/676 677/677/677 678/678/678
g rl_hip
f 679/679/679 680/680/680 681/681/681
f 682/682/682 683/683/683 684/684/684
f 685/685/685 686/686/686 687/687/687
f 688/688/688 689/689/689 690/690/690
f 691/691/691 692/692/692 693/693/693
f 694/694/694 695/695/695 696/696/696
f 697/697/697 698/698/698 699/699/699
f 700/700/700 701/701/701 702/702/702
f 703/703/703 704/704/704 705/705/705
f 706/706/706 707/707/707 708/708/708
f 709/709/709 710/710/710 711/711/711
f 712/712/712 713/713/713 714/714/714
g rl_upper
f 715/715/715 716/716/716 717/717/717
f 718/718/718 719/719/719 720/720/720
f 721/721/721 722/722/722 723/723/723
f 724/724/724 725/725/725 726/726/726
f 727/727/727 728/728/728 729/729/729
f 730/730/730 731/731/731 732/732/732
f 733/733/733 734/734/734 735/735/735
f 736/736/736 737/737/737 738/738/738
f 739/739/739 740/740/740 741/741/741
f 742/742/742 743/743/743 744/744/744
f 745/745/745 746/746/746 747/747/747
f 748/748/748 749/749/749 750/750/750
g rl_knee
f 751/751/751 752/752/752 753/753/753
f 754/754/754 755/755/755 756/756/756
f 757/757/757 758/758/758 759/759/759
f 760/760/760 761/761/761 762/762/762
f 763/763/763 764/764/764 765/765/765
f 766/766/766 767/767/767 768/768/768
f 769/769/769 770/770/770 771/771/771
f 772/772/772 773/773/773 774/774/774
f 775/775/775 776/776/776 777/777/777
f 778/778/778 779/779/779 780/780/780
f 781/781/781 782/782/782 783/783/783
f 784/784/784 785/785/785 786/786/786
g rl_lower
f 787/787/787 788/788/788 789/789/789
f 790/790/790 791/791/791 792/792/792
f 793/793/793 794/794/794 795/795/795
f 796/796/796 797/797/797 798/798/798
f 799/799/799 800/800/800 801/801/801
f 802/802/802 803/803/803 804/804/804
f 805/805/805 806/806/806 807/807/807
f 808/808/808 809/809/809 810/810/810
f 811/811/811 812/812/812 813/813/813
f 814/814/814 815/815/815 816/816/816
f 817/817/817 818/818/818 819/819/819
f 820/820/820 821/821/821 822/822/822
g rl_foot
f 823/823/823 824/824/824 825/825/825
f 826/826/826 827/827/827 828/828/828
f 829/829/829 830/830/830 831/831/831
f 832/832/832 833/833/833 834/834/834
f 835/835/835 836/836/836 837/837/837
f 838/838/838 839/839/839 840/840/840
f 841/841/841 842/842/842 843/843/843
f 844/844/844 845/845/845 846/846/846
f 847/847/847 848/848/848 849/849/849
f 850/850/850 851/851/851 852/852/852
f 853/853/853 854/854/854 855/855/855
f 856/856/856 857/857/857 858/858/858
g rr_hip
f 859/859/859 860/860/860 861/861/861
f 862/862/862 863/863/863 864/864/864
f 865/865/865 866/866/866 867/867/867
f 868/868/868 869/869/869 870/870/870
f 871/871/871 872/872/872 873/873/873
f 874/874/874 875/875/875 876/876/876
f 877/877/877 878/878/878 879/879/879
f 880/880/880 881/881/881 882/882/882
f 883/883/883 884/884/884 885/885/885
f 886/886/886 887/887/887 888/888/888
f 889/889/889 890/890/890 891/891/891
f 892/892/892 893/893/893 894/894/894
g rr_upper
f 895/895/895 896/896/896 897/897/897
f 898/898/898 899/899/899 900/900/900
f 901/901/901 902/902/902 903/903/903
f 904/904/904 905/905/905 906/906/906
f 907/907/907 908/908/908 909/909/909
f 910/910/910 911/911/911 912/912/912
f 913/913/913 914/914/914 915/915/915
f 916/916/916 917/917/917 918/918/918
f 919/919/919 920/920/920 921/921/921
f 922/922/922 923/923/923 924/924/924
f 925/925/925 926/926/926 927/927/927
f 928/928/928 929/929/929 930/930/930
g rr_knee
f 931/931/931 932/932/932 933/933/933
f 934/934/934 935/935/935 936/936/936
f 937/937/937 938/938/938 939/939/939
f 940/940/940 941/941/941 942/942/942
f 943/943/943 944/944/944 945/945/945
f 946/946/946 947/947/947 948/948/948
f 949/949/949 950/950/950 951/951/951
f 952/952/952 953/953/953 954/954/954
f 955/955/955 956/956/956 957/957/957
f 958/958/958 959/959/959 960/960/960
f 961/961/961 962/962/962 963/963/963
f 964/964/964 965/965/965 966/966/966
g rr_lower
f 967/967/967 968/968/968 969/969/969
f 970/970/970 971/971/971 972/972/972
f 973/973/973 974/974/974 975/975/975
f 976/976/976 977/977/977 978/978/978
f 979/979/979 980/980/980 981/981/981
f 982/982/982 983/983/983 984/984/984
f 985/985/985 986/986/986 987/987/987
f 988/988/988 989/989/989 990/990/990
f 991/991/991 992/992/992 993/993/993
f 994/994/994 995/995/995 996/996/996
f 997/997/997 998/998/998 999/999/999
f 1000/1000/1000 1001/1001/1001 1002/1002/1002
g rr_foot
f 1003/1003/1003 1004/1004/1004 1005/1005/1005
f 1006/1006/1006 1007/1007/1007 1008/1008/1008
f 1009/1009/1009 1010/1010/1010 1011/1011/1011
f 1012/1012/1012 1013/1013/1013 1014/1014/1014
f 1015/1015/1015 1016/1016/1016 1017/1017/1017
f 1018/1018/1018 1019/1019/1019 1020/1020/1020
f 1021/1021/1021 1022/1022/1022 1023/1023/1023
f 1024/1024/1024 1025/1025/1025 1026/1026/1026
f 1027/1027/1027 1028/1028/1028 1029/1029/1029
f 1030/1030/1030 1031/1031/1031 1032/1032/1032
f 1033/1033/1033 1034/1034/1034 1035/1035/1035
f 1036/1036/1036 1037/1037/1037 1038/1038/1038
