<svg xmlns="http://www.w3.org/2000/svg" width="1600" height="1150" viewBox="0 0 1600 1150"><metadata>Author: Angelis Pseftis. Derived motion reference; not Unreal evidence.</metadata><rect width="1600" height="1150" fill="#eeeae1"/>
<text x="40" y="52" font-family="sans-serif" font-size="32" fill="#26333c">Growth Basin matrix — state reference</text>
<text x="40" y="88" font-family="sans-serif" font-size="18" fill="#26333c">SCHEMATIC • CANDIDATE • NOT AN ANIMATION CLIP OR RUNTIME TEST</text>
<rect x="40" y="125" width="500" height="275" stroke="#b7b4aa" stroke-width="2" fill="none"/>
<text x="58" y="157" font-family="sans-serif" font-size="24" fill="#26333c">Rest</text>
<ellipse cx="290" cy="260" rx="115" ry="55" fill="#454641" stroke="#56554e" stroke-width="4"/>
<path d="M205,240 Q290,222 375,240" fill="none" stroke="#c1a564" stroke-width="2"/>
<path d="M205,260 Q290,242 375,260" fill="none" stroke="#c1a564" stroke-width="2"/>
<path d="M205,280 Q290,262 375,280" fill="none" stroke="#c1a564" stroke-width="2"/>
<text x="58" y="341" font-family="sans-serif" font-size="16" fill="#26333c">Unbroken fluid surface; no rigid crust</text>
<text x="58" y="365" font-family="sans-serif" font-size="17" fill="#26333c">Dark calm pool</text>
<rect x="560" y="125" width="500" height="275" stroke="#b7b4aa" stroke-width="2" fill="none"/>
<text x="578" y="157" font-family="sans-serif" font-size="24" fill="#26333c">Molt accepted</text>
<ellipse cx="810" cy="260" rx="115" ry="55" fill="#796338" stroke="#56554e" stroke-width="4"/>
<path d="M725,240 Q810,230 895,240" fill="none" stroke="#c1a564" stroke-width="2"/>
<path d="M725,260 Q810,250 895,260" fill="none" stroke="#c1a564" stroke-width="2"/>
<path d="M725,280 Q810,270 895,280" fill="none" stroke="#c1a564" stroke-width="2"/>
<text x="578" y="341" font-family="sans-serif" font-size="16" fill="#26333c">Unbroken fluid surface; no rigid crust</text>
<text x="578" y="365" font-family="sans-serif" font-size="17" fill="#26333c">Bright continuous liquid</text>
<rect x="1080" y="125" width="500" height="275" stroke="#b7b4aa" stroke-width="2" fill="none"/>
<text x="1098" y="157" font-family="sans-serif" font-size="24" fill="#26333c">Progress</text>
<ellipse cx="1330" cy="260" rx="115" ry="55" fill="#796338" stroke="#56554e" stroke-width="4"/>
<path d="M1245,240 Q1330,238 1415,240" fill="none" stroke="#c1a564" stroke-width="2"/>
<path d="M1245,260 Q1330,258 1415,260" fill="none" stroke="#c1a564" stroke-width="2"/>
<path d="M1245,280 Q1330,278 1415,280" fill="none" stroke="#c1a564" stroke-width="2"/>
<text x="1098" y="341" font-family="sans-serif" font-size="16" fill="#26333c">Unbroken fluid surface; no rigid crust</text>
<text x="1098" y="365" font-family="sans-serif" font-size="17" fill="#26333c">Slow ripple; 80 state ticks</text>
<rect x="40" y="420" width="500" height="275" stroke="#b7b4aa" stroke-width="2" fill="none"/>
<text x="58" y="452" font-family="sans-serif" font-size="24" fill="#26333c">Completion</text>
<ellipse cx="290" cy="555" rx="115" ry="55" fill="#796338" stroke="#56554e" stroke-width="4"/>
<path d="M205,535 Q290,517 375,535" fill="none" stroke="#c1a564" stroke-width="2"/>
<path d="M205,555 Q290,537 375,555" fill="none" stroke="#c1a564" stroke-width="2"/>
<path d="M205,575 Q290,557 375,575" fill="none" stroke="#c1a564" stroke-width="2"/>
<text x="58" y="636" font-family="sans-serif" font-size="16" fill="#26333c">Unbroken fluid surface; no rigid crust</text>
<text x="58" y="660" font-family="sans-serif" font-size="17" fill="#26333c">One crack-and-settle beat</text>
<rect x="560" y="420" width="500" height="275" stroke="#b7b4aa" stroke-width="2" fill="none"/>
<text x="578" y="452" font-family="sans-serif" font-size="24" fill="#26333c">Cancelled</text>
<ellipse cx="810" cy="555" rx="115" ry="55" fill="#454641" stroke="#56554e" stroke-width="4"/>
<path d="M725,535 Q810,525 895,535" fill="none" stroke="#c1a564" stroke-width="2"/>
<path d="M725,555 Q810,545 895,555" fill="none" stroke="#c1a564" stroke-width="2"/>
<path d="M725,575 Q810,565 895,575" fill="none" stroke="#c1a564" stroke-width="2"/>
<text x="578" y="636" font-family="sans-serif" font-size="16" fill="#26333c">Unbroken fluid surface; no rigid crust</text>
<text x="578" y="660" font-family="sans-serif" font-size="17" fill="#26333c">Settle; no success beat</text>
<rect x="1080" y="420" width="500" height="275" stroke="#b7b4aa" stroke-width="2" fill="none"/>
<text x="1098" y="452" font-family="sans-serif" font-size="24" fill="#26333c">Reload</text>
<ellipse cx="1330" cy="555" rx="115" ry="55" fill="#454641" stroke="#56554e" stroke-width="4"/>
<path d="M1245,535 Q1330,533 1415,535" fill="none" stroke="#c1a564" stroke-width="2"/>
<path d="M1245,555 Q1330,553 1415,555" fill="none" stroke="#c1a564" stroke-width="2"/>
<path d="M1245,575 Q1330,573 1415,575" fill="none" stroke="#c1a564" stroke-width="2"/>
<text x="1098" y="636" font-family="sans-serif" font-size="16" fill="#26333c">Unbroken fluid surface; no rigid crust</text>
<text x="1098" y="660" font-family="sans-serif" font-size="17" fill="#26333c">Restore current progress</text>
<text x="40" y="745" font-family="sans-serif" font-size="17" fill="#26333c">REDUCED MOTION</text>
<text x="40" y="769" font-family="sans-serif" font-size="18" fill="#26333c">Static bright pool plus progress marker and vulnerable posture.</text>
<text x="40" y="804" font-family="sans-serif" font-size="17" fill="#26333c">CANCEL / RESTORE</text>
<text x="40" y="828" font-family="sans-serif" font-size="18" fill="#26333c">Stop progress emphasis on cancellation. Do not change anatomy/statistics ahead of authoritative completion.</text>
<text x="40" y="863" font-family="sans-serif" font-size="17" fill="#26333c">LATER ACCEPTANCE</text>
<text x="40" y="887" font-family="sans-serif" font-size="18" fill="#26333c">80 ticks; 25 Dawn; 150% incoming damage; cancel without refund; old adaptation persists until success. No rigid crust.</text>
<text x="40" y="922" font-family="sans-serif" font-size="15" fill="#26333c">Contracts: SPEC-BLD-016.KA.BASIN, REL-FAC-009, REL-FAC-026.KA.ADAPT</text>
<text x="40" y="1115" font-family="sans-serif" font-size="16" fill="#26333c">Author: Angelis Pseftis • State board only; labels specify intent, not executed simulation evidence.</text>
</svg>