# SM_EBS_MER_BLD_002
# Author: Angelis Pseftis
# Frame: Unreal +X forward, +Y right, +Z up; centimeters; no axis conversion
# Kit: ebs-meshkit-v3
# Production ID EBS-MER-BLD-002
# Revision ebs-mer-bld-002-concept-v3
# LOD1
o SM_EBS_MER_BLD_002
v -140.0 -180.0 0.0
v 140.0 -180.0 0.0
v 134.0 -172.0 25.0
v -140.0 -180.0 0.0
v 134.0 -172.0 25.0
v -134.0 -172.0 25.0
v 140.0 -180.0 0.0
v 180.0 -140.0 0.0
v 172.0 -134.0 25.0
v 140.0 -180.0 0.0
v 172.0 -134.0 25.0
v 134.0 -172.0 25.0
v 180.0 -140.0 0.0
v 180.0 140.0 0.0
v 172.0 134.0 25.0
v 180.0 -140.0 0.0
v 172.0 134.0 25.0
v 172.0 -134.0 25.0
v 180.0 140.0 0.0
v 140.0 180.0 0.0
v 134.0 172.0 25.0
v 180.0 140.0 0.0
v 134.0 172.0 25.0
v 172.0 134.0 25.0
v 140.0 180.0 0.0
v -140.0 180.0 0.0
v -134.0 172.0 25.0
v 140.0 180.0 0.0
v -134.0 172.0 25.0
v 134.0 172.0 25.0
v -140.0 180.0 0.0
v -180.0 140.0 0.0
v -172.0 134.0 25.0
v -140.0 180.0 0.0
v -172.0 134.0 25.0
v -134.0 172.0 25.0
v -180.0 140.0 0.0
v -180.0 -140.0 0.0
v -172.0 -134.0 25.0
v -180.0 140.0 0.0
v -172.0 -134.0 25.0
v -172.0 134.0 25.0
v -180.0 -140.0 0.0
v -140.0 -180.0 0.0
v -134.0 -172.0 25.0
v -180.0 -140.0 0.0
v -134.0 -172.0 25.0
v -172.0 -134.0 25.0
v -134.0 -172.0 25.0
v 134.0 -172.0 25.0
v 134.0 -172.0 50.0
v -134.0 -172.0 25.0
v 134.0 -172.0 50.0
v -134.0 -172.0 50.0
v 134.0 -172.0 25.0
v 172.0 -134.0 25.0
v 172.0 -134.0 50.0
v 134.0 -172.0 25.0
v 172.0 -134.0 50.0
v 134.0 -172.0 50.0
v 172.0 -134.0 25.0
v 172.0 134.0 25.0
v 172.0 134.0 50.0
v 172.0 -134.0 25.0
v 172.0 134.0 50.0
v 172.0 -134.0 50.0
v 172.0 134.0 25.0
v 134.0 172.0 25.0
v 134.0 172.0 50.0
v 172.0 134.0 25.0
v 134.0 172.0 50.0
v 172.0 134.0 50.0
v 134.0 172.0 25.0
v -134.0 172.0 25.0
v -134.0 172.0 50.0
v 134.0 172.0 25.0
v -134.0 172.0 50.0
v 134.0 172.0 50.0
v -134.0 172.0 25.0
v -172.0 134.0 25.0
v -172.0 134.0 50.0
v -134.0 172.0 25.0
v -172.0 134.0 50.0
v -134.0 172.0 50.0
v -172.0 134.0 25.0
v -172.0 -134.0 25.0
v -172.0 -134.0 50.0
v -172.0 134.0 25.0
v -172.0 -134.0 50.0
v -172.0 134.0 50.0
v -172.0 -134.0 25.0
v -134.0 -172.0 25.0
v -134.0 -172.0 50.0
v -172.0 -134.0 25.0
v -134.0 -172.0 50.0
v -172.0 -134.0 50.0
v -134.0 -172.0 50.0
v 134.0 -172.0 50.0
v 172.0 -134.0 50.0
v -134.0 -172.0 50.0
v 172.0 -134.0 50.0
v 172.0 134.0 50.0
v -134.0 -172.0 50.0
v 172.0 134.0 50.0
v 134.0 172.0 50.0
v -134.0 -172.0 50.0
v 134.0 172.0 50.0
v -134.0 172.0 50.0
v -134.0 -172.0 50.0
v -134.0 172.0 50.0
v -172.0 134.0 50.0
v -134.0 -172.0 50.0
v -172.0 134.0 50.0
v -172.0 -134.0 50.0
v -93.0 -130.0 50.0
v 93.0 -130.0 50.0
v 93.0 -130.0 92.0
v -93.0 -130.0 50.0
v 93.0 -130.0 92.0
v -93.0 -130.0 92.0
v 93.0 -130.0 50.0
v 130.0 -93.0 50.0
v 130.0 -93.0 92.0
v 93.0 -130.0 50.0
v 130.0 -93.0 92.0
v 93.0 -130.0 92.0
v 130.0 -93.0 50.0
v 130.0 93.0 50.0
v 130.0 93.0 92.0
v 130.0 -93.0 50.0
v 130.0 93.0 92.0
v 130.0 -93.0 92.0
v 130.0 93.0 50.0
v 93.0 130.0 50.0
v 93.0 130.0 92.0
v 130.0 93.0 50.0
v 93.0 130.0 92.0
v 130.0 93.0 92.0
v 93.0 130.0 50.0
v -93.0 130.0 50.0
v -93.0 130.0 92.0
v 93.0 130.0 50.0
v -93.0 130.0 92.0
v 93.0 130.0 92.0
v -93.0 130.0 50.0
v -130.0 93.0 50.0
v -130.0 93.0 92.0
v -93.0 130.0 50.0
v -130.0 93.0 92.0
v -93.0 130.0 92.0
v -130.0 93.0 50.0
v -130.0 -93.0 50.0
v -130.0 -93.0 92.0
v -130.0 93.0 50.0
v -130.0 -93.0 92.0
v -130.0 93.0 92.0
v -130.0 -93.0 50.0
v -93.0 -130.0 50.0
v -93.0 -130.0 92.0
v -130.0 -93.0 50.0
v -93.0 -130.0 92.0
v -130.0 -93.0 92.0
v -93.0 -130.0 92.0
v 93.0 -130.0 92.0
v 130.0 -93.0 92.0
v -93.0 -130.0 92.0
v 130.0 -93.0 92.0
v 130.0 93.0 92.0
v -93.0 -130.0 92.0
v 130.0 93.0 92.0
v 93.0 130.0 92.0
v -93.0 -130.0 92.0
v 93.0 130.0 92.0
v -93.0 130.0 92.0
v -93.0 -130.0 92.0
v -93.0 130.0 92.0
v -130.0 93.0 92.0
v -93.0 -130.0 92.0
v -130.0 93.0 92.0
v -130.0 -93.0 92.0
v 103.0061 81.7929 92.0
v 81.7929 103.0061 92.0
v 81.7929 103.0061 172.0
v 103.0061 81.7929 92.0
v 81.7929 103.0061 172.0
v 103.0061 81.7929 172.0
v 71.8934 93.1066 92.0
v 71.8934 93.1066 172.0
v 81.7929 103.0061 172.0
v 71.8934 93.1066 92.0
v 81.7929 103.0061 172.0
v 81.7929 103.0061 92.0
v 93.1066 71.8934 92.0
v 103.0061 81.7929 92.0
v 103.0061 81.7929 172.0
v 93.1066 71.8934 92.0
v 103.0061 81.7929 172.0
v 93.1066 71.8934 172.0
v 93.1066 71.8934 172.0
v 103.0061 81.7929 172.0
v 81.7929 103.0061 172.0
v 93.1066 71.8934 172.0
v 81.7929 103.0061 172.0
v 71.8934 93.1066 172.0
v -81.7929 103.0061 92.0
v -103.0061 81.7929 92.0
v -103.0061 81.7929 172.0
v -81.7929 103.0061 92.0
v -103.0061 81.7929 172.0
v -81.7929 103.0061 172.0
v -93.1066 71.8934 92.0
v -93.1066 71.8934 172.0
v -103.0061 81.7929 172.0
v -93.1066 71.8934 92.0
v -103.0061 81.7929 172.0
v -103.0061 81.7929 92.0
v -71.8934 93.1066 92.0
v -81.7929 103.0061 92.0
v -81.7929 103.0061 172.0
v -71.8934 93.1066 92.0
v -81.7929 103.0061 172.0
v -71.8934 93.1066 172.0
v -71.8934 93.1066 172.0
v -81.7929 103.0061 172.0
v -103.0061 81.7929 172.0
v -71.8934 93.1066 172.0
v -103.0061 81.7929 172.0
v -93.1066 71.8934 172.0
v -103.0061 -81.7929 92.0
v -81.7929 -103.0061 92.0
v -81.7929 -103.0061 172.0
v -103.0061 -81.7929 92.0
v -81.7929 -103.0061 172.0
v -103.0061 -81.7929 172.0
v -71.8934 -93.1066 92.0
v -71.8934 -93.1066 172.0
v -81.7929 -103.0061 172.0
v -71.8934 -93.1066 92.0
v -81.7929 -103.0061 172.0
v -81.7929 -103.0061 92.0
v -93.1066 -71.8934 92.0
v -103.0061 -81.7929 92.0
v -103.0061 -81.7929 172.0
v -93.1066 -71.8934 92.0
v -103.0061 -81.7929 172.0
v -93.1066 -71.8934 172.0
v -93.1066 -71.8934 172.0
v -103.0061 -81.7929 172.0
v -81.7929 -103.0061 172.0
v -93.1066 -71.8934 172.0
v -81.7929 -103.0061 172.0
v -71.8934 -93.1066 172.0
v 81.7929 -103.0061 92.0
v 103.0061 -81.7929 92.0
v 103.0061 -81.7929 172.0
v 81.7929 -103.0061 92.0
v 103.0061 -81.7929 172.0
v 81.7929 -103.0061 172.0
v 93.1066 -71.8934 92.0
v 93.1066 -71.8934 172.0
v 103.0061 -81.7929 172.0
v 93.1066 -71.8934 92.0
v 103.0061 -81.7929 172.0
v 103.0061 -81.7929 92.0
v 71.8934 -93.1066 92.0
v 81.7929 -103.0061 92.0
v 81.7929 -103.0061 172.0
v 71.8934 -93.1066 92.0
v 81.7929 -103.0061 172.0
v 71.8934 -93.1066 172.0
v 71.8934 -93.1066 172.0
v 81.7929 -103.0061 172.0
v 103.0061 -81.7929 172.0
v 71.8934 -93.1066 172.0
v 103.0061 -81.7929 172.0
v 93.1066 -71.8934 172.0
v -65.0 -100.0 92.0
v 65.0 -100.0 92.0
v 65.0 -100.0 532.0
v -65.0 -100.0 92.0
v 65.0 -100.0 532.0
v -65.0 -100.0 532.0
v 65.0 -100.0 92.0
v 100.0 -65.0 92.0
v 100.0 -65.0 532.0
v 65.0 -100.0 92.0
v 100.0 -65.0 532.0
v 65.0 -100.0 532.0
v 100.0 65.0 92.0
v 65.0 100.0 92.0
v 65.0 100.0 532.0
v 100.0 65.0 92.0
v 65.0 100.0 532.0
v 100.0 65.0 532.0
v 65.0 100.0 92.0
v -65.0 100.0 92.0
v -65.0 100.0 532.0
v 65.0 100.0 92.0
v -65.0 100.0 532.0
v 65.0 100.0 532.0
v -65.0 100.0 92.0
v -100.0 65.0 92.0
v -100.0 65.0 532.0
v -65.0 100.0 92.0
v -100.0 65.0 532.0
v -65.0 100.0 532.0
v -100.0 65.0 92.0
v -100.0 -65.0 92.0
v -100.0 -65.0 532.0
v -100.0 65.0 92.0
v -100.0 -65.0 532.0
v -100.0 65.0 532.0
v -100.0 -65.0 92.0
v -65.0 -100.0 92.0
v -65.0 -100.0 532.0
v -100.0 -65.0 92.0
v -65.0 -100.0 532.0
v -100.0 -65.0 532.0
v 100.0 -65.0 92.0
v 100.0 65.0 92.0
v 100.0 65.0 238.5
v 100.0 -65.0 92.0
v 100.0 65.0 238.5
v 100.0 -65.0 238.5
v 100.0 -65.0 514.5
v 100.0 65.0 514.5
v 100.0 65.0 532.0
v 100.0 -65.0 514.5
v 100.0 65.0 532.0
v 100.0 -65.0 532.0
v 70.0 -50.0 238.5
v 70.0 50.0 238.5
v 70.0 50.0 514.5
v 70.0 -50.0 238.5
v 70.0 50.0 514.5
v 70.0 -50.0 514.5
v 70.0 -50.0 238.5
v 100.0 -50.0 238.5
v 100.0 50.0 238.5
v 70.0 -50.0 238.5
v 100.0 50.0 238.5
v 70.0 50.0 238.5
v 70.0 50.0 514.5
v 100.0 50.0 514.5
v 100.0 -50.0 514.5
v 70.0 50.0 514.5
v 100.0 -50.0 514.5
v 70.0 -50.0 514.5
v 70.0 -50.0 514.5
v 100.0 -50.0 514.5
v 100.0 -50.0 238.5
v 70.0 -50.0 514.5
v 100.0 -50.0 238.5
v 70.0 -50.0 238.5
v 70.0 50.0 238.5
v 100.0 50.0 238.5
v 100.0 50.0 514.5
v 70.0 50.0 238.5
v 100.0 50.0 514.5
v 70.0 50.0 514.5
v 89.0 -42.0 246.5
v 89.0 42.0 246.5
v 89.0 42.0 506.5
v 89.0 -42.0 246.5
v 89.0 42.0 506.5
v 89.0 -42.0 506.5
v 75.0 -42.0 246.5
v 75.0 -42.0 506.5
v 75.0 42.0 506.5
v 75.0 -42.0 246.5
v 75.0 42.0 506.5
v 75.0 42.0 246.5
v 75.0 42.0 246.5
v 75.0 42.0 506.5
v 89.0 42.0 506.5
v 75.0 42.0 246.5
v 89.0 42.0 506.5
v 89.0 42.0 246.5
v 75.0 -42.0 246.5
v 89.0 -42.0 246.5
v 89.0 -42.0 506.5
v 75.0 -42.0 246.5
v 89.0 -42.0 506.5
v 75.0 -42.0 506.5
v 75.0 -42.0 506.5
v 89.0 -42.0 506.5
v 89.0 42.0 506.5
v 75.0 -42.0 506.5
v 89.0 42.0 506.5
v 75.0 42.0 506.5
v 75.0 -42.0 246.5
v 75.0 42.0 246.5
v 89.0 42.0 246.5
v 75.0 -42.0 246.5
v 89.0 42.0 246.5
v 89.0 -42.0 246.5
v 90.2782 80.3787 177.0
v 80.3787 90.2782 177.0
v 80.3787 90.2782 516.0
v 90.2782 80.3787 177.0
v 80.3787 90.2782 516.0
v 90.2782 80.3787 516.0
v 77.5503 87.4497 177.0
v 77.5503 87.4497 516.0
v 80.3787 90.2782 516.0
v 77.5503 87.4497 177.0
v 80.3787 90.2782 516.0
v 80.3787 90.2782 177.0
v 87.4497 77.5503 177.0
v 90.2782 80.3787 177.0
v 90.2782 80.3787 516.0
v 87.4497 77.5503 177.0
v 90.2782 80.3787 516.0
v 87.4497 77.5503 516.0
v 87.4497 77.5503 516.0
v 90.2782 80.3787 516.0
v 80.3787 90.2782 516.0
v 87.4497 77.5503 516.0
v 80.3787 90.2782 516.0
v 77.5503 87.4497 516.0
v 87.4497 77.5503 177.0
v 77.5503 87.4497 177.0
v 80.3787 90.2782 177.0
v 87.4497 77.5503 177.0
v 80.3787 90.2782 177.0
v 90.2782 80.3787 177.0
v -80.3787 90.2782 177.0
v -90.2782 80.3787 177.0
v -90.2782 80.3787 516.0
v -80.3787 90.2782 177.0
v -90.2782 80.3787 516.0
v -80.3787 90.2782 516.0
v -87.4497 77.5503 177.0
v -87.4497 77.5503 516.0
v -90.2782 80.3787 516.0
v -87.4497 77.5503 177.0
v -90.2782 80.3787 516.0
v -90.2782 80.3787 177.0
v -77.5503 87.4497 177.0
v -80.3787 90.2782 177.0
v -80.3787 90.2782 516.0
v -77.5503 87.4497 177.0
v -80.3787 90.2782 516.0
v -77.5503 87.4497 516.0
v -77.5503 87.4497 516.0
v -80.3787 90.2782 516.0
v -90.2782 80.3787 516.0
v -77.5503 87.4497 516.0
v -90.2782 80.3787 516.0
v -87.4497 77.5503 516.0
v -77.5503 87.4497 177.0
v -87.4497 77.5503 177.0
v -90.2782 80.3787 177.0
v -77.5503 87.4497 177.0
v -90.2782 80.3787 177.0
v -80.3787 90.2782 177.0
v -90.2782 -80.3787 177.0
v -80.3787 -90.2782 177.0
v -80.3787 -90.2782 516.0
v -90.2782 -80.3787 177.0
v -80.3787 -90.2782 516.0
v -90.2782 -80.3787 516.0
v -77.5503 -87.4497 177.0
v -77.5503 -87.4497 516.0
v -80.3787 -90.2782 516.0
v -77.5503 -87.4497 177.0
v -80.3787 -90.2782 516.0
v -80.3787 -90.2782 177.0
v -87.4497 -77.5503 177.0
v -90.2782 -80.3787 177.0
v -90.2782 -80.3787 516.0
v -87.4497 -77.5503 177.0
v -90.2782 -80.3787 516.0
v -87.4497 -77.5503 516.0
v -87.4497 -77.5503 516.0
v -90.2782 -80.3787 516.0
v -80.3787 -90.2782 516.0
v -87.4497 -77.5503 516.0
v -80.3787 -90.2782 516.0
v -77.5503 -87.4497 516.0
v -87.4497 -77.5503 177.0
v -77.5503 -87.4497 177.0
v -80.3787 -90.2782 177.0
v -87.4497 -77.5503 177.0
v -80.3787 -90.2782 177.0
v -90.2782 -80.3787 177.0
v 80.3787 -90.2782 177.0
v 90.2782 -80.3787 177.0
v 90.2782 -80.3787 516.0
v 80.3787 -90.2782 177.0
v 90.2782 -80.3787 516.0
v 80.3787 -90.2782 516.0
v 87.4497 -77.5503 177.0
v 87.4497 -77.5503 516.0
v 90.2782 -80.3787 516.0
v 87.4497 -77.5503 177.0
v 90.2782 -80.3787 516.0
v 90.2782 -80.3787 177.0
v 77.5503 -87.4497 177.0
v 80.3787 -90.2782 177.0
v 80.3787 -90.2782 516.0
v 77.5503 -87.4497 177.0
v 80.3787 -90.2782 516.0
v 77.5503 -87.4497 516.0
v 77.5503 -87.4497 516.0
v 80.3787 -90.2782 516.0
v 90.2782 -80.3787 516.0
v 77.5503 -87.4497 516.0
v 90.2782 -80.3787 516.0
v 87.4497 -77.5503 516.0
v 77.5503 -87.4497 177.0
v 87.4497 -77.5503 177.0
v 90.2782 -80.3787 177.0
v 77.5503 -87.4497 177.0
v 90.2782 -80.3787 177.0
v 80.3787 -90.2782 177.0
v -67.0 -102.0 521.0
v 67.0 -102.0 521.0
v 67.0 -102.0 529.0
v -67.0 -102.0 521.0
v 67.0 -102.0 529.0
v -67.0 -102.0 529.0
v 67.0 -102.0 521.0
v 102.0 -67.0 521.0
v 102.0 -67.0 529.0
v 67.0 -102.0 521.0
v 102.0 -67.0 529.0
v 67.0 -102.0 529.0
v 102.0 -67.0 521.0
v 102.0 67.0 521.0
v 102.0 67.0 529.0
v 102.0 -67.0 521.0
v 102.0 67.0 529.0
v 102.0 -67.0 529.0
v 102.0 67.0 521.0
v 67.0 102.0 521.0
v 67.0 102.0 529.0
v 102.0 67.0 521.0
v 67.0 102.0 529.0
v 102.0 67.0 529.0
v 67.0 102.0 521.0
v -67.0 102.0 521.0
v -67.0 102.0 529.0
v 67.0 102.0 521.0
v -67.0 102.0 529.0
v 67.0 102.0 529.0
v -67.0 102.0 521.0
v -102.0 67.0 521.0
v -102.0 67.0 529.0
v -67.0 102.0 521.0
v -102.0 67.0 529.0
v -67.0 102.0 529.0
v -102.0 67.0 521.0
v -102.0 -67.0 521.0
v -102.0 -67.0 529.0
v -102.0 67.0 521.0
v -102.0 -67.0 529.0
v -102.0 67.0 529.0
v -102.0 -67.0 521.0
v -67.0 -102.0 521.0
v -67.0 -102.0 529.0
v -102.0 -67.0 521.0
v -67.0 -102.0 529.0
v -102.0 -67.0 529.0
v -102.0 -67.0 521.0
v -102.0 67.0 521.0
v -67.0 102.0 521.0
v -102.0 -67.0 521.0
v -67.0 102.0 521.0
v 67.0 102.0 521.0
v -102.0 -67.0 521.0
v 67.0 102.0 521.0
v 102.0 67.0 521.0
v -102.0 -67.0 521.0
v 102.0 67.0 521.0
v 102.0 -67.0 521.0
v -102.0 -67.0 521.0
v 102.0 -67.0 521.0
v 67.0 -102.0 521.0
v -102.0 -67.0 521.0
v 67.0 -102.0 521.0
v -67.0 -102.0 521.0
v -67.0 -102.0 529.0
v 67.0 -102.0 529.0
v 102.0 -67.0 529.0
v -67.0 -102.0 529.0
v 102.0 -67.0 529.0
v 102.0 67.0 529.0
v -67.0 -102.0 529.0
v 102.0 67.0 529.0
v 67.0 102.0 529.0
v -67.0 -102.0 529.0
v 67.0 102.0 529.0
v -67.0 102.0 529.0
v -67.0 -102.0 529.0
v -67.0 102.0 529.0
v -102.0 67.0 529.0
v -67.0 -102.0 529.0
v -102.0 67.0 529.0
v -102.0 -67.0 529.0
v -90.0 -135.0 532.0
v 90.0 -135.0 532.0
v 90.0 -135.0 598.0
v -90.0 -135.0 532.0
v 90.0 -135.0 598.0
v -90.0 -135.0 598.0
v 90.0 -135.0 532.0
v 135.0 -90.0 532.0
v 135.0 -90.0 598.0
v 90.0 -135.0 532.0
v 135.0 -90.0 598.0
v 90.0 -135.0 598.0
v 135.0 -90.0 532.0
v 135.0 90.0 532.0
v 135.0 90.0 598.0
v 135.0 -90.0 532.0
v 135.0 90.0 598.0
v 135.0 -90.0 598.0
v 135.0 90.0 532.0
v 90.0 135.0 532.0
v 90.0 135.0 598.0
v 135.0 90.0 532.0
v 90.0 135.0 598.0
v 135.0 90.0 598.0
v 90.0 135.0 532.0
v -90.0 135.0 532.0
v -90.0 135.0 598.0
v 90.0 135.0 532.0
v -90.0 135.0 598.0
v 90.0 135.0 598.0
v -90.0 135.0 532.0
v -135.0 90.0 532.0
v -135.0 90.0 598.0
v -90.0 135.0 532.0
v -135.0 90.0 598.0
v -90.0 135.0 598.0
v -135.0 90.0 532.0
v -135.0 -90.0 532.0
v -135.0 -90.0 598.0
v -135.0 90.0 532.0
v -135.0 -90.0 598.0
v -135.0 90.0 598.0
v -135.0 -90.0 532.0
v -90.0 -135.0 532.0
v -90.0 -135.0 598.0
v -135.0 -90.0 532.0
v -90.0 -135.0 598.0
v -135.0 -90.0 598.0
v -135.0 -90.0 532.0
v -135.0 90.0 532.0
v -90.0 135.0 532.0
v -135.0 -90.0 532.0
v -90.0 135.0 532.0
v 90.0 135.0 532.0
v -135.0 -90.0 532.0
v 90.0 135.0 532.0
v 135.0 90.0 532.0
v -135.0 -90.0 532.0
v 135.0 90.0 532.0
v 135.0 -90.0 532.0
v -135.0 -90.0 532.0
v 135.0 -90.0 532.0
v 90.0 -135.0 532.0
v -135.0 -90.0 532.0
v 90.0 -135.0 532.0
v -90.0 -135.0 532.0
v -90.0 -135.0 598.0
v 90.0 -135.0 598.0
v 135.0 -90.0 598.0
v -90.0 -135.0 598.0
v 135.0 -90.0 598.0
v 135.0 90.0 598.0
v -90.0 -135.0 598.0
v 135.0 90.0 598.0
v 90.0 135.0 598.0
v -90.0 -135.0 598.0
v 90.0 135.0 598.0
v -90.0 135.0 598.0
v -90.0 -135.0 598.0
v -90.0 135.0 598.0
v -135.0 90.0 598.0
v -90.0 -135.0 598.0
v -135.0 90.0 598.0
v -135.0 -90.0 598.0
v 141.0 -53.0 555.0
v 141.0 53.0 555.0
v 141.0 53.0 575.0
v 141.0 -53.0 555.0
v 141.0 53.0 575.0
v 141.0 -53.0 575.0
v 133.0 53.0 555.0
v 133.0 53.0 575.0
v 141.0 53.0 575.0
v 133.0 53.0 555.0
v 141.0 53.0 575.0
v 141.0 53.0 555.0
v 133.0 -53.0 555.0
v 141.0 -53.0 555.0
v 141.0 -53.0 575.0
v 133.0 -53.0 555.0
v 141.0 -53.0 575.0
v 133.0 -53.0 575.0
v 133.0 -53.0 575.0
v 141.0 -53.0 575.0
v 141.0 53.0 575.0
v 133.0 -53.0 575.0
v 141.0 53.0 575.0
v 133.0 53.0 575.0
v 133.0 -53.0 555.0
v 133.0 53.0 555.0
v 141.0 53.0 555.0
v 133.0 -53.0 555.0
v 141.0 53.0 555.0
v 141.0 -53.0 555.0
v 53.0 141.0 555.0
v -53.0 141.0 555.0
v -53.0 141.0 575.0
v 53.0 141.0 555.0
v -53.0 141.0 575.0
v 53.0 141.0 575.0
v -53.0 133.0 555.0
v -53.0 133.0 575.0
v -53.0 141.0 575.0
v -53.0 133.0 555.0
v -53.0 141.0 575.0
v -53.0 141.0 555.0
v 53.0 133.0 555.0
v 53.0 141.0 555.0
v 53.0 141.0 575.0
v 53.0 133.0 555.0
v 53.0 141.0 575.0
v 53.0 133.0 575.0
v 53.0 133.0 575.0
v 53.0 141.0 575.0
v -53.0 141.0 575.0
v 53.0 133.0 575.0
v -53.0 141.0 575.0
v -53.0 133.0 575.0
v 53.0 133.0 555.0
v -53.0 133.0 555.0
v -53.0 141.0 555.0
v 53.0 133.0 555.0
v -53.0 141.0 555.0
v 53.0 141.0 555.0
v -141.0 53.0 555.0
v -141.0 -53.0 555.0
v -141.0 -53.0 575.0
v -141.0 53.0 555.0
v -141.0 -53.0 575.0
v -141.0 53.0 575.0
v -133.0 -53.0 555.0
v -133.0 -53.0 575.0
v -141.0 -53.0 575.0
v -133.0 -53.0 555.0
v -141.0 -53.0 575.0
v -141.0 -53.0 555.0
v -133.0 53.0 555.0
v -141.0 53.0 555.0
v -141.0 53.0 575.0
v -133.0 53.0 555.0
v -141.0 53.0 575.0
v -133.0 53.0 575.0
v -133.0 53.0 575.0
v -141.0 53.0 575.0
v -141.0 -53.0 575.0
v -133.0 53.0 575.0
v -141.0 -53.0 575.0
v -133.0 -53.0 575.0
v -133.0 53.0 555.0
v -133.0 -53.0 555.0
v -141.0 -53.0 555.0
v -133.0 53.0 555.0
v -141.0 -53.0 555.0
v -141.0 53.0 555.0
v -53.0 -141.0 555.0
v 53.0 -141.0 555.0
v 53.0 -141.0 575.0
v -53.0 -141.0 555.0
v 53.0 -141.0 575.0
v -53.0 -141.0 575.0
v 53.0 -133.0 555.0
v 53.0 -133.0 575.0
v 53.0 -141.0 575.0
v 53.0 -133.0 555.0
v 53.0 -141.0 575.0
v 53.0 -141.0 555.0
v -53.0 -133.0 555.0
v -53.0 -141.0 555.0
v -53.0 -141.0 575.0
v -53.0 -133.0 555.0
v -53.0 -141.0 575.0
v -53.0 -133.0 575.0
v -53.0 -133.0 575.0
v -53.0 -141.0 575.0
v 53.0 -141.0 575.0
v -53.0 -133.0 575.0
v 53.0 -141.0 575.0
v 53.0 -133.0 575.0
v -53.0 -133.0 555.0
v 53.0 -133.0 555.0
v 53.0 -141.0 555.0
v -53.0 -133.0 555.0
v 53.0 -141.0 555.0
v -53.0 -141.0 555.0
v -65.0 -100.0 598.0
v 65.0 -100.0 598.0
v 65.0 -100.0 752.0
v -65.0 -100.0 598.0
v 65.0 -100.0 752.0
v -65.0 -100.0 752.0
v 65.0 -100.0 598.0
v 100.0 -65.0 598.0
v 100.0 -65.0 752.0
v 65.0 -100.0 598.0
v 100.0 -65.0 752.0
v 65.0 -100.0 752.0
v 100.0 65.0 598.0
v 65.0 100.0 598.0
v 65.0 100.0 752.0
v 100.0 65.0 598.0
v 65.0 100.0 752.0
v 100.0 65.0 752.0
v 65.0 100.0 598.0
v -65.0 100.0 598.0
v -65.0 100.0 752.0
v 65.0 100.0 598.0
v -65.0 100.0 752.0
v 65.0 100.0 752.0
v -65.0 100.0 598.0
v -100.0 65.0 598.0
v -100.0 65.0 752.0
v -65.0 100.0 598.0
v -100.0 65.0 752.0
v -65.0 100.0 752.0
v -100.0 65.0 598.0
v -100.0 -65.0 598.0
v -100.0 -65.0 752.0
v -100.0 65.0 598.0
v -100.0 -65.0 752.0
v -100.0 65.0 752.0
v -100.0 -65.0 598.0
v -65.0 -100.0 598.0
v -65.0 -100.0 752.0
v -100.0 -65.0 598.0
v -65.0 -100.0 752.0
v -100.0 -65.0 752.0
v 100.0 -65.0 598.0
v 100.0 65.0 598.0
v 100.0 65.0 752.0
v 100.0 -65.0 598.0
v 100.0 65.0 752.0
v 100.0 -65.0 752.0
v -73.0 -109.0 752.0
v 73.0 -109.0 752.0
v 73.0 -109.0 774.0
v -73.0 -109.0 752.0
v 73.0 -109.0 774.0
v -73.0 -109.0 774.0
v 73.0 -109.0 752.0
v 109.0 -73.0 752.0
v 109.0 -73.0 774.0
v 73.0 -109.0 752.0
v 109.0 -73.0 774.0
v 73.0 -109.0 774.0
v 109.0 -73.0 752.0
v 109.0 73.0 752.0
v 109.0 73.0 774.0
v 109.0 -73.0 752.0
v 109.0 73.0 774.0
v 109.0 -73.0 774.0
v 109.0 73.0 752.0
v 73.0 109.0 752.0
v 73.0 109.0 774.0
v 109.0 73.0 752.0
v 73.0 109.0 774.0
v 109.0 73.0 774.0
v 73.0 109.0 752.0
v -73.0 109.0 752.0
v -73.0 109.0 774.0
v 73.0 109.0 752.0
v -73.0 109.0 774.0
v 73.0 109.0 774.0
v -73.0 109.0 752.0
v -109.0 73.0 752.0
v -109.0 73.0 774.0
v -73.0 109.0 752.0
v -109.0 73.0 774.0
v -73.0 109.0 774.0
v -109.0 73.0 752.0
v -109.0 -73.0 752.0
v -109.0 -73.0 774.0
v -109.0 73.0 752.0
v -109.0 -73.0 774.0
v -109.0 73.0 774.0
v -109.0 -73.0 752.0
v -73.0 -109.0 752.0
v -73.0 -109.0 774.0
v -109.0 -73.0 752.0
v -73.0 -109.0 774.0
v -109.0 -73.0 774.0
v -109.0 -73.0 752.0
v -109.0 73.0 752.0
v -73.0 109.0 752.0
v -109.0 -73.0 752.0
v -73.0 109.0 752.0
v 73.0 109.0 752.0
v -109.0 -73.0 752.0
v 73.0 109.0 752.0
v 109.0 73.0 752.0
v -109.0 -73.0 752.0
v 109.0 73.0 752.0
v 109.0 -73.0 752.0
v -109.0 -73.0 752.0
v 109.0 -73.0 752.0
v 73.0 -109.0 752.0
v -109.0 -73.0 752.0
v 73.0 -109.0 752.0
v -73.0 -109.0 752.0
v -73.0 -109.0 774.0
v 73.0 -109.0 774.0
v 109.0 -73.0 774.0
v -73.0 -109.0 774.0
v 109.0 -73.0 774.0
v 109.0 73.0 774.0
v -73.0 -109.0 774.0
v 109.0 73.0 774.0
v 73.0 109.0 774.0
v -73.0 -109.0 774.0
v 73.0 109.0 774.0
v -73.0 109.0 774.0
v -73.0 -109.0 774.0
v -73.0 109.0 774.0
v -109.0 73.0 774.0
v -73.0 -109.0 774.0
v -109.0 73.0 774.0
v -109.0 -73.0 774.0
v 30.0 -30.0 774.0
v 30.0 30.0 774.0
v 30.0 30.0 780.0
v 30.0 -30.0 774.0
v 30.0 30.0 780.0
v 30.0 -30.0 780.0
v -30.0 -30.0 774.0
v -30.0 -30.0 780.0
v -30.0 30.0 780.0
v -30.0 -30.0 774.0
v -30.0 30.0 780.0
v -30.0 30.0 774.0
v -30.0 30.0 774.0
v -30.0 30.0 780.0
v 30.0 30.0 780.0
v -30.0 30.0 774.0
v 30.0 30.0 780.0
v 30.0 30.0 774.0
v -30.0 -30.0 774.0
v 30.0 -30.0 774.0
v 30.0 -30.0 780.0
v -30.0 -30.0 774.0
v 30.0 -30.0 780.0
v -30.0 -30.0 780.0
v -30.0 -30.0 780.0
v 30.0 -30.0 780.0
v 30.0 30.0 780.0
v -30.0 -30.0 780.0
v 30.0 30.0 780.0
v -30.0 30.0 780.0
v 192.0 -140.0 50.0
v 192.0 -66.0 50.0
v 192.0 -66.0 150.0
v 192.0 -140.0 50.0
v 192.0 -66.0 150.0
v 192.0 -140.0 150.0
v 12.0 -140.0 50.0
v 12.0 -140.0 150.0
v 12.0 -66.0 150.0
v 12.0 -140.0 50.0
v 12.0 -66.0 150.0
v 12.0 -66.0 50.0
v 12.0 -66.0 50.0
v 12.0 -66.0 150.0
v 192.0 -66.0 150.0
v 12.0 -66.0 50.0
v 192.0 -66.0 150.0
v 192.0 -66.0 50.0
v 12.0 -140.0 50.0
v 192.0 -140.0 50.0
v 192.0 -140.0 150.0
v 12.0 -140.0 50.0
v 192.0 -140.0 150.0
v 12.0 -140.0 150.0
v 12.0 -140.0 150.0
v 192.0 -140.0 150.0
v 192.0 -66.0 150.0
v 12.0 -140.0 150.0
v 192.0 -66.0 150.0
v 12.0 -66.0 150.0
v 12.0 -140.0 50.0
v 12.0 -66.0 50.0
v 192.0 -66.0 50.0
v 12.0 -140.0 50.0
v 192.0 -66.0 50.0
v 192.0 -140.0 50.0
v 88.0 -134.0 100.0
v 78.0 -134.0 117.3205
v 78.0 -142.0 117.3205
v 88.0 -134.0 100.0
v 78.0 -142.0 117.3205
v 88.0 -142.0 100.0
v 78.0 -134.0 117.3205
v 58.0 -134.0 117.3205
v 58.0 -142.0 117.3205
v 78.0 -134.0 117.3205
v 58.0 -142.0 117.3205
v 78.0 -142.0 117.3205
v 58.0 -134.0 117.3205
v 48.0 -134.0 100.0
v 48.0 -142.0 100.0
v 58.0 -134.0 117.3205
v 48.0 -142.0 100.0
v 58.0 -142.0 117.3205
v 48.0 -134.0 100.0
v 58.0 -134.0 82.6795
v 58.0 -142.0 82.6795
v 48.0 -134.0 100.0
v 58.0 -142.0 82.6795
v 48.0 -142.0 100.0
v 58.0 -134.0 82.6795
v 78.0 -134.0 82.6795
v 78.0 -142.0 82.6795
v 58.0 -134.0 82.6795
v 78.0 -142.0 82.6795
v 58.0 -142.0 82.6795
v 78.0 -134.0 82.6795
v 88.0 -134.0 100.0
v 88.0 -142.0 100.0
v 78.0 -134.0 82.6795
v 88.0 -142.0 100.0
v 78.0 -142.0 82.6795
v 78.0 -134.0 82.6795
v 58.0 -134.0 82.6795
v 48.0 -134.0 100.0
v 78.0 -134.0 82.6795
v 48.0 -134.0 100.0
v 58.0 -134.0 117.3205
v 78.0 -134.0 82.6795
v 58.0 -134.0 117.3205
v 78.0 -134.0 117.3205
v 78.0 -134.0 82.6795
v 78.0 -134.0 117.3205
v 88.0 -134.0 100.0
v 88.0 -142.0 100.0
v 78.0 -142.0 117.3205
v 58.0 -142.0 117.3205
v 88.0 -142.0 100.0
v 58.0 -142.0 117.3205
v 48.0 -142.0 100.0
v 88.0 -142.0 100.0
v 48.0 -142.0 100.0
v 58.0 -142.0 82.6795
v 88.0 -142.0 100.0
v 58.0 -142.0 82.6795
v 78.0 -142.0 82.6795
v 156.0 -134.0 100.0
v 146.0 -134.0 117.3205
v 146.0 -142.0 117.3205
v 156.0 -134.0 100.0
v 146.0 -142.0 117.3205
v 156.0 -142.0 100.0
v 146.0 -134.0 117.3205
v 126.0 -134.0 117.3205
v 126.0 -142.0 117.3205
v 146.0 -134.0 117.3205
v 126.0 -142.0 117.3205
v 146.0 -142.0 117.3205
v 126.0 -134.0 117.3205
v 116.0 -134.0 100.0
v 116.0 -142.0 100.0
v 126.0 -134.0 117.3205
v 116.0 -142.0 100.0
v 126.0 -142.0 117.3205
v 116.0 -134.0 100.0
v 126.0 -134.0 82.6795
v 126.0 -142.0 82.6795
v 116.0 -134.0 100.0
v 126.0 -142.0 82.6795
v 116.0 -142.0 100.0
v 126.0 -134.0 82.6795
v 146.0 -134.0 82.6795
v 146.0 -142.0 82.6795
v 126.0 -134.0 82.6795
v 146.0 -142.0 82.6795
v 126.0 -142.0 82.6795
v 146.0 -134.0 82.6795
v 156.0 -134.0 100.0
v 156.0 -142.0 100.0
v 146.0 -134.0 82.6795
v 156.0 -142.0 100.0
v 146.0 -142.0 82.6795
v 146.0 -134.0 82.6795
v 126.0 -134.0 82.6795
v 116.0 -134.0 100.0
v 146.0 -134.0 82.6795
v 116.0 -134.0 100.0
v 126.0 -134.0 117.3205
v 146.0 -134.0 82.6795
v 126.0 -134.0 117.3205
v 146.0 -134.0 117.3205
v 146.0 -134.0 82.6795
v 146.0 -134.0 117.3205
v 156.0 -134.0 100.0
v 156.0 -142.0 100.0
v 146.0 -142.0 117.3205
v 126.0 -142.0 117.3205
v 156.0 -142.0 100.0
v 126.0 -142.0 117.3205
v 116.0 -142.0 100.0
v 156.0 -142.0 100.0
v 116.0 -142.0 100.0
v 126.0 -142.0 82.6795
v 156.0 -142.0 100.0
v 126.0 -142.0 82.6795
v 146.0 -142.0 82.6795
v 192.0 66.0 50.0
v 192.0 140.0 50.0
v 192.0 140.0 150.0
v 192.0 66.0 50.0
v 192.0 140.0 150.0
v 192.0 66.0 150.0
v 12.0 66.0 50.0
v 12.0 66.0 150.0
v 12.0 140.0 150.0
v 12.0 66.0 50.0
v 12.0 140.0 150.0
v 12.0 140.0 50.0
v 12.0 140.0 50.0
v 12.0 140.0 150.0
v 192.0 140.0 150.0
v 12.0 140.0 50.0
v 192.0 140.0 150.0
v 192.0 140.0 50.0
v 12.0 66.0 50.0
v 192.0 66.0 50.0
v 192.0 66.0 150.0
v 12.0 66.0 50.0
v 192.0 66.0 150.0
v 12.0 66.0 150.0
v 12.0 66.0 150.0
v 192.0 66.0 150.0
v 192.0 140.0 150.0
v 12.0 66.0 150.0
v 192.0 140.0 150.0
v 12.0 140.0 150.0
v 12.0 66.0 50.0
v 12.0 140.0 50.0
v 192.0 140.0 50.0
v 12.0 66.0 50.0
v 192.0 140.0 50.0
v 192.0 66.0 50.0
v 48.0 134.0 100.0
v 58.0 134.0 117.3205
v 58.0 142.0 117.3205
v 48.0 134.0 100.0
v 58.0 142.0 117.3205
v 48.0 142.0 100.0
v 58.0 134.0 117.3205
v 78.0 134.0 117.3205
v 78.0 142.0 117.3205
v 58.0 134.0 117.3205
v 78.0 142.0 117.3205
v 58.0 142.0 117.3205
v 78.0 134.0 117.3205
v 88.0 134.0 100.0
v 88.0 142.0 100.0
v 78.0 134.0 117.3205
v 88.0 142.0 100.0
v 78.0 142.0 117.3205
v 88.0 134.0 100.0
v 78.0 134.0 82.6795
v 78.0 142.0 82.6795
v 88.0 134.0 100.0
v 78.0 142.0 82.6795
v 88.0 142.0 100.0
v 78.0 134.0 82.6795
v 58.0 134.0 82.6795
v 58.0 142.0 82.6795
v 78.0 134.0 82.6795
v 58.0 142.0 82.6795
v 78.0 142.0 82.6795
v 58.0 134.0 82.6795
v 48.0 134.0 100.0
v 48.0 142.0 100.0
v 58.0 134.0 82.6795
v 48.0 142.0 100.0
v 58.0 142.0 82.6795
v 58.0 134.0 82.6795
v 78.0 134.0 82.6795
v 88.0 134.0 100.0
v 58.0 134.0 82.6795
v 88.0 134.0 100.0
v 78.0 134.0 117.3205
v 58.0 134.0 82.6795
v 78.0 134.0 117.3205
v 58.0 134.0 117.3205
v 58.0 134.0 82.6795
v 58.0 134.0 117.3205
v 48.0 134.0 100.0
v 48.0 142.0 100.0
v 58.0 142.0 117.3205
v 78.0 142.0 117.3205
v 48.0 142.0 100.0
v 78.0 142.0 117.3205
v 88.0 142.0 100.0
v 48.0 142.0 100.0
v 88.0 142.0 100.0
v 78.0 142.0 82.6795
v 48.0 142.0 100.0
v 78.0 142.0 82.6795
v 58.0 142.0 82.6795
v 116.0 134.0 100.0
v 126.0 134.0 117.3205
v 126.0 142.0 117.3205
v 116.0 134.0 100.0
v 126.0 142.0 117.3205
v 116.0 142.0 100.0
v 126.0 134.0 117.3205
v 146.0 134.0 117.3205
v 146.0 142.0 117.3205
v 126.0 134.0 117.3205
v 146.0 142.0 117.3205
v 126.0 142.0 117.3205
v 146.0 134.0 117.3205
v 156.0 134.0 100.0
v 156.0 142.0 100.0
v 146.0 134.0 117.3205
v 156.0 142.0 100.0
v 146.0 142.0 117.3205
v 156.0 134.0 100.0
v 146.0 134.0 82.6795
v 146.0 142.0 82.6795
v 156.0 134.0 100.0
v 146.0 142.0 82.6795
v 156.0 142.0 100.0
v 146.0 134.0 82.6795
v 126.0 134.0 82.6795
v 126.0 142.0 82.6795
v 146.0 134.0 82.6795
v 126.0 142.0 82.6795
v 146.0 142.0 82.6795
v 126.0 134.0 82.6795
v 116.0 134.0 100.0
v 116.0 142.0 100.0
v 126.0 134.0 82.6795
v 116.0 142.0 100.0
v 126.0 142.0 82.6795
v 126.0 134.0 82.6795
v 146.0 134.0 82.6795
v 156.0 134.0 100.0
v 126.0 134.0 82.6795
v 156.0 134.0 100.0
v 146.0 134.0 117.3205
v 126.0 134.0 82.6795
v 146.0 134.0 117.3205
v 126.0 134.0 117.3205
v 126.0 134.0 82.6795
v 126.0 134.0 117.3205
v 116.0 134.0 100.0
v 116.0 142.0 100.0
v 126.0 142.0 117.3205
v 146.0 142.0 117.3205
v 116.0 142.0 100.0
v 146.0 142.0 117.3205
v 156.0 142.0 100.0
v 116.0 142.0 100.0
v 156.0 142.0 100.0
v 146.0 142.0 82.6795
v 116.0 142.0 100.0
v 146.0 142.0 82.6795
v 126.0 142.0 82.6795
vt 0.168 0.1328
vt 0.002 0.1328
vt 0.0055 0.1484
vt 0.168 0.1328
vt 0.0055 0.1484
vt 0.1644 0.1484
vt 0.6494 0.1602
vt 0.6152 0.1602
vt 0.6161 0.1768
vt 0.6494 0.1602
vt 0.6161 0.1768
vt 0.6486 0.1768
vt 0.5078 0.1328
vt 0.3418 0.1328
vt 0.3454 0.1484
vt 0.5078 0.1328
vt 0.3454 0.1484
vt 0.5043 0.1484
vt 0.6875 0.1602
vt 0.6533 0.1602
vt 0.6542 0.1768
vt 0.6875 0.1602
vt 0.6542 0.1768
vt 0.6866 0.1768
vt 0.3379 0.1328
vt 0.1719 0.1328
vt 0.1754 0.1484
vt 0.3379 0.1328
vt 0.1754 0.1484
vt 0.3343 0.1484
vt 0.6113 0.1602
vt 0.5771 0.1602
vt 0.578 0.1768
vt 0.6113 0.1602
vt 0.578 0.1768
vt 0.6105 0.1768
vt 0.8574 0.1611
vt 0.6914 0.1611
vt 0.695 0.1768
vt 0.8574 0.1611
vt 0.695 0.1768
vt 0.8539 0.1768
vt 0.5732 0.1602
vt 0.5391 0.1602
vt 0.5399 0.1768
vt 0.5732 0.1602
vt 0.5399 0.1768
vt 0.5724 0.1768
vt 0.832 0.1328
vt 0.6738 0.1328
vt 0.6738 0.1484
vt 0.832 0.1328
vt 0.6738 0.1484
vt 0.832 0.1484
vt 0.2686 0.1133
vt 0.2363 0.1133
vt 0.2363 0.1289
vt 0.2686 0.1133
vt 0.2363 0.1289
vt 0.2686 0.1289
vt 0.1602 0.1133
vt 0.002 0.1133
vt 0.002 0.1289
vt 0.1602 0.1133
vt 0.002 0.1289
vt 0.1602 0.1289
vt 0.3047 0.1133
vt 0.2725 0.1133
vt 0.2725 0.1289
vt 0.3047 0.1133
vt 0.2725 0.1289
vt 0.3047 0.1289
vt 0.9941 0.1328
vt 0.8359 0.1328
vt 0.8359 0.1484
vt 0.9941 0.1328
vt 0.8359 0.1484
vt 0.9941 0.1484
vt 0.2324 0.1133
vt 0.2002 0.1133
vt 0.2002 0.1289
vt 0.2324 0.1133
vt 0.2002 0.1289
vt 0.2324 0.1289
vt 0.6699 0.1328
vt 0.5117 0.1328
vt 0.5117 0.1484
vt 0.6699 0.1328
vt 0.5117 0.1484
vt 0.6699 0.1484
vt 0.1963 0.1133
vt 0.1641 0.1133
vt 0.1641 0.1289
vt 0.1963 0.1133
vt 0.1641 0.1289
vt 0.1963 0.1289
vt 0.4004 0.998
vt 0.5586 0.998
vt 0.5811 0.9756
vt 0.4004 0.998
vt 0.5811 0.9756
vt 0.5811 0.8174
vt 0.4004 0.998
vt 0.5811 0.8174
vt 0.5586 0.7949
vt 0.4004 0.998
vt 0.5586 0.7949
vt 0.4004 0.7949
vt 0.4004 0.998
vt 0.4004 0.7949
vt 0.3779 0.8174
vt 0.4004 0.998
vt 0.3779 0.8174
vt 0.3779 0.9756
vt 0.3789 0.1816
vt 0.2686 0.1816
vt 0.2686 0.207
vt 0.3789 0.1816
vt 0.2686 0.207
vt 0.3789 0.207
vt 0.7129 0.1816
vt 0.6816 0.1816
vt 0.6816 0.207
vt 0.7129 0.1816
vt 0.6816 0.207
vt 0.7129 0.207
vt 0.6074 0.1816
vt 0.4971 0.1816
vt 0.4971 0.207
vt 0.6074 0.1816
vt 0.4971 0.207
vt 0.6074 0.207
vt 0.748 0.1816
vt 0.7168 0.1816
vt 0.7168 0.207
vt 0.748 0.1816
vt 0.7168 0.207
vt 0.748 0.207
vt 0.4932 0.1816
vt 0.3828 0.1816
vt 0.3828 0.207
vt 0.4932 0.1816
vt 0.3828 0.207
vt 0.4932 0.207
vt 0.6777 0.1816
vt 0.6465 0.1816
vt 0.6465 0.207
vt 0.6777 0.1816
vt 0.6465 0.207
vt 0.6777 0.207
vt 0.2646 0.1816
vt 0.1543 0.1816
vt 0.1543 0.207
vt 0.2646 0.1816
vt 0.1543 0.207
vt 0.2646 0.207
vt 0.6426 0.1816
vt 0.6113 0.1816
vt 0.6113 0.207
vt 0.6426 0.1816
vt 0.6113 0.207
vt 0.6426 0.207
vt 0.8441 0.7344
vt 0.9538 0.7344
vt 0.9756 0.7126
vt 0.8441 0.7344
vt 0.9756 0.7126
vt 0.9756 0.6029
vt 0.8441 0.7344
vt 0.9756 0.6029
vt 0.9538 0.5811
vt 0.8441 0.7344
vt 0.9538 0.5811
vt 0.8441 0.5811
vt 0.8441 0.7344
vt 0.8441 0.5811
vt 0.8223 0.6029
vt 0.8441 0.7344
vt 0.8223 0.6029
vt 0.8223 0.7126
vt 0.5283 0.2705
vt 0.5098 0.2705
vt 0.5098 0.3184
vt 0.5283 0.2705
vt 0.5098 0.3184
vt 0.5283 0.3184
vt 0.5996 0.2705
vt 0.5996 0.3184
vt 0.6084 0.3184
vt 0.5996 0.2705
vt 0.6084 0.3184
vt 0.6084 0.2705
vt 0.6211 0.2705
vt 0.6123 0.2705
vt 0.6123 0.3184
vt 0.6211 0.2705
vt 0.6123 0.3184
vt 0.6211 0.3184
vt 0.4619 0.1768
vt 0.4678 0.1709
vt 0.4551 0.1582
vt 0.4619 0.1768
vt 0.4551 0.1582
vt 0.4492 0.1641
vt 0.5508 0.2705
vt 0.5322 0.2705
vt 0.5322 0.3184
vt 0.5508 0.2705
vt 0.5322 0.3184
vt 0.5508 0.3184
vt 0.625 0.2705
vt 0.625 0.3184
vt 0.6338 0.3184
vt 0.625 0.2705
vt 0.6338 0.3184
vt 0.6338 0.2705
vt 0.6465 0.2705
vt 0.6377 0.2705
vt 0.6377 0.3184
vt 0.6465 0.2705
vt 0.6377 0.3184
vt 0.6465 0.3184
vt 0.4902 0.1641
vt 0.4843 0.1582
vt 0.4717 0.1709
vt 0.4902 0.1641
vt 0.4717 0.1709
vt 0.4776 0.1768
vt 0.5732 0.2705
vt 0.5547 0.2705
vt 0.5547 0.3184
vt 0.5732 0.2705
vt 0.5547 0.3184
vt 0.5732 0.3184
vt 0.6631 0.2705
vt 0.6631 0.3184
vt 0.6719 0.3184
vt 0.6631 0.2705
vt 0.6719 0.3184
vt 0.6719 0.2705
vt 0.6592 0.2705
vt 0.6504 0.2705
vt 0.6504 0.3184
vt 0.6592 0.2705
vt 0.6504 0.3184
vt 0.6592 0.3184
vt 0.5 0.1582
vt 0.4941 0.1641
vt 0.5068 0.1768
vt 0.5 0.1582
vt 0.5068 0.1768
vt 0.5127 0.1709
vt 0.5957 0.2705
vt 0.5771 0.2705
vt 0.5771 0.3184
vt 0.5957 0.2705
vt 0.5771 0.3184
vt 0.5957 0.3184
vt 0.6885 0.2705
vt 0.6885 0.3184
vt 0.6973 0.3184
vt 0.6885 0.2705
vt 0.6973 0.3184
vt 0.6973 0.2705
vt 0.6846 0.2705
vt 0.6758 0.2705
vt 0.6758 0.3184
vt 0.6846 0.2705
vt 0.6758 0.3184
vt 0.6846 0.3184
vt 0.5166 0.1709
vt 0.5225 0.1768
vt 0.5352 0.1641
vt 0.5166 0.1709
vt 0.5352 0.1641
vt 0.5293 0.1582
vt 0.1602 0.7383
vt 0.083 0.7383
vt 0.083 0.998
vt 0.1602 0.7383
vt 0.083 0.998
vt 0.1602 0.998
vt 0.3408 0.7383
vt 0.3115 0.7383
vt 0.3115 0.998
vt 0.3408 0.7383
vt 0.3115 0.998
vt 0.3408 0.998
vt 0.374 0.7383
vt 0.3447 0.7383
vt 0.3447 0.998
vt 0.374 0.7383
vt 0.3447 0.998
vt 0.374 0.998
vt 0.2412 0.7383
vt 0.1641 0.7383
vt 0.1641 0.998
vt 0.2412 0.7383
vt 0.1641 0.998
vt 0.2412 0.998
vt 0.3076 0.7383
vt 0.2783 0.7383
vt 0.2783 0.998
vt 0.3076 0.7383
vt 0.2783 0.998
vt 0.3076 0.998
vt 0.0791 0.7383
vt 0.002 0.7383
vt 0.002 0.998
vt 0.0791 0.7383
vt 0.002 0.998
vt 0.0791 0.998
vt 0.2744 0.7383
vt 0.2451 0.7383
vt 0.2451 0.998
vt 0.2744 0.7383
vt 0.2451 0.998
vt 0.2744 0.998
vt 0.374 0.3262
vt 0.2969 0.3262
vt 0.2969 0.4131
vt 0.374 0.3262
vt 0.2969 0.4131
vt 0.374 0.4131
vt 0.2998 0.0645
vt 0.2227 0.0645
vt 0.2227 0.0752
vt 0.2998 0.0645
vt 0.2227 0.0752
vt 0.2998 0.0752
vt 0.7578 0.835
vt 0.6982 0.835
vt 0.6982 0.998
vt 0.7578 0.835
vt 0.6982 0.998
vt 0.7578 0.998
vt 0.4141 0.3184
vt 0.4326 0.3184
vt 0.4326 0.2588
vt 0.4141 0.3184
vt 0.4326 0.2588
vt 0.4141 0.2588
vt 0.4551 0.2588
vt 0.4365 0.2588
vt 0.4365 0.3184
vt 0.4551 0.2588
vt 0.4365 0.3184
vt 0.4551 0.3184
vt 0.7617 0.998
vt 0.7803 0.998
vt 0.7803 0.835
vt 0.7617 0.998
vt 0.7803 0.835
vt 0.7617 0.835
vt 0.8027 0.835
vt 0.7842 0.835
vt 0.7842 0.998
vt 0.8027 0.835
vt 0.7842 0.998
vt 0.8027 0.998
vt 0.1055 0.417
vt 0.0557 0.417
vt 0.0557 0.5703
vt 0.1055 0.417
vt 0.0557 0.5703
vt 0.1055 0.5703
vt 0.002 0.417
vt 0.002 0.5703
vt 0.0518 0.5703
vt 0.002 0.417
vt 0.0518 0.5703
vt 0.0518 0.417
vt 0.1221 0.417
vt 0.1221 0.5703
vt 0.1309 0.5703
vt 0.1221 0.417
vt 0.1309 0.5703
vt 0.1309 0.417
vt 0.1182 0.417
vt 0.1094 0.417
vt 0.1094 0.5703
vt 0.1182 0.417
vt 0.1094 0.5703
vt 0.1182 0.5703
vt 0.4717 0.3184
vt 0.4805 0.3184
vt 0.4805 0.2686
vt 0.4717 0.3184
vt 0.4805 0.2686
vt 0.4717 0.2686
vt 0.4678 0.3184
vt 0.4678 0.2686
vt 0.459 0.2686
vt 0.4678 0.3184
vt 0.459 0.2686
vt 0.459 0.3184
vt 0.5938 0.7979
vt 0.585 0.7979
vt 0.585 0.998
vt 0.5938 0.7979
vt 0.585 0.998
vt 0.5938 0.998
vt 0.6357 0.7979
vt 0.6357 0.998
vt 0.6396 0.998
vt 0.6357 0.7979
vt 0.6396 0.998
vt 0.6396 0.7979
vt 0.6475 0.7979
vt 0.6436 0.7979
vt 0.6436 0.998
vt 0.6475 0.7979
vt 0.6436 0.998
vt 0.6475 0.998
vt 0.7629 0.0605
vt 0.7646 0.0588
vt 0.7586 0.0527
vt 0.7629 0.0605
vt 0.7586 0.0527
vt 0.7568 0.0545
vt 0.7469 0.0605
vt 0.7529 0.0545
vt 0.7512 0.0527
vt 0.7469 0.0605
vt 0.7512 0.0527
vt 0.7451 0.0588
vt 0.6064 0.7979
vt 0.5977 0.7979
vt 0.5977 0.998
vt 0.6064 0.7979
vt 0.5977 0.998
vt 0.6064 0.998
vt 0.6514 0.7979
vt 0.6514 0.998
vt 0.6553 0.998
vt 0.6514 0.7979
vt 0.6553 0.998
vt 0.6553 0.7979
vt 0.6631 0.7979
vt 0.6592 0.7979
vt 0.6592 0.998
vt 0.6631 0.7979
vt 0.6592 0.998
vt 0.6631 0.998
vt 0.8115 0.0545
vt 0.8098 0.0527
vt 0.8037 0.0588
vt 0.8115 0.0545
vt 0.8037 0.0588
vt 0.8054 0.0605
vt 0.792 0.0545
vt 0.7981 0.0605
vt 0.7998 0.0588
vt 0.792 0.0545
vt 0.7998 0.0588
vt 0.7937 0.0527
vt 0.6191 0.7979
vt 0.6104 0.7979
vt 0.6104 0.998
vt 0.6191 0.7979
vt 0.6104 0.998
vt 0.6191 0.998
vt 0.6748 0.7979
vt 0.6748 0.998
vt 0.6787 0.998
vt 0.6748 0.7979
vt 0.6787 0.998
vt 0.6787 0.7979
vt 0.6709 0.7979
vt 0.667 0.7979
vt 0.667 0.998
vt 0.6709 0.7979
vt 0.667 0.998
vt 0.6709 0.998
vt 0.8523 0.0527
vt 0.8506 0.0545
vt 0.8567 0.0605
vt 0.8523 0.0527
vt 0.8567 0.0605
vt 0.8584 0.0588
vt 0.8449 0.0527
vt 0.8389 0.0588
vt 0.8406 0.0605
vt 0.8449 0.0527
vt 0.8406 0.0605
vt 0.8467 0.0545
vt 0.6318 0.7979
vt 0.623 0.7979
vt 0.623 0.998
vt 0.6318 0.7979
vt 0.623 0.998
vt 0.6318 0.998
vt 0.6904 0.7979
vt 0.6904 0.998
vt 0.6943 0.998
vt 0.6904 0.7979
vt 0.6943 0.998
vt 0.6943 0.7979
vt 0.6865 0.7979
vt 0.6826 0.7979
vt 0.6826 0.998
vt 0.6865 0.7979
vt 0.6826 0.998
vt 0.6865 0.998
vt 0.8975 0.0588
vt 0.8992 0.0605
vt 0.9053 0.0545
vt 0.8975 0.0588
vt 0.9053 0.0545
vt 0.9035 0.0527
vt 0.8936 0.0588
vt 0.8875 0.0527
vt 0.8857 0.0545
vt 0.8936 0.0588
vt 0.8857 0.0545
vt 0.8918 0.0605
vt 0.5244 0.042
vt 0.4453 0.042
vt 0.4453 0.0469
vt 0.5244 0.042
vt 0.4453 0.0469
vt 0.5244 0.0469
vt 0.0645 0.0312
vt 0.0352 0.0312
vt 0.0352 0.0361
vt 0.0645 0.0312
vt 0.0352 0.0361
vt 0.0645 0.0361
vt 0.6904 0.042
vt 0.6113 0.042
vt 0.6113 0.0469
vt 0.6904 0.042
vt 0.6113 0.0469
vt 0.6904 0.0469
vt 0.0977 0.0312
vt 0.0684 0.0312
vt 0.0684 0.0361
vt 0.0977 0.0312
vt 0.0684 0.0361
vt 0.0977 0.0361
vt 0.6074 0.042
vt 0.5283 0.042
vt 0.5283 0.0469
vt 0.6074 0.042
vt 0.5283 0.0469
vt 0.6074 0.0469
vt 0.0312 0.0312
vt 0.002 0.0312
vt 0.002 0.0361
vt 0.0312 0.0312
vt 0.002 0.0361
vt 0.0312 0.0361
vt 0.4414 0.042
vt 0.3623 0.042
vt 0.3623 0.0469
vt 0.4414 0.042
vt 0.3623 0.0469
vt 0.4414 0.0469
vt 0.9893 0.042
vt 0.96 0.042
vt 0.96 0.0469
vt 0.9893 0.042
vt 0.96 0.0469
vt 0.9893 0.0469
vt 0.709 0.5495
vt 0.709 0.47
vt 0.6882 0.4492
vt 0.709 0.5495
vt 0.6882 0.4492
vt 0.6087 0.4492
vt 0.709 0.5495
vt 0.6087 0.4492
vt 0.5879 0.47
vt 0.709 0.5495
vt 0.5879 0.47
vt 0.5879 0.5495
vt 0.709 0.5495
vt 0.5879 0.5495
vt 0.6087 0.5703
vt 0.709 0.5495
vt 0.6087 0.5703
vt 0.6882 0.5703
vt 0.7337 0.5703
vt 0.8132 0.5703
vt 0.834 0.5495
vt 0.7337 0.5703
vt 0.834 0.5495
vt 0.834 0.47
vt 0.7337 0.5703
vt 0.834 0.47
vt 0.8132 0.4492
vt 0.7337 0.5703
vt 0.8132 0.4492
vt 0.7337 0.4492
vt 0.7337 0.5703
vt 0.7337 0.4492
vt 0.7129 0.47
vt 0.7337 0.5703
vt 0.7129 0.47
vt 0.7129 0.5495
vt 0.4395 0.2158
vt 0.333 0.2158
vt 0.333 0.2549
vt 0.4395 0.2158
vt 0.333 0.2549
vt 0.4395 0.2549
vt 0.7861 0.2158
vt 0.748 0.2158
vt 0.748 0.2549
vt 0.7861 0.2158
vt 0.748 0.2549
vt 0.7861 0.2549
vt 0.6602 0.2158
vt 0.5537 0.2158
vt 0.5537 0.2549
vt 0.6602 0.2158
vt 0.5537 0.2549
vt 0.6602 0.2549
vt 0.8281 0.2158
vt 0.79 0.2158
vt 0.79 0.2549
vt 0.8281 0.2158
vt 0.79 0.2549
vt 0.8281 0.2549
vt 0.5498 0.2158
vt 0.4434 0.2158
vt 0.4434 0.2549
vt 0.5498 0.2158
vt 0.4434 0.2549
vt 0.5498 0.2549
vt 0.7441 0.2158
vt 0.7061 0.2158
vt 0.7061 0.2549
vt 0.7441 0.2158
vt 0.7061 0.2549
vt 0.7441 0.2549
vt 0.3291 0.2158
vt 0.2227 0.2158
vt 0.2227 0.2549
vt 0.3291 0.2158
vt 0.2227 0.2549
vt 0.3291 0.2549
vt 0.7021 0.2158
vt 0.6641 0.2158
vt 0.6641 0.2549
vt 0.7021 0.2158
vt 0.6641 0.2549
vt 0.7021 0.2549
vt 0.9668 0.9714
vt 0.9668 0.8646
vt 0.9401 0.8379
vt 0.9668 0.9714
vt 0.9401 0.8379
vt 0.8333 0.8379
vt 0.9668 0.9714
vt 0.8333 0.8379
vt 0.8066 0.8646
vt 0.9668 0.9714
vt 0.8066 0.8646
vt 0.8066 0.9714
vt 0.9668 0.9714
vt 0.8066 0.9714
vt 0.8333 0.998
vt 0.9668 0.9714
vt 0.8333 0.998
vt 0.9401 0.998
vt 0.6849 0.7344
vt 0.7917 0.7344
vt 0.8184 0.7077
vt 0.6849 0.7344
vt 0.8184 0.7077
vt 0.8184 0.6009
vt 0.6849 0.7344
vt 0.8184 0.6009
vt 0.7917 0.5742
vt 0.6849 0.7344
vt 0.7917 0.5742
vt 0.6849 0.5742
vt 0.6849 0.7344
vt 0.6849 0.5742
vt 0.6582 0.6009
vt 0.6849 0.7344
vt 0.6582 0.6009
vt 0.6582 0.7077
vt 0.5508 0.0967
vt 0.4883 0.0967
vt 0.4883 0.1094
vt 0.5508 0.0967
vt 0.4883 0.1094
vt 0.5508 0.1094
vt 0.0342 0.0791
vt 0.0342 0.0918
vt 0.0391 0.0918
vt 0.0342 0.0791
vt 0.0391 0.0918
vt 0.0391 0.0791
vt 0.0303 0.0791
vt 0.0254 0.0791
vt 0.0254 0.0918
vt 0.0303 0.0791
vt 0.0254 0.0918
vt 0.0303 0.0918
vt 0.6855 0.4131
vt 0.6904 0.4131
vt 0.6904 0.3506
vt 0.6855 0.4131
vt 0.6904 0.3506
vt 0.6855 0.3506
vt 0.6816 0.4131
vt 0.6816 0.3506
vt 0.6768 0.3506
vt 0.6816 0.4131
vt 0.6768 0.3506
vt 0.6768 0.4131
vt 0.6172 0.0967
vt 0.5547 0.0967
vt 0.5547 0.1094
vt 0.6172 0.0967
vt 0.5547 0.1094
vt 0.6172 0.1094
vt 0.043 0.0791
vt 0.043 0.0918
vt 0.0479 0.0918
vt 0.043 0.0791
vt 0.0479 0.0918
vt 0.0479 0.0791
vt 0.0566 0.0791
vt 0.0518 0.0791
vt 0.0518 0.0918
vt 0.0566 0.0791
vt 0.0518 0.0918
vt 0.0566 0.0918
vt 0.8232 0.0469
vt 0.8232 0.042
vt 0.7607 0.042
vt 0.8232 0.0469
vt 0.7607 0.042
vt 0.7607 0.0469
vt 0.6943 0.0469
vt 0.7568 0.0469
vt 0.7568 0.042
vt 0.6943 0.0469
vt 0.7568 0.042
vt 0.6943 0.042
vt 0.6836 0.0967
vt 0.6211 0.0967
vt 0.6211 0.1094
vt 0.6836 0.0967
vt 0.6211 0.1094
vt 0.6836 0.1094
vt 0.0605 0.0791
vt 0.0605 0.0918
vt 0.0654 0.0918
vt 0.0605 0.0791
vt 0.0654 0.0918
vt 0.0654 0.0791
vt 0.0742 0.0791
vt 0.0693 0.0791
vt 0.0693 0.0918
vt 0.0742 0.0791
vt 0.0693 0.0918
vt 0.0742 0.0918
vt 0.708 0.3506
vt 0.7031 0.3506
vt 0.7031 0.4131
vt 0.708 0.3506
vt 0.7031 0.4131
vt 0.708 0.4131
vt 0.6943 0.3506
vt 0.6943 0.4131
vt 0.6992 0.4131
vt 0.6943 0.3506
vt 0.6992 0.4131
vt 0.6992 0.3506
vt 0.75 0.0967
vt 0.6875 0.0967
vt 0.6875 0.1094
vt 0.75 0.0967
vt 0.6875 0.1094
vt 0.75 0.1094
vt 0.0869 0.0791
vt 0.0869 0.0918
vt 0.0918 0.0918
vt 0.0869 0.0791
vt 0.0918 0.0918
vt 0.0918 0.0791
vt 0.083 0.0791
vt 0.0781 0.0791
vt 0.0781 0.0918
vt 0.083 0.0791
vt 0.0781 0.0918
vt 0.083 0.0918
vt 0.8936 0.042
vt 0.8936 0.0469
vt 0.9561 0.0469
vt 0.8936 0.042
vt 0.9561 0.0469
vt 0.9561 0.042
vt 0.8896 0.042
vt 0.8271 0.042
vt 0.8271 0.0469
vt 0.8896 0.042
vt 0.8271 0.0469
vt 0.8896 0.0469
vt 0.9961 0.4795
vt 0.9189 0.4795
vt 0.9189 0.5703
vt 0.9961 0.4795
vt 0.9189 0.5703
vt 0.9961 0.5703
vt 0.2598 0.3223
vt 0.2305 0.3223
vt 0.2305 0.4131
vt 0.2598 0.3223
vt 0.2305 0.4131
vt 0.2598 0.4131
vt 0.293 0.3223
vt 0.2637 0.3223
vt 0.2637 0.4131
vt 0.293 0.3223
vt 0.2637 0.4131
vt 0.293 0.4131
vt 0.0791 0.3223
vt 0.002 0.3223
vt 0.002 0.4131
vt 0.0791 0.3223
vt 0.002 0.4131
vt 0.0791 0.4131
vt 0.2266 0.3223
vt 0.1973 0.3223
vt 0.1973 0.4131
vt 0.2266 0.3223
vt 0.1973 0.4131
vt 0.2266 0.4131
vt 0.915 0.4795
vt 0.8379 0.4795
vt 0.8379 0.5703
vt 0.915 0.4795
vt 0.8379 0.5703
vt 0.915 0.5703
vt 0.1934 0.3223
vt 0.1641 0.3223
vt 0.1641 0.4131
vt 0.1934 0.3223
vt 0.1641 0.4131
vt 0.1934 0.4131
vt 0.1602 0.3223
vt 0.083 0.3223
vt 0.083 0.4131
vt 0.1602 0.3223
vt 0.083 0.4131
vt 0.1602 0.4131
vt 0.9277 0.1152
vt 0.8408 0.1152
vt 0.8408 0.1289
vt 0.9277 0.1152
vt 0.8408 0.1289
vt 0.9277 0.1289
vt 0.4502 0.0957
vt 0.4199 0.0957
vt 0.4199 0.1094
vt 0.4502 0.0957
vt 0.4199 0.1094
vt 0.4502 0.1094
vt 0.1797 0.0957
vt 0.0928 0.0957
vt 0.0928 0.1094
vt 0.1797 0.0957
vt 0.0928 0.1094
vt 0.1797 0.1094
vt 0.4844 0.0957
vt 0.4541 0.0957
vt 0.4541 0.1094
vt 0.4844 0.0957
vt 0.4541 0.1094
vt 0.4844 0.1094
vt 0.0889 0.0957
vt 0.002 0.0957
vt 0.002 0.1094
vt 0.0889 0.0957
vt 0.002 0.1094
vt 0.0889 0.1094
vt 0.416 0.0957
vt 0.3857 0.0957
vt 0.3857 0.1094
vt 0.416 0.0957
vt 0.3857 0.1094
vt 0.416 0.1094
vt 0.8369 0.1152
vt 0.75 0.1152
vt 0.75 0.1289
vt 0.8369 0.1152
vt 0.75 0.1289
vt 0.8369 0.1289
vt 0.3818 0.0957
vt 0.3516 0.0957
vt 0.3516 0.1094
vt 0.3818 0.0957
vt 0.3516 0.1094
vt 0.3818 0.1094
vt 0.4512 0.549
vt 0.4512 0.4627
vt 0.4299 0.4414
vt 0.4512 0.549
vt 0.4299 0.4414
vt 0.3436 0.4414
vt 0.4512 0.549
vt 0.3436 0.4414
vt 0.3223 0.4627
vt 0.4512 0.549
vt 0.3223 0.4627
vt 0.3223 0.549
vt 0.4512 0.549
vt 0.3223 0.549
vt 0.3436 0.5703
vt 0.4512 0.549
vt 0.3436 0.5703
vt 0.4299 0.5703
vt 0.4764 0.5703
vt 0.5627 0.5703
vt 0.584 0.549
vt 0.4764 0.5703
vt 0.584 0.549
vt 0.584 0.4627
vt 0.4764 0.5703
vt 0.584 0.4627
vt 0.5627 0.4414
vt 0.4764 0.5703
vt 0.5627 0.4414
vt 0.4764 0.4414
vt 0.4764 0.5703
vt 0.4764 0.4414
vt 0.4551 0.4627
vt 0.4764 0.5703
vt 0.4551 0.4627
vt 0.4551 0.549
vt 0.5879 0.0234
vt 0.5518 0.0234
vt 0.5518 0.0273
vt 0.5879 0.0234
vt 0.5518 0.0273
vt 0.5879 0.0273
vt 0.4316 0.0234
vt 0.4316 0.0273
vt 0.4678 0.0273
vt 0.4316 0.0234
vt 0.4678 0.0273
vt 0.4678 0.0234
vt 0.5117 0.0234
vt 0.5117 0.0273
vt 0.5479 0.0273
vt 0.5117 0.0234
vt 0.5479 0.0273
vt 0.5479 0.0234
vt 0.5078 0.0234
vt 0.4717 0.0234
vt 0.4717 0.0273
vt 0.5078 0.0234
vt 0.4717 0.0273
vt 0.5078 0.0273
vt 0.832 0.2549
vt 0.8682 0.2549
vt 0.8682 0.2188
vt 0.832 0.2549
vt 0.8682 0.2188
vt 0.832 0.2188
vt 0.3145 0.2588
vt 0.2705 0.2588
vt 0.2705 0.3184
vt 0.3145 0.2588
vt 0.2705 0.3184
vt 0.3145 0.3184
vt 0.2227 0.2588
vt 0.2227 0.3184
vt 0.2666 0.3184
vt 0.2227 0.2588
vt 0.2666 0.3184
vt 0.2666 0.2588
vt 0.8223 0.3535
vt 0.8223 0.4131
vt 0.9287 0.4131
vt 0.8223 0.3535
vt 0.9287 0.4131
vt 0.9287 0.3535
vt 0.8184 0.3535
vt 0.7119 0.3535
vt 0.7119 0.4131
vt 0.8184 0.3535
vt 0.7119 0.4131
vt 0.8184 0.4131
vt 0.8115 0.3184
vt 0.918 0.3184
vt 0.918 0.2744
vt 0.8115 0.3184
vt 0.918 0.2744
vt 0.8115 0.2744
vt 0.8076 0.3184
vt 0.8076 0.2744
vt 0.7012 0.2744
vt 0.8076 0.3184
vt 0.7012 0.2744
vt 0.7012 0.3184
vt 0.1221 0.0791
vt 0.1221 0.0918
vt 0.127 0.0918
vt 0.1221 0.0791
vt 0.127 0.0918
vt 0.127 0.0791
vt 0.1309 0.0312
vt 0.1182 0.0312
vt 0.1182 0.0361
vt 0.1309 0.0312
vt 0.1182 0.0361
vt 0.1309 0.0361
vt 0.1094 0.0918
vt 0.1094 0.0791
vt 0.1045 0.0791
vt 0.1094 0.0918
vt 0.1045 0.0791
vt 0.1045 0.0918
vt 0.1006 0.0918
vt 0.1006 0.0791
vt 0.0957 0.0791
vt 0.1006 0.0918
vt 0.0957 0.0791
vt 0.0957 0.0918
vt 0.1143 0.0312
vt 0.1016 0.0312
vt 0.1016 0.0361
vt 0.1143 0.0312
vt 0.1016 0.0361
vt 0.1143 0.0361
vt 0.1133 0.0791
vt 0.1133 0.0918
vt 0.1182 0.0918
vt 0.1133 0.0791
vt 0.1182 0.0918
vt 0.1182 0.0791
vt 0.2693 0.1562
vt 0.2571 0.1562
vt 0.251 0.1665
vt 0.2693 0.1562
vt 0.251 0.1665
vt 0.2571 0.1768
vt 0.2693 0.1562
vt 0.2571 0.1768
vt 0.2693 0.1768
vt 0.2693 0.1562
vt 0.2693 0.1768
vt 0.2754 0.1665
vt 0.2227 0.1665
vt 0.2288 0.1768
vt 0.241 0.1768
vt 0.2227 0.1665
vt 0.241 0.1768
vt 0.2471 0.1665
vt 0.2227 0.1665
vt 0.2471 0.1665
vt 0.241 0.1562
vt 0.2227 0.1665
vt 0.241 0.1562
vt 0.2288 0.1562
vt 0.1572 0.0791
vt 0.1572 0.0918
vt 0.1621 0.0918
vt 0.1572 0.0791
vt 0.1621 0.0918
vt 0.1621 0.0791
vt 0.1641 0.0312
vt 0.1514 0.0312
vt 0.1514 0.0361
vt 0.1641 0.0312
vt 0.1514 0.0361
vt 0.1641 0.0361
vt 0.1445 0.0918
vt 0.1445 0.0791
vt 0.1396 0.0791
vt 0.1445 0.0918
vt 0.1396 0.0791
vt 0.1396 0.0918
vt 0.1357 0.0918
vt 0.1357 0.0791
vt 0.1309 0.0791
vt 0.1357 0.0918
vt 0.1309 0.0791
vt 0.1309 0.0918
vt 0.1475 0.0312
vt 0.1348 0.0312
vt 0.1348 0.0361
vt 0.1475 0.0312
vt 0.1348 0.0361
vt 0.1475 0.0361
vt 0.1484 0.0791
vt 0.1484 0.0918
vt 0.1533 0.0918
vt 0.1484 0.0791
vt 0.1533 0.0918
vt 0.1533 0.0791
vt 0.3259 0.1562
vt 0.3137 0.1562
vt 0.3076 0.1665
vt 0.3259 0.1562
vt 0.3076 0.1665
vt 0.3137 0.1768
vt 0.3259 0.1562
vt 0.3137 0.1768
vt 0.3259 0.1768
vt 0.3259 0.1562
vt 0.3259 0.1768
vt 0.332 0.1665
vt 0.2793 0.1665
vt 0.2854 0.1768
vt 0.2976 0.1768
vt 0.2793 0.1665
vt 0.2976 0.1768
vt 0.3037 0.1665
vt 0.2793 0.1665
vt 0.3037 0.1665
vt 0.2976 0.1562
vt 0.2793 0.1665
vt 0.2976 0.1562
vt 0.2854 0.1562
vt 0.4102 0.2588
vt 0.3662 0.2588
vt 0.3662 0.3184
vt 0.4102 0.2588
vt 0.3662 0.3184
vt 0.4102 0.3184
vt 0.3184 0.2588
vt 0.3184 0.3184
vt 0.3623 0.3184
vt 0.3184 0.2588
vt 0.3623 0.3184
vt 0.3623 0.2588
vt 0.1123 0.2588
vt 0.1123 0.3184
vt 0.2188 0.3184
vt 0.1123 0.2588
vt 0.2188 0.3184
vt 0.2188 0.2588
vt 0.1084 0.2588
vt 0.002 0.2588
vt 0.002 0.3184
vt 0.1084 0.2588
vt 0.002 0.3184
vt 0.1084 0.3184
vt 0.1123 0.2549
vt 0.2188 0.2549
vt 0.2188 0.2109
vt 0.1123 0.2549
vt 0.2188 0.2109
vt 0.1123 0.2109
vt 0.1084 0.2549
vt 0.1084 0.2109
vt 0.002 0.2109
vt 0.1084 0.2549
vt 0.002 0.2109
vt 0.002 0.2549
vt 0.1748 0.0791
vt 0.1748 0.0918
vt 0.1797 0.0918
vt 0.1748 0.0791
vt 0.1797 0.0918
vt 0.1797 0.0791
vt 0.1846 0.0361
vt 0.1973 0.0361
vt 0.1973 0.0312
vt 0.1846 0.0361
vt 0.1973 0.0312
vt 0.1846 0.0312
vt 0.1973 0.0918
vt 0.1973 0.0791
vt 0.1924 0.0791
vt 0.1973 0.0918
vt 0.1924 0.0791
vt 0.1924 0.0918
vt 0.1885 0.0918
vt 0.1885 0.0791
vt 0.1836 0.0791
vt 0.1885 0.0918
vt 0.1836 0.0791
vt 0.1836 0.0918
vt 0.168 0.0361
vt 0.1807 0.0361
vt 0.1807 0.0312
vt 0.168 0.0361
vt 0.1807 0.0312
vt 0.168 0.0312
vt 0.166 0.0791
vt 0.166 0.0918
vt 0.1709 0.0918
vt 0.166 0.0791
vt 0.1709 0.0918
vt 0.1709 0.0791
vt 0.3542 0.1562
vt 0.342 0.1562
vt 0.3359 0.1665
vt 0.3542 0.1562
vt 0.3359 0.1665
vt 0.342 0.1768
vt 0.3542 0.1562
vt 0.342 0.1768
vt 0.3542 0.1768
vt 0.3542 0.1562
vt 0.3542 0.1768
vt 0.3604 0.1665
vt 0.3643 0.1665
vt 0.3704 0.1768
vt 0.3826 0.1768
vt 0.3643 0.1665
vt 0.3826 0.1768
vt 0.3887 0.1665
vt 0.3643 0.1665
vt 0.3887 0.1665
vt 0.3826 0.1562
vt 0.3643 0.1665
vt 0.3826 0.1562
vt 0.3704 0.1562
vt 0.21 0.0791
vt 0.21 0.0918
vt 0.2148 0.0918
vt 0.21 0.0791
vt 0.2148 0.0918
vt 0.2148 0.0791
vt 0.2178 0.0361
vt 0.2305 0.0361
vt 0.2305 0.0312
vt 0.2178 0.0361
vt 0.2305 0.0312
vt 0.2178 0.0312
vt 0.2324 0.0918
vt 0.2324 0.0791
vt 0.2275 0.0791
vt 0.2324 0.0918
vt 0.2275 0.0791
vt 0.2275 0.0918
vt 0.2236 0.0918
vt 0.2236 0.0791
vt 0.2188 0.0791
vt 0.2236 0.0918
vt 0.2188 0.0791
vt 0.2188 0.0918
vt 0.2012 0.0361
vt 0.2139 0.0361
vt 0.2139 0.0312
vt 0.2012 0.0361
vt 0.2139 0.0312
vt 0.2012 0.0312
vt 0.2012 0.0791
vt 0.2012 0.0918
vt 0.2061 0.0918
vt 0.2012 0.0791
vt 0.2061 0.0918
vt 0.2061 0.0791
vt 0.4109 0.1562
vt 0.3987 0.1562
vt 0.3926 0.1665
vt 0.4109 0.1562
vt 0.3926 0.1665
vt 0.3987 0.1768
vt 0.4109 0.1562
vt 0.3987 0.1768
vt 0.4109 0.1768
vt 0.4109 0.1562
vt 0.4109 0.1768
vt 0.417 0.1665
vt 0.4209 0.1665
vt 0.427 0.1768
vt 0.4392 0.1768
vt 0.4209 0.1665
vt 0.4392 0.1768
vt 0.4453 0.1665
vt 0.4209 0.1665
vt 0.4453 0.1665
vt 0.4392 0.1562
vt 0.4209 0.1665
vt 0.4392 0.1562
vt 0.427 0.1562
vn 0.0 -0.9524 0.3048
vn 0.0 -0.9524 0.3048
vn 0.0 -0.9524 0.3048
vn 0.0 -0.9524 0.3048
vn 0.0 -0.9524 0.3048
vn 0.0 -0.9524 0.3048
vn 0.6574 -0.6574 0.3682
vn 0.6574 -0.6574 0.3682
vn 0.6574 -0.6574 0.3682
vn 0.6574 -0.6574 0.3682
vn 0.6574 -0.6574 0.3682
vn 0.6574 -0.6574 0.3682
vn 0.9524 0.0 0.3048
vn 0.9524 0.0 0.3048
vn 0.9524 0.0 0.3048
vn 0.9524 0.0 0.3048
vn 0.9524 0.0 0.3048
vn 0.9524 0.0 0.3048
vn 0.6574 0.6574 0.3682
vn 0.6574 0.6574 0.3682
vn 0.6574 0.6574 0.3682
vn 0.6574 0.6574 0.3682
vn 0.6574 0.6574 0.3682
vn 0.6574 0.6574 0.3682
vn 0.0 0.9524 0.3048
vn 0.0 0.9524 0.3048
vn 0.0 0.9524 0.3048
vn 0.0 0.9524 0.3048
vn 0.0 0.9524 0.3048
vn 0.0 0.9524 0.3048
vn -0.6574 0.6574 0.3682
vn -0.6574 0.6574 0.3682
vn -0.6574 0.6574 0.3682
vn -0.6574 0.6574 0.3682
vn -0.6574 0.6574 0.3682
vn -0.6574 0.6574 0.3682
vn -0.9524 0.0 0.3048
vn -0.9524 0.0 0.3048
vn -0.9524 0.0 0.3048
vn -0.9524 0.0 0.3048
vn -0.9524 0.0 0.3048
vn -0.9524 0.0 0.3048
vn -0.6574 -0.6574 0.3682
vn -0.6574 -0.6574 0.3682
vn -0.6574 -0.6574 0.3682
vn -0.6574 -0.6574 0.3682
vn -0.6574 -0.6574 0.3682
vn -0.6574 -0.6574 0.3682
vn 0.0 -1.0 0.0
vn 0.0 -1.0 0.0
vn 0.0 -1.0 0.0
vn 0.0 -1.0 0.0
vn 0.0 -1.0 0.0
vn 0.0 -1.0 0.0
vn 0.7071 -0.7071 0.0
vn 0.7071 -0.7071 0.0
vn 0.7071 -0.7071 0.0
vn 0.7071 -0.7071 0.0
vn 0.7071 -0.7071 0.0
vn 0.7071 -0.7071 0.0
vn 1.0 0.0 0.0
vn 1.0 0.0 0.0
vn 1.0 0.0 0.0
vn 1.0 0.0 0.0
vn 1.0 0.0 0.0
vn 1.0 0.0 0.0
vn 0.7071 0.7071 0.0
vn 0.7071 0.7071 0.0
vn 0.7071 0.7071 0.0
vn 0.7071 0.7071 0.0
vn 0.7071 0.7071 0.0
vn 0.7071 0.7071 0.0
vn 0.0 1.0 0.0
vn 0.0 1.0 0.0
vn 0.0 1.0 0.0
vn 0.0 1.0 0.0
vn 0.0 1.0 0.0
vn 0.0 1.0 0.0
vn -0.7071 0.7071 0.0
vn -0.7071 0.7071 0.0
vn -0.7071 0.7071 0.0
vn -0.7071 0.7071 0.0
vn -0.7071 0.7071 0.0
vn -0.7071 0.7071 0.0
vn -1.0 0.0 0.0
vn -1.0 0.0 0.0
vn -1.0 0.0 0.0
vn -1.0 0.0 0.0
vn -1.0 0.0 0.0
vn -1.0 0.0 0.0
vn -0.7071 -0.7071 0.0
vn -0.7071 -0.7071 0.0
vn -0.7071 -0.7071 0.0
vn -0.7071 -0.7071 0.0
vn -0.7071 -0.7071 0.0
vn -0.7071 -0.7071 0.0
vn 0.0 0.0 1.0
vn 0.0 0.0 1.0
vn 0.0 0.0 1.0
vn 0.0 0.0 1.0
vn 0.0 0.0 1.0
vn 0.0 0.0 1.0
vn 0.0 0.0 1.0
vn 0.0 0.0 1.0
vn 0.0 0.0 1.0
vn 0.0 0.0 1.0
vn 0.0 0.0 1.0
vn 0.0 0.0 1.0
vn 0.0 0.0 1.0
vn 0.0 0.0 1.0
vn 0.0 0.0 1.0
vn 0.0 0.0 1.0
vn 0.0 0.0 1.0
vn 0.0 0.0 1.0
vn 0.0 -1.0 0.0
vn 0.0 -1.0 0.0
vn 0.0 -1.0 0.0
vn 0.0 -1.0 0.0
vn 0.0 -1.0 0.0
vn 0.0 -1.0 0.0
vn 0.7071 -0.7071 0.0
vn 0.7071 -0.7071 0.0
vn 0.7071 -0.7071 0.0
vn 0.7071 -0.7071 0.0
vn 0.7071 -0.7071 0.0
vn 0.7071 -0.7071 0.0
vn 1.0 0.0 0.0
vn 1.0 0.0 0.0
vn 1.0 0.0 0.0
vn 1.0 0.0 0.0
vn 1.0 0.0 0.0
vn 1.0 0.0 0.0
vn 0.7071 0.7071 0.0
vn 0.7071 0.7071 0.0
vn 0.7071 0.7071 0.0
vn 0.7071 0.7071 0.0
vn 0.7071 0.7071 0.0
vn 0.7071 0.7071 0.0
vn 0.0 1.0 0.0
vn 0.0 1.0 0.0
vn 0.0 1.0 0.0
vn 0.0 1.0 0.0
vn 0.0 1.0 0.0
vn 0.0 1.0 0.0
vn -0.7071 0.7071 0.0
vn -0.7071 0.7071 0.0
vn -0.7071 0.7071 0.0
vn -0.7071 0.7071 0.0
vn -0.7071 0.7071 0.0
vn -0.7071 0.7071 0.0
vn -1.0 0.0 0.0
vn -1.0 0.0 0.0
vn -1.0 0.0 0.0
vn -1.0 0.0 0.0
vn -1.0 0.0 0.0
vn -1.0 0.0 0.0
vn -0.7071 -0.7071 0.0
vn -0.7071 -0.7071 0.0
vn -0.7071 -0.7071 0.0
vn -0.7071 -0.7071 0.0
vn -0.7071 -0.7071 0.0
vn -0.7071 -0.7071 0.0
vn 0.0 0.0 1.0
vn 0.0 0.0 1.0
vn 0.0 0.0 1.0
vn 0.0 0.0 1.0
vn 0.0 0.0 1.0
vn 0.0 0.0 1.0
vn 0.0 0.0 1.0
vn 0.0 0.0 1.0
vn 0.0 0.0 1.0
vn 0.0 0.0 1.0
vn 0.0 0.0 1.0
vn 0.0 0.0 1.0
vn 0.0 0.0 1.0
vn 0.0 0.0 1.0
vn 0.0 0.0 1.0
vn 0.0 0.0 1.0
vn 0.0 0.0 1.0
vn 0.0 0.0 1.0
vn 0.7071 0.7071 0.0
vn 0.7071 0.7071 0.0
vn 0.7071 0.7071 0.0
vn 0.7071 0.7071 0.0
vn 0.7071 0.7071 0.0
vn 0.7071 0.7071 0.0
vn -0.7071 0.7071 0.0
vn -0.7071 0.7071 0.0
vn -0.7071 0.7071 0.0
vn -0.7071 0.7071 0.0
vn -0.7071 0.7071 0.0
vn -0.7071 0.7071 0.0
vn 0.7071 -0.7071 0.0
vn 0.7071 -0.7071 0.0
vn 0.7071 -0.7071 0.0
vn 0.7071 -0.7071 0.0
vn 0.7071 -0.7071 0.0
vn 0.7071 -0.7071 0.0
vn 0.0 0.0 1.0
vn 0.0 0.0 1.0
vn 0.0 0.0 1.0
vn 0.0 0.0 1.0
vn 0.0 0.0 1.0
vn 0.0 0.0 1.0
vn -0.7071 0.7071 0.0
vn -0.7071 0.7071 0.0
vn -0.7071 0.7071 0.0
vn -0.7071 0.7071 0.0
vn -0.7071 0.7071 0.0
vn -0.7071 0.7071 0.0
vn -0.7071 -0.7071 0.0
vn -0.7071 -0.7071 0.0
vn -0.7071 -0.7071 0.0
vn -0.7071 -0.7071 0.0
vn -0.7071 -0.7071 0.0
vn -0.7071 -0.7071 0.0
vn 0.7071 0.7071 0.0
vn 0.7071 0.7071 0.0
vn 0.7071 0.7071 0.0
vn 0.7071 0.7071 0.0
vn 0.7071 0.7071 0.0
vn 0.7071 0.7071 0.0
vn 0.0 0.0 1.0
vn 0.0 0.0 1.0
vn 0.0 0.0 1.0
vn 0.0 0.0 1.0
vn 0.0 0.0 1.0
vn 0.0 0.0 1.0
vn -0.7071 -0.7071 0.0
vn -0.7071 -0.7071 0.0
vn -0.7071 -0.7071 0.0
vn -0.7071 -0.7071 0.0
vn -0.7071 -0.7071 0.0
vn -0.7071 -0.7071 0.0
vn 0.7071 -0.7071 0.0
vn 0.7071 -0.7071 0.0
vn 0.7071 -0.7071 0.0
vn 0.7071 -0.7071 0.0
vn 0.7071 -0.7071 0.0
vn 0.7071 -0.7071 0.0
vn -0.7071 0.7071 0.0
vn -0.7071 0.7071 0.0
vn -0.7071 0.7071 0.0
vn -0.7071 0.7071 0.0
vn -0.7071 0.7071 0.0
vn -0.7071 0.7071 0.0
vn 0.0 0.0 1.0
vn 0.0 0.0 1.0
vn 0.0 0.0 1.0
vn 0.0 0.0 1.0
vn 0.0 0.0 1.0
vn 0.0 0.0 1.0
vn 0.7071 -0.7071 0.0
vn 0.7071 -0.7071 0.0
vn 0.7071 -0.7071 0.0
vn 0.7071 -0.7071 0.0
vn 0.7071 -0.7071 0.0
vn 0.7071 -0.7071 0.0
vn 0.7071 0.7071 0.0
vn 0.7071 0.7071 0.0
vn 0.7071 0.7071 0.0
vn 0.7071 0.7071 0.0
vn 0.7071 0.7071 0.0
vn 0.7071 0.7071 0.0
vn -0.7071 -0.7071 0.0
vn -0.7071 -0.7071 0.0
vn -0.7071 -0.7071 0.0
vn -0.7071 -0.7071 0.0
vn -0.7071 -0.7071 0.0
vn -0.7071 -0.7071 0.0
vn 0.0 0.0 1.0
vn 0.0 0.0 1.0
vn 0.0 0.0 1.0
vn 0.0 0.0 1.0
vn 0.0 0.0 1.0
vn 0.0 0.0 1.0
vn 0.0 -1.0 0.0
vn 0.0 -1.0 0.0
vn 0.0 -1.0 0.0
vn 0.0 -1.0 0.0
vn 0.0 -1.0 0.0
vn 0.0 -1.0 0.0
vn 0.7071 -0.7071 0.0
vn 0.7071 -0.7071 0.0
vn 0.7071 -0.7071 0.0
vn 0.7071 -0.7071 0.0
vn 0.7071 -0.7071 0.0
vn 0.7071 -0.7071 0.0
vn 0.7071 0.7071 0.0
vn 0.7071 0.7071 0.0
vn 0.7071 0.7071 0.0
vn 0.7071 0.7071 0.0
vn 0.7071 0.7071 0.0
vn 0.7071 0.7071 0.0
vn 0.0 1.0 0.0
vn 0.0 1.0 0.0
vn 0.0 1.0 0.0
vn 0.0 1.0 0.0
vn 0.0 1.0 0.0
vn 0.0 1.0 0.0
vn -0.7071 0.7071 0.0
vn -0.7071 0.7071 0.0
vn -0.7071 0.7071 0.0
vn -0.7071 0.7071 0.0
vn -0.7071 0.7071 0.0
vn -0.7071 0.7071 0.0
vn -1.0 0.0 0.0
vn -1.0 0.0 0.0
vn -1.0 0.0 0.0
vn -1.0 0.0 0.0
vn -1.0 0.0 0.0
vn -1.0 0.0 0.0
vn -0.7071 -0.7071 0.0
vn -0.7071 -0.7071 0.0
vn -0.7071 -0.7071 0.0
vn -0.7071 -0.7071 0.0
vn -0.7071 -0.7071 0.0
vn -0.7071 -0.7071 0.0
vn 1.0 0.0 0.0
vn 1.0 0.0 0.0
vn 1.0 0.0 0.0
vn 1.0 0.0 0.0
vn 1.0 0.0 0.0
vn 1.0 0.0 0.0
vn 1.0 0.0 0.0
vn 1.0 0.0 0.0
vn 1.0 0.0 0.0
vn 1.0 0.0 0.0
vn 1.0 0.0 0.0
vn 1.0 0.0 0.0
vn 1.0 0.0 0.0
vn 1.0 0.0 0.0
vn 1.0 0.0 0.0
vn 1.0 0.0 0.0
vn 1.0 0.0 0.0
vn 1.0 0.0 0.0
vn 0.0 0.0 1.0
vn 0.0 0.0 1.0
vn 0.0 0.0 1.0
vn 0.0 0.0 1.0
vn 0.0 0.0 1.0
vn 0.0 0.0 1.0
vn 0.0 0.0 -1.0
vn 0.0 0.0 -1.0
vn 0.0 0.0 -1.0
vn 0.0 0.0 -1.0
vn 0.0 0.0 -1.0
vn 0.0 0.0 -1.0
vn 0.0 1.0 0.0
vn 0.0 1.0 0.0
vn 0.0 1.0 0.0
vn 0.0 1.0 0.0
vn 0.0 1.0 0.0
vn 0.0 1.0 0.0
vn 0.0 -1.0 0.0
vn 0.0 -1.0 0.0
vn 0.0 -1.0 0.0
vn 0.0 -1.0 0.0
vn 0.0 -1.0 0.0
vn 0.0 -1.0 0.0
vn 1.0 0.0 0.0
vn 1.0 0.0 0.0
vn 1.0 0.0 0.0
vn 1.0 0.0 0.0
vn 1.0 0.0 0.0
vn 1.0 0.0 0.0
vn -1.0 0.0 0.0
vn -1.0 0.0 0.0
vn -1.0 0.0 0.0
vn -1.0 0.0 0.0
vn -1.0 0.0 0.0
vn -1.0 0.0 0.0
vn 0.0 1.0 0.0
vn 0.0 1.0 0.0
vn 0.0 1.0 0.0
vn 0.0 1.0 0.0
vn 0.0 1.0 0.0
vn 0.0 1.0 0.0
vn 0.0 -1.0 0.0
vn 0.0 -1.0 0.0
vn 0.0 -1.0 0.0
vn 0.0 -1.0 0.0
vn 0.0 -1.0 0.0
vn 0.0 -1.0 0.0
vn 0.0 0.0 1.0
vn 0.0 0.0 1.0
vn 0.0 0.0 1.0
vn 0.0 0.0 1.0
vn 0.0 0.0 1.0
vn 0.0 0.0 1.0
vn 0.0 0.0 -1.0
vn 0.0 0.0 -1.0
vn 0.0 0.0 -1.0
vn 0.0 0.0 -1.0
vn 0.0 0.0 -1.0
vn 0.0 0.0 -1.0
vn 0.7071 0.7071 0.0
vn 0.7071 0.7071 0.0
vn 0.7071 0.7071 0.0
vn 0.7071 0.7071 0.0
vn 0.7071 0.7071 0.0
vn 0.7071 0.7071 0.0
vn -0.7071 0.7071 0.0
vn -0.7071 0.7071 0.0
vn -0.7071 0.7071 0.0
vn -0.7071 0.7071 0.0
vn -0.7071 0.7071 0.0
vn -0.7071 0.7071 0.0
vn 0.7071 -0.7071 0.0
vn 0.7071 -0.7071 0.0
vn 0.7071 -0.7071 0.0
vn 0.7071 -0.7071 0.0
vn 0.7071 -0.7071 0.0
vn 0.7071 -0.7071 0.0
vn 0.0 0.0 1.0
vn 0.0 0.0 1.0
vn 0.0 0.0 1.0
vn 0.0 0.0 1.0
vn 0.0 0.0 1.0
vn 0.0 0.0 1.0
vn 0.0 0.0 -1.0
vn 0.0 0.0 -1.0
vn 0.0 0.0 -1.0
vn 0.0 0.0 -1.0
vn 0.0 0.0 -1.0
vn 0.0 0.0 -1.0
vn -0.7071 0.7071 0.0
vn -0.7071 0.7071 0.0
vn -0.7071 0.7071 0.0
vn -0.7071 0.7071 0.0
vn -0.7071 0.7071 0.0
vn -0.7071 0.7071 0.0
vn -0.7071 -0.7071 0.0
vn -0.7071 -0.7071 0.0
vn -0.7071 -0.7071 0.0
vn -0.7071 -0.7071 0.0
vn -0.7071 -0.7071 0.0
vn -0.7071 -0.7071 0.0
vn 0.7071 0.7071 0.0
vn 0.7071 0.7071 0.0
vn 0.7071 0.7071 0.0
vn 0.7071 0.7071 0.0
vn 0.7071 0.7071 0.0
vn 0.7071 0.7071 0.0
vn 0.0 0.0 1.0
vn 0.0 0.0 1.0
vn 0.0 0.0 1.0
vn 0.0 0.0 1.0
vn 0.0 0.0 1.0
vn 0.0 0.0 1.0
vn 0.0 0.0 -1.0
vn 0.0 0.0 -1.0
vn 0.0 0.0 -1.0
vn 0.0 0.0 -1.0
vn 0.0 0.0 -1.0
vn 0.0 0.0 -1.0
vn -0.7071 -0.7071 0.0
vn -0.7071 -0.7071 0.0
vn -0.7071 -0.7071 0.0
vn -0.7071 -0.7071 0.0
vn -0.7071 -0.7071 0.0
vn -0.7071 -0.7071 0.0
vn 0.7071 -0.7071 0.0
vn 0.7071 -0.7071 0.0
vn 0.7071 -0.7071 0.0
vn 0.7071 -0.7071 0.0
vn 0.7071 -0.7071 0.0
vn 0.7071 -0.7071 0.0
vn -0.7071 0.7071 0.0
vn -0.7071 0.7071 0.0
vn -0.7071 0.7071 0.0
vn -0.7071 0.7071 0.0
vn -0.7071 0.7071 0.0
vn -0.7071 0.7071 0.0
vn 0.0 0.0 1.0
vn 0.0 0.0 1.0
vn 0.0 0.0 1.0
vn 0.0 0.0 1.0
vn 0.0 0.0 1.0
vn 0.0 0.0 1.0
vn 0.0 0.0 -1.0
vn 0.0 0.0 -1.0
vn 0.0 0.0 -1.0
vn 0.0 0.0 -1.0
vn 0.0 0.0 -1.0
vn 0.0 0.0 -1.0
vn 0.7071 -0.7071 0.0
vn 0.7071 -0.7071 0.0
vn 0.7071 -0.7071 0.0
vn 0.7071 -0.7071 0.0
vn 0.7071 -0.7071 0.0
vn 0.7071 -0.7071 0.0
vn 0.7071 0.7071 0.0
vn 0.7071 0.7071 0.0
vn 0.7071 0.7071 0.0
vn 0.7071 0.7071 0.0
vn 0.7071 0.7071 0.0
vn 0.7071 0.7071 0.0
vn -0.7071 -0.7071 0.0
vn -0.7071 -0.7071 0.0
vn -0.7071 -0.7071 0.0
vn -0.7071 -0.7071 0.0
vn -0.7071 -0.7071 0.0
vn -0.7071 -0.7071 0.0
vn 0.0 0.0 1.0
vn 0.0 0.0 1.0
vn 0.0 0.0 1.0
vn 0.0 0.0 1.0
vn 0.0 0.0 1.0
vn 0.0 0.0 1.0
vn 0.0 0.0 -1.0
vn 0.0 0.0 -1.0
vn 0.0 0.0 -1.0
vn 0.0 0.0 -1.0
vn 0.0 0.0 -1.0
vn 0.0 0.0 -1.0
vn 0.0 -1.0 0.0
vn 0.0 -1.0 0.0
vn 0.0 -1.0 0.0
vn 0.0 -1.0 0.0
vn 0.0 -1.0 0.0
vn 0.0 -1.0 0.0
vn 0.7071 -0.7071 0.0
vn 0.7071 -0.7071 0.0
vn 0.7071 -0.7071 0.0
vn 0.7071 -0.7071 0.0
vn 0.7071 -0.7071 0.0
vn 0.7071 -0.7071 0.0
vn 1.0 0.0 0.0
vn 1.0 0.0 0.0
vn 1.0 0.0 0.0
vn 1.0 0.0 0.0
vn 1.0 0.0 0.0
vn 1.0 0.0 0.0
vn 0.7071 0.7071 0.0
vn 0.7071 0.7071 0.0
vn 0.7071 0.7071 0.0
vn 0.7071 0.7071 0.0
vn 0.7071 0.7071 0.0
vn 0.7071 0.7071 0.0
vn 0.0 1.0 0.0
vn 0.0 1.0 0.0
vn 0.0 1.0 0.0
vn 0.0 1.0 0.0
vn 0.0 1.0 0.0
vn 0.0 1.0 0.0
vn -0.7071 0.7071 0.0
vn -0.7071 0.7071 0.0
vn -0.7071 0.7071 0.0
vn -0.7071 0.7071 0.0
vn -0.7071 0.7071 0.0
vn -0.7071 0.7071 0.0
vn -1.0 0.0 0.0
vn -1.0 0.0 0.0
vn -1.0 0.0 0.0
vn -1.0 0.0 0.0
vn -1.0 0.0 0.0
vn -1.0 0.0 0.0
vn -0.7071 -0.7071 0.0
vn -0.7071 -0.7071 0.0
vn -0.7071 -0.7071 0.0
vn -0.7071 -0.7071 0.0
vn -0.7071 -0.7071 0.0
vn -0.7071 -0.7071 0.0
vn 0.0 0.0 -1.0
vn 0.0 0.0 -1.0
vn 0.0 0.0 -1.0
vn 0.0 0.0 -1.0
vn 0.0 0.0 -1.0
vn 0.0 0.0 -1.0
vn 0.0 0.0 -1.0
vn 0.0 0.0 -1.0
vn 0.0 0.0 -1.0
vn 0.0 0.0 -1.0
vn 0.0 0.0 -1.0
vn 0.0 0.0 -1.0
vn 0.0 0.0 -1.0
vn 0.0 0.0 -1.0
vn 0.0 0.0 -1.0
vn 0.0 0.0 -1.0
vn 0.0 0.0 -1.0
vn 0.0 0.0 -1.0
vn 0.0 0.0 1.0
vn 0.0 0.0 1.0
vn 0.0 0.0 1.0
vn 0.0 0.0 1.0
vn 0.0 0.0 1.0
vn 0.0 0.0 1.0
vn 0.0 0.0 1.0
vn 0.0 0.0 1.0
vn 0.0 0.0 1.0
vn 0.0 0.0 1.0
vn 0.0 0.0 1.0
vn 0.0 0.0 1.0
vn 0.0 0.0 1.0
vn 0.0 0.0 1.0
vn 0.0 0.0 1.0
vn 0.0 0.0 1.0
vn 0.0 0.0 1.0
vn 0.0 0.0 1.0
vn 0.0 -1.0 0.0
vn 0.0 -1.0 0.0
vn 0.0 -1.0 0.0
vn 0.0 -1.0 0.0
vn 0.0 -1.0 0.0
vn 0.0 -1.0 0.0
vn 0.7071 -0.7071 0.0
vn 0.7071 -0.7071 0.0
vn 0.7071 -0.7071 0.0
vn 0.7071 -0.7071 0.0
vn 0.7071 -0.7071 0.0
vn 0.7071 -0.7071 0.0
vn 1.0 0.0 0.0
vn 1.0 0.0 0.0
vn 1.0 0.0 0.0
vn 1.0 0.0 0.0
vn 1.0 0.0 0.0
vn 1.0 0.0 0.0
vn 0.7071 0.7071 0.0
vn 0.7071 0.7071 0.0
vn 0.7071 0.7071 0.0
vn 0.7071 0.7071 0.0
vn 0.7071 0.7071 0.0
vn 0.7071 0.7071 0.0
vn 0.0 1.0 0.0
vn 0.0 1.0 0.0
vn 0.0 1.0 0.0
vn 0.0 1.0 0.0
vn 0.0 1.0 0.0
vn 0.0 1.0 0.0
vn -0.7071 0.7071 0.0
vn -0.7071 0.7071 0.0
vn -0.7071 0.7071 0.0
vn -0.7071 0.7071 0.0
vn -0.7071 0.7071 0.0
vn -0.7071 0.7071 0.0
vn -1.0 0.0 0.0
vn -1.0 0.0 0.0
vn -1.0 0.0 0.0
vn -1.0 0.0 0.0
vn -1.0 0.0 0.0
vn -1.0 0.0 0.0
vn -0.7071 -0.7071 0.0
vn -0.7071 -0.7071 0.0
vn -0.7071 -0.7071 0.0
vn -0.7071 -0.7071 0.0
vn -0.7071 -0.7071 0.0
vn -0.7071 -0.7071 0.0
vn 0.0 0.0 -1.0
vn 0.0 0.0 -1.0
vn 0.0 0.0 -1.0
vn 0.0 0.0 -1.0
vn 0.0 0.0 -1.0
vn 0.0 0.0 -1.0
vn 0.0 0.0 -1.0
vn 0.0 0.0 -1.0
vn 0.0 0.0 -1.0
vn 0.0 0.0 -1.0
vn 0.0 0.0 -1.0
vn 0.0 0.0 -1.0
vn 0.0 0.0 -1.0
vn 0.0 0.0 -1.0
vn 0.0 0.0 -1.0
vn 0.0 0.0 -1.0
vn 0.0 0.0 -1.0
vn 0.0 0.0 -1.0
vn 0.0 0.0 1.0
vn 0.0 0.0 1.0
vn 0.0 0.0 1.0
vn 0.0 0.0 1.0
vn 0.0 0.0 1.0
vn 0.0 0.0 1.0
vn 0.0 0.0 1.0
vn 0.0 0.0 1.0
vn 0.0 0.0 1.0
vn 0.0 0.0 1.0
vn 0.0 0.0 1.0
vn 0.0 0.0 1.0
vn 0.0 0.0 1.0
vn 0.0 0.0 1.0
vn 0.0 0.0 1.0
vn 0.0 0.0 1.0
vn 0.0 0.0 1.0
vn 0.0 0.0 1.0
vn 1.0 0.0 0.0
vn 1.0 0.0 0.0
vn 1.0 0.0 0.0
vn 1.0 0.0 0.0
vn 1.0 0.0 0.0
vn 1.0 0.0 0.0
vn 0.0 1.0 0.0
vn 0.0 1.0 0.0
vn 0.0 1.0 0.0
vn 0.0 1.0 0.0
vn 0.0 1.0 0.0
vn 0.0 1.0 0.0
vn 0.0 -1.0 0.0
vn 0.0 -1.0 0.0
vn 0.0 -1.0 0.0
vn 0.0 -1.0 0.0
vn 0.0 -1.0 0.0
vn 0.0 -1.0 0.0
vn 0.0 0.0 1.0
vn 0.0 0.0 1.0
vn 0.0 0.0 1.0
vn 0.0 0.0 1.0
vn 0.0 0.0 1.0
vn 0.0 0.0 1.0
vn 0.0 0.0 -1.0
vn 0.0 0.0 -1.0
vn 0.0 0.0 -1.0
vn 0.0 0.0 -1.0
vn 0.0 0.0 -1.0
vn 0.0 0.0 -1.0
vn 0.0 1.0 0.0
vn 0.0 1.0 0.0
vn 0.0 1.0 0.0
vn 0.0 1.0 0.0
vn 0.0 1.0 0.0
vn 0.0 1.0 0.0
vn -1.0 0.0 0.0
vn -1.0 0.0 0.0
vn -1.0 0.0 0.0
vn -1.0 0.0 0.0
vn -1.0 0.0 0.0
vn -1.0 0.0 0.0
vn 1.0 0.0 0.0
vn 1.0 0.0 0.0
vn 1.0 0.0 0.0
vn 1.0 0.0 0.0
vn 1.0 0.0 0.0
vn 1.0 0.0 0.0
vn 0.0 0.0 1.0
vn 0.0 0.0 1.0
vn 0.0 0.0 1.0
vn 0.0 0.0 1.0
vn 0.0 0.0 1.0
vn 0.0 0.0 1.0
vn 0.0 0.0 -1.0
vn 0.0 0.0 -1.0
vn 0.0 0.0 -1.0
vn 0.0 0.0 -1.0
vn 0.0 0.0 -1.0
vn 0.0 0.0 -1.0
vn -1.0 0.0 0.0
vn -1.0 0.0 0.0
vn -1.0 0.0 0.0
vn -1.0 0.0 0.0
vn -1.0 0.0 0.0
vn -1.0 0.0 0.0
vn 0.0 -1.0 0.0
vn 0.0 -1.0 0.0
vn 0.0 -1.0 0.0
vn 0.0 -1.0 0.0
vn 0.0 -1.0 0.0
vn 0.0 -1.0 0.0
vn 0.0 1.0 0.0
vn 0.0 1.0 0.0
vn 0.0 1.0 0.0
vn 0.0 1.0 0.0
vn 0.0 1.0 0.0
vn 0.0 1.0 0.0
vn 0.0 0.0 1.0
vn 0.0 0.0 1.0
vn 0.0 0.0 1.0
vn 0.0 0.0 1.0
vn 0.0 0.0 1.0
vn 0.0 0.0 1.0
vn 0.0 0.0 -1.0
vn 0.0 0.0 -1.0
vn 0.0 0.0 -1.0
vn 0.0 0.0 -1.0
vn 0.0 0.0 -1.0
vn 0.0 0.0 -1.0
vn 0.0 -1.0 0.0
vn 0.0 -1.0 0.0
vn 0.0 -1.0 0.0
vn 0.0 -1.0 0.0
vn 0.0 -1.0 0.0
vn 0.0 -1.0 0.0
vn 1.0 0.0 0.0
vn 1.0 0.0 0.0
vn 1.0 0.0 0.0
vn 1.0 0.0 0.0
vn 1.0 0.0 0.0
vn 1.0 0.0 0.0
vn -1.0 0.0 0.0
vn -1.0 0.0 0.0
vn -1.0 0.0 0.0
vn -1.0 0.0 0.0
vn -1.0 0.0 0.0
vn -1.0 0.0 0.0
vn 0.0 0.0 1.0
vn 0.0 0.0 1.0
vn 0.0 0.0 1.0
vn 0.0 0.0 1.0
vn 0.0 0.0 1.0
vn 0.0 0.0 1.0
vn 0.0 0.0 -1.0
vn 0.0 0.0 -1.0
vn 0.0 0.0 -1.0
vn 0.0 0.0 -1.0
vn 0.0 0.0 -1.0
vn 0.0 0.0 -1.0
vn 0.0 -1.0 0.0
vn 0.0 -1.0 0.0
vn 0.0 -1.0 0.0
vn 0.0 -1.0 0.0
vn 0.0 -1.0 0.0
vn 0.0 -1.0 0.0
vn 0.7071 -0.7071 0.0
vn 0.7071 -0.7071 0.0
vn 0.7071 -0.7071 0.0
vn 0.7071 -0.7071 0.0
vn 0.7071 -0.7071 0.0
vn 0.7071 -0.7071 0.0
vn 0.7071 0.7071 0.0
vn 0.7071 0.7071 0.0
vn 0.7071 0.7071 0.0
vn 0.7071 0.7071 0.0
vn 0.7071 0.7071 0.0
vn 0.7071 0.7071 0.0
vn 0.0 1.0 0.0
vn 0.0 1.0 0.0
vn 0.0 1.0 0.0
vn 0.0 1.0 0.0
vn 0.0 1.0 0.0
vn 0.0 1.0 0.0
vn -0.7071 0.7071 0.0
vn -0.7071 0.7071 0.0
vn -0.7071 0.7071 0.0
vn -0.7071 0.7071 0.0
vn -0.7071 0.7071 0.0
vn -0.7071 0.7071 0.0
vn -1.0 0.0 0.0
vn -1.0 0.0 0.0
vn -1.0 0.0 0.0
vn -1.0 0.0 0.0
vn -1.0 0.0 0.0
vn -1.0 0.0 0.0
vn -0.7071 -0.7071 0.0
vn -0.7071 -0.7071 0.0
vn -0.7071 -0.7071 0.0
vn -0.7071 -0.7071 0.0
vn -0.7071 -0.7071 0.0
vn -0.7071 -0.7071 0.0
vn 1.0 0.0 0.0
vn 1.0 0.0 0.0
vn 1.0 0.0 0.0
vn 1.0 0.0 0.0
vn 1.0 0.0 0.0
vn 1.0 0.0 0.0
vn 0.0 -1.0 0.0
vn 0.0 -1.0 0.0
vn 0.0 -1.0 0.0
vn 0.0 -1.0 0.0
vn 0.0 -1.0 0.0
vn 0.0 -1.0 0.0
vn 0.7071 -0.7071 0.0
vn 0.7071 -0.7071 0.0
vn 0.7071 -0.7071 0.0
vn 0.7071 -0.7071 0.0
vn 0.7071 -0.7071 0.0
vn 0.7071 -0.7071 0.0
vn 1.0 0.0 0.0
vn 1.0 0.0 0.0
vn 1.0 0.0 0.0
vn 1.0 0.0 0.0
vn 1.0 0.0 0.0
vn 1.0 0.0 0.0
vn 0.7071 0.7071 0.0
vn 0.7071 0.7071 0.0
vn 0.7071 0.7071 0.0
vn 0.7071 0.7071 0.0
vn 0.7071 0.7071 0.0
vn 0.7071 0.7071 0.0
vn 0.0 1.0 0.0
vn 0.0 1.0 0.0
vn 0.0 1.0 0.0
vn 0.0 1.0 0.0
vn 0.0 1.0 0.0
vn 0.0 1.0 0.0
vn -0.7071 0.7071 0.0
vn -0.7071 0.7071 0.0
vn -0.7071 0.7071 0.0
vn -0.7071 0.7071 0.0
vn -0.7071 0.7071 0.0
vn -0.7071 0.7071 0.0
vn -1.0 0.0 0.0
vn -1.0 0.0 0.0
vn -1.0 0.0 0.0
vn -1.0 0.0 0.0
vn -1.0 0.0 0.0
vn -1.0 0.0 0.0
vn -0.7071 -0.7071 0.0
vn -0.7071 -0.7071 0.0
vn -0.7071 -0.7071 0.0
vn -0.7071 -0.7071 0.0
vn -0.7071 -0.7071 0.0
vn -0.7071 -0.7071 0.0
vn 0.0 0.0 -1.0
vn 0.0 0.0 -1.0
vn 0.0 0.0 -1.0
vn 0.0 0.0 -1.0
vn 0.0 0.0 -1.0
vn 0.0 0.0 -1.0
vn 0.0 0.0 -1.0
vn 0.0 0.0 -1.0
vn 0.0 0.0 -1.0
vn 0.0 0.0 -1.0
vn 0.0 0.0 -1.0
vn 0.0 0.0 -1.0
vn 0.0 0.0 -1.0
vn 0.0 0.0 -1.0
vn 0.0 0.0 -1.0
vn 0.0 0.0 -1.0
vn 0.0 0.0 -1.0
vn 0.0 0.0 -1.0
vn 0.0 0.0 1.0
vn 0.0 0.0 1.0
vn 0.0 0.0 1.0
vn 0.0 0.0 1.0
vn 0.0 0.0 1.0
vn 0.0 0.0 1.0
vn 0.0 0.0 1.0
vn 0.0 0.0 1.0
vn 0.0 0.0 1.0
vn 0.0 0.0 1.0
vn 0.0 0.0 1.0
vn 0.0 0.0 1.0
vn 0.0 0.0 1.0
vn 0.0 0.0 1.0
vn 0.0 0.0 1.0
vn 0.0 0.0 1.0
vn 0.0 0.0 1.0
vn 0.0 0.0 1.0
vn 1.0 0.0 0.0
vn 1.0 0.0 0.0
vn 1.0 0.0 0.0
vn 1.0 0.0 0.0
vn 1.0 0.0 0.0
vn 1.0 0.0 0.0
vn -1.0 0.0 0.0
vn -1.0 0.0 0.0
vn -1.0 0.0 0.0
vn -1.0 0.0 0.0
vn -1.0 0.0 0.0
vn -1.0 0.0 0.0
vn 0.0 1.0 0.0
vn 0.0 1.0 0.0
vn 0.0 1.0 0.0
vn 0.0 1.0 0.0
vn 0.0 1.0 0.0
vn 0.0 1.0 0.0
vn 0.0 -1.0 0.0
vn 0.0 -1.0 0.0
vn 0.0 -1.0 0.0
vn 0.0 -1.0 0.0
vn 0.0 -1.0 0.0
vn 0.0 -1.0 0.0
vn 0.0 0.0 1.0
vn 0.0 0.0 1.0
vn 0.0 0.0 1.0
vn 0.0 0.0 1.0
vn 0.0 0.0 1.0
vn 0.0 0.0 1.0
vn 1.0 0.0 0.0
vn 1.0 0.0 0.0
vn 1.0 0.0 0.0
vn 1.0 0.0 0.0
vn 1.0 0.0 0.0
vn 1.0 0.0 0.0
vn -1.0 0.0 0.0
vn -1.0 0.0 0.0
vn -1.0 0.0 0.0
vn -1.0 0.0 0.0
vn -1.0 0.0 0.0
vn -1.0 0.0 0.0
vn 0.0 1.0 0.0
vn 0.0 1.0 0.0
vn 0.0 1.0 0.0
vn 0.0 1.0 0.0
vn 0.0 1.0 0.0
vn 0.0 1.0 0.0
vn 0.0 -1.0 0.0
vn 0.0 -1.0 0.0
vn 0.0 -1.0 0.0
vn 0.0 -1.0 0.0
vn 0.0 -1.0 0.0
vn 0.0 -1.0 0.0
vn 0.0 0.0 1.0
vn 0.0 0.0 1.0
vn 0.0 0.0 1.0
vn 0.0 0.0 1.0
vn 0.0 0.0 1.0
vn 0.0 0.0 1.0
vn 0.0 0.0 -1.0
vn 0.0 0.0 -1.0
vn 0.0 0.0 -1.0
vn 0.0 0.0 -1.0
vn 0.0 0.0 -1.0
vn 0.0 0.0 -1.0
vn 0.866 0.0 0.5
vn 0.866 0.0 0.5
vn 0.866 0.0 0.5
vn 0.866 0.0 0.5
vn 0.866 0.0 0.5
vn 0.866 0.0 0.5
vn 0.0 0.0 1.0
vn 0.0 0.0 1.0
vn 0.0 0.0 1.0
vn 0.0 0.0 1.0
vn 0.0 0.0 1.0
vn 0.0 0.0 1.0
vn -0.866 0.0 0.5
vn -0.866 0.0 0.5
vn -0.866 0.0 0.5
vn -0.866 0.0 0.5
vn -0.866 0.0 0.5
vn -0.866 0.0 0.5
vn -0.866 0.0 -0.5
vn -0.866 0.0 -0.5
vn -0.866 0.0 -0.5
vn -0.866 0.0 -0.5
vn -0.866 0.0 -0.5
vn -0.866 0.0 -0.5
vn 0.0 0.0 -1.0
vn 0.0 0.0 -1.0
vn 0.0 0.0 -1.0
vn 0.0 0.0 -1.0
vn 0.0 0.0 -1.0
vn 0.0 0.0 -1.0
vn 0.866 0.0 -0.5
vn 0.866 0.0 -0.5
vn 0.866 0.0 -0.5
vn 0.866 0.0 -0.5
vn 0.866 0.0 -0.5
vn 0.866 0.0 -0.5
vn 0.0 1.0 0.0
vn 0.0 1.0 0.0
vn 0.0 1.0 0.0
vn 0.0 1.0 0.0
vn 0.0 1.0 0.0
vn 0.0 1.0 0.0
vn 0.0 1.0 0.0
vn 0.0 1.0 0.0
vn 0.0 1.0 0.0
vn 0.0 1.0 0.0
vn 0.0 1.0 0.0
vn 0.0 1.0 0.0
vn 0.0 -1.0 0.0
vn 0.0 -1.0 0.0
vn 0.0 -1.0 0.0
vn 0.0 -1.0 0.0
vn 0.0 -1.0 0.0
vn 0.0 -1.0 0.0
vn 0.0 -1.0 0.0
vn 0.0 -1.0 0.0
vn 0.0 -1.0 0.0
vn 0.0 -1.0 0.0
vn 0.0 -1.0 0.0
vn 0.0 -1.0 0.0
vn 0.866 0.0 0.5
vn 0.866 0.0 0.5
vn 0.866 0.0 0.5
vn 0.866 0.0 0.5
vn 0.866 0.0 0.5
vn 0.866 0.0 0.5
vn 0.0 0.0 1.0
vn 0.0 0.0 1.0
vn 0.0 0.0 1.0
vn 0.0 0.0 1.0
vn 0.0 0.0 1.0
vn 0.0 0.0 1.0
vn -0.866 0.0 0.5
vn -0.866 0.0 0.5
vn -0.866 0.0 0.5
vn -0.866 0.0 0.5
vn -0.866 0.0 0.5
vn -0.866 0.0 0.5
vn -0.866 0.0 -0.5
vn -0.866 0.0 -0.5
vn -0.866 0.0 -0.5
vn -0.866 0.0 -0.5
vn -0.866 0.0 -0.5
vn -0.866 0.0 -0.5
vn 0.0 0.0 -1.0
vn 0.0 0.0 -1.0
vn 0.0 0.0 -1.0
vn 0.0 0.0 -1.0
vn 0.0 0.0 -1.0
vn 0.0 0.0 -1.0
vn 0.866 0.0 -0.5
vn 0.866 0.0 -0.5
vn 0.866 0.0 -0.5
vn 0.866 0.0 -0.5
vn 0.866 0.0 -0.5
vn 0.866 0.0 -0.5
vn 0.0 1.0 0.0
vn 0.0 1.0 0.0
vn 0.0 1.0 0.0
vn 0.0 1.0 0.0
vn 0.0 1.0 0.0
vn 0.0 1.0 0.0
vn 0.0 1.0 0.0
vn 0.0 1.0 0.0
vn 0.0 1.0 0.0
vn 0.0 1.0 0.0
vn 0.0 1.0 0.0
vn 0.0 1.0 0.0
vn 0.0 -1.0 0.0
vn 0.0 -1.0 0.0
vn 0.0 -1.0 0.0
vn 0.0 -1.0 0.0
vn 0.0 -1.0 0.0
vn 0.0 -1.0 0.0
vn 0.0 -1.0 0.0
vn 0.0 -1.0 0.0
vn 0.0 -1.0 0.0
vn 0.0 -1.0 0.0
vn 0.0 -1.0 0.0
vn 0.0 -1.0 0.0
vn 1.0 0.0 0.0
vn 1.0 0.0 0.0
vn 1.0 0.0 0.0
vn 1.0 0.0 0.0
vn 1.0 0.0 0.0
vn 1.0 0.0 0.0
vn -1.0 0.0 0.0
vn -1.0 0.0 0.0
vn -1.0 0.0 0.0
vn -1.0 0.0 0.0
vn -1.0 0.0 0.0
vn -1.0 0.0 0.0
vn 0.0 1.0 0.0
vn 0.0 1.0 0.0
vn 0.0 1.0 0.0
vn 0.0 1.0 0.0
vn 0.0 1.0 0.0
vn 0.0 1.0 0.0
vn 0.0 -1.0 0.0
vn 0.0 -1.0 0.0
vn 0.0 -1.0 0.0
vn 0.0 -1.0 0.0
vn 0.0 -1.0 0.0
vn 0.0 -1.0 0.0
vn 0.0 0.0 1.0
vn 0.0 0.0 1.0
vn 0.0 0.0 1.0
vn 0.0 0.0 1.0
vn 0.0 0.0 1.0
vn 0.0 0.0 1.0
vn 0.0 0.0 -1.0
vn 0.0 0.0 -1.0
vn 0.0 0.0 -1.0
vn 0.0 0.0 -1.0
vn 0.0 0.0 -1.0
vn 0.0 0.0 -1.0
vn -0.866 0.0 0.5
vn -0.866 0.0 0.5
vn -0.866 0.0 0.5
vn -0.866 0.0 0.5
vn -0.866 0.0 0.5
vn -0.866 0.0 0.5
vn 0.0 0.0 1.0
vn 0.0 0.0 1.0
vn 0.0 0.0 1.0
vn 0.0 0.0 1.0
vn 0.0 0.0 1.0
vn 0.0 0.0 1.0
vn 0.866 0.0 0.5
vn 0.866 0.0 0.5
vn 0.866 0.0 0.5
vn 0.866 0.0 0.5
vn 0.866 0.0 0.5
vn 0.866 0.0 0.5
vn 0.866 0.0 -0.5
vn 0.866 0.0 -0.5
vn 0.866 0.0 -0.5
vn 0.866 0.0 -0.5
vn 0.866 0.0 -0.5
vn 0.866 0.0 -0.5
vn 0.0 0.0 -1.0
vn 0.0 0.0 -1.0
vn 0.0 0.0 -1.0
vn 0.0 0.0 -1.0
vn 0.0 0.0 -1.0
vn 0.0 0.0 -1.0
vn -0.866 0.0 -0.5
vn -0.866 0.0 -0.5
vn -0.866 0.0 -0.5
vn -0.866 0.0 -0.5
vn -0.866 0.0 -0.5
vn -0.866 0.0 -0.5
vn 0.0 -1.0 0.0
vn 0.0 -1.0 0.0
vn 0.0 -1.0 0.0
vn 0.0 -1.0 0.0
vn 0.0 -1.0 0.0
vn 0.0 -1.0 0.0
vn 0.0 -1.0 0.0
vn 0.0 -1.0 0.0
vn 0.0 -1.0 0.0
vn 0.0 -1.0 0.0
vn 0.0 -1.0 0.0
vn 0.0 -1.0 0.0
vn 0.0 1.0 0.0
vn 0.0 1.0 0.0
vn 0.0 1.0 0.0
vn 0.0 1.0 0.0
vn 0.0 1.0 0.0
vn 0.0 1.0 0.0
vn 0.0 1.0 0.0
vn 0.0 1.0 0.0
vn 0.0 1.0 0.0
vn 0.0 1.0 0.0
vn 0.0 1.0 0.0
vn 0.0 1.0 0.0
vn -0.866 0.0 0.5
vn -0.866 0.0 0.5
vn -0.866 0.0 0.5
vn -0.866 0.0 0.5
vn -0.866 0.0 0.5
vn -0.866 0.0 0.5
vn 0.0 0.0 1.0
vn 0.0 0.0 1.0
vn 0.0 0.0 1.0
vn 0.0 0.0 1.0
vn 0.0 0.0 1.0
vn 0.0 0.0 1.0
vn 0.866 0.0 0.5
vn 0.866 0.0 0.5
vn 0.866 0.0 0.5
vn 0.866 0.0 0.5
vn 0.866 0.0 0.5
vn 0.866 0.0 0.5
vn 0.866 0.0 -0.5
vn 0.866 0.0 -0.5
vn 0.866 0.0 -0.5
vn 0.866 0.0 -0.5
vn 0.866 0.0 -0.5
vn 0.866 0.0 -0.5
vn 0.0 0.0 -1.0
vn 0.0 0.0 -1.0
vn 0.0 0.0 -1.0
vn 0.0 0.0 -1.0
vn 0.0 0.0 -1.0
vn 0.0 0.0 -1.0
vn -0.866 0.0 -0.5
vn -0.866 0.0 -0.5
vn -0.866 0.0 -0.5
vn -0.866 0.0 -0.5
vn -0.866 0.0 -0.5
vn -0.866 0.0 -0.5
vn 0.0 -1.0 0.0
vn 0.0 -1.0 0.0
vn 0.0 -1.0 0.0
vn 0.0 -1.0 0.0
vn 0.0 -1.0 0.0
vn 0.0 -1.0 0.0
vn 0.0 -1.0 0.0
vn 0.0 -1.0 0.0
vn 0.0 -1.0 0.0
vn 0.0 -1.0 0.0
vn 0.0 -1.0 0.0
vn 0.0 -1.0 0.0
vn 0.0 1.0 0.0
vn 0.0 1.0 0.0
vn 0.0 1.0 0.0
vn 0.0 1.0 0.0
vn 0.0 1.0 0.0
vn 0.0 1.0 0.0
vn 0.0 1.0 0.0
vn 0.0 1.0 0.0
vn 0.0 1.0 0.0
vn 0.0 1.0 0.0
vn 0.0 1.0 0.0
vn 0.0 1.0 0.0
g plinth
usemtl MI_EBS_MER_CompactFrame
f 1/1/1 2/2/2 3/3/3
f 4/4/4 5/5/5 6/6/6
f 7/7/7 8/8/8 9/9/9
f 10/10/10 11/11/11 12/12/12
f 13/13/13 14/14/14 15/15/15
f 16/16/16 17/17/17 18/18/18
f 19/19/19 20/20/20 21/21/21
f 22/22/22 23/23/23 24/24/24
f 25/25/25 26/26/26 27/27/27
f 28/28/28 29/29/29 30/30/30
f 31/31/31 32/32/32 33/33/33
f 34/34/34 35/35/35 36/36/36
f 37/37/37 38/38/38 39/39/39
f 40/40/40 41/41/41 42/42/42
f 43/43/43 44/44/44 45/45/45
f 46/46/46 47/47/47 48/48/48
f 49/49/49 50/50/50 51/51/51
f 52/52/52 53/53/53 54/54/54
f 55/55/55 56/56/56 57/57/57
f 58/58/58 59/59/59 60/60/60
f 61/61/61 62/62/62 63/63/63
f 64/64/64 65/65/65 66/66/66
f 67/67/67 68/68/68 69/69/69
f 70/70/70 71/71/71 72/72/72
f 73/73/73 74/74/74 75/75/75
f 76/76/76 77/77/77 78/78/78
f 79/79/79 80/80/80 81/81/81
f 82/82/82 83/83/83 84/84/84
f 85/85/85 86/86/86 87/87/87
f 88/88/88 89/89/89 90/90/90
f 91/91/91 92/92/92 93/93/93
f 94/94/94 95/95/95 96/96/96
f 97/97/97 98/98/98 99/99/99
f 100/100/100 101/101/101 102/102/102
f 103/103/103 104/104/104 105/105/105
f 106/106/106 107/107/107 108/108/108
f 109/109/109 110/110/110 111/111/111
f 112/112/112 113/113/113 114/114/114
g plinth_step
f 115/115/115 116/116/116 117/117/117
f 118/118/118 119/119/119 120/120/120
f 121/121/121 122/122/122 123/123/123
f 124/124/124 125/125/125 126/126/126
f 127/127/127 128/128/128 129/129/129
f 130/130/130 131/131/131 132/132/132
f 133/133/133 134/134/134 135/135/135
f 136/136/136 137/137/137 138/138/138
f 139/139/139 140/140/140 141/141/141
f 142/142/142 143/143/143 144/144/144
f 145/145/145 146/146/146 147/147/147
f 148/148/148 149/149/149 150/150/150
f 151/151/151 152/152/152 153/153/153
f 154/154/154 155/155/155 156/156/156
f 157/157/157 158/158/158 159/159/159
f 160/160/160 161/161/161 162/162/162
f 163/163/163 164/164/164 165/165/165
f 166/166/166 167/167/167 168/168/168
f 169/169/169 170/170/170 171/171/171
f 172/172/172 173/173/173 174/174/174
f 175/175/175 176/176/176 177/177/177
f 178/178/178 179/179/179 180/180/180
g frame_bracket_01
f 181/181/181 182/182/182 183/183/183
f 184/184/184 185/185/185 186/186/186
f 187/187/187 188/188/188 189/189/189
f 190/190/190 191/191/191 192/192/192
f 193/193/193 194/194/194 195/195/195
f 196/196/196 197/197/197 198/198/198
f 199/199/199 200/200/200 201/201/201
f 202/202/202 203/203/203 204/204/204
g frame_bracket_02
f 205/205/205 206/206/206 207/207/207
f 208/208/208 209/209/209 210/210/210
f 211/211/211 212/212/212 213/213/213
f 214/214/214 215/215/215 216/216/216
f 217/217/217 218/218/218 219/219/219
f 220/220/220 221/221/221 222/222/222
f 223/223/223 224/224/224 225/225/225
f 226/226/226 227/227/227 228/228/228
g frame_bracket_03
f 229/229/229 230/230/230 231/231/231
f 232/232/232 233/233/233 234/234/234
f 235/235/235 236/236/236 237/237/237
f 238/238/238 239/239/239 240/240/240
f 241/241/241 242/242/242 243/243/243
f 244/244/244 245/245/245 246/246/246
f 247/247/247 248/248/248 249/249/249
f 250/250/250 251/251/251 252/252/252
g frame_bracket_04
f 253/253/253 254/254/254 255/255/255
f 256/256/256 257/257/257 258/258/258
f 259/259/259 260/260/260 261/261/261
f 262/262/262 263/263/263 264/264/264
f 265/265/265 266/266/266 267/267/267
f 268/268/268 269/269/269 270/270/270
f 271/271/271 272/272/272 273/273/273
f 274/274/274 275/275/275 276/276/276
g shaft_lower
usemtl MI_EBS_MER_CeramicCivic
f 277/277/277 278/278/278 279/279/279
f 280/280/280 281/281/281 282/282/282
f 283/283/283 284/284/284 285/285/285
f 286/286/286 287/287/287 288/288/288
f 289/289/289 290/290/290 291/291/291
f 292/292/292 293/293/293 294/294/294
f 295/295/295 296/296/296 297/297/297
f 298/298/298 299/299/299 300/300/300
f 301/301/301 302/302/302 303/303/303
f 304/304/304 305/305/305 306/306/306
f 307/307/307 308/308/308 309/309/309
f 310/310/310 311/311/311 312/312/312
f 313/313/313 314/314/314 315/315/315
f 316/316/316 317/317/317 318/318/318
usemtl MI_EBS_MER_CompactFrame
f 319/319/319 320/320/320 321/321/321
f 322/322/322 323/323/323 324/324/324
f 325/325/325 326/326/326 327/327/327
f 328/328/328 329/329/329 330/330/330
g service_bay
f 331/331/331 332/332/332 333/333/333
f 334/334/334 335/335/335 336/336/336
f 337/337/337 338/338/338 339/339/339
f 340/340/340 341/341/341 342/342/342
f 343/343/343 344/344/344 345/345/345
f 346/346/346 347/347/347 348/348/348
f 349/349/349 350/350/350 351/351/351
f 352/352/352 353/353/353 354/354/354
f 355/355/355 356/356/356 357/357/357
f 358/358/358 359/359/359 360/360/360
g service_bay_conduits
f 361/361/361 362/362/362 363/363/363
f 364/364/364 365/365/365 366/366/366
f 367/367/367 368/368/368 369/369/369
f 370/370/370 371/371/371 372/372/372
f 373/373/373 374/374/374 375/375/375
f 376/376/376 377/377/377 378/378/378
f 379/379/379 380/380/380 381/381/381
f 382/382/382 383/383/383 384/384/384
f 385/385/385 386/386/386 387/387/387
f 388/388/388 389/389/389 390/390/390
f 391/391/391 392/392/392 393/393/393
f 394/394/394 395/395/395 396/396/396
g frame_rail_01
f 397/397/397 398/398/398 399/399/399
f 400/400/400 401/401/401 402/402/402
f 403/403/403 404/404/404 405/405/405
f 406/406/406 407/407/407 408/408/408
f 409/409/409 410/410/410 411/411/411
f 412/412/412 413/413/413 414/414/414
f 415/415/415 416/416/416 417/417/417
f 418/418/418 419/419/419 420/420/420
f 421/421/421 422/422/422 423/423/423
f 424/424/424 425/425/425 426/426/426
g frame_rail_02
f 427/427/427 428/428/428 429/429/429
f 430/430/430 431/431/431 432/432/432
f 433/433/433 434/434/434 435/435/435
f 436/436/436 437/437/437 438/438/438
f 439/439/439 440/440/440 441/441/441
f 442/442/442 443/443/443 444/444/444
f 445/445/445 446/446/446 447/447/447
f 448/448/448 449/449/449 450/450/450
f 451/451/451 452/452/452 453/453/453
f 454/454/454 455/455/455 456/456/456
g frame_rail_03
f 457/457/457 458/458/458 459/459/459
f 460/460/460 461/461/461 462/462/462
f 463/463/463 464/464/464 465/465/465
f 466/466/466 467/467/467 468/468/468
f 469/469/469 470/470/470 471/471/471
f 472/472/472 473/473/473 474/474/474
f 475/475/475 476/476/476 477/477/477
f 478/478/478 479/479/479 480/480/480
f 481/481/481 482/482/482 483/483/483
f 484/484/484 485/485/485 486/486/486
g frame_rail_04
f 487/487/487 488/488/488 489/489/489
f 490/490/490 491/491/491 492/492/492
f 493/493/493 494/494/494 495/495/495
f 496/496/496 497/497/497 498/498/498
f 499/499/499 500/500/500 501/501/501
f 502/502/502 503/503/503 504/504/504
f 505/505/505 506/506/506 507/507/507
f 508/508/508 509/509/509 510/510/510
f 511/511/511 512/512/512 513/513/513
f 514/514/514 515/515/515 516/516/516
g team_band
usemtl MI_EBS_MER_CeramicCivic
f 517/517/517 518/518/518 519/519/519
f 520/520/520 521/521/521 522/522/522
f 523/523/523 524/524/524 525/525/525
f 526/526/526 527/527/527 528/528/528
f 529/529/529 530/530/530 531/531/531
f 532/532/532 533/533/533 534/534/534
f 535/535/535 536/536/536 537/537/537
f 538/538/538 539/539/539 540/540/540
f 541/541/541 542/542/542 543/543/543
f 544/544/544 545/545/545 546/546/546
f 547/547/547 548/548/548 549/549/549
f 550/550/550 551/551/551 552/552/552
f 553/553/553 554/554/554 555/555/555
f 556/556/556 557/557/557 558/558/558
f 559/559/559 560/560/560 561/561/561
f 562/562/562 563/563/563 564/564/564
f 565/565/565 566/566/566 567/567/567
f 568/568/568 569/569/569 570/570/570
f 571/571/571 572/572/572 573/573/573
f 574/574/574 575/575/575 576/576/576
f 577/577/577 578/578/578 579/579/579
f 580/580/580 581/581/581 582/582/582
f 583/583/583 584/584/584 585/585/585
f 586/586/586 587/587/587 588/588/588
f 589/589/589 590/590/590 591/591/591
f 592/592/592 593/593/593 594/594/594
f 595/595/595 596/596/596 597/597/597
f 598/598/598 599/599/599 600/600/600
g collar_assembly
usemtl MI_EBS_MER_CompactFrame
f 601/601/601 602/602/602 603/603/603
f 604/604/604 605/605/605 606/606/606
f 607/607/607 608/608/608 609/609/609
f 610/610/610 611/611/611 612/612/612
f 613/613/613 614/614/614 615/615/615
f 616/616/616 617/617/617 618/618/618
f 619/619/619 620/620/620 621/621/621
f 622/622/622 623/623/623 624/624/624
f 625/625/625 626/626/626 627/627/627
f 628/628/628 629/629/629 630/630/630
f 631/631/631 632/632/632 633/633/633
f 634/634/634 635/635/635 636/636/636
f 637/637/637 638/638/638 639/639/639
f 640/640/640 641/641/641 642/642/642
f 643/643/643 644/644/644 645/645/645
f 646/646/646 647/647/647 648/648/648
f 649/649/649 650/650/650 651/651/651
f 652/652/652 653/653/653 654/654/654
f 655/655/655 656/656/656 657/657/657
f 658/658/658 659/659/659 660/660/660
f 661/661/661 662/662/662 663/663/663
f 664/664/664 665/665/665 666/666/666
f 667/667/667 668/668/668 669/669/669
f 670/670/670 671/671/671 672/672/672
f 673/673/673 674/674/674 675/675/675
f 676/676/676 677/677/677 678/678/678
f 679/679/679 680/680/680 681/681/681
f 682/682/682 683/683/683 684/684/684
g collar_segment_01
usemtl MI_EBS_MER_StatusCyan
f 685/685/685 686/686/686 687/687/687
f 688/688/688 689/689/689 690/690/690
f 691/691/691 692/692/692 693/693/693
f 694/694/694 695/695/695 696/696/696
f 697/697/697 698/698/698 699/699/699
f 700/700/700 701/701/701 702/702/702
f 703/703/703 704/704/704 705/705/705
f 706/706/706 707/707/707 708/708/708
f 709/709/709 710/710/710 711/711/711
f 712/712/712 713/713/713 714/714/714
g collar_segment_02
f 715/715/715 716/716/716 717/717/717
f 718/718/718 719/719/719 720/720/720
f 721/721/721 722/722/722 723/723/723
f 724/724/724 725/725/725 726/726/726
f 727/727/727 728/728/728 729/729/729
f 730/730/730 731/731/731 732/732/732
f 733/733/733 734/734/734 735/735/735
f 736/736/736 737/737/737 738/738/738
f 739/739/739 740/740/740 741/741/741
f 742/742/742 743/743/743 744/744/744
g collar_segment_03
f 745/745/745 746/746/746 747/747/747
f 748/748/748 749/749/749 750/750/750
f 751/751/751 752/752/752 753/753/753
f 754/754/754 755/755/755 756/756/756
f 757/757/757 758/758/758 759/759/759
f 760/760/760 761/761/761 762/762/762
f 763/763/763 764/764/764 765/765/765
f 766/766/766 767/767/767 768/768/768
f 769/769/769 770/770/770 771/771/771
f 772/772/772 773/773/773 774/774/774
g collar_segment_04
f 775/775/775 776/776/776 777/777/777
f 778/778/778 779/779/779 780/780/780
f 781/781/781 782/782/782 783/783/783
f 784/784/784 785/785/785 786/786/786
f 787/787/787 788/788/788 789/789/789
f 790/790/790 791/791/791 792/792/792
f 793/793/793 794/794/794 795/795/795
f 796/796/796 797/797/797 798/798/798
f 799/799/799 800/800/800 801/801/801
f 802/802/802 803/803/803 804/804/804
g shaft_upper
usemtl MI_EBS_MER_CeramicCivic
f 805/805/805 806/806/806 807/807/807
f 808/808/808 809/809/809 810/810/810
f 811/811/811 812/812/812 813/813/813
f 814/814/814 815/815/815 816/816/816
f 817/817/817 818/818/818 819/819/819
f 820/820/820 821/821/821 822/822/822
f 823/823/823 824/824/824 825/825/825
f 826/826/826 827/827/827 828/828/828
f 829/829/829 830/830/830 831/831/831
f 832/832/832 833/833/833 834/834/834
f 835/835/835 836/836/836 837/837/837
f 838/838/838 839/839/839 840/840/840
f 841/841/841 842/842/842 843/843/843
f 844/844/844 845/845/845 846/846/846
usemtl MI_EBS_MER_CompactFrame
f 847/847/847 848/848/848 849/849/849
f 850/850/850 851/851/851 852/852/852
g cap
f 853/853/853 854/854/854 855/855/855
f 856/856/856 857/857/857 858/858/858
f 859/859/859 860/860/860 861/861/861
f 862/862/862 863/863/863 864/864/864
f 865/865/865 866/866/866 867/867/867
f 868/868/868 869/869/869 870/870/870
f 871/871/871 872/872/872 873/873/873
f 874/874/874 875/875/875 876/876/876
f 877/877/877 878/878/878 879/879/879
f 880/880/880 881/881/881 882/882/882
f 883/883/883 884/884/884 885/885/885
f 886/886/886 887/887/887 888/888/888
f 889/889/889 890/890/890 891/891/891
f 892/892/892 893/893/893 894/894/894
f 895/895/895 896/896/896 897/897/897
f 898/898/898 899/899/899 900/900/900
f 901/901/901 902/902/902 903/903/903
f 904/904/904 905/905/905 906/906/906
f 907/907/907 908/908/908 909/909/909
f 910/910/910 911/911/911 912/912/912
f 913/913/913 914/914/914 915/915/915
f 916/916/916 917/917/917 918/918/918
f 919/919/919 920/920/920 921/921/921
f 922/922/922 923/923/923 924/924/924
f 925/925/925 926/926/926 927/927/927
f 928/928/928 929/929/929 930/930/930
f 931/931/931 932/932/932 933/933/933
f 934/934/934 935/935/935 936/936/936
usemtl MI_EBS_MER_CeramicCivic
f 937/937/937 938/938/938 939/939/939
f 940/940/940 941/941/941 942/942/942
f 943/943/943 944/944/944 945/945/945
f 946/946/946 947/947/947 948/948/948
f 949/949/949 950/950/950 951/951/951
f 952/952/952 953/953/953 954/954/954
f 955/955/955 956/956/956 957/957/957
f 958/958/958 959/959/959 960/960/960
f 961/961/961 962/962/962 963/963/963
f 964/964/964 965/965/965 966/966/966
g coupling_left
usemtl MI_EBS_MER_CompactFrame
f 967/967/967 968/968/968 969/969/969
f 970/970/970 971/971/971 972/972/972
f 973/973/973 974/974/974 975/975/975
f 976/976/976 977/977/977 978/978/978
f 979/979/979 980/980/980 981/981/981
f 982/982/982 983/983/983 984/984/984
f 985/985/985 986/986/986 987/987/987
f 988/988/988 989/989/989 990/990/990
f 991/991/991 992/992/992 993/993/993
f 994/994/994 995/995/995 996/996/996
f 997/997/997 998/998/998 999/999/999
f 1000/1000/1000 1001/1001/1001 1002/1002/1002
g coupling_left_port_01
f 1003/1003/1003 1004/1004/1004 1005/1005/1005
f 1006/1006/1006 1007/1007/1007 1008/1008/1008
f 1009/1009/1009 1010/1010/1010 1011/1011/1011
f 1012/1012/1012 1013/1013/1013 1014/1014/1014
f 1015/1015/1015 1016/1016/1016 1017/1017/1017
f 1018/1018/1018 1019/1019/1019 1020/1020/1020
f 1021/1021/1021 1022/1022/1022 1023/1023/1023
f 1024/1024/1024 1025/1025/1025 1026/1026/1026
f 1027/1027/1027 1028/1028/1028 1029/1029/1029
f 1030/1030/1030 1031/1031/1031 1032/1032/1032
f 1033/1033/1033 1034/1034/1034 1035/1035/1035
f 1036/1036/1036 1037/1037/1037 1038/1038/1038
f 1039/1039/1039 1040/1040/1040 1041/1041/1041
f 1042/1042/1042 1043/1043/1043 1044/1044/1044
f 1045/1045/1045 1046/1046/1046 1047/1047/1047
f 1048/1048/1048 1049/1049/1049 1050/1050/1050
f 1051/1051/1051 1052/1052/1052 1053/1053/1053
f 1054/1054/1054 1055/1055/1055 1056/1056/1056
f 1057/1057/1057 1058/1058/1058 1059/1059/1059
f 1060/1060/1060 1061/1061/1061 1062/1062/1062
g coupling_left_port_02
f 1063/1063/1063 1064/1064/1064 1065/1065/1065
f 1066/1066/1066 1067/1067/1067 1068/1068/1068
f 1069/1069/1069 1070/1070/1070 1071/1071/1071
f 1072/1072/1072 1073/1073/1073 1074/1074/1074
f 1075/1075/1075 1076/1076/1076 1077/1077/1077
f 1078/1078/1078 1079/1079/1079 1080/1080/1080
f 1081/1081/1081 1082/1082/1082 1083/1083/1083
f 1084/1084/1084 1085/1085/1085 1086/1086/1086
f 1087/1087/1087 1088/1088/1088 1089/1089/1089
f 1090/1090/1090 1091/1091/1091 1092/1092/1092
f 1093/1093/1093 1094/1094/1094 1095/1095/1095
f 1096/1096/1096 1097/1097/1097 1098/1098/1098
f 1099/1099/1099 1100/1100/1100 1101/1101/1101
f 1102/1102/1102 1103/1103/1103 1104/1104/1104
f 1105/1105/1105 1106/1106/1106 1107/1107/1107
f 1108/1108/1108 1109/1109/1109 1110/1110/1110
f 1111/1111/1111 1112/1112/1112 1113/1113/1113
f 1114/1114/1114 1115/1115/1115 1116/1116/1116
f 1117/1117/1117 1118/1118/1118 1119/1119/1119
f 1120/1120/1120 1121/1121/1121 1122/1122/1122
g coupling_right
f 1123/1123/1123 1124/1124/1124 1125/1125/1125
f 1126/1126/1126 1127/1127/1127 1128/1128/1128
f 1129/1129/1129 1130/1130/1130 1131/1131/1131
f 1132/1132/1132 1133/1133/1133 1134/1134/1134
f 1135/1135/1135 1136/1136/1136 1137/1137/1137
f 1138/1138/1138 1139/1139/1139 1140/1140/1140
f 1141/1141/1141 1142/1142/1142 1143/1143/1143
f 1144/1144/1144 1145/1145/1145 1146/1146/1146
f 1147/1147/1147 1148/1148/1148 1149/1149/1149
f 1150/1150/1150 1151/1151/1151 1152/1152/1152
f 1153/1153/1153 1154/1154/1154 1155/1155/1155
f 1156/1156/1156 1157/1157/1157 1158/1158/1158
g coupling_right_port_01
f 1159/1159/1159 1160/1160/1160 1161/1161/1161
f 1162/1162/1162 1163/1163/1163 1164/1164/1164
f 1165/1165/1165 1166/1166/1166 1167/1167/1167
f 1168/1168/1168 1169/1169/1169 1170/1170/1170
f 1171/1171/1171 1172/1172/1172 1173/1173/1173
f 1174/1174/1174 1175/1175/1175 1176/1176/1176
f 1177/1177/1177 1178/1178/1178 1179/1179/1179
f 1180/1180/1180 1181/1181/1181 1182/1182/1182
f 1183/1183/1183 1184/1184/1184 1185/1185/1185
f 1186/1186/1186 1187/1187/1187 1188/1188/1188
f 1189/1189/1189 1190/1190/1190 1191/1191/1191
f 1192/1192/1192 1193/1193/1193 1194/1194/1194
f 1195/1195/1195 1196/1196/1196 1197/1197/1197
f 1198/1198/1198 1199/1199/1199 1200/1200/1200
f 1201/1201/1201 1202/1202/1202 1203/1203/1203
f 1204/1204/1204 1205/1205/1205 1206/1206/1206
f 1207/1207/1207 1208/1208/1208 1209/1209/1209
f 1210/1210/1210 1211/1211/1211 1212/1212/1212
f 1213/1213/1213 1214/1214/1214 1215/1215/1215
f 1216/1216/1216 1217/1217/1217 1218/1218/1218
g coupling_right_port_02
f 1219/1219/1219 1220/1220/1220 1221/1221/1221
f 1222/1222/1222 1223/1223/1223 1224/1224/1224
f 1225/1225/1225 1226/1226/1226 1227/1227/1227
f 1228/1228/1228 1229/1229/1229 1230/1230/1230
f 1231/1231/1231 1232/1232/1232 1233/1233/1233
f 1234/1234/1234 1235/1235/1235 1236/1236/1236
f 1237/1237/1237 1238/1238/1238 1239/1239/1239
f 1240/1240/1240 1241/1241/1241 1242/1242/1242
f 1243/1243/1243 1244/1244/1244 1245/1245/1245
f 1246/1246/1246 1247/1247/1247 1248/1248/1248
f 1249/1249/1249 1250/1250/1250 1251/1251/1251
f 1252/1252/1252 1253/1253/1253 1254/1254/1254
f 1255/1255/1255 1256/1256/1256 1257/1257/1257
f 1258/1258/1258 1259/1259/1259 1260/1260/1260
f 1261/1261/1261 1262/1262/1262 1263/1263/1263
f 1264/1264/1264 1265/1265/1265 1266/1266/1266
f 1267/1267/1267 1268/1268/1268 1269/1269/1269
f 1270/1270/1270 1271/1271/1271 1272/1272/1272
f 1273/1273/1273 1274/1274/1274 1275/1275/1275
f 1276/1276/1276 1277/1277/1277 1278/1278/1278
