# SM_EBS_MER_BLD_002_Panel
# Author: Angelis Pseftis
# Frame: Unreal +X forward, +Y right, +Z up; centimeters; no axis conversion
# Kit: ebs-meshkit-v3
# Production ID EBS-MER-BLD-002
# Revision ebs-mer-bld-002-concept-v3
# LOD1
o SM_EBS_MER_BLD_002_Panel
v 6.0 -62.0 -67.5
v 6.0 62.0 -67.5
v 6.0 62.0 67.5
v 6.0 -62.0 -67.5
v 6.0 62.0 67.5
v 6.0 -62.0 67.5
v 0.0 -62.0 -67.5
v 0.0 -62.0 67.5
v 0.0 62.0 67.5
v 0.0 -62.0 -67.5
v 0.0 62.0 67.5
v 0.0 62.0 -67.5
v 0.0 62.0 -67.5
v 0.0 62.0 67.5
v 6.0 62.0 67.5
v 0.0 62.0 -67.5
v 6.0 62.0 67.5
v 6.0 62.0 -67.5
v 0.0 -62.0 -67.5
v 6.0 -62.0 -67.5
v 6.0 -62.0 67.5
v 0.0 -62.0 -67.5
v 6.0 -62.0 67.5
v 0.0 -62.0 67.5
v 0.0 -62.0 67.5
v 6.0 -62.0 67.5
v 6.0 62.0 67.5
v 0.0 -62.0 67.5
v 6.0 62.0 67.5
v 0.0 62.0 67.5
v 0.0 -62.0 -67.5
v 0.0 62.0 -67.5
v 6.0 62.0 -67.5
v 0.0 -62.0 -67.5
v 6.0 62.0 -67.5
v 6.0 -62.0 -67.5
vt 0.6416 0.333
vt 0.5684 0.333
vt 0.5684 0.4131
vt 0.6416 0.333
vt 0.5684 0.4131
vt 0.6416 0.4131
vt 0.4912 0.333
vt 0.4912 0.4131
vt 0.5645 0.4131
vt 0.4912 0.333
vt 0.5645 0.4131
vt 0.5645 0.333
vt 0.6533 0.333
vt 0.6533 0.4131
vt 0.6572 0.4131
vt 0.6533 0.333
vt 0.6572 0.4131
vt 0.6572 0.333
vt 0.6494 0.333
vt 0.6455 0.333
vt 0.6455 0.4131
vt 0.6494 0.333
vt 0.6455 0.4131
vt 0.6494 0.4131
vt 0.6689 0.4131
vt 0.6729 0.4131
vt 0.6729 0.3398
vt 0.6689 0.4131
vt 0.6729 0.3398
vt 0.6689 0.3398
vt 0.665 0.4131
vt 0.665 0.3398
vt 0.6611 0.3398
vt 0.665 0.4131
vt 0.6611 0.3398
vt 0.6611 0.4131
vn 1.0 0.0 0.0
vn 1.0 0.0 0.0
vn 1.0 0.0 0.0
vn 1.0 0.0 0.0
vn 1.0 0.0 0.0
vn 1.0 0.0 0.0
vn -1.0 0.0 0.0
vn -1.0 0.0 0.0
vn -1.0 0.0 0.0
vn -1.0 0.0 0.0
vn -1.0 0.0 0.0
vn -1.0 0.0 0.0
vn 0.0 1.0 0.0
vn 0.0 1.0 0.0
vn 0.0 1.0 0.0
vn 0.0 1.0 0.0
vn 0.0 1.0 0.0
vn 0.0 1.0 0.0
vn 0.0 -1.0 0.0
vn 0.0 -1.0 0.0
vn 0.0 -1.0 0.0
vn 0.0 -1.0 0.0
vn 0.0 -1.0 0.0
vn 0.0 -1.0 0.0
vn 0.0 0.0 1.0
vn 0.0 0.0 1.0
vn 0.0 0.0 1.0
vn 0.0 0.0 1.0
vn 0.0 0.0 1.0
vn 0.0 0.0 1.0
vn 0.0 0.0 -1.0
vn 0.0 0.0 -1.0
vn 0.0 0.0 -1.0
vn 0.0 0.0 -1.0
vn 0.0 0.0 -1.0
vn 0.0 0.0 -1.0
g panel_plate
usemtl MI_EBS_MER_CeramicCivic
f 1/1/1 2/2/2 3/3/3
f 4/4/4 5/5/5 6/6/6
f 7/7/7 8/8/8 9/9/9
f 10/10/10 11/11/11 12/12/12
f 13/13/13 14/14/14 15/15/15
f 16/16/16 17/17/17 18/18/18
f 19/19/19 20/20/20 21/21/21
f 22/22/22 23/23/23 24/24/24
f 25/25/25 26/26/26 27/27/27
f 28/28/28 29/29/29 30/30/30
f 31/31/31 32/32/32 33/33/33
f 34/34/34 35/35/35 36/36/36
