# SM_EBS_MER_BLD_002_ConduitStub
# Author: Angelis Pseftis
# Frame: Unreal +X forward, +Y right, +Z up; centimeters; no axis conversion
# Kit: ebs-meshkit-v3
# Production ID EBS-MER-BLD-002
# Revision ebs-mer-bld-002-concept-v3
# LOD1
o SM_EBS_MER_BLD_002_ConduitStub
v 0.0 16.0 0.0
v 0.0 8.0 13.8564
v 56.0 8.0 13.8564
v 0.0 16.0 0.0
v 56.0 8.0 13.8564
v 56.0 16.0 0.0
v 0.0 8.0 13.8564
v 0.0 -8.0 13.8564
v 56.0 -8.0 13.8564
v 0.0 8.0 13.8564
v 56.0 -8.0 13.8564
v 56.0 8.0 13.8564
v 0.0 -8.0 13.8564
v 0.0 -16.0 0.0
v 56.0 -16.0 0.0
v 0.0 -8.0 13.8564
v 56.0 -16.0 0.0
v 56.0 -8.0 13.8564
v 0.0 -16.0 0.0
v 0.0 -8.0 -13.8564
v 56.0 -8.0 -13.8564
v 0.0 -16.0 0.0
v 56.0 -8.0 -13.8564
v 56.0 -16.0 0.0
v 0.0 -8.0 -13.8564
v 0.0 8.0 -13.8564
v 56.0 8.0 -13.8564
v 0.0 -8.0 -13.8564
v 56.0 8.0 -13.8564
v 56.0 -8.0 -13.8564
v 0.0 8.0 -13.8564
v 0.0 16.0 0.0
v 56.0 16.0 0.0
v 0.0 8.0 -13.8564
v 56.0 16.0 0.0
v 56.0 8.0 -13.8564
v 46.0 21.0 0.0
v 46.0 10.5 18.1865
v 58.0 10.5 18.1865
v 46.0 21.0 0.0
v 58.0 10.5 18.1865
v 58.0 21.0 0.0
v 46.0 10.5 18.1865
v 46.0 -10.5 18.1865
v 58.0 -10.5 18.1865
v 46.0 10.5 18.1865
v 58.0 -10.5 18.1865
v 58.0 10.5 18.1865
v 46.0 -10.5 18.1865
v 46.0 -21.0 0.0
v 58.0 -21.0 0.0
v 46.0 -10.5 18.1865
v 58.0 -21.0 0.0
v 58.0 -10.5 18.1865
v 46.0 -21.0 0.0
v 46.0 -10.5 -18.1865
v 58.0 -10.5 -18.1865
v 46.0 -21.0 0.0
v 58.0 -10.5 -18.1865
v 58.0 -21.0 0.0
v 46.0 -10.5 -18.1865
v 46.0 10.5 -18.1865
v 58.0 10.5 -18.1865
v 46.0 -10.5 -18.1865
v 58.0 10.5 -18.1865
v 58.0 -10.5 -18.1865
v 46.0 10.5 -18.1865
v 46.0 21.0 0.0
v 58.0 21.0 0.0
v 46.0 10.5 -18.1865
v 58.0 21.0 0.0
v 58.0 10.5 -18.1865
v 46.0 10.5 -18.1865
v 46.0 -10.5 -18.1865
v 46.0 -21.0 0.0
v 46.0 10.5 -18.1865
v 46.0 -21.0 0.0
v 46.0 -10.5 18.1865
v 46.0 10.5 -18.1865
v 46.0 -10.5 18.1865
v 46.0 10.5 18.1865
v 46.0 10.5 -18.1865
v 46.0 10.5 18.1865
v 46.0 21.0 0.0
v 58.0 21.0 0.0
v 58.0 10.5 18.1865
v 58.0 -10.5 18.1865
v 58.0 21.0 0.0
v 58.0 -10.5 18.1865
v 58.0 -21.0 0.0
v 58.0 21.0 0.0
v 58.0 -21.0 0.0
v 58.0 -10.5 -18.1865
v 58.0 21.0 0.0
v 58.0 -10.5 -18.1865
v 58.0 10.5 -18.1865
v 31.0 -2.5 16.0
v 31.0 2.5 16.0
v 31.0 2.5 18.0
v 31.0 -2.5 16.0
v 31.0 2.5 18.0
v 31.0 -2.5 18.0
v 19.0 -2.5 16.0
v 19.0 -2.5 18.0
v 19.0 2.5 18.0
v 19.0 -2.5 16.0
v 19.0 2.5 18.0
v 19.0 2.5 16.0
v 19.0 2.5 16.0
v 19.0 2.5 18.0
v 31.0 2.5 18.0
v 19.0 2.5 16.0
v 31.0 2.5 18.0
v 31.0 2.5 16.0
v 19.0 -2.5 16.0
v 31.0 -2.5 16.0
v 31.0 -2.5 18.0
v 19.0 -2.5 16.0
v 31.0 -2.5 18.0
v 19.0 -2.5 18.0
v 19.0 -2.5 18.0
v 31.0 -2.5 18.0
v 31.0 2.5 18.0
v 19.0 -2.5 18.0
v 31.0 2.5 18.0
v 19.0 2.5 18.0
vt 0.8252 0.0654
vt 0.8252 0.0752
vt 0.8584 0.0752
vt 0.8252 0.0654
vt 0.8584 0.0752
vt 0.8584 0.0654
vt 0.751 0.0654
vt 0.751 0.0752
vt 0.7842 0.0752
vt 0.751 0.0654
vt 0.7842 0.0752
vt 0.7842 0.0654
vt 0.71 0.0752
vt 0.71 0.0654
vt 0.6768 0.0654
vt 0.71 0.0752
vt 0.6768 0.0654
vt 0.6768 0.0752
vt 0.6729 0.0752
vt 0.6729 0.0654
vt 0.6396 0.0654
vt 0.6729 0.0752
vt 0.6396 0.0654
vt 0.6396 0.0752
vt 0.7471 0.0752
vt 0.7471 0.0654
vt 0.7139 0.0654
vt 0.7471 0.0752
vt 0.7139 0.0654
vt 0.7139 0.0752
vt 0.7881 0.0654
vt 0.7881 0.0752
vt 0.8213 0.0752
vt 0.7881 0.0654
vt 0.8213 0.0752
vt 0.8213 0.0654
vt 0.0137 0.0791
vt 0.0137 0.0918
vt 0.0215 0.0918
vt 0.0137 0.0791
vt 0.0215 0.0918
vt 0.0215 0.0791
vt 0.9883 0.0967
vt 0.9883 0.1094
vt 0.9961 0.1094
vt 0.9883 0.0967
vt 0.9961 0.1094
vt 0.9961 0.0967
vt 0.9727 0.1094
vt 0.9727 0.0967
vt 0.9648 0.0967
vt 0.9727 0.1094
vt 0.9648 0.0967
vt 0.9648 0.1094
vt 0.9609 0.1094
vt 0.9609 0.0967
vt 0.9531 0.0967
vt 0.9609 0.1094
vt 0.9531 0.0967
vt 0.9531 0.1094
vt 0.9844 0.1094
vt 0.9844 0.0967
vt 0.9766 0.0967
vt 0.9844 0.1094
vt 0.9766 0.0967
vt 0.9766 0.1094
vt 0.002 0.0791
vt 0.002 0.0918
vt 0.0098 0.0918
vt 0.002 0.0791
vt 0.0098 0.0918
vt 0.0098 0.0791
vt 0.1831 0.1553
vt 0.1704 0.1553
vt 0.1641 0.166
vt 0.1831 0.1553
vt 0.1641 0.166
vt 0.1704 0.1768
vt 0.1831 0.1553
vt 0.1704 0.1768
vt 0.1831 0.1768
vt 0.1831 0.1553
vt 0.1831 0.1768
vt 0.1895 0.166
vt 0.1934 0.166
vt 0.1997 0.1768
vt 0.2124 0.1768
vt 0.1934 0.166
vt 0.2124 0.1768
vt 0.2188 0.166
vt 0.1934 0.166
vt 0.2188 0.166
vt 0.2124 0.1553
vt 0.1934 0.166
vt 0.2124 0.1553
vt 0.1997 0.1553
vt 0.1895 0.0156
vt 0.1855 0.0156
vt 0.1855 0.0195
vt 0.1895 0.0156
vt 0.1855 0.0195
vt 0.1895 0.0195
vt 0.1777 0.0156
vt 0.1777 0.0195
vt 0.1816 0.0195
vt 0.1777 0.0156
vt 0.1816 0.0195
vt 0.1816 0.0156
vt 0.166 0.0156
vt 0.166 0.0195
vt 0.1738 0.0195
vt 0.166 0.0156
vt 0.1738 0.0195
vt 0.1738 0.0156
vt 0.1504 0.0156
vt 0.1426 0.0156
vt 0.1426 0.0195
vt 0.1504 0.0156
vt 0.1426 0.0195
vt 0.1504 0.0195
vt 0.1543 0.0195
vt 0.1621 0.0195
vt 0.1621 0.0156
vt 0.1543 0.0195
vt 0.1621 0.0156
vt 0.1543 0.0156
vn 0.0 0.866 0.5
vn 0.0 0.866 0.5
vn 0.0 0.866 0.5
vn 0.0 0.866 0.5
vn 0.0 0.866 0.5
vn 0.0 0.866 0.5
vn 0.0 0.0 1.0
vn 0.0 0.0 1.0
vn 0.0 0.0 1.0
vn 0.0 0.0 1.0
vn 0.0 0.0 1.0
vn 0.0 0.0 1.0
vn 0.0 -0.866 0.5
vn 0.0 -0.866 0.5
vn 0.0 -0.866 0.5
vn 0.0 -0.866 0.5
vn 0.0 -0.866 0.5
vn 0.0 -0.866 0.5
vn 0.0 -0.866 -0.5
vn 0.0 -0.866 -0.5
vn 0.0 -0.866 -0.5
vn 0.0 -0.866 -0.5
vn 0.0 -0.866 -0.5
vn 0.0 -0.866 -0.5
vn 0.0 0.0 -1.0
vn 0.0 0.0 -1.0
vn 0.0 0.0 -1.0
vn 0.0 0.0 -1.0
vn 0.0 0.0 -1.0
vn 0.0 0.0 -1.0
vn 0.0 0.866 -0.5
vn 0.0 0.866 -0.5
vn 0.0 0.866 -0.5
vn 0.0 0.866 -0.5
vn 0.0 0.866 -0.5
vn 0.0 0.866 -0.5
vn 0.0 0.866 0.5
vn 0.0 0.866 0.5
vn 0.0 0.866 0.5
vn 0.0 0.866 0.5
vn 0.0 0.866 0.5
vn 0.0 0.866 0.5
vn 0.0 0.0 1.0
vn 0.0 0.0 1.0
vn 0.0 0.0 1.0
vn 0.0 0.0 1.0
vn 0.0 0.0 1.0
vn 0.0 0.0 1.0
vn 0.0 -0.866 0.5
vn 0.0 -0.866 0.5
vn 0.0 -0.866 0.5
vn 0.0 -0.866 0.5
vn 0.0 -0.866 0.5
vn 0.0 -0.866 0.5
vn 0.0 -0.866 -0.5
vn 0.0 -0.866 -0.5
vn 0.0 -0.866 -0.5
vn 0.0 -0.866 -0.5
vn 0.0 -0.866 -0.5
vn 0.0 -0.866 -0.5
vn 0.0 0.0 -1.0
vn 0.0 0.0 -1.0
vn 0.0 0.0 -1.0
vn 0.0 0.0 -1.0
vn 0.0 0.0 -1.0
vn 0.0 0.0 -1.0
vn 0.0 0.866 -0.5
vn 0.0 0.866 -0.5
vn 0.0 0.866 -0.5
vn 0.0 0.866 -0.5
vn 0.0 0.866 -0.5
vn 0.0 0.866 -0.5
vn -1.0 0.0 0.0
vn -1.0 0.0 0.0
vn -1.0 0.0 0.0
vn -1.0 0.0 0.0
vn -1.0 0.0 0.0
vn -1.0 0.0 0.0
vn -1.0 0.0 0.0
vn -1.0 0.0 0.0
vn -1.0 0.0 0.0
vn -1.0 0.0 0.0
vn -1.0 0.0 0.0
vn -1.0 0.0 0.0
vn 1.0 0.0 0.0
vn 1.0 0.0 0.0
vn 1.0 0.0 0.0
vn 1.0 0.0 0.0
vn 1.0 0.0 0.0
vn 1.0 0.0 0.0
vn 1.0 0.0 0.0
vn 1.0 0.0 0.0
vn 1.0 0.0 0.0
vn 1.0 0.0 0.0
vn 1.0 0.0 0.0
vn 1.0 0.0 0.0
vn 1.0 0.0 0.0
vn 1.0 0.0 0.0
vn 1.0 0.0 0.0
vn 1.0 0.0 0.0
vn 1.0 0.0 0.0
vn 1.0 0.0 0.0
vn -1.0 0.0 0.0
vn -1.0 0.0 0.0
vn -1.0 0.0 0.0
vn -1.0 0.0 0.0
vn -1.0 0.0 0.0
vn -1.0 0.0 0.0
vn 0.0 1.0 0.0
vn 0.0 1.0 0.0
vn 0.0 1.0 0.0
vn 0.0 1.0 0.0
vn 0.0 1.0 0.0
vn 0.0 1.0 0.0
vn 0.0 -1.0 0.0
vn 0.0 -1.0 0.0
vn 0.0 -1.0 0.0
vn 0.0 -1.0 0.0
vn 0.0 -1.0 0.0
vn 0.0 -1.0 0.0
vn 0.0 0.0 1.0
vn 0.0 0.0 1.0
vn 0.0 0.0 1.0
vn 0.0 0.0 1.0
vn 0.0 0.0 1.0
vn 0.0 0.0 1.0
g conduit_jacket
usemtl MI_EBS_MER_CompactFrame
f 1/1/1 2/2/2 3/3/3
f 4/4/4 5/5/5 6/6/6
f 7/7/7 8/8/8 9/9/9
f 10/10/10 11/11/11 12/12/12
f 13/13/13 14/14/14 15/15/15
f 16/16/16 17/17/17 18/18/18
f 19/19/19 20/20/20 21/21/21
f 22/22/22 23/23/23 24/24/24
f 25/25/25 26/26/26 27/27/27
f 28/28/28 29/29/29 30/30/30
f 31/31/31 32/32/32 33/33/33
f 34/34/34 35/35/35 36/36/36
g conduit_end_nut
usemtl MI_EBS_MER_CeramicCivic
f 37/37/37 38/38/38 39/39/39
f 40/40/40 41/41/41 42/42/42
f 43/43/43 44/44/44 45/45/45
f 46/46/46 47/47/47 48/48/48
f 49/49/49 50/50/50 51/51/51
f 52/52/52 53/53/53 54/54/54
f 55/55/55 56/56/56 57/57/57
f 58/58/58 59/59/59 60/60/60
f 61/61/61 62/62/62 63/63/63
f 64/64/64 65/65/65 66/66/66
f 67/67/67 68/68/68 69/69/69
f 70/70/70 71/71/71 72/72/72
f 73/73/73 74/74/74 75/75/75
f 76/76/76 77/77/77 78/78/78
f 79/79/79 80/80/80 81/81/81
f 82/82/82 83/83/83 84/84/84
f 85/85/85 86/86/86 87/87/87
f 88/88/88 89/89/89 90/90/90
f 91/91/91 92/92/92 93/93/93
f 94/94/94 95/95/95 96/96/96
g conduit_pulse_strip
usemtl MI_EBS_MER_StatusCyan
f 97/97/97 98/98/98 99/99/99
f 100/100/100 101/101/101 102/102/102
f 103/103/103 104/104/104 105/105/105
f 106/106/106 107/107/107 108/108/108
f 109/109/109 110/110/110 111/111/111
f 112/112/112 113/113/113 114/114/114
f 115/115/115 116/116/116 117/117/117
f 118/118/118 119/119/119 120/120/120
f 121/121/121 122/122/122 123/123/123
f 124/124/124 125/125/125 126/126/126
