# SM_EBS_MER_BLD_002_ConduitStub
# Author: Angelis Pseftis
# Frame: Unreal +X forward, +Y right, +Z up; centimeters; no axis conversion
# Kit: ebs-meshkit-v3
# Production ID EBS-MER-BLD-002
# Revision ebs-mer-bld-002-concept-v3
# LOD0
o SM_EBS_MER_BLD_002_ConduitStub
v 0.0 16.0 0.0
v 0.0 11.3137 11.3137
v 56.0 11.3137 11.3137
v 0.0 16.0 0.0
v 56.0 11.3137 11.3137
v 56.0 16.0 0.0
v 0.0 11.3137 11.3137
v 0.0 0.0 16.0
v 56.0 0.0 16.0
v 0.0 11.3137 11.3137
v 56.0 0.0 16.0
v 56.0 11.3137 11.3137
v 0.0 0.0 16.0
v 0.0 -11.3137 11.3137
v 56.0 -11.3137 11.3137
v 0.0 0.0 16.0
v 56.0 -11.3137 11.3137
v 56.0 0.0 16.0
v 0.0 -11.3137 11.3137
v 0.0 -16.0 0.0
v 56.0 -16.0 0.0
v 0.0 -11.3137 11.3137
v 56.0 -16.0 0.0
v 56.0 -11.3137 11.3137
v 0.0 -16.0 0.0
v 0.0 -11.3137 -11.3137
v 56.0 -11.3137 -11.3137
v 0.0 -16.0 0.0
v 56.0 -11.3137 -11.3137
v 56.0 -16.0 0.0
v 0.0 -11.3137 -11.3137
v 0.0 0.0 -16.0
v 56.0 0.0 -16.0
v 0.0 -11.3137 -11.3137
v 56.0 0.0 -16.0
v 56.0 -11.3137 -11.3137
v 0.0 0.0 -16.0
v 0.0 11.3137 -11.3137
v 56.0 11.3137 -11.3137
v 0.0 0.0 -16.0
v 56.0 11.3137 -11.3137
v 56.0 0.0 -16.0
v 0.0 11.3137 -11.3137
v 0.0 16.0 0.0
v 56.0 16.0 0.0
v 0.0 11.3137 -11.3137
v 56.0 16.0 0.0
v 56.0 11.3137 -11.3137
v 8.0 19.0 0.0
v 8.0 13.435 13.435
v 16.0 13.435 13.435
v 8.0 19.0 0.0
v 16.0 13.435 13.435
v 16.0 19.0 0.0
v 8.0 13.435 13.435
v 8.0 0.0 19.0
v 16.0 0.0 19.0
v 8.0 13.435 13.435
v 16.0 0.0 19.0
v 16.0 13.435 13.435
v 8.0 0.0 19.0
v 8.0 -13.435 13.435
v 16.0 -13.435 13.435
v 8.0 0.0 19.0
v 16.0 -13.435 13.435
v 16.0 0.0 19.0
v 8.0 -13.435 13.435
v 8.0 -19.0 0.0
v 16.0 -19.0 0.0
v 8.0 -13.435 13.435
v 16.0 -19.0 0.0
v 16.0 -13.435 13.435
v 8.0 -19.0 0.0
v 8.0 -13.435 -13.435
v 16.0 -13.435 -13.435
v 8.0 -19.0 0.0
v 16.0 -13.435 -13.435
v 16.0 -19.0 0.0
v 8.0 -13.435 -13.435
v 8.0 0.0 -19.0
v 16.0 0.0 -19.0
v 8.0 -13.435 -13.435
v 16.0 0.0 -19.0
v 16.0 -13.435 -13.435
v 8.0 0.0 -19.0
v 8.0 13.435 -13.435
v 16.0 13.435 -13.435
v 8.0 0.0 -19.0
v 16.0 13.435 -13.435
v 16.0 0.0 -19.0
v 8.0 13.435 -13.435
v 8.0 19.0 0.0
v 16.0 19.0 0.0
v 8.0 13.435 -13.435
v 16.0 19.0 0.0
v 16.0 13.435 -13.435
v 8.0 13.435 -13.435
v 8.0 0.0 -19.0
v 8.0 -13.435 -13.435
v 8.0 13.435 -13.435
v 8.0 -13.435 -13.435
v 8.0 -19.0 0.0
v 8.0 13.435 -13.435
v 8.0 -19.0 0.0
v 8.0 -13.435 13.435
v 8.0 13.435 -13.435
v 8.0 -13.435 13.435
v 8.0 0.0 19.0
v 8.0 13.435 -13.435
v 8.0 0.0 19.0
v 8.0 13.435 13.435
v 8.0 13.435 -13.435
v 8.0 13.435 13.435
v 8.0 19.0 0.0
v 16.0 19.0 0.0
v 16.0 13.435 13.435
v 16.0 0.0 19.0
v 16.0 19.0 0.0
v 16.0 0.0 19.0
v 16.0 -13.435 13.435
v 16.0 19.0 0.0
v 16.0 -13.435 13.435
v 16.0 -19.0 0.0
v 16.0 19.0 0.0
v 16.0 -19.0 0.0
v 16.0 -13.435 -13.435
v 16.0 19.0 0.0
v 16.0 -13.435 -13.435
v 16.0 0.0 -19.0
v 16.0 19.0 0.0
v 16.0 0.0 -19.0
v 16.0 13.435 -13.435
v 34.0 19.0 0.0
v 34.0 13.435 13.435
v 42.0 13.435 13.435
v 34.0 19.0 0.0
v 42.0 13.435 13.435
v 42.0 19.0 0.0
v 34.0 13.435 13.435
v 34.0 0.0 19.0
v 42.0 0.0 19.0
v 34.0 13.435 13.435
v 42.0 0.0 19.0
v 42.0 13.435 13.435
v 34.0 0.0 19.0
v 34.0 -13.435 13.435
v 42.0 -13.435 13.435
v 34.0 0.0 19.0
v 42.0 -13.435 13.435
v 42.0 0.0 19.0
v 34.0 -13.435 13.435
v 34.0 -19.0 0.0
v 42.0 -19.0 0.0
v 34.0 -13.435 13.435
v 42.0 -19.0 0.0
v 42.0 -13.435 13.435
v 34.0 -19.0 0.0
v 34.0 -13.435 -13.435
v 42.0 -13.435 -13.435
v 34.0 -19.0 0.0
v 42.0 -13.435 -13.435
v 42.0 -19.0 0.0
v 34.0 -13.435 -13.435
v 34.0 0.0 -19.0
v 42.0 0.0 -19.0
v 34.0 -13.435 -13.435
v 42.0 0.0 -19.0
v 42.0 -13.435 -13.435
v 34.0 0.0 -19.0
v 34.0 13.435 -13.435
v 42.0 13.435 -13.435
v 34.0 0.0 -19.0
v 42.0 13.435 -13.435
v 42.0 0.0 -19.0
v 34.0 13.435 -13.435
v 34.0 19.0 0.0
v 42.0 19.0 0.0
v 34.0 13.435 -13.435
v 42.0 19.0 0.0
v 42.0 13.435 -13.435
v 34.0 13.435 -13.435
v 34.0 0.0 -19.0
v 34.0 -13.435 -13.435
v 34.0 13.435 -13.435
v 34.0 -13.435 -13.435
v 34.0 -19.0 0.0
v 34.0 13.435 -13.435
v 34.0 -19.0 0.0
v 34.0 -13.435 13.435
v 34.0 13.435 -13.435
v 34.0 -13.435 13.435
v 34.0 0.0 19.0
v 34.0 13.435 -13.435
v 34.0 0.0 19.0
v 34.0 13.435 13.435
v 34.0 13.435 -13.435
v 34.0 13.435 13.435
v 34.0 19.0 0.0
v 42.0 19.0 0.0
v 42.0 13.435 13.435
v 42.0 0.0 19.0
v 42.0 19.0 0.0
v 42.0 0.0 19.0
v 42.0 -13.435 13.435
v 42.0 19.0 0.0
v 42.0 -13.435 13.435
v 42.0 -19.0 0.0
v 42.0 19.0 0.0
v 42.0 -19.0 0.0
v 42.0 -13.435 -13.435
v 42.0 19.0 0.0
v 42.0 -13.435 -13.435
v 42.0 0.0 -19.0
v 42.0 19.0 0.0
v 42.0 0.0 -19.0
v 42.0 13.435 -13.435
v 46.0 21.0 0.0
v 46.0 14.8492 14.8492
v 58.0 14.8492 14.8492
v 46.0 21.0 0.0
v 58.0 14.8492 14.8492
v 58.0 21.0 0.0
v 46.0 14.8492 14.8492
v 46.0 0.0 21.0
v 58.0 0.0 21.0
v 46.0 14.8492 14.8492
v 58.0 0.0 21.0
v 58.0 14.8492 14.8492
v 46.0 0.0 21.0
v 46.0 -14.8492 14.8492
v 58.0 -14.8492 14.8492
v 46.0 0.0 21.0
v 58.0 -14.8492 14.8492
v 58.0 0.0 21.0
v 46.0 -14.8492 14.8492
v 46.0 -21.0 0.0
v 58.0 -21.0 0.0
v 46.0 -14.8492 14.8492
v 58.0 -21.0 0.0
v 58.0 -14.8492 14.8492
v 46.0 -21.0 0.0
v 46.0 -14.8492 -14.8492
v 58.0 -14.8492 -14.8492
v 46.0 -21.0 0.0
v 58.0 -14.8492 -14.8492
v 58.0 -21.0 0.0
v 46.0 -14.8492 -14.8492
v 46.0 0.0 -21.0
v 58.0 0.0 -21.0
v 46.0 -14.8492 -14.8492
v 58.0 0.0 -21.0
v 58.0 -14.8492 -14.8492
v 46.0 0.0 -21.0
v 46.0 14.8492 -14.8492
v 58.0 14.8492 -14.8492
v 46.0 0.0 -21.0
v 58.0 14.8492 -14.8492
v 58.0 0.0 -21.0
v 46.0 14.8492 -14.8492
v 46.0 21.0 0.0
v 58.0 21.0 0.0
v 46.0 14.8492 -14.8492
v 58.0 21.0 0.0
v 58.0 14.8492 -14.8492
v 46.0 14.8492 -14.8492
v 46.0 0.0 -21.0
v 46.0 -14.8492 -14.8492
v 46.0 14.8492 -14.8492
v 46.0 -14.8492 -14.8492
v 46.0 -21.0 0.0
v 46.0 14.8492 -14.8492
v 46.0 -21.0 0.0
v 46.0 -14.8492 14.8492
v 46.0 14.8492 -14.8492
v 46.0 -14.8492 14.8492
v 46.0 0.0 21.0
v 46.0 14.8492 -14.8492
v 46.0 0.0 21.0
v 46.0 14.8492 14.8492
v 46.0 14.8492 -14.8492
v 46.0 14.8492 14.8492
v 46.0 21.0 0.0
v 58.0 21.0 0.0
v 58.0 14.8492 14.8492
v 58.0 0.0 21.0
v 58.0 21.0 0.0
v 58.0 0.0 21.0
v 58.0 -14.8492 14.8492
v 58.0 21.0 0.0
v 58.0 -14.8492 14.8492
v 58.0 -21.0 0.0
v 58.0 21.0 0.0
v 58.0 -21.0 0.0
v 58.0 -14.8492 -14.8492
v 58.0 21.0 0.0
v 58.0 -14.8492 -14.8492
v 58.0 0.0 -21.0
v 58.0 21.0 0.0
v 58.0 0.0 -21.0
v 58.0 14.8492 -14.8492
v 31.0 -2.5 16.0
v 31.0 2.5 16.0
v 31.0 2.5 18.0
v 31.0 -2.5 16.0
v 31.0 2.5 18.0
v 31.0 -2.5 18.0
v 19.0 -2.5 16.0
v 19.0 -2.5 18.0
v 19.0 2.5 18.0
v 19.0 -2.5 16.0
v 19.0 2.5 18.0
v 19.0 2.5 16.0
v 19.0 2.5 16.0
v 19.0 2.5 18.0
v 31.0 2.5 18.0
v 19.0 2.5 16.0
v 31.0 2.5 18.0
v 31.0 2.5 16.0
v 19.0 -2.5 16.0
v 31.0 -2.5 16.0
v 31.0 -2.5 18.0
v 19.0 -2.5 16.0
v 31.0 -2.5 18.0
v 19.0 -2.5 18.0
v 19.0 -2.5 18.0
v 31.0 -2.5 18.0
v 31.0 2.5 18.0
v 19.0 -2.5 18.0
v 31.0 2.5 18.0
v 19.0 2.5 18.0
vt 0.708 0.0527
vt 0.708 0.0605
vt 0.7412 0.0605
vt 0.708 0.0527
vt 0.7412 0.0605
vt 0.7412 0.0527
vt 0.6338 0.0527
vt 0.6338 0.0605
vt 0.667 0.0605
vt 0.6338 0.0527
vt 0.667 0.0605
vt 0.667 0.0527
vt 0.5596 0.0527
vt 0.5596 0.0605
vt 0.5928 0.0605
vt 0.5596 0.0527
vt 0.5928 0.0605
vt 0.5928 0.0527
vt 0.5186 0.0605
vt 0.5186 0.0527
vt 0.4854 0.0527
vt 0.5186 0.0605
vt 0.4854 0.0527
vt 0.4854 0.0605
vt 0.4814 0.0605
vt 0.4814 0.0527
vt 0.4482 0.0527
vt 0.4814 0.0605
vt 0.4482 0.0527
vt 0.4482 0.0605
vt 0.5557 0.0605
vt 0.5557 0.0527
vt 0.5225 0.0527
vt 0.5557 0.0605
vt 0.5225 0.0527
vt 0.5225 0.0605
vt 0.6299 0.0605
vt 0.6299 0.0527
vt 0.5967 0.0527
vt 0.6299 0.0605
vt 0.5967 0.0527
vt 0.5967 0.0605
vt 0.6709 0.0527
vt 0.6709 0.0605
vt 0.7041 0.0605
vt 0.6709 0.0527
vt 0.7041 0.0605
vt 0.7041 0.0527
vt 0.3691 0.0518
vt 0.3691 0.0605
vt 0.374 0.0605
vt 0.3691 0.0518
vt 0.374 0.0605
vt 0.374 0.0518
vt 0.3516 0.0518
vt 0.3516 0.0605
vt 0.3564 0.0605
vt 0.3516 0.0518
vt 0.3564 0.0605
vt 0.3564 0.0518
vt 0.334 0.0518
vt 0.334 0.0605
vt 0.3389 0.0605
vt 0.334 0.0518
vt 0.3389 0.0605
vt 0.3389 0.0518
vt 0.3213 0.0605
vt 0.3213 0.0518
vt 0.3164 0.0518
vt 0.3213 0.0605
vt 0.3164 0.0518
vt 0.3164 0.0605
vt 0.3125 0.0605
vt 0.3125 0.0518
vt 0.3076 0.0518
vt 0.3125 0.0605
vt 0.3076 0.0518
vt 0.3076 0.0605
vt 0.3301 0.0605
vt 0.3301 0.0518
vt 0.3252 0.0518
vt 0.3301 0.0605
vt 0.3252 0.0518
vt 0.3252 0.0605
vt 0.3477 0.0605
vt 0.3477 0.0518
vt 0.3428 0.0518
vt 0.3477 0.0605
vt 0.3428 0.0518
vt 0.3428 0.0605
vt 0.3604 0.0518
vt 0.3604 0.0605
vt 0.3652 0.0605
vt 0.3604 0.0518
vt 0.3652 0.0605
vt 0.3652 0.0518
vt 0.0778 0.1576
vt 0.0698 0.1543
vt 0.0619 0.1576
vt 0.0778 0.1576
vt 0.0619 0.1576
vt 0.0586 0.1655
vt 0.0778 0.1576
vt 0.0586 0.1655
vt 0.0619 0.1735
vt 0.0778 0.1576
vt 0.0619 0.1735
vt 0.0698 0.1768
vt 0.0778 0.1576
vt 0.0698 0.1768
vt 0.0778 0.1735
vt 0.0778 0.1576
vt 0.0778 0.1735
vt 0.0811 0.1655
vt 0.085 0.1655
vt 0.0883 0.1735
vt 0.0962 0.1768
vt 0.085 0.1655
vt 0.0962 0.1768
vt 0.1041 0.1735
vt 0.085 0.1655
vt 0.1041 0.1735
vt 0.1074 0.1655
vt 0.085 0.1655
vt 0.1074 0.1655
vt 0.1041 0.1576
vt 0.085 0.1655
vt 0.1041 0.1576
vt 0.0962 0.1543
vt 0.085 0.1655
vt 0.0962 0.1543
vt 0.0883 0.1576
vt 0.4395 0.0518
vt 0.4395 0.0605
vt 0.4443 0.0605
vt 0.4395 0.0518
vt 0.4443 0.0605
vt 0.4443 0.0518
vt 0.4219 0.0518
vt 0.4219 0.0605
vt 0.4268 0.0605
vt 0.4219 0.0518
vt 0.4268 0.0605
vt 0.4268 0.0518
vt 0.4043 0.0518
vt 0.4043 0.0605
vt 0.4092 0.0605
vt 0.4043 0.0518
vt 0.4092 0.0605
vt 0.4092 0.0518
vt 0.3916 0.0605
vt 0.3916 0.0518
vt 0.3867 0.0518
vt 0.3916 0.0605
vt 0.3867 0.0518
vt 0.3867 0.0605
vt 0.3828 0.0605
vt 0.3828 0.0518
vt 0.3779 0.0518
vt 0.3828 0.0605
vt 0.3779 0.0518
vt 0.3779 0.0605
vt 0.4004 0.0605
vt 0.4004 0.0518
vt 0.3955 0.0518
vt 0.4004 0.0605
vt 0.3955 0.0518
vt 0.3955 0.0605
vt 0.418 0.0605
vt 0.418 0.0518
vt 0.4131 0.0518
vt 0.418 0.0605
vt 0.4131 0.0518
vt 0.4131 0.0605
vt 0.4307 0.0518
vt 0.4307 0.0605
vt 0.4355 0.0605
vt 0.4307 0.0518
vt 0.4355 0.0605
vt 0.4355 0.0518
vt 0.1305 0.1576
vt 0.1226 0.1543
vt 0.1146 0.1576
vt 0.1305 0.1576
vt 0.1146 0.1576
vt 0.1113 0.1655
vt 0.1305 0.1576
vt 0.1113 0.1655
vt 0.1146 0.1735
vt 0.1305 0.1576
vt 0.1146 0.1735
vt 0.1226 0.1768
vt 0.1305 0.1576
vt 0.1226 0.1768
vt 0.1305 0.1735
vt 0.1305 0.1576
vt 0.1305 0.1735
vt 0.1338 0.1655
vt 0.1377 0.1655
vt 0.141 0.1735
vt 0.1489 0.1768
vt 0.1377 0.1655
vt 0.1489 0.1768
vt 0.1569 0.1735
vt 0.1377 0.1655
vt 0.1569 0.1735
vt 0.1602 0.1655
vt 0.1377 0.1655
vt 0.1602 0.1655
vt 0.1569 0.1576
vt 0.1377 0.1655
vt 0.1569 0.1576
vt 0.1489 0.1543
vt 0.1377 0.1655
vt 0.1489 0.1543
vt 0.141 0.1576
vt 0.9443 0.0654
vt 0.9443 0.0752
vt 0.9521 0.0752
vt 0.9443 0.0654
vt 0.9521 0.0752
vt 0.9521 0.0654
vt 0.9209 0.0654
vt 0.9209 0.0752
vt 0.9287 0.0752
vt 0.9209 0.0654
vt 0.9287 0.0752
vt 0.9287 0.0654
vt 0.8975 0.0654
vt 0.8975 0.0752
vt 0.9053 0.0752
vt 0.8975 0.0654
vt 0.9053 0.0752
vt 0.9053 0.0654
vt 0.8818 0.0752
vt 0.8818 0.0654
vt 0.874 0.0654
vt 0.8818 0.0752
vt 0.874 0.0654
vt 0.874 0.0752
vt 0.8701 0.0752
vt 0.8701 0.0654
vt 0.8623 0.0654
vt 0.8701 0.0752
vt 0.8623 0.0654
vt 0.8623 0.0752
vt 0.8936 0.0752
vt 0.8936 0.0654
vt 0.8857 0.0654
vt 0.8936 0.0752
vt 0.8857 0.0654
vt 0.8857 0.0752
vt 0.917 0.0752
vt 0.917 0.0654
vt 0.9092 0.0654
vt 0.917 0.0752
vt 0.9092 0.0654
vt 0.9092 0.0752
vt 0.9326 0.0654
vt 0.9326 0.0752
vt 0.9404 0.0752
vt 0.9326 0.0654
vt 0.9404 0.0752
vt 0.9404 0.0654
vt 0.7736 0.1854
vt 0.7646 0.1816
vt 0.7557 0.1854
vt 0.7736 0.1854
vt 0.7557 0.1854
vt 0.752 0.1943
vt 0.7736 0.1854
vt 0.752 0.1943
vt 0.7557 0.2033
vt 0.7736 0.1854
vt 0.7557 0.2033
vt 0.7646 0.207
vt 0.7736 0.1854
vt 0.7646 0.207
vt 0.7736 0.2033
vt 0.7736 0.1854
vt 0.7736 0.2033
vt 0.7773 0.1943
vt 0.7812 0.1943
vt 0.785 0.2033
vt 0.7939 0.207
vt 0.7812 0.1943
vt 0.7939 0.207
vt 0.8029 0.2033
vt 0.7812 0.1943
vt 0.8029 0.2033
vt 0.8066 0.1943
vt 0.7812 0.1943
vt 0.8066 0.1943
vt 0.8029 0.1854
vt 0.7812 0.1943
vt 0.8029 0.1854
vt 0.7939 0.1816
vt 0.7812 0.1943
vt 0.7939 0.1816
vt 0.785 0.1854
vt 0.1895 0.0156
vt 0.1855 0.0156
vt 0.1855 0.0195
vt 0.1895 0.0156
vt 0.1855 0.0195
vt 0.1895 0.0195
vt 0.1777 0.0156
vt 0.1777 0.0195
vt 0.1816 0.0195
vt 0.1777 0.0156
vt 0.1816 0.0195
vt 0.1816 0.0156
vt 0.166 0.0156
vt 0.166 0.0195
vt 0.1738 0.0195
vt 0.166 0.0156
vt 0.1738 0.0195
vt 0.1738 0.0156
vt 0.1504 0.0156
vt 0.1426 0.0156
vt 0.1426 0.0195
vt 0.1504 0.0156
vt 0.1426 0.0195
vt 0.1504 0.0195
vt 0.1543 0.0195
vt 0.1621 0.0195
vt 0.1621 0.0156
vt 0.1543 0.0195
vt 0.1621 0.0156
vt 0.1543 0.0156
vn 0.0 0.9239 0.3827
vn 0.0 0.9239 0.3827
vn 0.0 0.9239 0.3827
vn 0.0 0.9239 0.3827
vn 0.0 0.9239 0.3827
vn 0.0 0.9239 0.3827
vn 0.0 0.3827 0.9239
vn 0.0 0.3827 0.9239
vn 0.0 0.3827 0.9239
vn 0.0 0.3827 0.9239
vn 0.0 0.3827 0.9239
vn 0.0 0.3827 0.9239
vn 0.0 -0.3827 0.9239
vn 0.0 -0.3827 0.9239
vn 0.0 -0.3827 0.9239
vn 0.0 -0.3827 0.9239
vn 0.0 -0.3827 0.9239
vn 0.0 -0.3827 0.9239
vn 0.0 -0.9239 0.3827
vn 0.0 -0.9239 0.3827
vn 0.0 -0.9239 0.3827
vn 0.0 -0.9239 0.3827
vn 0.0 -0.9239 0.3827
vn 0.0 -0.9239 0.3827
vn 0.0 -0.9239 -0.3827
vn 0.0 -0.9239 -0.3827
vn 0.0 -0.9239 -0.3827
vn 0.0 -0.9239 -0.3827
vn 0.0 -0.9239 -0.3827
vn 0.0 -0.9239 -0.3827
vn 0.0 -0.3827 -0.9239
vn 0.0 -0.3827 -0.9239
vn 0.0 -0.3827 -0.9239
vn 0.0 -0.3827 -0.9239
vn 0.0 -0.3827 -0.9239
vn 0.0 -0.3827 -0.9239
vn 0.0 0.3827 -0.9239
vn 0.0 0.3827 -0.9239
vn 0.0 0.3827 -0.9239
vn 0.0 0.3827 -0.9239
vn 0.0 0.3827 -0.9239
vn 0.0 0.3827 -0.9239
vn 0.0 0.9239 -0.3827
vn 0.0 0.9239 -0.3827
vn 0.0 0.9239 -0.3827
vn 0.0 0.9239 -0.3827
vn 0.0 0.9239 -0.3827
vn 0.0 0.9239 -0.3827
vn 0.0 0.9239 0.3827
vn 0.0 0.9239 0.3827
vn 0.0 0.9239 0.3827
vn 0.0 0.9239 0.3827
vn 0.0 0.9239 0.3827
vn 0.0 0.9239 0.3827
vn 0.0 0.3827 0.9239
vn 0.0 0.3827 0.9239
vn 0.0 0.3827 0.9239
vn 0.0 0.3827 0.9239
vn 0.0 0.3827 0.9239
vn 0.0 0.3827 0.9239
vn 0.0 -0.3827 0.9239
vn 0.0 -0.3827 0.9239
vn 0.0 -0.3827 0.9239
vn 0.0 -0.3827 0.9239
vn 0.0 -0.3827 0.9239
vn 0.0 -0.3827 0.9239
vn 0.0 -0.9239 0.3827
vn 0.0 -0.9239 0.3827
vn 0.0 -0.9239 0.3827
vn 0.0 -0.9239 0.3827
vn 0.0 -0.9239 0.3827
vn 0.0 -0.9239 0.3827
vn 0.0 -0.9239 -0.3827
vn 0.0 -0.9239 -0.3827
vn 0.0 -0.9239 -0.3827
vn 0.0 -0.9239 -0.3827
vn 0.0 -0.9239 -0.3827
vn 0.0 -0.9239 -0.3827
vn 0.0 -0.3827 -0.9239
vn 0.0 -0.3827 -0.9239
vn 0.0 -0.3827 -0.9239
vn 0.0 -0.3827 -0.9239
vn 0.0 -0.3827 -0.9239
vn 0.0 -0.3827 -0.9239
vn 0.0 0.3827 -0.9239
vn 0.0 0.3827 -0.9239
vn 0.0 0.3827 -0.9239
vn 0.0 0.3827 -0.9239
vn 0.0 0.3827 -0.9239
vn 0.0 0.3827 -0.9239
vn 0.0 0.9239 -0.3827
vn 0.0 0.9239 -0.3827
vn 0.0 0.9239 -0.3827
vn 0.0 0.9239 -0.3827
vn 0.0 0.9239 -0.3827
vn 0.0 0.9239 -0.3827
vn -1.0 0.0 0.0
vn -1.0 0.0 0.0
vn -1.0 0.0 0.0
vn -1.0 0.0 0.0
vn -1.0 0.0 0.0
vn -1.0 0.0 0.0
vn -1.0 0.0 0.0
vn -1.0 0.0 0.0
vn -1.0 0.0 0.0
vn -1.0 0.0 0.0
vn -1.0 0.0 0.0
vn -1.0 0.0 0.0
vn -1.0 0.0 0.0
vn -1.0 0.0 0.0
vn -1.0 0.0 0.0
vn -1.0 0.0 0.0
vn -1.0 0.0 0.0
vn -1.0 0.0 0.0
vn 1.0 0.0 0.0
vn 1.0 0.0 0.0
vn 1.0 0.0 0.0
vn 1.0 0.0 0.0
vn 1.0 0.0 0.0
vn 1.0 0.0 0.0
vn 1.0 0.0 0.0
vn 1.0 0.0 0.0
vn 1.0 0.0 0.0
vn 1.0 0.0 0.0
vn 1.0 0.0 0.0
vn 1.0 0.0 0.0
vn 1.0 0.0 0.0
vn 1.0 0.0 0.0
vn 1.0 0.0 0.0
vn 1.0 0.0 0.0
vn 1.0 0.0 0.0
vn 1.0 0.0 0.0
vn 0.0 0.9239 0.3827
vn 0.0 0.9239 0.3827
vn 0.0 0.9239 0.3827
vn 0.0 0.9239 0.3827
vn 0.0 0.9239 0.3827
vn 0.0 0.9239 0.3827
vn 0.0 0.3827 0.9239
vn 0.0 0.3827 0.9239
vn 0.0 0.3827 0.9239
vn 0.0 0.3827 0.9239
vn 0.0 0.3827 0.9239
vn 0.0 0.3827 0.9239
vn 0.0 -0.3827 0.9239
vn 0.0 -0.3827 0.9239
vn 0.0 -0.3827 0.9239
vn 0.0 -0.3827 0.9239
vn 0.0 -0.3827 0.9239
vn 0.0 -0.3827 0.9239
vn 0.0 -0.9239 0.3827
vn 0.0 -0.9239 0.3827
vn 0.0 -0.9239 0.3827
vn 0.0 -0.9239 0.3827
vn 0.0 -0.9239 0.3827
vn 0.0 -0.9239 0.3827
vn 0.0 -0.9239 -0.3827
vn 0.0 -0.9239 -0.3827
vn 0.0 -0.9239 -0.3827
vn 0.0 -0.9239 -0.3827
vn 0.0 -0.9239 -0.3827
vn 0.0 -0.9239 -0.3827
vn 0.0 -0.3827 -0.9239
vn 0.0 -0.3827 -0.9239
vn 0.0 -0.3827 -0.9239
vn 0.0 -0.3827 -0.9239
vn 0.0 -0.3827 -0.9239
vn 0.0 -0.3827 -0.9239
vn 0.0 0.3827 -0.9239
vn 0.0 0.3827 -0.9239
vn 0.0 0.3827 -0.9239
vn 0.0 0.3827 -0.9239
vn 0.0 0.3827 -0.9239
vn 0.0 0.3827 -0.9239
vn 0.0 0.9239 -0.3827
vn 0.0 0.9239 -0.3827
vn 0.0 0.9239 -0.3827
vn 0.0 0.9239 -0.3827
vn 0.0 0.9239 -0.3827
vn 0.0 0.9239 -0.3827
vn -1.0 0.0 0.0
vn -1.0 0.0 0.0
vn -1.0 0.0 0.0
vn -1.0 0.0 0.0
vn -1.0 0.0 0.0
vn -1.0 0.0 0.0
vn -1.0 0.0 0.0
vn -1.0 0.0 0.0
vn -1.0 0.0 0.0
vn -1.0 0.0 0.0
vn -1.0 0.0 0.0
vn -1.0 0.0 0.0
vn -1.0 0.0 0.0
vn -1.0 0.0 0.0
vn -1.0 0.0 0.0
vn -1.0 0.0 0.0
vn -1.0 0.0 0.0
vn -1.0 0.0 0.0
vn 1.0 0.0 0.0
vn 1.0 0.0 0.0
vn 1.0 0.0 0.0
vn 1.0 0.0 0.0
vn 1.0 0.0 0.0
vn 1.0 0.0 0.0
vn 1.0 0.0 0.0
vn 1.0 0.0 0.0
vn 1.0 0.0 0.0
vn 1.0 0.0 0.0
vn 1.0 0.0 0.0
vn 1.0 0.0 0.0
vn 1.0 0.0 0.0
vn 1.0 0.0 0.0
vn 1.0 0.0 0.0
vn 1.0 0.0 0.0
vn 1.0 0.0 0.0
vn 1.0 0.0 0.0
vn 0.0 0.9239 0.3827
vn 0.0 0.9239 0.3827
vn 0.0 0.9239 0.3827
vn 0.0 0.9239 0.3827
vn 0.0 0.9239 0.3827
vn 0.0 0.9239 0.3827
vn 0.0 0.3827 0.9239
vn 0.0 0.3827 0.9239
vn 0.0 0.3827 0.9239
vn 0.0 0.3827 0.9239
vn 0.0 0.3827 0.9239
vn 0.0 0.3827 0.9239
vn 0.0 -0.3827 0.9239
vn 0.0 -0.3827 0.9239
vn 0.0 -0.3827 0.9239
vn 0.0 -0.3827 0.9239
vn 0.0 -0.3827 0.9239
vn 0.0 -0.3827 0.9239
vn 0.0 -0.9239 0.3827
vn 0.0 -0.9239 0.3827
vn 0.0 -0.9239 0.3827
vn 0.0 -0.9239 0.3827
vn 0.0 -0.9239 0.3827
vn 0.0 -0.9239 0.3827
vn 0.0 -0.9239 -0.3827
vn 0.0 -0.9239 -0.3827
vn 0.0 -0.9239 -0.3827
vn 0.0 -0.9239 -0.3827
vn 0.0 -0.9239 -0.3827
vn 0.0 -0.9239 -0.3827
vn 0.0 -0.3827 -0.9239
vn 0.0 -0.3827 -0.9239
vn 0.0 -0.3827 -0.9239
vn 0.0 -0.3827 -0.9239
vn 0.0 -0.3827 -0.9239
vn 0.0 -0.3827 -0.9239
vn 0.0 0.3827 -0.9239
vn 0.0 0.3827 -0.9239
vn 0.0 0.3827 -0.9239
vn 0.0 0.3827 -0.9239
vn 0.0 0.3827 -0.9239
vn 0.0 0.3827 -0.9239
vn 0.0 0.9239 -0.3827
vn 0.0 0.9239 -0.3827
vn 0.0 0.9239 -0.3827
vn 0.0 0.9239 -0.3827
vn 0.0 0.9239 -0.3827
vn 0.0 0.9239 -0.3827
vn -1.0 0.0 0.0
vn -1.0 0.0 0.0
vn -1.0 0.0 0.0
vn -1.0 0.0 0.0
vn -1.0 0.0 0.0
vn -1.0 0.0 0.0
vn -1.0 0.0 0.0
vn -1.0 0.0 0.0
vn -1.0 0.0 0.0
vn -1.0 0.0 0.0
vn -1.0 0.0 0.0
vn -1.0 0.0 0.0
vn -1.0 0.0 0.0
vn -1.0 0.0 0.0
vn -1.0 0.0 0.0
vn -1.0 0.0 0.0
vn -1.0 0.0 0.0
vn -1.0 0.0 0.0
vn 1.0 0.0 0.0
vn 1.0 0.0 0.0
vn 1.0 0.0 0.0
vn 1.0 0.0 0.0
vn 1.0 0.0 0.0
vn 1.0 0.0 0.0
vn 1.0 0.0 0.0
vn 1.0 0.0 0.0
vn 1.0 0.0 0.0
vn 1.0 0.0 0.0
vn 1.0 0.0 0.0
vn 1.0 0.0 0.0
vn 1.0 0.0 0.0
vn 1.0 0.0 0.0
vn 1.0 0.0 0.0
vn 1.0 0.0 0.0
vn 1.0 0.0 0.0
vn 1.0 0.0 0.0
vn 1.0 0.0 0.0
vn 1.0 0.0 0.0
vn 1.0 0.0 0.0
vn 1.0 0.0 0.0
vn 1.0 0.0 0.0
vn 1.0 0.0 0.0
vn -1.0 0.0 0.0
vn -1.0 0.0 0.0
vn -1.0 0.0 0.0
vn -1.0 0.0 0.0
vn -1.0 0.0 0.0
vn -1.0 0.0 0.0
vn 0.0 1.0 0.0
vn 0.0 1.0 0.0
vn 0.0 1.0 0.0
vn 0.0 1.0 0.0
vn 0.0 1.0 0.0
vn 0.0 1.0 0.0
vn 0.0 -1.0 0.0
vn 0.0 -1.0 0.0
vn 0.0 -1.0 0.0
vn 0.0 -1.0 0.0
vn 0.0 -1.0 0.0
vn 0.0 -1.0 0.0
vn 0.0 0.0 1.0
vn 0.0 0.0 1.0
vn 0.0 0.0 1.0
vn 0.0 0.0 1.0
vn 0.0 0.0 1.0
vn 0.0 0.0 1.0
g conduit_jacket
usemtl MI_EBS_MER_CompactFrame
f 1/1/1 2/2/2 3/3/3
f 4/4/4 5/5/5 6/6/6
f 7/7/7 8/8/8 9/9/9
f 10/10/10 11/11/11 12/12/12
f 13/13/13 14/14/14 15/15/15
f 16/16/16 17/17/17 18/18/18
f 19/19/19 20/20/20 21/21/21
f 22/22/22 23/23/23 24/24/24
f 25/25/25 26/26/26 27/27/27
f 28/28/28 29/29/29 30/30/30
f 31/31/31 32/32/32 33/33/33
f 34/34/34 35/35/35 36/36/36
f 37/37/37 38/38/38 39/39/39
f 40/40/40 41/41/41 42/42/42
f 43/43/43 44/44/44 45/45/45
f 46/46/46 47/47/47 48/48/48
g conduit_clamp_ring
usemtl MI_EBS_MER_CeramicCivic
f 49/49/49 50/50/50 51/51/51
f 52/52/52 53/53/53 54/54/54
f 55/55/55 56/56/56 57/57/57
f 58/58/58 59/59/59 60/60/60
f 61/61/61 62/62/62 63/63/63
f 64/64/64 65/65/65 66/66/66
f 67/67/67 68/68/68 69/69/69
f 70/70/70 71/71/71 72/72/72
f 73/73/73 74/74/74 75/75/75
f 76/76/76 77/77/77 78/78/78
f 79/79/79 80/80/80 81/81/81
f 82/82/82 83/83/83 84/84/84
f 85/85/85 86/86/86 87/87/87
f 88/88/88 89/89/89 90/90/90
f 91/91/91 92/92/92 93/93/93
f 94/94/94 95/95/95 96/96/96
f 97/97/97 98/98/98 99/99/99
f 100/100/100 101/101/101 102/102/102
f 103/103/103 104/104/104 105/105/105
f 106/106/106 107/107/107 108/108/108
f 109/109/109 110/110/110 111/111/111
f 112/112/112 113/113/113 114/114/114
f 115/115/115 116/116/116 117/117/117
f 118/118/118 119/119/119 120/120/120
f 121/121/121 122/122/122 123/123/123
f 124/124/124 125/125/125 126/126/126
f 127/127/127 128/128/128 129/129/129
f 130/130/130 131/131/131 132/132/132
f 133/133/133 134/134/134 135/135/135
f 136/136/136 137/137/137 138/138/138
f 139/139/139 140/140/140 141/141/141
f 142/142/142 143/143/143 144/144/144
f 145/145/145 146/146/146 147/147/147
f 148/148/148 149/149/149 150/150/150
f 151/151/151 152/152/152 153/153/153
f 154/154/154 155/155/155 156/156/156
f 157/157/157 158/158/158 159/159/159
f 160/160/160 161/161/161 162/162/162
f 163/163/163 164/164/164 165/165/165
f 166/166/166 167/167/167 168/168/168
f 169/169/169 170/170/170 171/171/171
f 172/172/172 173/173/173 174/174/174
f 175/175/175 176/176/176 177/177/177
f 178/178/178 179/179/179 180/180/180
f 181/181/181 182/182/182 183/183/183
f 184/184/184 185/185/185 186/186/186
f 187/187/187 188/188/188 189/189/189
f 190/190/190 191/191/191 192/192/192
f 193/193/193 194/194/194 195/195/195
f 196/196/196 197/197/197 198/198/198
f 199/199/199 200/200/200 201/201/201
f 202/202/202 203/203/203 204/204/204
f 205/205/205 206/206/206 207/207/207
f 208/208/208 209/209/209 210/210/210
f 211/211/211 212/212/212 213/213/213
f 214/214/214 215/215/215 216/216/216
g conduit_end_nut
f 217/217/217 218/218/218 219/219/219
f 220/220/220 221/221/221 222/222/222
f 223/223/223 224/224/224 225/225/225
f 226/226/226 227/227/227 228/228/228
f 229/229/229 230/230/230 231/231/231
f 232/232/232 233/233/233 234/234/234
f 235/235/235 236/236/236 237/237/237
f 238/238/238 239/239/239 240/240/240
f 241/241/241 242/242/242 243/243/243
f 244/244/244 245/245/245 246/246/246
f 247/247/247 248/248/248 249/249/249
f 250/250/250 251/251/251 252/252/252
f 253/253/253 254/254/254 255/255/255
f 256/256/256 257/257/257 258/258/258
f 259/259/259 260/260/260 261/261/261
f 262/262/262 263/263/263 264/264/264
f 265/265/265 266/266/266 267/267/267
f 268/268/268 269/269/269 270/270/270
f 271/271/271 272/272/272 273/273/273
f 274/274/274 275/275/275 276/276/276
f 277/277/277 278/278/278 279/279/279
f 280/280/280 281/281/281 282/282/282
f 283/283/283 284/284/284 285/285/285
f 286/286/286 287/287/287 288/288/288
f 289/289/289 290/290/290 291/291/291
f 292/292/292 293/293/293 294/294/294
f 295/295/295 296/296/296 297/297/297
f 298/298/298 299/299/299 300/300/300
g conduit_pulse_strip
usemtl MI_EBS_MER_StatusCyan
f 301/301/301 302/302/302 303/303/303
f 304/304/304 305/305/305 306/306/306
f 307/307/307 308/308/308 309/309/309
f 310/310/310 311/311/311 312/312/312
f 313/313/313 314/314/314 315/315/315
f 316/316/316 317/317/317 318/318/318
f 319/319/319 320/320/320 321/321/321
f 322/322/322 323/323/323 324/324/324
f 325/325/325 326/326/326 327/327/327
f 328/328/328 329/329/329 330/330/330
